<svg xmlns="http://www.w3.org/2000/svg" width="286.915" height="263.701" viewBox="0 0 286.915 263.701">
  <defs>
    <style>
      .cls-1 {
        fill: #3f3f46;
      }

      .cls-1, .cls-5, .cls-7 {
        fill-rule: evenodd;
      }

      .cls-2 {
        fill: #006fee;
      }

      .cls-3 {
        fill: #f5a524;
      }

      .cls-4 {
        fill: #f31260;
      }

      .cls-5, .cls-6 {
        fill: #18181b;
      }

      .cls-7 {
        fill: #9353d3;
      }

      .cls-8 {
        fill: none;
        stroke: #18181b;
        stroke-width: 3.6px;
      }

      .cls-9 {
        fill: #27272a;
      }
    </style>
  </defs>
  <g id="Attendance-Not-Marked" transform="translate(-17 -43)">
    <path id="Path_362" data-name="Path 362" class="cls-1" d="M242.211,125.195c30.612,37.859,64.783,73.325,61.482,105.295-3.236,31.906-44.073,60.317-83.162,71.061-39.154,10.678-76.561,3.688-114.551-11.2-37.924-14.82-76.431-37.536-86.333-69.895-9.837-32.294,8.93-74.3,36.695-111.509C84.106,71.8,120.865,39.379,152.707,43.327c31.9,3.883,58.893,44.072,89.5,81.868Z"/>
    <circle id="Ellipse_94" data-name="Ellipse 94" class="cls-2" cx="3" cy="3" r="3" transform="translate(37.994 237.428)"/>
    <circle id="Ellipse_95" data-name="Ellipse 95" class="cls-3" cx="5" cy="5" r="5" transform="translate(145.994 67.428)"/>
    <circle id="Ellipse_96" data-name="Ellipse 96" class="cls-4" cx="5" cy="5" r="5" transform="translate(238.994 280.428)"/>
    <path id="Path_363" data-name="Path 363" class="cls-5" d="M180.843,118.461a1.5,1.5,0,0,0,1.94.858q2.162-.838,4.369-1.553a1.5,1.5,0,0,0-.925-2.854q-2.285.741-4.526,1.609a1.5,1.5,0,0,0-.858,1.94Zm13.5-4.215a1.5,1.5,0,0,0,1.765,1.177,74.2,74.2,0,0,1,9.161-1.245,1.5,1.5,0,0,0-.215-2.993,77.349,77.349,0,0,0-9.533,1.3,1.5,1.5,0,0,0-1.178,1.765Zm18.754-1.708a1.5,1.5,0,0,0,1.4,1.592,62.249,62.249,0,0,1,9.123,1.253,1.5,1.5,0,0,0,.63-2.933,65.248,65.248,0,0,0-9.563-1.314A1.5,1.5,0,0,0,213.1,112.538Zm18.474,3.541a1.5,1.5,0,0,0,.849,1.944,52.652,52.652,0,0,1,8.215,4.068,1.5,1.5,0,1,0,1.562-2.561,55.636,55.636,0,0,0-8.682-4.3A1.5,1.5,0,0,0,231.575,116.079Zm16.3,9.349a1.5,1.5,0,0,0,.119,2.118,50.438,50.438,0,0,1,6.161,6.589,1.5,1.5,0,1,0,2.366-1.844,53.415,53.415,0,0,0-6.528-6.982,1.5,1.5,0,0,0-2.118.119ZM259.6,139.567a1.5,1.5,0,0,0-.625,2.027,52.424,52.424,0,0,1,3.466,8.19,1.5,1.5,0,0,0,2.851-.934,55.454,55.454,0,0,0-3.665-8.657,1.5,1.5,0,0,0-2.027-.626Zm6.171,17.164a1.5,1.5,0,0,0-1.245,1.718,61.557,61.557,0,0,1,.753,8.9,1.5,1.5,0,1,0,3-.038,64.684,64.684,0,0,0-.79-9.335A1.5,1.5,0,0,0,265.77,156.731Zm.688,18.247a1.5,1.5,0,0,0-1.67,1.309,73,73,0,0,1-1.628,8.82,1.5,1.5,0,0,0,2.912.722,75.9,75.9,0,0,0,1.7-9.182A1.5,1.5,0,0,0,266.458,174.978ZM262.427,192.8a1.5,1.5,0,0,0-1.93.88,83.122,83.122,0,0,1-3.6,8.237,1.5,1.5,0,0,0,2.68,1.349,86.216,86.216,0,0,0,3.734-8.536,1.5,1.5,0,0,0-.88-1.93Zm-7.919,16.481a1.5,1.5,0,0,0-2.073.454q-1.215,1.9-2.525,3.733a1.5,1.5,0,1,0,2.442,1.743q1.353-1.9,2.61-3.858a1.5,1.5,0,0,0-.454-2.072Z"/>
    <rect id="Rectangle_208" data-name="Rectangle 208" class="cls-6" width="17.89" height="4.051" rx="2" transform="translate(77.64 213.49) rotate(169)"/>
    <rect id="Rectangle_209" data-name="Rectangle 209" class="cls-6" width="17.89" height="4.051" rx="2" transform="translate(76.552 202.476) rotate(-171)"/>
    <rect id="Rectangle_210" data-name="Rectangle 210" class="cls-6" width="17.89" height="4.051" rx="2" transform="matrix(-0.766, 0.643, -0.643, -0.766, 83.54, 222.382)"/>
    <path id="Path_364" data-name="Path 364" class="cls-5" d="M54.119,117.67a40.3,40.3,0,0,1,80.293-7.025,1.8,1.8,0,1,1-3.586.314,36.7,36.7,0,1,0-53.058,35.872,1.8,1.8,0,1,1-1.615,3.217A40.1,40.1,0,0,1,54.119,117.67Z"/>
    <path id="Path_365" data-name="Path 365" class="cls-5" d="M66.992,116.4a26.8,26.8,0,1,1,53.395-4.672,1.8,1.8,0,1,1-3.586.314,23.2,23.2,0,1,0-46.223,4.044A23.661,23.661,0,0,0,83.31,135.135a1.8,1.8,0,0,1-1.643,3.2A27.26,27.26,0,0,1,66.992,116.4Z"/>
    <path id="Path_366" data-name="Path 366" class="cls-7" d="M93.916,115.934l20.469,50.581-.256.1,7.74,21.292q-10.167-9.683-14.624-12.847c-4.458-3.163-9.89-2.382-12.54,1.852q-2.65,4.233,1.39,10.427,15.525,12.325,34.258,29.841t45.476,10.984q33.271-14.294,25.96-43.956l-14.026-34.932c-.255-.015-.511-.03-.77-.042l-8.379-21.036a8.451,8.451,0,0,0-11.045-4.785,8.657,8.657,0,0,0-4.668,11.225l6.321,15.869q-.664.108-1.341.223l-9-22.236a8.61,8.61,0,0,0-15.97,6.442l7.93,19.6q-1.265.338-2.555.7l-10.413-25.73a8.61,8.61,0,0,0-15.97,6.442l9.863,24.373-1.159.39-20.723-51.208a8.61,8.61,0,0,0-15.97,6.442ZM217.4,230.777l-6.072-12.531a6.5,6.5,0,0,0-8.707-3.026L163.141,234.6a6.575,6.575,0,0,0-2.992,8.768l6.073,12.531a6.494,6.494,0,0,0,8.706,3.026l39.482-19.381a6.574,6.574,0,0,0,2.991-8.768Z"/>
    <path id="Path_367" data-name="Path 367" class="cls-5" d="M100.4,111.959a6.741,6.741,0,1,0-12.492,5.07L108.4,167.9a1.8,1.8,0,0,1,.115.912l7.487,20.535a1.8,1.8,0,0,1-2.93,1.923c-6.816-6.466-11.63-10.668-14.5-12.7-3.79-2.678-8.023-1.87-10.045,1.346-1.208,1.921-1.158,4.519,1.22,8.257q15.583,12.339,34.308,29.78c12.036,11.209,26.591,14.768,43.918,10.586,10.868-4.676,18.205-10.505,22.278-17.373,4.048-6.824,5.008-14.9,2.69-24.384l-13.754-34.144a1.794,1.794,0,0,1-.539-.728l-8.412-20.882a6.742,6.742,0,1,0-12.493,5.071l6.3,15.648a1.8,1.8,0,0,1-1.39,2.451q-1.05.165-2.13.352a1.8,1.8,0,0,1-1.977-1.1L149.63,131.3a6.741,6.741,0,1,0-12.492,5.071L145,155.892a1.8,1.8,0,0,1-1.2,2.412q-1.022.273-2.062.559a1.8,1.8,0,0,1-2.147-1.063l-10.17-25.245a6.741,6.741,0,1,0-12.493,5.07l9.6,23.838a1.8,1.8,0,0,1-1.1,2.381q-1,.331-2.02.676a1.8,1.8,0,0,1-2.245-1.033L100.4,111.959Zm4.346,56.506L84.572,118.374a10.341,10.341,0,1,1,19.171-7.76l9.213,22.87a10.332,10.332,0,0,1,19.8-2.274l.41,1.017a10.332,10.332,0,0,1,19.8-2.275l.809,2.011a10.332,10.332,0,0,1,19.8-2.275l8.125,20.169a1.8,1.8,0,0,1,.539.728l14.089,34.975a1.991,1.991,0,0,1,.078.241c2.536,10.263,1.581,19.385-3.058,27.207-4.614,7.778-12.737,14.041-24.1,18.9a1.864,1.864,0,0,1-.282.094c-18.461,4.5-34.336.723-47.368-11.415q-18.789-17.5-34.322-29.775a1.8,1.8,0,0,1-.39-.426c-2.88-4.4-3.73-8.695-1.41-12.386,3.308-5.264,10-6.025,15.17-2.37a109.349,109.349,0,0,1,9.4,7.9l-5.2-14.272a1.805,1.805,0,0,1-.1-.8Z"/>
    <path id="Path_368" data-name="Path 368" class="cls-8" d="M203.744,220.063l6.045,12.433a6.517,6.517,0,0,1-2.983,8.7l-39.338,19.246a6.478,6.478,0,0,1-8.673-3l-6.045-12.433a6.518,6.518,0,0,1,2.983-8.7l39.338-19.246A6.477,6.477,0,0,1,203.744,220.063Z"/>
    <path id="Path_608" data-name="Path 608" class="cls-9" d="M39.58,0A39.58,39.58,0,1,1,0,39.58,39.58,39.58,0,0,1,39.58,0Z" transform="translate(179.874 180.689)"/>
    <circle id="Ellipse_98" data-name="Ellipse 98" class="cls-2" cx="31" cy="31" r="31" transform="translate(194.454 192.269)"/>
    <path id="Path_369" data-name="Path 369" class="cls-5" d="M219.454,248.269a28,28,0,1,0-28-28A28,28,0,0,0,219.454,248.269Zm0,3a31,31,0,1,0-31-31A31,31,0,0,0,219.454,251.269Z"/>
    <rect id="Rectangle_211" data-name="Rectangle 211" class="cls-6" width="3" height="32" rx="1.5" transform="translate(230.171 208.022) rotate(45)"/>
    <rect id="Rectangle_212" data-name="Rectangle 212" class="cls-6" width="3" height="32" rx="1.5" transform="translate(232.296 230.651) rotate(135)"/>
  </g>
</svg>
