<svg xmlns="http://www.w3.org/2000/svg" width="286.915" height="278.207" viewBox="0 0 286.915 278.207">
  <defs>
    <style>
      .cls-1 {
        fill: #3f3f46;
      }

      .cls-1, .cls-4, .cls-6, .cls-7 {
        fill-rule: evenodd;
      }

      .cls-2 {
        fill: #17c964;
      }

      .cls-3 {
        fill: #f31260;
      }

      .cls-4, .cls-5 {
        fill: #18181b;
      }

      .cls-6 {
        fill: #9353d3;
      }

      .cls-7 {
        fill: #006fee;
      }
    </style>
  </defs>
  <g id="Broken-Link" transform="translate(-17 -30)">
    <path id="Path_370" data-name="Path 370" class="cls-1" d="M242.211,112.195c30.612,37.859,64.783,73.325,61.482,105.295-3.236,31.906-44.073,60.317-83.162,71.061-39.154,10.678-76.561,3.688-114.551-11.2-37.924-14.82-76.431-37.536-86.333-69.895-9.837-32.294,8.93-74.3,36.695-111.509C84.106,58.8,120.865,26.379,152.707,30.327c31.9,3.883,58.893,44.072,89.5,81.868Z"/>
    <circle id="Ellipse_99" data-name="Ellipse 99" class="cls-2" cx="3" cy="3" r="3" transform="translate(34.998 223.437)"/>
    <circle id="Ellipse_100" data-name="Ellipse 100" class="cls-3" cx="5" cy="5" r="5" transform="translate(66.998 80.437)"/>
    <circle id="Ellipse_101" data-name="Ellipse 101" class="cls-3" cx="5" cy="5" r="5" transform="translate(272.998 151.437)"/>
    <path id="Path_371" data-name="Path 371" class="cls-4" d="M233.675,152.875a83.808,83.808,0,0,1,4.685,9.041,1.5,1.5,0,0,1-.764,1.98l-.006,0-.006,0a1.5,1.5,0,0,1-1.967-.769,80.774,80.774,0,0,0-4.32-8.387l-.2-.331a1.5,1.5,0,0,1,.518-2.057,1.5,1.5,0,0,1,2.057.518Zm6.365,17.584-.007,0a1.5,1.5,0,0,0-.991,1.869,80.188,80.188,0,0,1,2.281,9.57,1.5,1.5,0,0,0,1.722,1.223h.006l.007,0a1.5,1.5,0,0,0,1.22-1.735,82.95,82.95,0,0,0-2.366-9.928,1.5,1.5,0,0,0-1.872-1Zm3.795,19.62h-.014a1.5,1.5,0,0,0-1.41,1.571,80,80,0,0,1-.116,9.8,1.5,1.5,0,0,0,1.373,1.605h.014a1.5,1.5,0,0,0,1.605-1.387,82.992,82.992,0,0,0,.12-10.171,1.5,1.5,0,0,0-1.572-1.424Zm-2.851,21.1A1.5,1.5,0,0,1,242.733,210l.006,0h.007a1.5,1.5,0,0,1,1.182,1.762,84.31,84.31,0,0,1-2.58,9.9,1.5,1.5,0,0,1-1.892.961l-.013-.005a1.5,1.5,0,0,1-.947-1.887,81.818,81.818,0,0,0,2.488-9.553Zm-6.1,18.677a1.5,1.5,0,0,1,1.982-.729l.006,0,.007,0a1.5,1.5,0,0,1,.723,1.994,82.676,82.676,0,0,1-4.872,8.936,1.5,1.5,0,0,1-2.068.473l-.005,0-.006,0a1.5,1.5,0,0,1-.461-2.06A79.687,79.687,0,0,0,234.889,229.858Zm-10.411,16.584a1.5,1.5,0,0,1,2.1-.224l.005,0a1.5,1.5,0,0,1,.222,2.115,83.444,83.444,0,0,1-6.9,7.485,1.5,1.5,0,0,1-2.121-.043l0-.005-.005-.005a1.5,1.5,0,0,1,.052-2.111,80.141,80.141,0,0,0,6.649-7.216ZM210.35,260.014a1.5,1.5,0,0,1,2.1.294l0,.005a1.5,1.5,0,0,1-.3,2.1,83.784,83.784,0,0,1-8.5,5.6,1.5,1.5,0,0,1-2.048-.552l-.007-.012a1.5,1.5,0,0,1,.559-2.036,81.038,81.038,0,0,0,8.194-5.4Zm-73.578,12.609a1.49,1.49,0,0,1-.039,1.135l0,.012a1.5,1.5,0,0,1-1.989.737,42.98,42.98,0,0,1-8.8-5.39,1.476,1.476,0,0,1-.378-.446,1.5,1.5,0,0,1,.136-1.661L125.7,267a1.5,1.5,0,0,1,2.1-.232,39.993,39.993,0,0,0,8.188,5.014,1.487,1.487,0,0,1,.781.842Zm56.6-2.835a1.5,1.5,0,0,1,1.961.783l.005.013a1.5,1.5,0,0,1-.795,1.966,83.7,83.7,0,0,1-7.929,2.9l-.043.012-.043.011-1.728.424a1.5,1.5,0,0,1-1.814-1.1l0-.008,0-.007a1.5,1.5,0,0,1,1.1-1.8l1.685-.413a80.617,80.617,0,0,0,7.6-2.779Zm-38.576,6.371a1.5,1.5,0,0,1,1.413,1.568v.016a1.5,1.5,0,0,1-1.584,1.411,62.259,62.259,0,0,1-10.147-1.39,1.5,1.5,0,0,1-1.133-1.794l0-.01,0-.01a1.5,1.5,0,0,1,.657-.917,1.457,1.457,0,0,1,.546-.21,1.478,1.478,0,0,1,.585.015A59.312,59.312,0,0,0,154.791,276.159Zm19.626-1.224a1.5,1.5,0,0,1,1.721,1.23v.009A1.5,1.5,0,0,1,174.9,277.9q-5.232.854-10.077,1.18a1.5,1.5,0,0,1-1.6-1.4v-.013a1.5,1.5,0,0,1,1.4-1.585q4.7-.316,9.795-1.147Z"/>
    <rect id="Rectangle_213" data-name="Rectangle 213" class="cls-5" width="17.89" height="4.051" rx="2" transform="matrix(0.766, 0.643, -0.643, 0.766, 189.167, 198.172)"/>
    <rect id="Rectangle_214" data-name="Rectangle 214" class="cls-5" width="17.89" height="4.051" rx="2" transform="matrix(0.94, 0.342, -0.342, 0.94, 194.226, 188.37)"/>
    <rect id="Rectangle_215" data-name="Rectangle 215" class="cls-5" width="17.89" height="4.051" rx="2" transform="matrix(0.358, 0.934, -0.934, 0.358, 180.884, 204.739)"/>
    <rect id="Rectangle_216" data-name="Rectangle 216" class="cls-5" width="17.89" height="4.051" rx="2" transform="matrix(-0.848, -0.53, 0.53, -0.848, 115.893, 130.043)"/>
    <rect id="Rectangle_217" data-name="Rectangle 217" class="cls-5" width="17.89" height="4.051" rx="2" transform="matrix(-0.978, -0.208, 0.208, -0.978, 112.248, 140.451)"/>
    <rect id="Rectangle_218" data-name="Rectangle 218" class="cls-5" width="17.89" height="4.051" rx="2" transform="translate(123.183 122.386) rotate(-119)"/>
    <path id="Path_372" data-name="Path 372" class="cls-6" d="M237.165,66.343a10.8,10.8,0,0,1,14.526,4.72l17.433,34.214A10.8,10.8,0,0,1,264.4,119.8l-97.118,49.484a3.6,3.6,0,0,1-5.169-2.525l-2.21-11.438a2.4,2.4,0,0,0-1.091-1.584l-9.483-5.888a2.4,2.4,0,0,1-1.042-2.7l4.793-16.786a2.4,2.4,0,0,0-1.286-2.83l-9.367-4.41a3.6,3.6,0,0,1-.1-6.465l94.834-48.32Z"/>
    <path id="Path_373" data-name="Path 373" class="cls-4" d="M265.026,74.379,282.46,108.6a12.3,12.3,0,0,1-5.375,16.542l-97.12,49.486a5.1,5.1,0,0,1-7.321-3.576l-2.211-11.441a.862.862,0,0,0-.408-.593l-9.485-5.889a3.555,3.555,0,0,1-1.692-4.383l4.793-16.787a.808.808,0,0,0-.482-1.06l-9.369-4.412a5.1,5.1,0,0,1-.143-9.156L248.483,69a12.3,12.3,0,0,1,16.543,5.375Zm-2.673,1.362a9.3,9.3,0,0,0-12.508-4.064L155.009,120a2.1,2.1,0,0,0,.059,3.769l9.369,4.411a3.508,3.508,0,0,1,2.089,4.6l-4.793,16.787a.818.818,0,0,0,.39,1.011l9.484,5.889a3.742,3.742,0,0,1,1.772,2.573l2.21,11.44a2.1,2.1,0,0,0,3.014,1.473l97.12-49.486a9.3,9.3,0,0,0,4.064-12.507L262.353,75.742Z"/>
    <path id="Path_374" data-name="Path 374" class="cls-5" d="M242.95,73.474l27.239,53.46-2.674,1.362-27.239-53.46Z"/>
    <path id="Path_375" data-name="Path 375" class="cls-7" d="M112.508,273.687l-39.358,26.2a4.8,4.8,0,0,1-7.382-3.134l-8.49-46.515L96.186,158.58a3.61,3.61,0,0,1,3.344-2.2l10.791.072a3.6,3.6,0,0,1,3.308,2.249l6.016,14.888a3.594,3.594,0,0,0,4.68,1.987l12.16-4.913a3.6,3.6,0,0,1,3.414.391l10.076,7.08a3.607,3.607,0,0,1,1.242,4.361l-38.709,91.193Z"/>
    <path id="Path_376" data-name="Path 376" class="cls-4" d="M121.339,280.936l-39.358,26.2a6.3,6.3,0,0,1-8.735-1.752,6.236,6.236,0,0,1-.954-2.36l-8.571-46.957,39.084-92.077a4.723,4.723,0,0,1,4.735-3.115l10.79.072a4.709,4.709,0,0,1,4.689,3.187l6.016,14.888a1.853,1.853,0,0,0,2.728,1.158l12.16-4.913a4.808,4.808,0,0,1,4.838.555l10.076,7.079a4.62,4.62,0,0,1,1.76,6.175l-38.884,91.607-.374.249Zm-46.1,21.553-8.41-46.073,38.734-91.25a1.95,1.95,0,0,1,1.953-1.287l10.79.072a1.935,1.935,0,0,1,1.928,1.311l6.016,14.887a5.092,5.092,0,0,0,6.633,2.816l12.16-4.912a1.976,1.976,0,0,1,1.989.227l10.076,7.08a1.907,1.907,0,0,1,.724,2.548L119.3,278.687,80.318,304.643q-2.745,1.828-4.575-.918a3.267,3.267,0,0,1-.5-1.236Z"/>
    <path id="Path_377" data-name="Path 377" class="cls-5" d="M71.17,281.438l26.695,11.331-1.173,2.762L70,284.2Z"/>
    <rect id="Rectangle_219" data-name="Rectangle 219" class="cls-5" width="50" height="3" rx="1.5" transform="translate(76.556 258.451) rotate(23)"/>
  </g>
</svg>
