<svg xmlns="http://www.w3.org/2000/svg" width="286.915" height="263.701" viewBox="0 0 286.915 263.701">
  <defs>
    <style>
      .cls-1 {
        fill: #3f3f46;
      }

      .cls-1, .cls-5, .cls-7 {
        fill-rule: evenodd;
      }

      .cls-2 {
        fill: #f5a524;
      }

      .cls-3 {
        fill: #f31260;
      }

      .cls-4 {
        fill: #17c964;
      }

      .cls-5, .cls-6 {
        fill: #18181b;
      }

      .cls-7 {
        fill: #9353d3;
      }

      .cls-8 {
        fill: #27272a;
      }

      .cls-9 {
        fill: #006fee;
      }
    </style>
  </defs>
  <g id="Data-Expired" transform="translate(-21.849 -43)">
    <path id="Path_378" data-name="Path 378" class="cls-1" d="M247.06,125.195c30.612,37.859,64.783,73.325,61.482,105.295-3.236,31.906-44.072,60.317-83.162,71.061-39.154,10.678-76.561,3.688-114.55-11.2C72.9,275.534,34.4,252.818,24.5,220.459c-9.837-32.294,8.931-74.3,36.695-111.509C88.955,71.8,125.715,39.379,157.556,43.327c31.906,3.883,58.893,44.072,89.5,81.868Z"/>
    <circle id="Ellipse_102" data-name="Ellipse 102" class="cls-2" cx="3" cy="3" r="3" transform="translate(267.841 215.419)"/>
    <circle id="Ellipse_103" data-name="Ellipse 103" class="cls-3" cx="5" cy="5" r="5" transform="translate(112.841 65.419)"/>
    <circle id="Ellipse_104" data-name="Ellipse 104" class="cls-4" cx="5" cy="5" r="5" transform="translate(102.841 281.419)"/>
    <path id="Path_379" data-name="Path 379" class="cls-5" d="M221.8,113.972l0-.01v-.011a1.5,1.5,0,0,0-1.264-1.7,42.3,42.3,0,0,0-10.264-.335,1.486,1.486,0,0,0-1.013.54,1.466,1.466,0,0,0-.277.516,1.488,1.488,0,0,0-.058.582l0,.017,0,.016a1.5,1.5,0,0,0,1.634,1.315,39.3,39.3,0,0,1,9.535.317,1.5,1.5,0,0,0,1.7-1.244Zm-19.542,1.356a1.5,1.5,0,0,1-.757,1.951,26.332,26.332,0,0,0-4.535,2.653l-.014.01-.013.009a1.5,1.5,0,0,1-2.068-.351,1.478,1.478,0,0,1-.245-.531,1.461,1.461,0,0,1-.023-.585,1.5,1.5,0,0,1,.6-.979,29.365,29.365,0,0,1,5.051-2.954,1.5,1.5,0,0,1,1.988.74l.009.018a.109.109,0,0,0,.008.019Zm38.678,5.119-.006.01-.005.01a1.5,1.5,0,0,1-2.01.626l-.151-.078a88.881,88.881,0,0,0-9.175-3.54,1.5,1.5,0,0,1-.976-1.871l0-.008a1.5,1.5,0,0,1,1.888-.979,92.519,92.519,0,0,1,9.524,3.676c.012.006.025.011.037.018l.038.018.188.1a1.488,1.488,0,0,1,.741.877,1.5,1.5,0,0,1-.1,1.144Zm5.9,3.773-.006.008-.007.008a1.5,1.5,0,0,0,.282,2.088,54.11,54.11,0,0,1,7.129,6.614,1.5,1.5,0,0,0,2.1.125l.007-.007.008-.007a1.5,1.5,0,0,0,.111-2.118,57.087,57.087,0,0,0-7.524-6.98,1.5,1.5,0,0,0-2.1.269Zm13.73,14.454-.009,0-.008.005a1.5,1.5,0,0,0-.473,2.054,53.565,53.565,0,0,1,4.329,8.7,1.5,1.5,0,0,0,1.922.862l.01,0,.009,0a1.5,1.5,0,0,0,.956-1.366,1.471,1.471,0,0,0-.1-.576,56.519,56.519,0,0,0-4.571-9.185,1.5,1.5,0,0,0-2.064-.489Zm7.718,18.359-.01,0a1.5,1.5,0,0,0-1.181,1.754,54.471,54.471,0,0,1,.966,9.716,1.5,1.5,0,0,0,1.495,1.486h.02a1.5,1.5,0,0,0,1.485-1.515,57.972,57.972,0,0,0-1.019-10.251,1.506,1.506,0,0,0-.631-.959,1.5,1.5,0,0,0-1.125-.233Zm-3.466,31.689a1.5,1.5,0,0,0,.825.771l.009,0,.01,0a1.5,1.5,0,0,0,1.925-.89,56.389,56.389,0,0,0,2.653-9.916,1.5,1.5,0,0,0-1.224-1.732l-.01,0H269a1.48,1.48,0,0,0-1.1.256,1.5,1.5,0,0,0-.613.971,53.485,53.485,0,0,1-2.511,9.389,1.5,1.5,0,0,0,.046,1.147Zm-4.215,7.64a53.932,53.932,0,0,1-5.43,7.608c-.083.1-.166.2-.251.292a1.5,1.5,0,1,0,2.269,1.963,56.96,56.96,0,0,0,5.995-8.338,1.5,1.5,0,0,0-.529-2.054l-.008-.005-.009-.005a1.5,1.5,0,0,0-2.037.539Z"/>
    <rect id="Rectangle_220" data-name="Rectangle 220" class="cls-6" width="17.89" height="4.051" rx="2" transform="matrix(-0.766, -0.643, 0.643, -0.766, 66.615, 98.726)"/>
    <rect id="Rectangle_221" data-name="Rectangle 221" class="cls-6" width="17.89" height="4.051" rx="2" transform="translate(74.471 90.955) rotate(-120)"/>
    <rect id="Rectangle_222" data-name="Rectangle 222" class="cls-6" width="17.89" height="4.051" rx="2" transform="translate(63.419 108.915) rotate(-169)"/>
    <path id="Path_380" data-name="Path 380" class="cls-7" d="M79.84,120.419s6-16,57-16,56,16,56,16v106s-16,15-55,15-58-15-58-15v-106Z"/>
    <path id="Path_381" data-name="Path 381" class="cls-5" d="M143.841,111.419c-51,0-57,16-57,16v106s19,15,58,15,55-15,55-15v-106s-5-16-56-16Zm53,16.6a8.955,8.955,0,0,0-.871-1.167,21.085,21.085,0,0,0-6.4-4.778q-14.595-7.658-45.731-7.657-31.156,0-46.267,7.675a23.321,23.321,0,0,0-6.776,4.84,10.312,10.312,0,0,0-.957,1.182V231.911a60.878,60.878,0,0,0,12.464,6.213q18.725,7.295,42.536,7.295,23.768,0,40.957-7.263a46.942,46.942,0,0,0,11.043-6.1Z"/>
    <path id="Path_382" data-name="Path 382" class="cls-5" d="M92.913,155.435q-3.072-1.992-3.072-3.516h-3c0,8.56,25.3,15.5,56.5,15.5s56.5-6.94,56.5-15.5h-3q0,1.524-3.073,3.516a41.293,41.293,0,0,1-11.269,4.551q-16.159,4.433-39.158,4.433t-39.158-4.433a41.316,41.316,0,0,1-11.27-4.551Z"/>
    <circle id="Ellipse_105" data-name="Ellipse 105" class="cls-6" cx="4" cy="4" r="4" transform="translate(137.841 148.419)"/>
    <path id="Path_383" data-name="Path 383" class="cls-5" d="M92.913,183.435q-3.072-1.992-3.072-3.516h-3c0,8.56,25.3,15.5,56.5,15.5s56.5-6.94,56.5-15.5h-3q0,1.524-3.073,3.516a41.293,41.293,0,0,1-11.269,4.551q-16.159,4.433-39.158,4.433t-39.158-4.433a41.316,41.316,0,0,1-11.27-4.551Zm0,28q-3.072-1.992-3.072-3.516h-3c0,8.56,25.3,15.5,56.5,15.5s56.5-6.94,56.5-15.5h-3q0,1.524-3.073,3.516a41.293,41.293,0,0,1-11.269,4.551q-16.159,4.433-39.158,4.433t-39.158-4.433a41.316,41.316,0,0,1-11.27-4.551Z"/>
    <circle id="Ellipse_106" data-name="Ellipse 106" class="cls-6" cx="4" cy="4" r="4" transform="translate(137.841 176.419)"/>
    <circle id="Ellipse_107" data-name="Ellipse 107" class="cls-6" cx="4" cy="4" r="4" transform="translate(137.841 204.419)"/>
    <circle id="Ellipse_108" data-name="Ellipse 108" class="cls-6" cx="4" cy="4" r="4" transform="translate(137.841 229.419)"/>
    <path id="Path_384" data-name="Path 384" class="cls-5" d="M199.841,126.919c0,8.56-25.3,15.5-56.5,15.5s-56.5-6.94-56.5-15.5,25.3-15.5,56.5-15.5,56.5,6.94,56.5,15.5ZM182.5,134.986q-16.159,4.433-39.158,4.433t-39.158-4.433a41.316,41.316,0,0,1-11.27-4.551q-3.072-1.992-3.072-3.516t3.072-3.516a41.315,41.315,0,0,1,11.27-4.551q16.16-4.433,39.158-4.433t39.158,4.433a41.293,41.293,0,0,1,11.269,4.551q3.073,1.992,3.073,3.516t-3.073,3.516A41.293,41.293,0,0,1,182.5,134.986Z"/>
    <circle id="Ellipse_109" data-name="Ellipse 109" class="cls-8" cx="39.58" cy="39.58" r="39.58" transform="translate(171.261 185.679)"/>
    <path id="Path_387" data-name="Path 387" class="cls-9" d="M31,0A31,31,0,1,1,0,31,31,31,0,0,1,31,0Z" transform="translate(183.841 195.26)"/>
    <path id="Path_385" data-name="Path 385" class="cls-5" d="M239.841,224.26a31,31,0,1,1-31-31A31,31,0,0,1,239.841,224.26Zm-11.2,19.8a28,28,0,1,1,8.2-19.8A26.981,26.981,0,0,1,228.64,244.059Z"/>
    <path id="Path_386" data-name="Path 386" class="cls-5" d="M206.04,207.412a2.807,2.807,0,1,1,5.6,0l-1.734,26.009a1.068,1.068,0,0,1-2.133,0l-1.734-26.009Z"/>
    <circle id="Ellipse_111" data-name="Ellipse 111" class="cls-6" cx="3" cy="3" r="3" transform="translate(205.841 238.419)"/>
  </g>
</svg>
