<svg xmlns="http://www.w3.org/2000/svg" width="263.701" height="286.915" viewBox="0 0 263.701 286.915">
  <defs>
    <style>
      .cls-1 {
        fill: #3f3f46;
      }

      .cls-1, .cls-5, .cls-7 {
        fill-rule: evenodd;
      }

      .cls-2 {
        fill: #006fee;
      }

      .cls-3 {
        fill: #f5a524;
      }

      .cls-4 {
        fill: #17c964;
      }

      .cls-5, .cls-6 {
        fill: #18181b;
      }

      .cls-7 {
        fill: #9353d3;
      }

      .cls-8 {
        fill: #27272a;
      }
    </style>
  </defs>
  <g id="Delivery-Boy-Not-Found" transform="translate(-16 -30)">
    <path id="Path_388" data-name="Path 388" class="cls-1" d="M98.195,91.7c37.859-30.612,73.325-64.784,105.3-61.482,31.906,3.236,60.317,44.073,71.061,83.162,10.678,39.154,3.688,76.561-11.2,114.551-14.82,37.924-37.536,76.431-69.895,86.333-32.294,9.837-74.3-8.931-111.509-36.7C44.8,249.809,12.379,213.05,16.327,181.208,20.21,149.3,60.4,122.315,98.2,91.7Z"/>
    <circle id="Ellipse_112" data-name="Ellipse 112" class="cls-2" cx="3" cy="3" r="3" transform="translate(42.148 153.305) rotate(-13)"/>
    <circle id="Ellipse_113" data-name="Ellipse 113" class="cls-3" cx="5" cy="5" r="5" transform="translate(138.776 296.232) rotate(-13)"/>
    <circle id="Ellipse_114" data-name="Ellipse 114" class="cls-4" cx="5" cy="5" r="5" transform="translate(250.365 84.994) rotate(-13)"/>
    <path id="Path_389" data-name="Path 389" class="cls-5" d="M236.366,125.287l0-.019,0-.019a1.5,1.5,0,0,0-1.244-1.718,29.765,29.765,0,0,0-8.9-.082,1.5,1.5,0,0,0-1.277,1.694,1.485,1.485,0,0,0,.583.989,1.5,1.5,0,0,0,1.078.292l.017,0,.016,0a26.808,26.808,0,0,1,8.009.074,1.5,1.5,0,0,0,1.712-1.206h0Zm6.625,2.174-.007.013-.006.014a1.5,1.5,0,0,0,.679,1.987,44.726,44.726,0,0,1,8.052,5.3,1.5,1.5,0,0,0,2.1-.21l.006-.007a1.5,1.5,0,0,0-.218-2.111,47.676,47.676,0,0,0-8.6-5.648,1.5,1.5,0,0,0-1.654.2,1.473,1.473,0,0,0-.36.462ZM267.005,149.6,267,149.6a1.5,1.5,0,0,1-2.064-.46q-.562-.878-1.157-1.735-2.355-3.034-4.949-5.87a1.5,1.5,0,0,1,.086-2.114l.005-.005a1.5,1.5,0,0,1,2.119.091q2.688,2.938,5.131,6.086l.024.033.024.032q.64.92,1.244,1.865A1.5,1.5,0,0,1,267,149.6Zm3.239,6.208-.009,0-.009,0a1.5,1.5,0,0,0-.794,1.952,55.089,55.089,0,0,1,2.919,9.28,1.5,1.5,0,0,0,1.768,1.146h.01l.01,0a1.5,1.5,0,0,0,1.142-1.787,58.117,58.117,0,0,0-3.077-9.783,1.5,1.5,0,0,0-1.96-.812Zm2.872,30.6a1.5,1.5,0,0,0,1.259,1.69l.01,0h.01a1.5,1.5,0,0,0,1.111-.289,1.454,1.454,0,0,0,.389-.437,1.485,1.485,0,0,0,.193-.552,57.641,57.641,0,0,0,.506-10.248,1.5,1.5,0,0,0-1.559-1.439h-.02a1.5,1.5,0,0,0-1.419,1.557,54.565,54.565,0,0,1-.48,9.714Zm-6.05,18.473a1.5,1.5,0,0,0,.6,2.021l.009.005.008.005a1.5,1.5,0,0,0,2.031-.612,58.862,58.862,0,0,0,4.063-9.482,1.5,1.5,0,0,0-.959-1.893l-.009,0-.01,0a1.5,1.5,0,0,0-1.873.965,55.626,55.626,0,0,1-3.855,9Zm-12.02,15.176a1.5,1.5,0,0,0,1.985,2.25,57.423,57.423,0,0,0,7.057-7.443,1.5,1.5,0,0,0-.246-2.107l-.007-.006a1.5,1.5,0,0,0-2.1.251,54.292,54.292,0,0,1-6.689,7.055Zm-5.789,6.251.005.009a1.5,1.5,0,0,1-.5,2.069,58.153,58.153,0,0,1-9.211,4.529,1.478,1.478,0,0,1-.577.1,1.462,1.462,0,0,1-.571-.128,1.484,1.484,0,0,1-.792-.831,1.5,1.5,0,0,1,.858-1.939l.359-.141a55.064,55.064,0,0,0,8.378-4.155,1.5,1.5,0,0,1,2.05.487Z"/>
    <rect id="Rectangle_223" data-name="Rectangle 223" class="cls-6" width="17.89" height="4.051" rx="2" transform="translate(73.636 190.733) rotate(-173)"/>
    <rect id="Rectangle_224" data-name="Rectangle 224" class="cls-6" width="17.89" height="4.051" rx="2" transform="translate(83.418 172.06) rotate(-124)"/>
    <rect id="Rectangle_225" data-name="Rectangle 225" class="cls-6" width="17.89" height="4.051" rx="2" transform="matrix(-0.809, -0.588, 0.588, -0.809, 76.107, 180.361)"/>
    <path id="Path_390" data-name="Path 390" class="cls-7" d="M222.2,95.945c0,6.086-4.35,11.665-11.58,16h16.366a4.5,4.5,0,0,1,0,9H214.568a6.142,6.142,0,0,1,3.066,6.226,46.009,46.009,0,0,1-90.85.139,6.246,6.246,0,0,1,3.148-6.365H118.984a4.5,4.5,0,0,1,0-9h14.793c-7.23-4.335-11.579-9.914-11.579-16,0-13.807,22.386-25,50-25s50,11.193,50,25Zm-88,80a20,20,0,0,0-20,20v51a20,20,0,0,0,20,20h78a20,20,0,0,0,20-20v-51a20,20,0,0,0-20-20Z"/>
    <path id="Path_391" data-name="Path 391" class="cls-5" d="M207.39,105.945a50.01,50.01,0,0,0-98.384,0h-4.023a4.5,4.5,0,0,0-4.5,4.5v0a4.5,4.5,0,0,0,4.5,4.5h108a4.5,4.5,0,0,0,4.5-4.5v0a4.5,4.5,0,0,0-4.5-4.5h-5.6Zm-18.916-26.95a45.614,45.614,0,0,1,15.964,27.487l.448,2.463h8.1a1.325,1.325,0,0,1,1.5,1.5v0a1.325,1.325,0,0,1-1.5,1.5h-108a1.325,1.325,0,0,1-1.5-1.5v0a1.325,1.325,0,0,1,1.5-1.5h6.526l.448-2.463A47.016,47.016,0,0,1,158.2,67.945,45.582,45.582,0,0,1,188.474,78.995ZM112.7,126.743l.087.567a46.009,46.009,0,0,0,90.85-.139c.028-.182.056-.364.082-.546a6.012,6.012,0,0,0-6.221-6.68H119.02a6.107,6.107,0,0,0-6.323,6.8Zm3.052.109v-.009l-.086-.558a2.585,2.585,0,0,1,.745-2.266,3.46,3.46,0,0,1,2.613-1.074h78.475a3.352,3.352,0,0,1,2.531,1.04,2.526,2.526,0,0,1,.722,2.208l-.08.528a43.011,43.011,0,0,1-42.47,36.224,43.012,43.012,0,0,1-42.449-36.093Zm82.45,43.093h-78a20,20,0,0,0-20,20v51a20,20,0,0,0,20,20h78a20,20,0,0,0,20-20v-51a20,20,0,0,0-20-20Zm-90.022,7.979a16.379,16.379,0,0,1,12.02-4.979h78a17,17,0,0,1,17,17v51a17,17,0,0,1-17,17h-78a17,17,0,0,1-17-17v-51A16.375,16.375,0,0,1,108.177,177.924Z"/>
    <rect id="Rectangle_226" data-name="Rectangle 226" class="cls-6" width="3" height="23" rx="1.5" transform="translate(174.198 223.945)"/>
    <rect id="Rectangle_227" data-name="Rectangle 227" class="cls-6" width="3" height="23" rx="1.5" transform="translate(184.198 223.945)"/>
    <rect id="Rectangle_228" data-name="Rectangle 228" class="cls-6" width="3" height="23" rx="1.5" transform="translate(194.198 223.945)"/>
    <path id="Path_392" data-name="Path 392" class="cls-5" d="M168.2,90.945a10,10,0,1,1-10-10A10,10,0,0,1,168.2,90.945Zm-5.05,4.95a7,7,0,1,1,2.05-4.95A6.745,6.745,0,0,1,163.148,95.895Z"/>
    <ellipse id="Ellipse_115" data-name="Ellipse 115" class="cls-8" cx="35" cy="41" rx="35" ry="41" transform="translate(66.197 210.946)"/>
    <ellipse id="Ellipse_116" data-name="Ellipse 116" class="cls-2" cx="29" cy="34" rx="29" ry="34" transform="translate(65.197 215.946)"/>
    <path id="Path_393" data-name="Path 393" class="cls-5" d="M131.2,245.946c0,16.016-29,39-29,39s-29-22.984-29-39a29,29,0,0,1,58,0Zm-29,35.138A134.572,134.572,0,0,1,89.882,269.4Q76.2,254.769,76.2,245.946a26,26,0,0,1,26-26,26,26,0,0,1,26,26q0,8.824-13.69,23.456a134.571,134.571,0,0,1-12.31,11.682Z"/>
    <rect id="Rectangle_229" data-name="Rectangle 229" class="cls-6" width="3" height="32" rx="1.5" transform="translate(112.935 233.563) rotate(45)"/>
    <rect id="Rectangle_230" data-name="Rectangle 230" class="cls-6" width="3" height="32" rx="1.5" transform="translate(115.057 256.189) rotate(135)"/>
  </g>
</svg>
