<svg xmlns="http://www.w3.org/2000/svg" width="282.483" height="286.915" viewBox="0 0 282.483 286.915">
  <defs>
    <style>
      .cls-1 {
        fill: #3f3f46;
      }

      .cls-1, .cls-5 {
        fill-rule: evenodd;
      }

      .cls-2 {
        fill: #f5a524;
      }

      .cls-3 {
        fill: #f31260;
      }

      .cls-4 {
        fill: #17c964;
      }

      .cls-5, .cls-6 {
        fill: #18181b;
      }

      .cls-7 {
        fill: #9353d3;
      }

      .cls-8 {
        fill: #27272a;
      }

      .cls-9 {
        fill: #006fee;
      }
    </style>
  </defs>
  <g id="Empty-Wallet" transform="translate(-17 -32)">
    <path id="Path_407" data-name="Path 407" class="cls-1" d="M99.195,93.7c37.859-30.612,73.325-64.784,105.3-61.482,31.906,3.236,60.317,44.072,71.061,83.162,10.678,39.154,3.688,76.561-11.2,114.55-14.82,37.925-37.536,76.432-69.895,86.334-32.294,9.837-74.3-8.931-111.509-36.7C45.8,251.809,13.379,215.049,17.327,183.208,21.21,151.3,61.4,124.315,99.2,93.7Z"/>
    <circle id="Ellipse_125" data-name="Ellipse 125" class="cls-2" cx="3" cy="3" r="3" transform="translate(217.392 90.045)"/>
    <circle id="Ellipse_126" data-name="Ellipse 126" class="cls-3" cx="5" cy="5" r="5" transform="translate(170.392 288.045)"/>
    <circle id="Ellipse_127" data-name="Ellipse 127" class="cls-4" cx="5" cy="5" r="5" transform="translate(80.392 146.045)"/>
    <path id="Path_408" data-name="Path 408" class="cls-5" d="M122.286,106.925l-.163-.024a56.637,56.637,0,0,0-9.557-.58,1.5,1.5,0,0,1-1.534-1.445v-.019a1.5,1.5,0,0,1,1.464-1.535,59.545,59.545,0,0,1,10.234.636,1.5,1.5,0,0,1,1.262,1.705,1.5,1.5,0,0,1-1.705,1.262ZM91.594,109.22l0,.009,0,.009a1.5,1.5,0,0,0,1.93.844,56.682,56.682,0,0,1,9.357-2.7,1.505,1.505,0,0,0,1.179-1.168,1.508,1.508,0,0,0,.006-.576l0-.009,0-.01a1.5,1.5,0,0,0-1.762-1.18,59.612,59.612,0,0,0-9.851,2.841,1.5,1.5,0,0,0-.863,1.938Zm-16.8,10.667.006.007.007.007a1.5,1.5,0,0,0,2.1.139,56.129,56.129,0,0,1,7.88-5.7,1.5,1.5,0,0,0,.527-2.04l0-.009,0-.008a1.488,1.488,0,0,0-.922-.684,1.5,1.5,0,0,0-1.136.168,58.993,58.993,0,0,0-8.3,6.005,1.5,1.5,0,0,0-.154,2.116ZM62.55,135.64l.008.005.009.005a1.5,1.5,0,0,0,2.027-.576,57.042,57.042,0,0,1,5.52-8.052,1.5,1.5,0,0,0-.195-2.1l-.007-.006-.008-.007a1.5,1.5,0,0,0-2.111.211,60.057,60.057,0,0,0-5.81,8.474,1.5,1.5,0,0,0,.567,2.044Zm-6.189,18.935.01,0h.01a1.5,1.5,0,0,0,1.711-1.23,56.156,56.156,0,0,1,2.454-9.414,1.5,1.5,0,0,0-.892-1.909l-.01,0a1.5,1.5,0,0,0-1.924.908,59.135,59.135,0,0,0-2.586,9.916,1.5,1.5,0,0,0,1.227,1.73Zm-.556,6.976h-.02a1.5,1.5,0,0,0-1.059.443,1.485,1.485,0,0,0-.435,1.062,59.753,59.753,0,0,0,.911,10.209,1.5,1.5,0,0,0,1.737,1.217l.01,0,.01,0a1.5,1.5,0,0,0,1.2-1.734,56.822,56.822,0,0,1-.865-9.7,1.5,1.5,0,0,0-1.487-1.495Zm8.561,31.417,0,0a1.5,1.5,0,0,1-2.05-.563q-2.006-3.558-3.72-7.269l-.015-.038q-.385-.96-.736-1.933a1.5,1.5,0,0,1,.9-1.92l.008,0,.01,0a1.5,1.5,0,0,1,1.9.909q.327.9.684,1.8,1.647,3.561,3.575,6.982a1.5,1.5,0,0,1-.119,1.656,1.461,1.461,0,0,1-.436.381Zm5.953,6.185a1.5,1.5,0,0,0-2.089-.285l-.007.005-.008.006a1.5,1.5,0,0,0-.274,2.1,49.8,49.8,0,0,0,7.01,7.492,1.5,1.5,0,0,0,2.134-.184A1.5,1.5,0,0,0,76.9,206.2a46.907,46.907,0,0,1-6.585-7.044Zm14.593,12.175a1.5,1.5,0,0,0-1.963.732l-.008.017-.007.017a1.5,1.5,0,0,0,.766,1.978,30.623,30.623,0,0,0,9.768,2.511,1.5,1.5,0,0,0,1.625-1.363,1.5,1.5,0,0,0-1.237-1.609q-.063-.01-.127-.016a27.64,27.64,0,0,1-8.817-2.267Z"/>
    <rect id="Rectangle_243" data-name="Rectangle 243" class="cls-6" width="18" height="4" rx="2" transform="matrix(0.643, -0.766, 0.766, 0.643, 274.307, 123.853)"/>
    <rect id="Rectangle_244" data-name="Rectangle 244" class="cls-6" width="18" height="4" rx="2" transform="translate(281.895 131.631) rotate(-30)"/>
    <rect id="Rectangle_245" data-name="Rectangle 245" class="cls-6" width="18" height="4" rx="2" transform="translate(264.304 120.772) rotate(-79)"/>
    <path id="Path_416" data-name="Path 416" class="cls-7" d="M10,0H141a10,10,0,0,1,10,10V95a10,10,0,0,1-10,10H10A10,10,0,0,1,0,95V10A10,10,0,0,1,10,0Z" transform="matrix(0.961, 0.276, -0.276, 0.961, 133.319, 97.618)"/>
    <path id="Path_409" data-name="Path 409" class="cls-5" d="M258.863,144.483,132.936,108.374a10,10,0,0,0-12.368,6.855l-23.43,81.71a10,10,0,0,0,6.856,12.367l125.927,36.109a10,10,0,0,0,12.368-6.855l23.43-81.709a10,10,0,0,0-6.856-12.368ZM126.787,111.864a6.742,6.742,0,0,1,5.322-.606l125.928,36.109a7,7,0,0,1,4.8,8.657l-23.429,81.709a7,7,0,0,1-8.658,4.8L104.821,206.423a7,7,0,0,1-4.8-8.657l23.429-81.709a6.747,6.747,0,0,1,3.335-4.193Z"/>
    <path id="Path_410" data-name="Path 410" class="cls-5" d="M256.22,179.1l-36.529-10.475a19,19,0,0,0-23.5,13.026v0a19,19,0,0,0,13.026,23.5l39.413,11.3L259.1,179.923Zm-.826,2.884L218.865,171.5a16,16,0,0,0-19.789,10.97h0a16,16,0,0,0,10.969,19.79l36.529,10.474,8.821-30.76Z"/>
    <path id="Path_411" data-name="Path 411" class="cls-5" d="M212.25,198.215a11.5,11.5,0,1,1,8.745-1A11.077,11.077,0,0,1,212.25,198.215Zm.827-2.884a8.5,8.5,0,1,0-5.092-4.05A8.188,8.188,0,0,0,213.077,195.331Z"/>
    <rect id="Rectangle_247" data-name="Rectangle 247" class="cls-6" width="3" height="78" rx="1.5" transform="matrix(0.961, 0.276, -0.276, 0.961, 131, 122.383)"/>
    <path id="Path_412" data-name="Path 412" class="cls-5" d="M192.126,129.775l-1.8.2-11.218,1.254a3.5,3.5,0,0,0-3.061,4.058l1.358,8.064,1.376,8.169a5.932,5.932,0,0,1-3.579,6.93l-19.574,9.471a1.5,1.5,0,1,1-1.307-2.7L158,163.444l15.9-7.693a3.191,3.191,0,0,0,1.926-3.73l-1.008-5.986-1.726-10.247a6.5,6.5,0,0,1,5.687-7.538l13.019-1.456a1.472,1.472,0,0,1,.583.05,1.488,1.488,0,0,1,1.074,1.274,1.5,1.5,0,0,1-1.324,1.657Z"/>
    <rect id="Rectangle_248" data-name="Rectangle 248" class="cls-8" width="104" height="72" rx="6" transform="translate(58.392 193.045)"/>
    <path id="Path_415" data-name="Path 415" class="cls-9" d="M6,0H79a6,6,0,0,1,6,6V49a6,6,0,0,1-6,6H6a6,6,0,0,1-6-6V6A6,6,0,0,1,6,0Z" transform="translate(63.392 207.045)"/>
    <path id="Path_413" data-name="Path 413" class="cls-5" d="M151.393,199.045h-73a6,6,0,0,0-6,6v43a6,6,0,0,0,6,6h73a6,6,0,0,0,6-6v-43a6,6,0,0,0-6-6Zm-76,6a2.651,2.651,0,0,1,3-3h73a2.651,2.651,0,0,1,3,3v43a2.651,2.651,0,0,1-3,3h-73a2.651,2.651,0,0,1-3-3v-43Z"/>
    <path id="Path_414" data-name="Path 414" class="cls-5" d="M97.392,207.545a8.28,8.28,0,0,0-4,.995,8.284,8.284,0,0,0-4-.995,8.5,8.5,0,1,0,0,17,8.275,8.275,0,0,0,4-.995,8.5,8.5,0,0,0,12.5-7.505,8.5,8.5,0,0,0-8.5-8.5ZM92.534,220.56l.858-.6.858.6a5.365,5.365,0,0,0,3.142.985,5.5,5.5,0,1,0,0-11,5.362,5.362,0,0,0-3.141.985l-.858.6-.858-.6a5.365,5.365,0,0,0-3.142-.985,5.5,5.5,0,1,0,0,11,5.367,5.367,0,0,0,3.142-.985Z"/>
    <rect id="Rectangle_250" data-name="Rectangle 250" class="cls-6" width="47" height="3" rx="1.5" transform="translate(101.392 237.045)"/>
    <rect id="Rectangle_251" data-name="Rectangle 251" class="cls-6" width="30" height="3" rx="1.5" transform="translate(118.392 243.045)"/>
  </g>
</svg>
