<svg xmlns="http://www.w3.org/2000/svg" width="278.96" height="286.915" viewBox="0 0 278.96 286.915">
  <defs>
    <style>
      .cls-1 {
        fill: #3f3f46;
      }

      .cls-1, .cls-5, .cls-7, .cls-8 {
        fill-rule: evenodd;
      }

      .cls-2 {
        fill: #17c964;
      }

      .cls-3 {
        fill: #f31260;
      }

      .cls-4 {
        fill: #f5a524;
      }

      .cls-5, .cls-6 {
        fill: #18181b;
      }

      .cls-7 {
        fill: #006fee;
      }

      .cls-8 {
        fill: #9353d3;
      }
    </style>
  </defs>
  <g id="Empty_Wishlist" data-name="Empty Wishlist" transform="translate(-20 -32)">
    <path id="Path_394" data-name="Path 394" class="cls-1" d="M108.8,93.7c37.86-30.612,73.325-64.783,105.3-61.482,31.906,3.236,60.317,44.072,71.06,83.162,10.678,39.154,3.689,76.561-11.2,114.55-14.821,37.925-37.537,76.432-69.895,86.334-32.295,9.837-74.3-8.931-111.51-36.7-37.147-27.764-69.57-64.524-65.623-96.365C30.818,151.3,71.008,124.315,108.8,93.7Z"/>
    <circle id="Ellipse_117" data-name="Ellipse 117" class="cls-2" cx="3" cy="3" r="3" transform="translate(47 272.045)"/>
    <circle id="Ellipse_118" data-name="Ellipse 118" class="cls-3" cx="5" cy="5" r="5" transform="translate(166 285.045)"/>
    <circle id="Ellipse_119" data-name="Ellipse 119" class="cls-4" cx="5" cy="5" r="5" transform="translate(150 126.045)"/>
    <path id="Path_395" data-name="Path 395" class="cls-5" d="M74.506,186.269l-.081.143a56.659,56.659,0,0,0-3.967,8.714,1.5,1.5,0,0,1-1.9.915l-.01,0a1.5,1.5,0,0,1-.917-1.92,59.611,59.611,0,0,1,4.262-9.326,1.5,1.5,0,0,1,2.044-.567,1.5,1.5,0,0,1,.567,2.044Zm-8.857,29.475h.02a1.5,1.5,0,0,0,1.479-1.5,56.8,56.8,0,0,1,.834-9.7,1.5,1.5,0,0,0-1.2-1.731l-.01,0H66.76a1.5,1.5,0,0,0-1.734,1.222,59.648,59.648,0,0,0-.878,10.215,1.5,1.5,0,0,0,1.5,1.5Zm1.725,7.22a1.5,1.5,0,0,0-1.1-.253l-.01,0h-.009a1.5,1.5,0,0,0-1.219,1.736,59.036,59.036,0,0,0,2.632,9.9,1.5,1.5,0,0,0,1.92.9l.009,0,.009,0a1.5,1.5,0,0,0,.883-1.913,56.089,56.089,0,0,1-2.5-9.4,1.5,1.5,0,0,0-.615-.97Zm6.29,18.51a1.484,1.484,0,0,0-1.122.134l-.009,0-.008,0a1.5,1.5,0,0,0-.56,2.046,59.972,59.972,0,0,0,5.83,8.461,1.5,1.5,0,0,0,2.111.2l.007-.006.008-.006a1.5,1.5,0,0,0,.189-2.1,57.008,57.008,0,0,1-5.539-8.039,1.5,1.5,0,0,0-.907-.7Zm84.946,19.151a1.5,1.5,0,0,1,.015-2.1,27.631,27.631,0,0,0,5.231-7.374,1.51,1.51,0,0,1,.131-.219,1.5,1.5,0,0,1,2.566,1.534,30.638,30.638,0,0,1-5.795,8.169,1.5,1.5,0,0,1-2.122.011l-.013-.013-.013-.013Zm-71.68-3.454a1.5,1.5,0,0,0-2.108.156l-.007.007a1.5,1.5,0,0,0,.164,2.115,59.1,59.1,0,0,0,8.331,5.968,1.5,1.5,0,0,0,2.055-.526l0-.008,0-.009a1.5,1.5,0,0,0-.535-2.038,56.143,56.143,0,0,1-7.91-5.665Zm55.2,10.621a1.5,1.5,0,0,0-1.01,1.851l0,.009,0,.009a1.5,1.5,0,0,0,1.868,1.005,49.712,49.712,0,0,0,9.416-3.848,1.5,1.5,0,0,0,.6-2.034l-.007-.013-.007-.012a1.5,1.5,0,0,0-2.02-.578A46.654,46.654,0,0,1,142.131,267.792Zm-38.525-.732a1.5,1.5,0,0,0-1.928.851l0,.009,0,.009a1.5,1.5,0,0,0,.87,1.935,59.752,59.752,0,0,0,9.857,2.808,1.5,1.5,0,0,0,1.759-1.187v-.009a1.5,1.5,0,0,0-1.188-1.749,56.8,56.8,0,0,1-9.364-2.667Zm30.769,4.066a1.5,1.5,0,0,0-1.708-1.242q-4.026.609-8.092.881-.961.012-1.924-.007a1.5,1.5,0,0,0-1.53,1.45v.02a1.5,1.5,0,0,0,1.47,1.53q1.034.021,2.068.006h.041l.04,0q4.405-.3,8.383-.911a1.5,1.5,0,0,0,.981-.6,1.5,1.5,0,0,0,.274-1.115v-.013Z"/>
    <rect id="Rectangle_231" data-name="Rectangle 231" class="cls-6" width="18" height="4" rx="2" transform="translate(173.163 109.494) rotate(-85)"/>
    <rect id="Rectangle_232" data-name="Rectangle 232" class="cls-6" width="18" height="4" rx="2" transform="translate(183.841 111.513) rotate(-65)"/>
    <rect id="Rectangle_233" data-name="Rectangle 233" class="cls-6" width="18" height="4" rx="2" transform="translate(163.205 112.707) rotate(-114)"/>
    <path id="Path_396" data-name="Path 396" class="cls-7" d="M202.389,165.145l8.2-13.14a79.19,79.19,0,0,1,11.066-12.229,50.005,50.005,0,0,1,9.65-5.725c24.973-10.021,53.152,1.6,63.274,25.619,7.8,18.9,4.8,38.17-5.932,53.608-5.6,9.17-13.57,16.319-23.78,23.054-13.435,8.817-32.463,17.4-57.226,26.424l-31.187,11.271.6-34.594,17.469-16.87a4,4,0,0,0,.1-5.656l-7.554-7.823a4,4,0,0,1,.747-6.164l19.331-12.163a4,4,0,0,0,1.6-4.835l-6.692-17.209a4,4,0,0,1,.334-3.568Z"/>
    <path id="Path_397" data-name="Path 397" class="cls-5" d="M275.647,211.278c10.727-15.438,13.733-34.7,5.933-53.608-10.123-24.015-38.3-35.64-63.275-25.619a50.058,50.058,0,0,0-9.65,5.725,79.188,79.188,0,0,0-11.066,12.229l-8.2,13.141a4,4,0,0,0-.335,3.566l6.693,17.211a4,4,0,0,1-1.6,4.834l-19.333,12.164a4,4,0,0,0-.747,6.163l7.556,7.824a4,4,0,0,1-.1,5.655l-17.469,16.87-.548,31.384-.056,3.21,3.02-1.091,28.167-10.18c24.763-9.022,43.791-17.607,57.226-26.423,10.21-6.736,18.183-13.884,23.78-23.055ZM166.53,267.726l27.084-9.789q37.806-13.774,56.6-26.108,15.695-10.353,22.871-22.114l.047-.076.05-.073a53.2,53.2,0,0,0,9.4-24.157,52.031,52.031,0,0,0-3.769-26.574,43.1,43.1,0,0,0-24.435-23.959,45,45,0,0,0-34.9-.064,46.833,46.833,0,0,0-8.914,5.279,68.732,68.732,0,0,0-10.472,11.565l-8.161,13.078a.95.95,0,0,0-.083.891l6.692,17.211q2.094,5.384-2.8,8.46L176.415,203.46a1,1,0,0,0-.187,1.54l7.556,7.824a7,7,0,0,1-.173,9.9l-16.575,16.007-.506,29Z"/>
    <path id="Path_398" data-name="Path 398" class="cls-8" d="M116.846,116.574l-7.97-13.282a79.17,79.17,0,0,0-10.85-12.42,50.053,50.053,0,0,0-9.55-5.893C63.683,74.524,35.3,85.656,24.765,109.49c-8.13,18.765-5.46,38.081,5,53.7,5.436,9.267,13.283,16.554,23.374,23.467,13.279,9.049,32.154,17.965,56.756,27.418l30.985,11.813v-34.6L123.705,174.12a4,4,0,0,1,0-5.656l7.69-7.69a4,4,0,0,0-.64-6.177L111.64,142.1a4,4,0,0,1-1.513-4.863l6.991-17.09a4,4,0,0,0-.272-3.572Z"/>
    <path id="Path_399" data-name="Path 399" class="cls-5" d="M44.761,163.193c-10.457-15.622-13.126-34.938-5-53.7,10.54-23.834,38.918-34.966,63.712-24.51a50.068,50.068,0,0,1,9.549,5.892,79.212,79.212,0,0,1,10.851,12.42l7.969,13.282a4,4,0,0,1,.272,3.572l-6.992,17.091a4,4,0,0,0,1.513,4.861l19.117,12.5a4,4,0,0,1,.64,6.175l-7.692,7.691a4,4,0,0,0,0,5.656l17.173,17.172v34.6l-3-1.143-27.986-10.67c-24.6-9.453-43.477-18.369-56.756-27.418-10.091-6.913-17.938-14.2-23.374-23.467Zm108.116,58.344-26.91-10.26Q88.408,196.845,69.83,184.185q-15.51-10.626-22.481-22.51L47.3,161.6l-.05-.074a53.2,53.2,0,0,1-8.977-24.318,52.026,52.026,0,0,1,4.232-26.5,43.1,43.1,0,0,1,24.85-23.529,45,45,0,0,1,34.894.545,46.839,46.839,0,0,1,8.821,5.434A68.726,68.726,0,0,1,121.342,104.9l7.932,13.219a.951.951,0,0,1,.068.892L122.35,136.1q-2.187,5.348,2.647,8.508l19.118,12.5a1,1,0,0,1,.159,1.542l-7.691,7.692a7,7,0,0,0,0,9.9l16.294,16.294v29Z"/>
  </g>
</svg>
