<svg xmlns="http://www.w3.org/2000/svg" width="286.915" height="263.701" viewBox="0 0 286.915 263.701">
  <defs>
    <style>
      .cls-1 {
        fill: #3f3f46;
      }

      .cls-1, .cls-5, .cls-7 {
        fill-rule: evenodd;
      }

      .cls-2 {
        fill: #f31260;
      }

      .cls-3 {
        fill: #17c964;
      }

      .cls-4 {
        fill: #f5a524;
      }

      .cls-5, .cls-6 {
        fill: #18181b;
      }

      .cls-7 {
        fill: #9353d3;
      }

      .cls-8 {
        fill: #27272a;
      }

      .cls-9 {
        fill: #006fee;
      }
    </style>
  </defs>
  <g id="Empty-Cart" transform="translate(-17 -43)">
    <path id="Path_400" data-name="Path 400" class="cls-1" d="M242.211,125.195c30.612,37.859,64.783,73.325,61.482,105.295-3.236,31.906-44.073,60.317-83.162,71.061-39.154,10.678-76.561,3.688-114.551-11.2-37.924-14.82-76.431-37.536-86.333-69.895-9.837-32.294,8.93-74.3,36.695-111.509C84.106,71.8,120.865,39.379,152.707,43.327c31.9,3.883,58.893,44.072,89.5,81.868Z"/>
    <circle id="Ellipse_120" data-name="Ellipse 120" class="cls-2" cx="3" cy="3" r="3" transform="translate(156.997 94.965)"/>
    <circle id="Ellipse_121" data-name="Ellipse 121" class="cls-3" cx="5" cy="5" r="5" transform="translate(79.997 258.965)"/>
    <circle id="Ellipse_122" data-name="Ellipse 122" class="cls-4" cx="5" cy="5" r="5" transform="translate(241.997 204.965)"/>
    <path id="Path_401" data-name="Path 401" class="cls-5" d="M66.192,143.724l-.322.211a56.843,56.843,0,0,0-7.351,5.793,1.5,1.5,0,0,1-2.106-.061l-.007-.007a1.5,1.5,0,0,1,.068-2.127,59.693,59.693,0,0,1,8.078-6.322,1.5,1.5,0,0,1,2.076.437,1.5,1.5,0,0,1-.436,2.076ZM44.815,166.251l.009.005.008,0a1.5,1.5,0,0,0,2-.657,56.066,56.066,0,0,1,5.18-8.232,1.5,1.5,0,0,0-.289-2.1,1.5,1.5,0,0,0-2.1.29,59.073,59.073,0,0,0-5.457,8.673,1.5,1.5,0,0,0,.648,2.019ZM39.3,184.793h.019a1.5,1.5,0,0,0,1.664-1.293,57.322,57.322,0,0,1,2.114-9.586,1.5,1.5,0,0,0-.967-1.873l-.009,0-.01,0a1.5,1.5,0,0,0-1.878.985,60.268,60.268,0,0,0-2.224,10.087,1.5,1.5,0,0,0,1.29,1.684Zm1.212,7.568a1.5,1.5,0,0,0-1.059-.4h-.019A1.5,1.5,0,0,0,38,193.526a59.083,59.083,0,0,0,1.31,10.178,1.5,1.5,0,0,0,1.786,1.145l.01,0,.009,0a1.5,1.5,0,0,0,1.127-1.781A56.062,56.062,0,0,1,41,193.4a1.5,1.5,0,0,0-.482-1.042ZM44.886,212.9a1.5,1.5,0,0,0-1.938-.83l-.009,0-.009,0a1.5,1.5,0,0,0-.822,1.956,59.807,59.807,0,0,0,4.667,9.122,1.5,1.5,0,0,0,2.075.472l.008-.005a1.5,1.5,0,0,0,.461-2.057,56.79,56.79,0,0,1-4.434-8.665Zm18.259,24.228a1.5,1.5,0,0,0-.289-2.093q-1.89-1.442-3.812-3.06-1.79-1.681-3.43-3.513a1.5,1.5,0,0,0-2.11-.125l-.007.007a1.5,1.5,0,0,0-.118,2.118q1.739,1.943,3.642,3.729l.03.027.03.026q1.939,1.634,3.954,3.175a1.5,1.5,0,0,0,2.1-.282l.007-.009Zm7.108,4.042a1.5,1.5,0,0,0-2.043.525l0,.007,0,.007a1.5,1.5,0,0,0,.54,2.052,56.208,56.208,0,0,0,9.31,4.409,1.5,1.5,0,0,0,1.919-.906l0-.012,0-.012a1.5,1.5,0,0,0-.914-1.894,53.2,53.2,0,0,1-8.811-4.176Zm17.269,6.017A1.49,1.49,0,0,0,87,248.2v.017a1.5,1.5,0,0,0,1.379,1.612,31.016,31.016,0,0,0,10.389-.91,1.5,1.5,0,0,0,1.068-1.832l0-.019,0-.018a1.5,1.5,0,0,0-1.238-1.067,1.494,1.494,0,0,0-.584.035,28.053,28.053,0,0,1-9.392.82,1.5,1.5,0,0,0-1.092.356Z"/>
    <rect id="Rectangle_234" data-name="Rectangle 234" class="cls-6" width="18" height="4" rx="2" transform="matrix(-0.643, -0.766, 0.766, -0.643, 106.996, 96.965)"/>
    <rect id="Rectangle_235" data-name="Rectangle 235" class="cls-6" width="18" height="4" rx="2" transform="translate(127.047 90.339) rotate(-81)"/>
    <rect id="Rectangle_236" data-name="Rectangle 236" class="cls-6" width="18" height="4" rx="2" transform="translate(116.07 91.728) rotate(-101)"/>
    <path id="Path_402" data-name="Path 402" class="cls-7" d="M81.12,117.831A8,8,0,0,1,89,108.437H239.917a8,8,0,0,1,7.878,9.394l-17.168,97a8,8,0,0,1-7.878,6.606H106.166a8,8,0,0,1-7.877-6.605l-17.169-97Z"/>
    <path id="Path_403" data-name="Path 403" class="cls-5" d="M71.528,119.437,91,229.437H214.289a8,8,0,0,0,7.877-6.6l17.168-97a8,8,0,0,0-7.876-9.393H71l.53,3Zm3.469,0,18.938,107H214.71a4.5,4.5,0,0,0,4.923-4.128l17.168-97a5,5,0,0,0-4.922-5.87H75Z"/>
    <path id="Path_404" data-name="Path 404" class="cls-5" d="M38.34,73.7,58.467,87.332a31.266,31.266,0,0,1,13.782,21.283l.062.355,21.48,122.272A12.5,12.5,0,0,0,106.1,241.579H209.5a1.5,1.5,0,0,1,0,3H106.1a15.5,15.5,0,0,1-15.266-12.818L69.295,109.135a32.365,32.365,0,0,0-.986-4.078A28.207,28.207,0,0,0,56.786,89.816l-13.25-8.975-6.877-4.66A1.5,1.5,0,0,1,38.341,73.7ZM126.5,276.437a13.5,13.5,0,1,1,9.546-3.954,13.007,13.007,0,0,1-9.546,3.954Zm0-3a10.5,10.5,0,1,0-7.425-3.075A10.116,10.116,0,0,0,126.5,273.437Zm59,3a13.5,13.5,0,1,1,9.546-3.954A13.007,13.007,0,0,1,185.5,276.437Zm0-3a10.5,10.5,0,1,0-7.425-3.075A10.116,10.116,0,0,0,185.5,273.437Z"/>
    <rect id="Rectangle_237" data-name="Rectangle 237" class="cls-6" width="97" height="3" rx="1.5" transform="translate(130.997 179.437)"/>
    <rect id="Rectangle_238" data-name="Rectangle 238" class="cls-6" width="90" height="3" rx="1.5" transform="translate(136.997 189.437)"/>
    <rect id="Rectangle_239" data-name="Rectangle 239" class="cls-6" width="80" height="3" rx="1.5" transform="translate(144.997 200.437)"/>
    <rect id="Rectangle_240" data-name="Rectangle 240" class="cls-6" width="70" height="3" rx="1.5" transform="translate(153.997 210.437)"/>
    <path id="Path_406" data-name="Path 406" class="cls-8" d="M40,0A40,40,0,1,1,0,40,40,40,0,0,1,40,0Z" transform="translate(173.997 77.437)"/>
    <circle id="Ellipse_124" data-name="Ellipse 124" class="cls-9" cx="35" cy="35" r="35" transform="translate(185.997 78.437)"/>
    <path id="Path_405" data-name="Path 405" class="cls-5" d="M250,115.437a35,35,0,1,1-35-35A35,35,0,0,1,250,115.437Zm-12.373,22.628A32,32,0,0,1,183,115.437,32,32,0,0,1,237.624,92.81a32,32,0,0,1,0,45.255Z"/>
    <rect id="Rectangle_241" data-name="Rectangle 241" class="cls-6" width="3" height="32" rx="1.5" transform="translate(224.749 103.063) rotate(45)"/>
    <rect id="Rectangle_242" data-name="Rectangle 242" class="cls-6" width="3" height="32" rx="1.5" transform="translate(226.871 125.691) rotate(135)"/>
  </g>
</svg>
