<svg xmlns="http://www.w3.org/2000/svg" width="286.915" height="263.701" viewBox="0 0 286.915 263.701">
  <defs>
    <style>
      .cls-1 {
        fill: #3f3f46;
      }

      .cls-1, .cls-5 {
        fill-rule: evenodd;
      }

      .cls-2 {
        fill: #17c964;
      }

      .cls-3 {
        fill: #f31260;
      }

      .cls-4 {
        fill: #f5a524;
      }

      .cls-5, .cls-8 {
        fill: #18181b;
      }

      .cls-6 {
        fill: #0d0938;
      }

      .cls-7 {
        fill: #9353d3;
      }

      .cls-9 {
        fill: #27272a;
      }

      .cls-10 {
        fill: #006fee;
      }
    </style>
  </defs>
  <g id="Grades-Not-Found" transform="translate(-17 -43)">
    <path id="Path_417" data-name="Path 417" class="cls-1" d="M242.211,125.195c30.612,37.859,64.783,73.325,61.482,105.295-3.236,31.906-44.073,60.317-83.162,71.061-39.154,10.678-76.561,3.688-114.551-11.2-37.924-14.82-76.431-37.536-86.333-69.895-9.837-32.294,8.93-74.3,36.695-111.509C84.106,71.8,120.865,39.379,152.707,43.327c31.9,3.883,58.893,44.072,89.5,81.868Z"/>
    <circle id="Ellipse_128" data-name="Ellipse 128" class="cls-2" cx="3" cy="3" r="3" transform="translate(277.991 165.428)"/>
    <circle id="Ellipse_129" data-name="Ellipse 129" class="cls-3" cx="5" cy="5" r="5" transform="translate(140.991 59.428)"/>
    <circle id="Ellipse_130" data-name="Ellipse 130" class="cls-4" cx="5" cy="5" r="5" transform="translate(78.991 288.428)"/>
    <path id="Path_418" data-name="Path 418" class="cls-5" d="M203.216,114.938a1.5,1.5,0,0,0,1.368,1.622q2.326.2,4.607.519a1.5,1.5,0,1,0,.42-2.97q-2.379-.336-4.774-.539a1.5,1.5,0,0,0-1.621,1.368ZM217.2,117.07a1.5,1.5,0,0,0,1.07,1.831,74.16,74.16,0,0,1,8.78,2.9,1.5,1.5,0,1,0,1.118-2.784A77.058,77.058,0,0,0,219.033,116a1.5,1.5,0,0,0-1.832,1.07Zm17.6,6.685a1.5,1.5,0,0,0,.562,2.046,62.252,62.252,0,0,1,7.651,5.126,1.5,1.5,0,1,0,1.852-2.36,65.135,65.135,0,0,0-8.019-5.373,1.5,1.5,0,0,0-2.046.561Zm15.053,11.282a1.5,1.5,0,0,0-.089,2.12,52.636,52.636,0,0,1,5.6,7.257,1.5,1.5,0,0,0,2.527-1.617,55.585,55.585,0,0,0-5.918-7.671,1.5,1.5,0,0,0-2.119-.089Zm10.549,15.547a1.5,1.5,0,0,0-.822,1.955,50.5,50.5,0,0,1,2.649,8.624,1.5,1.5,0,1,0,2.935-.621,53.359,53.359,0,0,0-2.806-9.137A1.5,1.5,0,0,0,260.407,150.584Zm4.342,17.849a1.5,1.5,0,0,0-1.451,1.547,52.5,52.5,0,0,1-.474,8.881,1.5,1.5,0,1,0,2.971.411,55.419,55.419,0,0,0,.5-9.388,1.5,1.5,0,0,0-1.548-1.451Zm-1.978,18.132a1.5,1.5,0,0,0-1.872,1,61.479,61.479,0,0,1-3.225,8.33,1.5,1.5,0,0,0,2.713,1.28,64.489,64.489,0,0,0,3.382-8.736,1.5,1.5,0,0,0-1-1.872Zm-7.381,16.7a1.5,1.5,0,0,0-2.074.445,73.207,73.207,0,0,1-5.329,7.214,1.5,1.5,0,1,0,2.3,1.925,76.1,76.1,0,0,0,5.548-7.509,1.5,1.5,0,0,0-.445-2.075Zm-11.437,14.256a1.5,1.5,0,0,0-2.121-.055,83.078,83.078,0,0,1-6.851,5.824,1.5,1.5,0,1,0,1.818,2.386,85.742,85.742,0,0,0,7.1-6.034,1.5,1.5,0,0,0,.056-2.121ZM229.61,228.864a1.5,1.5,0,0,0-2.062-.5q-1.925,1.172-3.906,2.248a1.5,1.5,0,1,0,1.431,2.637q2.047-1.112,4.037-2.324a1.5,1.5,0,0,0,.5-2.061Z"/>
    <rect id="Rectangle_252" data-name="Rectangle 252" class="cls-6" width="17.89" height="4.051" rx="2" transform="matrix(-0.602, -0.799, 0.799, -0.602, 52.196, 88.321)"/>
    <rect id="Rectangle_253" data-name="Rectangle 253" class="cls-6" width="17.89" height="4.051" rx="2" transform="matrix(-0.292, -0.956, 0.956, -0.292, 61.598, 82.524)"/>
    <rect id="Rectangle_254" data-name="Rectangle 254" class="cls-6" width="17.89" height="4.051" rx="2" transform="translate(46.791 97.519) rotate(-156)"/>
    <path id="Path_423" data-name="Path 423" class="cls-7" d="M15,0H119a15,15,0,0,1,15,15V153a15,15,0,0,1-15,15H15A15,15,0,0,1,0,153V15A15,15,0,0,1,15,0Z" transform="translate(54.991 85.428)"/>
    <path id="Path_419" data-name="Path 419" class="cls-5" d="M181.991,98.428h-104a12,12,0,0,0-12,12v138a12,12,0,0,0,12,12h104a12,12,0,0,0,12-12v-138a12,12,0,0,0-12-12Zm-104-3a15,15,0,0,0-15,15v138a15,15,0,0,0,15,15h104a15,15,0,0,0,15-15v-138a15,15,0,0,0-15-15h-104Z"/>
    <path id="Path_420" data-name="Path 420" class="cls-5" d="M104.991,161.428a23,23,0,1,0-23-23A23,23,0,0,0,104.991,161.428Zm0,3a26,26,0,1,0-26-26A26,26,0,0,0,104.991,164.428Z"/>
    <path id="Path_421" data-name="Path 421" class="cls-5" d="M106.822,150.428l-1.989-5.531H97.217l-1.948,5.531H91.835l7.453-20h3.542l7.452,20h-3.46Zm-2.848-8.338-1.866-5.422q-.306-.851-.565-1.717t-.5-1.716a30.546,30.546,0,0,1-1.076,3.665l-1.8,5.19h5.8Zm7.292-11.367h-4.275v-1.912h4.275v-4.383H113.2v4.383h4.286v1.912H113.2v4.361h-1.934Z"/>
    <rect id="Rectangle_256" data-name="Rectangle 256" class="cls-8" width="90" height="3" rx="1.5" transform="translate(78.991 195.428)"/>
    <rect id="Rectangle_257" data-name="Rectangle 257" class="cls-8" width="60" height="3" rx="1.5" transform="translate(78.991 178.428)"/>
    <rect id="Rectangle_258" data-name="Rectangle 258" class="cls-8" width="100" height="3" rx="1.5" transform="translate(78.991 213.428)"/>
    <rect id="Rectangle_259" data-name="Rectangle 259" class="cls-8" width="100" height="3" rx="1.5" transform="translate(78.991 231.428)"/>
    <circle id="Ellipse_131" data-name="Ellipse 131" class="cls-9" cx="39.58" cy="39.58" r="39.58" transform="translate(163.411 183.689)"/>
    <path id="Path_424" data-name="Path 424" class="cls-10" d="M31,0A31,31,0,1,1,0,31,31,31,0,0,1,31,0Z" transform="translate(177.991 195.269)"/>
    <path id="Path_422" data-name="Path 422" class="cls-5" d="M202.991,251.269a28,28,0,1,0-28-28A28,28,0,0,0,202.991,251.269Zm0,3a31,31,0,1,0-31-31A31,31,0,0,0,202.991,254.269Z"/>
    <rect id="Rectangle_260" data-name="Rectangle 260" class="cls-8" width="3" height="32" rx="1.5" transform="translate(213.708 211.027) rotate(45)"/>
    <rect id="Rectangle_261" data-name="Rectangle 261" class="cls-8" width="3" height="32" rx="1.5" transform="translate(215.832 233.651) rotate(135)"/>
  </g>
</svg>
