<svg xmlns="http://www.w3.org/2000/svg" width="286.915" height="263.701" viewBox="0 0 286.915 263.701">
  <defs>
    <style>
      .cls-1 {
        fill: #3f3f46;
      }

      .cls-1, .cls-5, .cls-7 {
        fill-rule: evenodd;
      }

      .cls-2 {
        fill: #f31260;
      }

      .cls-3 {
        fill: #f5a524;
      }

      .cls-4 {
        fill: #17c964;
      }

      .cls-5, .cls-6 {
        fill: #18181b;
      }

      .cls-7 {
        fill: #9353d3;
      }

      .cls-8 {
        fill: #27272a;
      }

      .cls-9 {
        fill: #006fee;
      }
    </style>
  </defs>
  <g id="Hotel-Not-Found" transform="translate(-9 -43)">
    <path id="Path_425" data-name="Path 425" class="cls-1" d="M234.211,125.195c30.612,37.859,64.783,73.325,61.482,105.295-3.236,31.906-44.073,60.317-83.162,71.061-39.154,10.678-76.561,3.688-114.55-11.2-37.925-14.82-76.432-37.536-86.334-69.895-9.837-32.294,8.93-74.3,36.695-111.509C76.106,71.8,112.865,39.379,144.707,43.327c31.9,3.883,58.893,44.072,89.5,81.868Z"/>
    <circle id="Ellipse_132" data-name="Ellipse 132" class="cls-2" cx="3" cy="3" r="3" transform="translate(120.99 290.422)"/>
    <circle id="Ellipse_133" data-name="Ellipse 133" class="cls-3" cx="5" cy="5" r="5" transform="translate(116.99 56.422)"/>
    <circle id="Ellipse_134" data-name="Ellipse 134" class="cls-4" cx="5" cy="5" r="5" transform="translate(281.99 231.422)"/>
    <path id="Path_426" data-name="Path 426" class="cls-5" d="M261.971,135.446q-1.538-1.246-3.158-2.385a1.5,1.5,0,1,1,1.725-2.454,61.325,61.325,0,0,1,6.9,5.639,1.5,1.5,0,1,1-2.062,2.179q-1.642-1.555-3.4-2.979Zm-7.9-7.127a1.5,1.5,0,0,1-2.02.648,56.99,56.99,0,0,0-7.262-3.122,1.5,1.5,0,1,1,.99-2.832,60.052,60.052,0,0,1,7.645,3.286,1.5,1.5,0,0,1,.647,2.02Zm17.623,14.7a1.5,1.5,0,0,1,2.1.276,60.06,60.06,0,0,1,5.172,7.962,1.5,1.5,0,1,1-2.637,1.43,57.058,57.058,0,0,0-4.914-7.564A1.5,1.5,0,0,1,271.691,143.019Zm-32.764-20.438a1.5,1.5,0,0,1-1.766,1.175q-1.94-.389-3.9-.645a1.5,1.5,0,0,1,.387-2.975q2.065.269,4.107.679a1.5,1.5,0,0,1,1.175,1.766Zm41.982,36.438a1.5,1.5,0,0,1,1.914.915,60.82,60.82,0,0,1,2.45,9.173,1.5,1.5,0,1,1-2.95.545,57.654,57.654,0,0,0-2.329-8.719A1.5,1.5,0,0,1,280.909,159.019Zm3.817,18.069a1.5,1.5,0,0,1,1.539,1.46,60.8,60.8,0,0,1-.489,9.481,1.5,1.5,0,0,1-2.975-.389,57.728,57.728,0,0,0,.465-9.012,1.5,1.5,0,0,1,1.46-1.54Zm-1.93,18.366a1.5,1.5,0,0,1,1.013,1.864,60.142,60.142,0,0,1-3.4,8.864,1.5,1.5,0,0,1-2.707-1.294,56.929,56.929,0,0,0,3.235-8.421,1.5,1.5,0,0,1,1.864-1.013Zm-7.532,16.858a1.5,1.5,0,0,1,.385,2.087,61.206,61.206,0,0,1-6.6,8.025,1.5,1.5,0,0,1-2.147-2.094,58.464,58.464,0,0,0,6.273-7.633,1.5,1.5,0,0,1,2.086-.385ZM260.83,227.638a1.5,1.5,0,0,1-.369,2.089,60.1,60.1,0,0,1-9.805,5.57,1.5,1.5,0,1,1-1.231-2.736,57.176,57.176,0,0,0,9.316-5.292,1.5,1.5,0,0,1,2.089.369Zm-19.737,9.5a1.5,1.5,0,0,1-1.107,1.809,60.884,60.884,0,0,1-11.159,1.612,1.5,1.5,0,1,1-.151-3,57.872,57.872,0,0,0,10.608-1.531,1.5,1.5,0,0,1,1.809,1.107Zm-21.841,1.66a1.5,1.5,0,0,1-1.689,1.284q-2.8-.381-5.552-1.022a1.5,1.5,0,1,1,.681-2.922q2.62.61,5.276.972a1.5,1.5,0,0,1,1.284,1.688Z"/>
    <rect id="Rectangle_262" data-name="Rectangle 262" class="cls-6" width="17.89" height="4.051" rx="2" transform="matrix(-0.766, -0.643, 0.643, -0.766, 41.886, 153.275)"/>
    <rect id="Rectangle_263" data-name="Rectangle 263" class="cls-6" width="17.89" height="4.051" rx="2" transform="matrix(-0.94, -0.342, 0.342, -0.94, 36.821, 163.095)"/>
    <rect id="Rectangle_264" data-name="Rectangle 264" class="cls-6" width="17.89" height="4.05" rx="2" transform="matrix(-0.358, -0.934, 0.934, -0.358, 50.144, 146.712)"/>
    <path id="Path_427" data-name="Path 427" class="cls-7" d="M116.99,105.422a8,8,0,0,0-8,8v42.032a5.658,5.658,0,0,0-.6-.032H53.59a5.6,5.6,0,0,0-5.6,5.6v104.8a5.6,5.6,0,0,0,5.6,5.6h54.8a5.58,5.58,0,0,0,3.867-1.55,7.967,7.967,0,0,0,4.733,1.55h78a8,8,0,0,0,8-8v-150a8,8,0,0,0-8-8h-78Z"/>
    <path id="Path_428" data-name="Path 428" class="cls-5" d="M60.59,162.922a4.1,4.1,0,0,0-4.1,4.1v104.8a4.1,4.1,0,0,0,4.1,4.1h54.8a1.5,1.5,0,0,1,0,3H60.59a7.1,7.1,0,0,1-7.1-7.1v-104.8a7.1,7.1,0,0,1,7.1-7.1h54.8a1.5,1.5,0,1,1,0,3H60.59Z"/>
    <path id="Path_429" data-name="Path 429" class="cls-5" d="M79.63,179.422H69.35a.36.36,0,0,0-.36.36v10.28a.36.36,0,0,0,.36.36H79.63a.36.36,0,0,0,.36-.36v-10.28A.36.36,0,0,0,79.63,179.422Zm-10.28-3a3.36,3.36,0,0,0-3.36,3.36v10.28a3.36,3.36,0,0,0,3.36,3.36H79.63a3.36,3.36,0,0,0,3.36-3.36v-10.28a3.36,3.36,0,0,0-3.36-3.36Zm10.28,39H69.35a.36.36,0,0,0-.36.36v10.28a.36.36,0,0,0,.36.36H79.63a.36.36,0,0,0,.36-.36v-10.28A.36.36,0,0,0,79.63,215.422Zm-10.28-3a3.36,3.36,0,0,0-3.36,3.36v10.28a3.36,3.36,0,0,0,3.36,3.36H79.63a3.36,3.36,0,0,0,3.36-3.36v-10.28a3.36,3.36,0,0,0-3.36-3.36Zm10.28,40H69.35a.36.36,0,0,0-.36.36v10.28a.36.36,0,0,0,.36.36H79.63a.36.36,0,0,0,.36-.36v-10.28a.36.36,0,0,0-.36-.36Zm-10.28-3a3.36,3.36,0,0,0-3.36,3.36v10.28a3.36,3.36,0,0,0,3.36,3.36H79.63a3.36,3.36,0,0,0,3.36-3.36v-10.28a3.36,3.36,0,0,0-3.36-3.36H69.35Zm39.28-70H98.35a.36.36,0,0,0-.36.36v10.28a.36.36,0,0,0,.36.36h10.28a.36.36,0,0,0,.36-.36v-10.28a.36.36,0,0,0-.36-.36Zm-10.28-3a3.36,3.36,0,0,0-3.36,3.36v10.28a3.36,3.36,0,0,0,3.36,3.36h10.28a3.36,3.36,0,0,0,3.36-3.36v-10.28a3.36,3.36,0,0,0-3.36-3.36Zm10.28,39H98.35a.36.36,0,0,0-.36.36v10.28a.36.36,0,0,0,.36.36h10.28a.36.36,0,0,0,.36-.36v-10.28a.36.36,0,0,0-.36-.36Zm-10.28-3a3.36,3.36,0,0,0-3.36,3.36v10.28a3.36,3.36,0,0,0,3.36,3.36h10.28a3.36,3.36,0,0,0,3.36-3.36v-10.28a3.36,3.36,0,0,0-3.36-3.36Zm10.28,40H98.35a.36.36,0,0,0-.36.36v10.28a.36.36,0,0,0,.36.36h10.28a.36.36,0,0,0,.36-.36v-10.28a.36.36,0,0,0-.36-.36Zm-10.28-3a3.36,3.36,0,0,0-3.36,3.36v10.28a3.36,3.36,0,0,0,3.36,3.36h10.28a3.36,3.36,0,0,0,3.36-3.36v-10.28a3.36,3.36,0,0,0-3.36-3.36H98.35Zm106.64-133h-78a5,5,0,0,0-5,5v150a5,5,0,0,0,5,5h78a5,5,0,0,0,5-5v-150A5,5,0,0,0,204.99,116.422Zm-78-3a8,8,0,0,0-8,8v150a8,8,0,0,0,8,8h78a8,8,0,0,0,8-8v-150a8,8,0,0,0-8-8Z"/>
    <path id="Path_430" data-name="Path 430" class="cls-5" d="M152.19,134.422h-14.4a1.8,1.8,0,0,0-1.8,1.8v14.4a1.8,1.8,0,0,0,1.8,1.8h14.4a1.8,1.8,0,0,0,1.8-1.8v-14.4A1.8,1.8,0,0,0,152.19,134.422Zm-14.4-3a4.8,4.8,0,0,0-4.8,4.8v14.4a4.8,4.8,0,0,0,4.8,4.8h14.4a4.8,4.8,0,0,0,4.8-4.8v-14.4a4.8,4.8,0,0,0-4.8-4.8Zm14.4,40h-14.4a1.8,1.8,0,0,0-1.8,1.8v14.4a1.8,1.8,0,0,0,1.8,1.8h14.4a1.8,1.8,0,0,0,1.8-1.8v-14.4A1.8,1.8,0,0,0,152.19,171.422Zm-14.4-3a4.8,4.8,0,0,0-4.8,4.8v14.4a4.8,4.8,0,0,0,4.8,4.8h14.4a4.8,4.8,0,0,0,4.8-4.8v-14.4a4.8,4.8,0,0,0-4.8-4.8Zm14.4,39h-14.4a1.8,1.8,0,0,0-1.8,1.8v14.4a1.8,1.8,0,0,0,1.8,1.8h14.4a1.8,1.8,0,0,0,1.8-1.8v-14.4A1.8,1.8,0,0,0,152.19,207.422Zm-14.4-3a4.8,4.8,0,0,0-4.8,4.8v14.4a4.8,4.8,0,0,0,4.8,4.8h14.4a4.8,4.8,0,0,0,4.8-4.8v-14.4a4.8,4.8,0,0,0-4.8-4.8Zm55.4-70h-14.4a1.8,1.8,0,0,0-1.8,1.8v14.4a1.8,1.8,0,0,0,1.8,1.8h14.4a1.8,1.8,0,0,0,1.8-1.8v-14.4A1.8,1.8,0,0,0,193.19,134.422Zm-14.4-3a4.8,4.8,0,0,0-4.8,4.8v14.4a4.8,4.8,0,0,0,4.8,4.8h14.4a4.8,4.8,0,0,0,4.8-4.8v-14.4a4.8,4.8,0,0,0-4.8-4.8Zm14.4,40h-14.4a1.8,1.8,0,0,0-1.8,1.8v14.4a1.8,1.8,0,0,0,1.8,1.8h14.4a1.8,1.8,0,0,0,1.8-1.8v-14.4A1.8,1.8,0,0,0,193.19,171.422Zm-14.4-3a4.8,4.8,0,0,0-4.8,4.8v14.4a4.8,4.8,0,0,0,4.8,4.8h14.4a4.8,4.8,0,0,0,4.8-4.8v-14.4a4.8,4.8,0,0,0-4.8-4.8Zm14.4,39h-14.4a1.8,1.8,0,0,0-1.8,1.8v14.4a1.8,1.8,0,0,0,1.8,1.8h14.4a1.8,1.8,0,0,0,1.8-1.8v-14.4A1.8,1.8,0,0,0,193.19,207.422Zm-14.4-3a4.8,4.8,0,0,0-4.8,4.8v14.4a4.8,4.8,0,0,0,4.8,4.8h14.4a4.8,4.8,0,0,0,4.8-4.8v-14.4a4.8,4.8,0,0,0-4.8-4.8Zm-2.6,37h-19.4a1.8,1.8,0,0,0-1.8,1.8v33.2h23v-33.2A1.8,1.8,0,0,0,176.19,241.422Zm-19.4-3a4.8,4.8,0,0,0-4.8,4.8v36.2h29v-36.2a4.8,4.8,0,0,0-4.8-4.8Z"/>
    <circle id="Ellipse_135" data-name="Ellipse 135" class="cls-8" cx="39.58" cy="39.58" r="39.58" transform="translate(177.41 79.682)"/>
    <circle id="Ellipse_136" data-name="Ellipse 136" class="cls-9" cx="31" cy="31" r="31" transform="translate(189.99 89.263)"/>
    <path id="Path_431" data-name="Path 431" class="cls-5" d="M214.99,146.263a28,28,0,1,0-28-28A28,28,0,0,0,214.99,146.263Zm0,3a31,31,0,1,0-31-31A31,31,0,0,0,214.99,149.263Z"/>
    <rect id="Rectangle_265" data-name="Rectangle 265" class="cls-6" width="3" height="32" rx="1.5" transform="translate(225.705 106.011) rotate(45)"/>
    <rect id="Rectangle_266" data-name="Rectangle 266" class="cls-6" width="3" height="32" rx="1.5" transform="translate(227.826 128.635) rotate(135)"/>
  </g>
</svg>
