<svg xmlns="http://www.w3.org/2000/svg" width="286.915" height="263.701" viewBox="0 0 286.915 263.701">
  <defs>
    <style>
      .cls-1, .cls-8 {
        fill: #3f3f46;
      }

      .cls-1, .cls-5, .cls-7 {
        fill-rule: evenodd;
      }

      .cls-2 {
        fill: #f31260;
      }

      .cls-3 {
        fill: #f5a524;
      }

      .cls-4 {
        fill: #17c964;
      }

      .cls-5, .cls-6 {
        fill: #18181b;
      }

      .cls-7 {
        fill: #9353d3;
      }

      .cls-9 {
        fill: #006fee;
      }
    </style>
  </defs>
  <g id="Invalid-Account" transform="translate(-17 -43)">
    <path id="Path_432" data-name="Path 432" class="cls-1" d="M242.211,125.195c30.612,37.859,64.783,73.325,61.482,105.295-3.236,31.906-44.073,60.317-83.162,71.061-39.154,10.678-76.561,3.688-114.551-11.2-37.924-14.82-76.431-37.536-86.333-69.895-9.837-32.294,8.93-74.3,36.695-111.509C84.106,71.8,120.865,39.379,152.707,43.327c31.9,3.883,58.893,44.072,89.5,81.868Z"/>
    <circle id="Ellipse_137" data-name="Ellipse 137" class="cls-2" cx="3" cy="3" r="3" transform="translate(226.997 158.437)"/>
    <circle id="Ellipse_138" data-name="Ellipse 138" class="cls-3" cx="5" cy="5" r="5" transform="translate(34.997 136.437)"/>
    <circle id="Ellipse_139" data-name="Ellipse 139" class="cls-4" cx="5" cy="5" r="5" transform="translate(101.997 270.437)"/>
    <path id="Path_433" data-name="Path 433" class="cls-5" d="M193.814,124.352a1.5,1.5,0,0,1-1.425,1.538,30.424,30.424,0,0,0-6.893,1.149l-.016.005-.016,0a1.5,1.5,0,0,1-.795-2.893,33.419,33.419,0,0,1,7.571-1.261,1.5,1.5,0,0,1,1.573,1.423v.035Zm6.962.68,0,.015,0,.014a1.5,1.5,0,0,0,1.105,1.786,43.624,43.624,0,0,1,9.011,3.374,1.5,1.5,0,0,0,2-.656l.005-.009,0-.009a1.5,1.5,0,0,0-.673-2.012,46.651,46.651,0,0,0-9.632-3.6,1.5,1.5,0,0,0-1.815,1.1Zm18.112,8.162,0,.006,0,.006a1.5,1.5,0,0,0,.362,2.08,89.83,89.83,0,0,1,7.639,6.12,1.5,1.5,0,0,0,2.111-.116l.007-.007a1.5,1.5,0,0,0-.124-2.118,92.813,92.813,0,0,0-7.9-6.325,1.48,1.48,0,0,0-.534-.239,1.5,1.5,0,0,0-1.558.593Zm15.028,13.2-.007.005-.007.006a1.5,1.5,0,0,0-.238,2.1,62.306,62.306,0,0,1,5.415,8.119,1.5,1.5,0,0,0,2.026.585l.007,0,.008-.005a1.5,1.5,0,0,0,.577-2.041,65.543,65.543,0,0,0-5.674-8.509,1.5,1.5,0,0,0-2.107-.251Zm10.136,17.162-.008,0-.009,0a1.5,1.5,0,0,0-.871,1.921,62.112,62.112,0,0,1,2.653,9.388,1.5,1.5,0,0,0,1.747,1.181l.008,0h.009a1.5,1.5,0,0,0,1.178-1.765,65.2,65.2,0,0,0-2.78-9.84,1.5,1.5,0,0,0-1.927-.888Zm3.812,32.413a1.5,1.5,0,0,1-1.293-1.665,61.789,61.789,0,0,0,.393-9.748A1.5,1.5,0,0,1,248.387,183h.017a1.5,1.5,0,0,1,1.558,1.441,64.66,64.66,0,0,1-.413,10.221,1.5,1.5,0,0,1-1.668,1.311h-.009l-.008,0ZM241.242,213.1a1.5,1.5,0,0,0,.717,1.983l.008,0,.008,0a1.5,1.5,0,0,0,1.991-.733,65.677,65.677,0,0,0,3.571-9.666,1.5,1.5,0,1,0-2.886-.817,62.6,62.6,0,0,1-3.409,9.225Zm-10.825,16.151a1.5,1.5,0,0,0,.071,2.114l.007.006a1.5,1.5,0,0,0,2.12-.078,64.611,64.611,0,0,0,6.345-8.016,1.5,1.5,0,0,0-.418-2.086l-.008,0a1.5,1.5,0,0,0-2.066.42,61.614,61.614,0,0,1-6.051,7.645Zm-7.182,6.6a62.281,62.281,0,0,1-8.133,5.407,1.5,1.5,0,1,0,1.46,2.62,65.371,65.371,0,0,0,8.524-5.666,1.5,1.5,0,0,0,.255-2.106l-.006-.007-.005-.006a1.5,1.5,0,0,0-2.1-.242Z"/>
    <rect id="Rectangle_267" data-name="Rectangle 267" class="cls-6" width="17.89" height="4.051" rx="2" transform="matrix(-0.602, -0.799, 0.799, -0.602, 88.25, 90.887)"/>
    <rect id="Rectangle_268" data-name="Rectangle 268" class="cls-6" width="17.89" height="4.051" rx="2" transform="translate(79.94 110.298) rotate(-176)"/>
    <rect id="Rectangle_269" data-name="Rectangle 269" class="cls-6" width="17.89" height="4.051" rx="2" transform="translate(82.1 99.483) rotate(-156)"/>
    <path id="Path_434" data-name="Path 434" class="cls-7" d="M129,150.437a35,35,0,1,0-35-35A35,35,0,0,0,129,150.437Zm1,0a66,66,0,0,0-66,66v26.934a4.066,4.066,0,0,0,4.066,4.066H191.93A4.066,4.066,0,0,0,196,243.371V216.437a66,66,0,0,0-66-66Z"/>
    <path id="Path_435" data-name="Path 435" class="cls-5" d="M154.852,155.137a35.087,35.087,0,1,0-14.855,3.3H123.5a48.5,48.5,0,0,0-48.5,48.5v40.8a7.7,7.7,0,0,0,7.7,7.7H199.3a7.7,7.7,0,0,0,7.7-7.7v-40.8a48.5,48.5,0,0,0-48.5-48.5H140a34.862,34.862,0,0,0,14.855-3.3ZM140,161.737H123.5a45.2,45.2,0,0,0-45.2,45.2v40.8a4.4,4.4,0,0,0,4.4,4.4H199.3a4.4,4.4,0,0,0,4.4-4.4v-40.8a45.2,45.2,0,0,0-45.2-45.2H140Zm0-6.6a31.7,31.7,0,0,1-31.7-31.7,31.7,31.7,0,0,1,31.7-31.7,31.7,31.7,0,0,1,31.7,31.7,31.7,31.7,0,0,1-31.7,31.7Z"/>
    <path id="Path_436" data-name="Path 436" class="cls-5" d="M126.435,159.854l.572.892,12.078,18.81a1.649,1.649,0,0,0,2.792-.027l11.566-18.783.532-.865,2.81,1.73-12.1,19.648a4.949,4.949,0,0,1-8.378.08l-12.651-19.7,2.777-1.783Z"/>
    <rect id="Rectangle_270" data-name="Rectangle 270" class="cls-8" width="83" height="74" rx="9" transform="translate(155.997 197.437)"/>
    <path id="Path_440" data-name="Path 440" class="cls-9" d="M9,0H52a9,9,0,0,1,9,9V55a9,9,0,0,1-9,9H9a9,9,0,0,1-9-9V9A9,9,0,0,1,9,0Z" transform="translate(168.997 207.437)"/>
    <path id="Path_437" data-name="Path 437" class="cls-5" d="M215,202.437H172a9,9,0,0,0-9,9v46a9,9,0,0,0,9,9h43a9,9,0,0,0,9-9v-46a9,9,0,0,0-9-9Zm-47.244,4.757A5.78,5.78,0,0,1,172,205.437h43a6,6,0,0,1,6,6v46a6,6,0,0,1-6,6H172a6,6,0,0,1-6-6v-46a5.78,5.78,0,0,1,1.757-4.242Z"/>
    <path id="Path_438" data-name="Path 438" class="cls-5" d="M212,234.437a19,19,0,1,1-19-19A19,19,0,0,1,212,234.437Zm-7.687,11.314A16,16,0,1,1,209,234.437,15.415,15.415,0,0,1,204.31,245.751Z"/>
    <path id="Path_439" data-name="Path 439" class="cls-6" d="M204.16,220.647l2.121,2.121-25.456,25.456-2.12-2.121Z"/>
  </g>
</svg>
