<svg xmlns="http://www.w3.org/2000/svg" width="286.915" height="263.701" viewBox="0 0 286.915 263.701">
  <defs>
    <style>
      .cls-1 {
        fill: #3f3f46;
      }

      .cls-1, .cls-5 {
        fill-rule: evenodd;
      }

      .cls-2 {
        fill: #f5a524;
      }

      .cls-3 {
        fill: #f31260;
      }

      .cls-4 {
        fill: #17c964;
      }

      .cls-5, .cls-6 {
        fill: #18181b;
      }

      .cls-7 {
        fill: #9353d3;
      }

      .cls-8 {
        fill: #27272a;
      }

      .cls-9 {
        fill: #006fee;
      }
    </style>
  </defs>
  <g id="Meal-Not-Found" transform="translate(-17 -43)">
    <path id="Path_441" data-name="Path 441" class="cls-1" d="M242.211,125.195c30.612,37.859,64.783,73.325,61.482,105.295-3.236,31.906-44.073,60.317-83.162,71.061-39.154,10.678-76.561,3.688-114.551-11.2-37.924-14.82-76.431-37.536-86.333-69.895-9.837-32.294,8.93-74.3,36.695-111.509C84.106,71.8,120.865,39.379,152.707,43.327c31.9,3.883,58.893,44.072,89.5,81.868Z"/>
    <circle id="Ellipse_140" data-name="Ellipse 140" class="cls-2" cx="3" cy="3" r="3" transform="translate(50.995 252.433)"/>
    <circle id="Ellipse_141" data-name="Ellipse 141" class="cls-3" cx="5" cy="5" r="5" transform="translate(64.995 130.434)"/>
    <circle id="Ellipse_142" data-name="Ellipse 142" class="cls-4" cx="5" cy="5" r="5" transform="translate(268.995 160.434)"/>
    <path id="Path_442" data-name="Path 442" class="cls-5" d="M231.966,211.535a1.5,1.5,0,0,1-1.938-.787l-.162-.368-.005-.012a1.5,1.5,0,0,1,2.753-1.193l.161.368a1.5,1.5,0,0,1-.771,1.976l-.019.008-.019.008Zm1.629,19.657a1.5,1.5,0,0,1-1.249-1.692,36.913,36.913,0,0,0,.156-9.557,1.5,1.5,0,0,1,1.281-1.662l.016,0a1.5,1.5,0,0,1,1.682,1.311,39.868,39.868,0,0,1-.165,10.332,1.5,1.5,0,0,1-1.7,1.274l-.012,0-.013,0Zm-3.6,7.724a1.5,1.5,0,0,1,1.895-.923l.009,0,.009,0a1.5,1.5,0,0,1,.916,1.913,72.309,72.309,0,0,1-4.092,9.34,1.5,1.5,0,0,1-2.661-1.385A69.277,69.277,0,0,0,229.99,238.916Zm-8.911,17.394a1.5,1.5,0,0,1,2.069-.434l.008.006a1.5,1.5,0,0,1,.429,2.077q-1.657,2.514-3.432,4.947l-.025.032a2.673,2.673,0,0,1-3.841,3.717,1.44,1.44,0,0,1-1.078-.395l-.006-.005-.006-.006a1.5,1.5,0,0,1-.075-2.108q1.36-1.478,2.63-3.035,1.72-2.358,3.327-4.8Zm-108.665,3.242-.234-.306a1.5,1.5,0,0,0-2.1-.291,1.5,1.5,0,0,0-.29,2.1,70.389,70.389,0,0,0,6.742,7.678,1.5,1.5,0,0,0,2.121-.017l.006-.006.006-.006a1.5,1.5,0,0,0-.028-2.109,67.471,67.471,0,0,1-6.222-7.045ZM208,270.834a1.5,1.5,0,0,1,2.1.207l.005.007.005.006a1.5,1.5,0,0,1-.22,2.11,70.53,70.53,0,0,1-8.375,5.843,1.5,1.5,0,0,1-2.06-.53l-.005-.007a1.5,1.5,0,0,1,.531-2.042A67.382,67.382,0,0,0,208,270.834ZM135.1,278.992a1.489,1.489,0,0,1-.1,1.129l0,.007,0,.007a1.5,1.5,0,0,1-2.027.628,69.766,69.766,0,0,1-8.661-5.413,1.5,1.5,0,0,1-.325-2.1l0-.006,0-.007a1.5,1.5,0,0,1,2.087-.311,66.6,66.6,0,0,0,8.288,5.18,1.491,1.491,0,0,1,.734.883Zm56.128,1.813a1.5,1.5,0,0,1,1.952.8l0,.008,0,.007a1.5,1.5,0,0,1-.814,1.959,69.772,69.772,0,0,1-9.707,3.2,1.5,1.5,0,0,1-1.821-1.1l0-.008a1.5,1.5,0,0,1,1.1-1.8,66.883,66.883,0,0,0,9.291-3.06Zm-38.454,3.785a1.5,1.5,0,0,1,1.187,1.744v.008l0,.008a1.5,1.5,0,0,1-1.174,1.183,1.5,1.5,0,0,1-.585,0,70.354,70.354,0,0,1-9.846-2.675,1.5,1.5,0,0,1-.918-1.913l0-.008,0-.007a1.492,1.492,0,0,1,1.907-.9,67.323,67.323,0,0,0,9.426,2.56Zm19.536.942a1.5,1.5,0,0,1,1.64,1.346,1.5,1.5,0,0,1-1.346,1.64,69.752,69.752,0,0,1-10.2.254,1.5,1.5,0,0,1-1.426-1.57v-.017a1.5,1.5,0,0,1,1.569-1.409,66.7,66.7,0,0,0,9.765-.244Z"/>
    <rect id="Rectangle_271" data-name="Rectangle 271" class="cls-6" width="17.89" height="4.051" rx="2" transform="translate(244.361 123.653) rotate(-20)"/>
    <rect id="Rectangle_272" data-name="Rectangle 272" class="cls-6" width="17.89" height="4.05" rx="2" transform="matrix(0.358, -0.934, 0.934, 0.358, 228.214, 110.021)"/>
    <rect id="Rectangle_273" data-name="Rectangle 273" class="cls-6" width="17.89" height="4.051" rx="2" transform="matrix(0.656, -0.755, 0.755, 0.656, 237.94, 115.26)"/>
    <path id="Path_443" data-name="Path 443" class="cls-7" d="M188.6,123.027c-84.011,0-90.973,64.483-90.973,90.983H279.574c0-26.5-14.483-90.983-90.972-90.983Z"/>
    <path id="Path_444" data-name="Path 444" class="cls-5" d="M172.995,128.433c64.763.977,89.349,38.138,90.919,86,.09,2.76.147,7.271-.535,9.946H82.611c-.683-2.675-.625-7.186-.535-9.946C83.644,166.445,108.229,127.477,172.995,128.433ZM85.167,221.381a58.537,58.537,0,0,1-.093-6.848q1.245-38.08,20.965-59.417,22.5-24.339,66.911-23.683,44.7.675,67.014,24.471,19.718,21.025,20.952,58.63a58.526,58.526,0,0,1-.093,6.847H85.167Z"/>
    <path id="Path_445" data-name="Path 445" class="cls-5" d="M177.177,142.945a50.966,50.966,0,0,1,8.174,1.9A82.4,82.4,0,0,1,204.4,153.4q29.245,17.8,40.034,54.61a1.5,1.5,0,0,1-1.017,1.861,1.5,1.5,0,0,1-1.861-1.018q-.383-1.3-.788-2.581-10.705-33.739-37.928-50.309a79.4,79.4,0,0,0-18.357-8.252q-3.216-.972-5.6-1.449-1.028-.21-2.069-.342a1.5,1.5,0,0,1-1.307-1.671,1.5,1.5,0,0,1,1.671-1.306Zm5.818-25.511a8,8,0,1,1-8-8A8,8,0,0,1,182.995,117.434Zm-4.464,3.535a5,5,0,1,1,1.464-3.535A4.821,4.821,0,0,1,178.531,120.969Zm-45.738-2.349,1.325-2.051,3.217-4.981a7.571,7.571,0,0,0-1.755-10.118l-1.1-.847-4.639-3.556a11.22,11.22,0,0,1-2.01-15.822l6.055-7.736a1.5,1.5,0,0,1,2.106-.257,1.5,1.5,0,0,1,.257,2.106l-1.238,1.58-4.817,6.155a8.221,8.221,0,0,0,1.472,11.594l2.9,2.22,2.846,2.182a10.573,10.573,0,0,1,2.45,14.126l-4.541,7.032a1.5,1.5,0,0,1-2.521-1.627Zm18,0,1.325-2.051,3.217-4.981a7.571,7.571,0,0,0-1.755-10.118l-1.1-.847-4.639-3.556a11.22,11.22,0,0,1-2.01-15.822l6.055-7.736a1.5,1.5,0,0,1,2.106-.257,1.5,1.5,0,0,1,.257,2.106l-1.238,1.58-4.817,6.155a8.221,8.221,0,0,0,1.472,11.594l2.9,2.22,2.846,2.182a10.573,10.573,0,0,1,2.45,14.126l-4.541,7.032a1.5,1.5,0,0,1-2.074.447,1.5,1.5,0,0,1-.447-2.074Z"/>
    <path id="Path_449" data-name="Path 449" class="cls-8" d="M47.5,0A47.5,47.5,0,1,1,0,47.5,47.5,47.5,0,0,1,47.5,0Z" transform="translate(53.995 165.434)"/>
    <path id="Path_448" data-name="Path 448" class="cls-9" d="M41,0A41,41,0,1,1,0,41,41,41,0,0,1,41,0Z" transform="translate(50.995 178.434)"/>
    <path id="Path_446" data-name="Path 446" class="cls-5" d="M140.995,214.434a41,41,0,1,1-41-41A41,41,0,0,1,140.995,214.434Zm-14.13,26.87a36.612,36.612,0,0,1-26.87,11.13,38,38,0,0,1-26.87-64.87,36.614,36.614,0,0,1,26.87-11.13,38,38,0,0,1,26.87,64.87Z"/>
    <path id="Path_447" data-name="Path 447" class="cls-5" d="M95.688,223.585a33.283,33.283,0,0,1,.832-5.563,14.231,14.231,0,0,1,3.145-4.528L103.7,209.5a8.782,8.782,0,0,0,2.589-6.037,6.729,6.729,0,0,0-1.695-4.868,8.068,8.068,0,0,0-4.932-1.76,7.093,7.093,0,0,0-5.056,1.6,6.12,6.12,0,0,0-1.911,4.291s-.631,2.65-3.178,2.65a2.542,2.542,0,0,1-2.525-2.65,9.8,9.8,0,0,1,3.56-7.739,14.03,14.03,0,0,1,9.11-3.55,13.17,13.17,0,0,1,9.078,3.609,10.667,10.667,0,0,1,3.252,8.242q0,5.178-4.994,10.209l-3.36,3.2q-2.25,2.4-2.25,6.9s-.507,3.031-3.032,3.031-2.671-3.031-2.671-3.031Zm-.247,11.771a3.139,3.139,0,0,1,.848-2.234,3.284,3.284,0,0,1,2.512-.9,3.335,3.335,0,0,1,2.528.9,3.109,3.109,0,0,1,.863,2.234,3.009,3.009,0,0,1-.863,2.205,3.4,3.4,0,0,1-2.528.873,3.347,3.347,0,0,1-2.512-.873A3.037,3.037,0,0,1,95.441,235.356Z"/>
  </g>
</svg>
