<svg xmlns="http://www.w3.org/2000/svg" width="286.915" height="263.701" viewBox="0 0 286.915 263.701">
  <defs>
    <style>
      .cls-1 {
        fill: #3f3f46;
      }

      .cls-1, .cls-5 {
        fill-rule: evenodd;
      }

      .cls-2 {
        fill: #f31260;
      }

      .cls-3 {
        fill: #f5a524;
      }

      .cls-4 {
        fill: #17c964;
      }

      .cls-5, .cls-8 {
        fill: #18181b;
      }

      .cls-6 {
        fill: #0d0938;
      }

      .cls-7 {
        fill: #9353d3;
      }

      .cls-9 {
        fill: #27272a;
      }

      .cls-10 {
        fill: #006fee;
      }
    </style>
  </defs>
  <g id="Membership-Expired" transform="translate(-17 -43)">
    <path id="Path_450" data-name="Path 450" class="cls-1" d="M242.211,125.195c30.612,37.859,64.783,73.325,61.482,105.295-3.236,31.906-44.073,60.317-83.162,71.061-39.154,10.678-76.561,3.688-114.551-11.2-37.924-14.82-76.431-37.536-86.333-69.895-9.837-32.294,8.93-74.3,36.695-111.509C84.106,71.8,120.865,39.379,152.707,43.327c31.9,3.883,58.893,44.072,89.5,81.868Z"/>
    <circle id="Ellipse_143" data-name="Ellipse 143" class="cls-2" cx="3" cy="3" r="3" transform="translate(277.995 233.432)"/>
    <circle id="Ellipse_144" data-name="Ellipse 144" class="cls-3" cx="5" cy="5" r="5" transform="translate(160.995 78.432)"/>
    <path id="Path_458" data-name="Path 458" class="cls-4" d="M5,0A5,5,0,1,1,0,5,5,5,0,0,1,5,0Z" transform="translate(68.995 262.432)"/>
    <path id="Path_451" data-name="Path 451" class="cls-5" d="M223.118,115.338a61.211,61.211,0,0,1,10.161,1.235,1.5,1.5,0,0,1,1.164,1.774l0,.009,0,.009a1.5,1.5,0,0,1-1.77,1.146,58.133,58.133,0,0,0-9.664-1.175,1.5,1.5,0,0,1-1.443-1.537v-.019a1.5,1.5,0,0,1,1.555-1.442Zm-8.55,1.782a1.489,1.489,0,0,1-.3,1.09,1.506,1.506,0,0,1-1,.572,58.933,58.933,0,0,0-9.534,2.049,1.5,1.5,0,0,1-1.871-1,1.5,1.5,0,0,1,.113-1.142,1.5,1.5,0,0,1,.887-.729,61.9,61.9,0,0,1,10.02-2.153,1.5,1.5,0,0,1,1.68,1.3v.018Zm26.577,3.213,0,.009,0,.009a1.5,1.5,0,0,0,.86,1.924,59.621,59.621,0,0,1,8.841,4.314,1.5,1.5,0,0,0,2.046-.506l0-.008.005-.008a1.5,1.5,0,0,0-.522-2.056,62.507,62.507,0,0,0-9.286-4.532,1.5,1.5,0,0,0-1.942.854Zm17.445,9.794-.006.007-.006.008a1.5,1.5,0,0,0,.187,2.1,58.145,58.145,0,0,1,6.874,6.887,1.476,1.476,0,0,0,.458.365,1.456,1.456,0,0,0,.562.162,1.482,1.482,0,0,0,1.079-.336l.008-.006.007-.006a1.5,1.5,0,0,0,.179-2.114,61.177,61.177,0,0,0-7.228-7.241,1.5,1.5,0,0,0-2.114.175Zm13.22,14.9-.008.005-.008.005a1.5,1.5,0,0,0-.511,2.045,58.9,58.9,0,0,1,4.251,8.769,1.5,1.5,0,0,0,1.922.865l.009,0,.008,0a1.5,1.5,0,0,0,.859-1.939,61.762,61.762,0,0,0-4.467-9.216,1.5,1.5,0,0,0-2.055-.527ZM280.9,176.4h-.018A1.5,1.5,0,0,1,279.4,174.9l0-1.111a58.889,58.889,0,0,0-1.123-8.594,1.5,1.5,0,0,1,1.148-1.768l.009,0,.009,0a1.489,1.489,0,0,1,1.544.627,1.471,1.471,0,0,1,.228.539,61.732,61.732,0,0,1,1.185,9.166l0,1.155a1.5,1.5,0,0,1-1.505,1.5Zm-3.728,19.246a1.479,1.479,0,0,0,.377.434,1.454,1.454,0,0,0,.512.261l.01,0,.01,0a1.5,1.5,0,0,0,1.84-1.056A68.45,68.45,0,0,0,281.8,185.23a1.5,1.5,0,0,0-1.319-1.661h-.014a1.5,1.5,0,0,0-1.647,1.321,65.594,65.594,0,0,1-1.8,9.624,1.5,1.5,0,0,0,.147,1.139ZM268.1,211.115a1.5,1.5,0,0,0,.007,2.108l.013.013a1.5,1.5,0,0,0,2.122-.02,34.974,34.974,0,0,0,6.022-8.39,1.5,1.5,0,0,0-.65-2.03l-.013-.007a1.5,1.5,0,0,0-2,.65,31.964,31.964,0,0,1-5.5,7.676Z"/>
    <rect id="Rectangle_274" data-name="Rectangle 274" class="cls-6" width="17.89" height="4.051" rx="2" transform="matrix(-0.978, -0.208, 0.208, -0.978, 48.208, 135.133)"/>
    <rect id="Rectangle_275" data-name="Rectangle 275" class="cls-6" width="17.89" height="4.051" rx="2" transform="translate(59.586 117.401) rotate(-119)"/>
    <rect id="Rectangle_276" data-name="Rectangle 276" class="cls-6" width="17.89" height="4.051" rx="2" transform="translate(51.589 124.997) rotate(-139)"/>
    <path id="Path_456" data-name="Path 456" class="cls-7" d="M8,0H136a8,8,0,0,1,8,8V92a8,8,0,0,1-8,8H8a8,8,0,0,1-8-8V8A8,8,0,0,1,8,0Z" transform="translate(54.995 123.432)"/>
    <path id="Path_452" data-name="Path 452" class="cls-5" d="M200,130.432h-128a8,8,0,0,0-8,8v84a8,8,0,0,0,8,8H200a8,8,0,0,0,8-8v-84a8,8,0,0,0-8-8ZM68.459,134.9a4.818,4.818,0,0,1,3.535-1.464H200a5,5,0,0,1,5,5v84a5,5,0,0,1-5,5h-128a5,5,0,0,1-5-5v-84A4.818,4.818,0,0,1,68.459,134.9Z"/>
    <path id="Path_453" data-name="Path 453" class="cls-5" d="M116.82,195.439c-.69-7.221-4.088-25.007-20.825-25.007s-20.134,17.786-20.824,25.007a2.762,2.762,0,0,0,2.823,2.993h36a2.762,2.762,0,0,0,2.824-2.993ZM82.176,181.706q4.683-8.274,13.82-8.274t13.818,8.274a34.744,34.744,0,0,1,3.99,13.726H78.186A34.777,34.777,0,0,1,82.176,181.706ZM113,204.432h-34a5,5,0,0,0-5,5v0a5,5,0,0,0,5,5h34a5,5,0,0,0,5-5v0a5,5,0,0,0-5-5Zm-36,5a1.766,1.766,0,0,1,2-2h34a1.767,1.767,0,0,1,2,2v0a1.767,1.767,0,0,1-2,2h-34a1.767,1.767,0,0,1-2-2v0Z"/>
    <rect id="Rectangle_278" data-name="Rectangle 278" class="cls-8" width="36" height="3" rx="1.5" transform="translate(131.995 151.432)"/>
    <rect id="Rectangle_279" data-name="Rectangle 279" class="cls-8" width="36" height="3" rx="1.5" transform="translate(131.995 162.432)"/>
    <rect id="Rectangle_280" data-name="Rectangle 280" class="cls-8" width="56" height="3" rx="1.5" transform="translate(131.995 184.432)"/>
    <rect id="Rectangle_281" data-name="Rectangle 281" class="cls-8" width="56" height="3" rx="1.5" transform="translate(131.995 174.432)"/>
    <rect id="Rectangle_282" data-name="Rectangle 282" class="cls-8" width="56" height="3" rx="1.5" transform="translate(131.995 193.432)"/>
    <path id="Path_454" data-name="Path 454" class="cls-5" d="M106,158.432a11,11,0,1,1-11-11A11,11,0,0,1,106,158.432Zm-5.343,5.657A8,8,0,1,1,103,158.432,7.709,7.709,0,0,1,100.652,164.089Z"/>
    <circle id="Ellipse_146" data-name="Ellipse 146" class="cls-8" cx="2" cy="2" r="2" transform="translate(182.995 150.432)"/>
    <circle id="Ellipse_147" data-name="Ellipse 147" class="cls-8" cx="2" cy="2" r="2" transform="translate(191.995 150.432)"/>
    <circle id="Ellipse_148" data-name="Ellipse 148" class="cls-9" cx="40" cy="40" r="40" transform="translate(172.995 176.432)"/>
    <path id="Path_457" data-name="Path 457" class="cls-10" d="M35,0A35,35,0,1,1,0,35,35,35,0,0,1,35,0Z" transform="translate(188.995 184.432)"/>
    <path id="Path_455" data-name="Path 455" class="cls-5" d="M251.995,217.432a35,35,0,1,1-35-35A35,35,0,0,1,251.995,217.432ZM239.623,240.06a32,32,0,1,1-45.255-45.255,32,32,0,0,1,45.255,45.255Z"/>
    <rect id="Rectangle_283" data-name="Rectangle 283" class="cls-8" width="3" height="32" rx="1.5" transform="translate(226.734 205.052) rotate(45)"/>
    <rect id="Rectangle_284" data-name="Rectangle 284" class="cls-8" width="3" height="32" rx="1.5" transform="translate(228.851 227.675) rotate(135)"/>
  </g>
</svg>
