<svg xmlns="http://www.w3.org/2000/svg" width="267.648" height="286.915" viewBox="0 0 267.648 286.915">
  <defs>
    <style>
      .cls-1 {
        fill: #3f3f46;
      }

      .cls-1, .cls-5, .cls-7, .cls-8 {
        fill-rule: evenodd;
      }

      .cls-2 {
        fill: #f31260;
      }

      .cls-3 {
        fill: #f5a524;
      }

      .cls-4 {
        fill: #17c964;
      }

      .cls-5 {
        fill: #18181b;
      }

      .cls-6, .cls-8 {
        fill: #0d0938;
      }

      .cls-7 {
        fill: #006fee;
      }

      .cls-9 {
        fill: #27272a;
      }

      .cls-10 {
        fill: #9353d3;
      }
    </style>
  </defs>
  <g id="No_Address" data-name="No Address" transform="translate(-21 -17)">
    <path id="Path_459" data-name="Path 459" class="cls-1" d="M103.195,78.7c37.859-30.612,73.325-64.784,105.3-61.482,31.906,3.236,60.317,44.072,71.061,83.162,10.678,39.154,3.688,76.561-11.2,114.55-14.82,37.925-37.536,76.432-69.895,86.334-32.294,9.837-74.3-8.931-111.509-36.7C49.8,236.809,17.379,200.049,21.327,168.208,25.21,136.3,65.4,109.315,103.2,78.7Z"/>
    <circle id="Ellipse_149" data-name="Ellipse 149" class="cls-2" cx="3" cy="3" r="3" transform="translate(146.392 264.044)"/>
    <circle id="Ellipse_150" data-name="Ellipse 150" class="cls-3" cx="5" cy="5" r="5" transform="translate(244.392 117.044)"/>
    <circle id="Ellipse_151" data-name="Ellipse 151" class="cls-4" cx="5" cy="5" r="5" transform="translate(52.392 128.044)"/>
    <path id="Path_460" data-name="Path 460" class="cls-5" d="M209.452,55.66a59.653,59.653,0,0,1,10.2-1.056,1.5,1.5,0,0,1,1.526,1.474v.02A1.5,1.5,0,0,1,219.7,57.6a56.631,56.631,0,0,0-9.687,1,1.5,1.5,0,0,1-1.751-1.173l0-.01,0-.009a1.5,1.5,0,0,1,1.192-1.755Zm18.7.9v.01l0,.01a1.5,1.5,0,0,0,1.252,1.694,56.075,56.075,0,0,1,9.443,2.335,1.5,1.5,0,0,0,1.9-.926l0-.01a1.5,1.5,0,0,0-.935-1.9,59.038,59.038,0,0,0-9.947-2.458,1.5,1.5,0,0,0-1.714,1.25Zm-26.629,2.772a1.5,1.5,0,0,1-.881,1.914A56.645,56.645,0,0,0,192,65.365l-.142.083a1.5,1.5,0,0,1-2.054-.531,1.5,1.5,0,0,1,.532-2.054,59.6,59.6,0,0,1,9.25-4.424,1.5,1.5,0,0,1,1.933.875l0,.009,0,.01Zm45.639,3.17,0,.008-.005.009a1.5,1.5,0,0,0,.6,2.018,57.627,57.627,0,0,1,8.135,5.4,1.5,1.5,0,0,0,2.1-.226L258,69.7l.006-.008a1.5,1.5,0,0,0-.241-2.108,59.961,59.961,0,0,0-8.561-5.68,1.5,1.5,0,0,0-2.036.6Zm15.929,12.014-.008.006a1.5,1.5,0,0,0-.119,2.111,56.252,56.252,0,0,1,5.8,7.81,1.5,1.5,0,0,0,2.064.489,1.5,1.5,0,0,0,.489-2.064,59.093,59.093,0,0,0-6.112-8.225,1.5,1.5,0,0,0-2.117-.127Zm10.887,16.668-.009,0-.009,0a1.5,1.5,0,0,0-.817,1.943,56.891,56.891,0,0,1,2.83,9.315,1.5,1.5,0,0,0,1.76,1.159h.009a1.5,1.5,0,0,0,1.165-1.781,59.883,59.883,0,0,0-2.979-9.807,1.5,1.5,0,0,0-1.95-.836Zm3.78,32.645h-.013a1.5,1.5,0,0,1-1.271-1.686q.52-3.845.739-8.106,0-.962-.04-1.924a1.5,1.5,0,0,1,1.423-1.555h.019A1.5,1.5,0,0,1,280.174,112q.039,1.034.042,2.068v.081q-.225,4.41-.765,8.4a1.493,1.493,0,0,1-1.688,1.285Zm-6.667,16.721a1.5,1.5,0,0,0,.638,2.023,1.5,1.5,0,0,0,2.023-.639,49.656,49.656,0,0,0,3.683-9.481,1.5,1.5,0,0,0-1.046-1.852l-.009,0a1.5,1.5,0,0,0-1.122.141,1.485,1.485,0,0,0-.711.9,46.687,46.687,0,0,1-3.456,8.909Zm-12.8,13.1a1.5,1.5,0,0,0-.217.134,1.46,1.46,0,0,0-.563.862,1.5,1.5,0,0,0,2.142,1.677,30.624,30.624,0,0,0,8.066-5.937,1.494,1.494,0,0,0,.3-1.639,1.456,1.456,0,0,0-.331-.482l-.013-.013a1.5,1.5,0,0,0-2.108.039,27.649,27.649,0,0,1-7.281,5.359Z"/>
    <rect id="Rectangle_285" data-name="Rectangle 285" class="cls-6" width="18" height="4" rx="2" transform="translate(83.938 77.813) rotate(-155)"/>
    <rect id="Rectangle_286" data-name="Rectangle 286" class="cls-6" width="18" height="4" rx="2" transform="translate(89.488 68.47) rotate(-135)"/>
    <rect id="Rectangle_287" data-name="Rectangle 287" class="cls-6" width="18" height="4" rx="2" transform="translate(83.554 88.273) rotate(176)"/>
    <path id="Path_461" data-name="Path 461" class="cls-7" d="M37.274,245.294a3.387,3.387,0,0,0,.187,3.393l21.149,32.24a3.709,3.709,0,0,0,6.487-.519l11.278-25.186a41.809,41.809,0,0,1,48.978-23.3,41.81,41.81,0,0,0,38.743-9.266l3.765-3.378a51.142,51.142,0,0,1,47.393-11.335l3.851,1.032a58.5,58.5,0,0,0,51.985-11.067l16.077-13.036a4,4,0,0,0,.959-5.083l-17.588-30.955a4,4,0,0,0-5.747-1.318l-18.3,12.606a68.274,68.274,0,0,1-50.733,10.987l-.908-.163a66.084,66.084,0,0,0-50.139,11.36l-6.731,4.828a47.015,47.015,0,0,1-36.628,7.9A47.019,47.019,0,0,0,50.22,219.833L37.274,245.294Z"/>
    <path id="Path_462" data-name="Path 462" class="cls-5" d="M32.06,237.951,50.583,201.1a37.286,37.286,0,0,1,42.963-19.27l1.383.37a49.641,49.641,0,0,0,46-11l0,0a52.639,52.639,0,0,1,48.779-11.665l6.626,1.775a51.914,51.914,0,0,0,7.185,1.4,51.476,51.476,0,0,0,38.463-11.117l16.588-13.451,4.353-3.529a1.5,1.5,0,0,1,2.11.221,1.5,1.5,0,0,1-.221,2.11l-20.941,16.979a54.39,54.39,0,0,1-45.315,11q-1.5-.315-3-.717l-6.625-1.775a49.641,49.641,0,0,0-46,11l0,0A52.642,52.642,0,0,1,94.153,185.1l-1.383-.37a34.285,34.285,0,0,0-39.507,17.719l-17.7,35.214-.824,1.64a1.5,1.5,0,0,1-2.014.666,1.5,1.5,0,0,1-.666-2.014ZM53.994,275.92l18.523-36.853A37.285,37.285,0,0,1,115.481,219.8l1.383.371a49.643,49.643,0,0,0,46-11l0,0A52.642,52.642,0,0,1,211.649,197.5l6.625,1.775a52.122,52.122,0,0,0,7.185,1.4,51.469,51.469,0,0,0,38.463-11.118l16.589-13.45,4.352-3.529a1.5,1.5,0,0,1,2.11.22,1.5,1.5,0,0,1-.22,2.11l-20.941,16.98a54.392,54.392,0,0,1-45.315,11q-1.5-.316-3-.717l-6.625-1.775a49.644,49.644,0,0,0-46,11h0a52.638,52.638,0,0,1-48.78,11.666l-1.383-.371A34.286,34.286,0,0,0,75.2,240.414L57.5,275.628l-.823,1.639a1.5,1.5,0,0,1-2.014.667,1.5,1.5,0,0,1-.667-2.014Z"/>
    <path id="Path_463" data-name="Path 463" class="cls-8" d="M274.637,153.842a.48.48,0,0,1,.367-.109.5.5,0,0,1,.445.549.5.5,0,0,1-.182.336l-7.768,6.3a.491.491,0,0,1-.366.109.5.5,0,0,1-.428-.355.488.488,0,0,1,.04-.38.478.478,0,0,1,.125-.15l7.767-6.3ZM257.548,167.7a.482.482,0,0,1,.367-.109.5.5,0,0,1,.263.886l-2.014,1.632a53.218,53.218,0,0,1-6.081,4.265.5.5,0,0,1-.686-.17l0,0a.5.5,0,0,1,.172-.684,52.351,52.351,0,0,0,5.968-4.186l2.013-1.632Zm-18.832,10.767a.5.5,0,0,1,.629.319v0a.495.495,0,0,1-.321.63,53.2,53.2,0,0,1-9.9,2.2.493.493,0,0,1-.5-.25.5.5,0,0,1-.061-.185v0a.5.5,0,0,1,.435-.556,52.229,52.229,0,0,0,9.717-2.158Zm-31.582,1.307a.5.5,0,0,1-.354-.612.484.484,0,0,1,.233-.3.478.478,0,0,1,.38-.05l1.606.43a52.1,52.1,0,0,0,8.077,1.5.5.5,0,0,1,.445.547v0a.48.48,0,0,1-.182.336.485.485,0,0,1-.367.109,53.389,53.389,0,0,1-8.232-1.526l-1.606-.431ZM196.123,176.7v0a.5.5,0,0,0-.431-.56,51.472,51.472,0,0,0-10.149-.319.51.51,0,0,0-.343.17.5.5,0,0,0-.122.363v0a.5.5,0,0,0,.532.463,50.551,50.551,0,0,1,9.952.312.5.5,0,0,0,.56-.428Zm-21.908,1.688v0a.5.5,0,0,0-.626-.328,51.467,51.467,0,0,0-9.3,3.945.5.5,0,0,0-.2.679v0a.483.483,0,0,0,.3.238.478.478,0,0,0,.379-.041,50.564,50.564,0,0,1,9.122-3.869.5.5,0,0,0,.328-.624ZM154.414,189a.5.5,0,0,1,.666.746,51.445,51.445,0,0,1-8.13,5.94.5.5,0,0,1-.685-.176v0a.5.5,0,0,1,.177-.683A50.474,50.474,0,0,0,154.414,189ZM136.167,199.96a.5.5,0,0,0-.624-.329,50.466,50.466,0,0,1-9.757,1.969.5.5,0,0,0-.448.545v0a.5.5,0,0,0,.547.447,51.537,51.537,0,0,0,9.951-2.008.5.5,0,0,0,.331-.624v0Zm-21.882,1.994a.5.5,0,0,0-.428-.561,50.488,50.488,0,0,1-6.269-1.262l-1.383-.37q-.989-.265-1.991-.474a.5.5,0,0,0-.592.387v0a.5.5,0,0,0,.388.588q.975.2,1.936.461l1.383.37a51.536,51.536,0,0,0,6.393,1.287.5.5,0,0,0,.563-.428v0Zm-21.643-2.686v0a.5.5,0,0,0-.562-.431,36.12,36.12,0,0,0-9.766,2.713.5.5,0,0,0-.258.658v0a.5.5,0,0,0,.656.255,35.115,35.115,0,0,1,9.5-2.638.5.5,0,0,0,.43-.558Zm-19.816,8.986,0,0a.5.5,0,0,0-.707-.026,36.094,36.094,0,0,0-6.392,7.873.5.5,0,0,0,.17.686h0a.5.5,0,0,0,.683-.172,35.11,35.11,0,0,1,6.217-7.657.5.5,0,0,0,.028-.7Zm-17.1,27.838a.494.494,0,0,0,.25.29.5.5,0,0,0,.671-.222l4.49-8.935a.5.5,0,0,0-.221-.672.5.5,0,0,0-.672.223l-4.49,8.935a.493.493,0,0,0-.028.381Zm-4.69,10.118a.5.5,0,0,0-.672.223l-4.49,8.935a.488.488,0,0,0-.028.381.494.494,0,0,0,.25.29.5.5,0,0,0,.672-.222l.274-.547,4.216-8.388a.5.5,0,0,0-.222-.672Z"/>
    <ellipse id="Ellipse_152" data-name="Ellipse 152" class="cls-9" cx="60.25" cy="83.721" rx="60.25" ry="83.721" transform="translate(91.892 29.463)"/>
    <path id="Path_464" data-name="Path 464" class="cls-10" d="M215.392,84.044c0,31.487-23.226,71.115-37.532,92.537-5.508,8.248-16.947,8.674-22.816.68-14.357-19.556-36.652-55.927-36.652-93.217,0-27.061,21.714-49,48.5-49s48.5,21.939,48.5,49Z"/>
    <path id="Path_465" data-name="Path 465" class="cls-5" d="M200.392,89.044c0,25.492-19.608,89-44.543,95.256a19.556,19.556,0,0,1-7.915,0C123,178,103.392,114.07,103.392,89.044a48.5,48.5,0,0,1,97,0Zm-15.7,53.718q-14.032,34.731-29.57,38.628a13.008,13.008,0,0,1-6.45,0q-15.51-3.917-29.574-38.816a200.086,200.086,0,0,1-9.328-29.65q-3.375-14.564-3.375-23.878a43.78,43.78,0,0,1,13.332-31.989,45.364,45.364,0,0,1,64.343-.177,43.782,43.782,0,0,1,13.325,32.166q0,9.48-3.377,24.083a197.948,197.948,0,0,1-9.326,29.635Z"/>
    <path id="Path_466" data-name="Path 466" class="cls-5" d="M147.171,111.4s.4-5.275,1.032-6.984a17.87,17.87,0,0,1,3.9-5.683l5.007-5.015a11.1,11.1,0,0,0,3.211-7.579,8.507,8.507,0,0,0-2.1-6.11c-1.4-1.474-4.5-2.21-6.116-2.21a8.724,8.724,0,0,0-6.269,2,7.734,7.734,0,0,0-2.37,5.387s-.783,3.327-3.94,3.327-3.131-3.327-3.131-3.327a12.366,12.366,0,0,1,4.414-9.715,17.281,17.281,0,0,1,11.3-4.457,16.227,16.227,0,0,1,11.257,4.532q4.032,3.77,4.032,10.346,0,6.5-6.192,12.816l-4.166,4.012q-2.791,3.009-2.791,8.655s-.628,3.8-3.759,3.8-3.312-3.8-3.312-3.8Zm-.306,14.776a3.969,3.969,0,0,1,1.051-2.805,4.046,4.046,0,0,1,3.115-1.133,4.11,4.11,0,0,1,3.135,1.133,3.932,3.932,0,0,1,1.07,2.805,3.8,3.8,0,0,1-1.07,2.768,4.191,4.191,0,0,1-3.135,1.1,4.124,4.124,0,0,1-3.115-1.1,3.839,3.839,0,0,1-1.051-2.768Z"/>
  </g>
</svg>
