<svg xmlns="http://www.w3.org/2000/svg" width="286.915" height="263.701" viewBox="0 0 286.915 263.701">
  <defs>
    <style>
      .cls-1 {
        fill: #3f3f46;
      }

      .cls-1, .cls-5, .cls-7 {
        fill-rule: evenodd;
      }

      .cls-2 {
        fill: #f31260;
      }

      .cls-3, .cls-7 {
        fill: #9353d3;
      }

      .cls-4 {
        fill: #f5a524;
      }

      .cls-5, .cls-6 {
        fill: #18181b;
      }

      .cls-8 {
        fill: #27272a;
      }

      .cls-9 {
        fill: #006fee;
      }
    </style>
  </defs>
  <g id="No_Orders" data-name="No Orders" transform="translate(-17 -43)">
    <path id="Path_474" data-name="Path 474" class="cls-1" d="M242.211,125.195c30.612,37.859,64.783,73.325,61.482,105.295-3.236,31.906-44.073,60.317-83.162,71.061-39.154,10.678-76.561,3.688-114.551-11.2-37.924-14.82-76.431-37.536-86.333-69.895-9.837-32.294,8.93-74.3,36.695-111.509C84.106,71.8,120.865,39.379,152.707,43.327c31.9,3.883,58.893,44.072,89.5,81.868Z"/>
    <circle id="Ellipse_160" data-name="Ellipse 160" class="cls-2" cx="3" cy="3" r="3" transform="translate(126.998 290.437)"/>
    <circle id="Ellipse_161" data-name="Ellipse 161" class="cls-3" cx="5" cy="5" r="5" transform="translate(264.998 186.437)"/>
    <circle id="Ellipse_162" data-name="Ellipse 162" class="cls-4" cx="5" cy="5" r="5" transform="translate(99.998 55.437)"/>
    <path id="Path_475" data-name="Path 475" class="cls-5" d="M92.58,119.3l-.165-.01a56.689,56.689,0,0,0-9.57.255,1.5,1.5,0,0,1-1.476-.758,1.489,1.489,0,0,1-.18-.547v-.01l0-.009a1.5,1.5,0,0,1,1.325-1.657,59.513,59.513,0,0,1,10.25-.258,1.5,1.5,0,0,1,1.406,1.588A1.5,1.5,0,0,1,92.58,119.3Zm-30.375,4.961,0,.009,0,.008a1.5,1.5,0,0,0,2,.673,56.759,56.759,0,0,1,9.086-3.5,1.5,1.5,0,0,0,1.028-1.84l0-.009,0-.009a1.5,1.5,0,0,0-1.859-1.023,59.624,59.624,0,0,0-9.566,3.689,1.487,1.487,0,0,0-.84,1.44,1.51,1.51,0,0,0,.15.566ZM46.4,136.352l.014.013a1.5,1.5,0,0,0,2.107-.045,56.017,56.017,0,0,1,7.354-6.366,1.5,1.5,0,0,0,.346-2.079l-.006-.008-.005-.008a1.5,1.5,0,0,0-2.1-.335,59.074,59.074,0,0,0-7.746,6.707,1.5,1.5,0,0,0,.031,2.121Zm-10.822,16.76.009,0,.009,0a1.5,1.5,0,0,0,1.969-.75,56.961,56.961,0,0,1,4.8-8.5,1.5,1.5,0,0,0-.378-2.074l-.008-.005-.008-.006a1.5,1.5,0,0,0-2.084.394,59.984,59.984,0,0,0-5.05,8.948,1.5,1.5,0,0,0,.743,1.987Zm-4.514,19.4h.01a1.5,1.5,0,0,0,1.606-1.374,56.15,56.15,0,0,1,1.625-9.592,1.5,1.5,0,0,0-1.055-1.824l-.01,0-.01,0a1.5,1.5,0,0,0-1.828,1.074,59.133,59.133,0,0,0-1.712,10.1,1.5,1.5,0,0,0,1.374,1.617Zm1.663,8.357a1.5,1.5,0,0,0-1.61-1.36h-.02a1.5,1.5,0,0,0-1.357,1.63,59.781,59.781,0,0,0,1.8,10.09,1.5,1.5,0,0,0,1.847,1.058l.009,0a1.5,1.5,0,0,0,1.042-1.832A56.847,56.847,0,0,1,32.722,180.872Zm9.657,29.192-.005,0-.006,0a1.5,1.5,0,0,1-2.086-.386q-2.319-3.386-4.357-6.953-.467-.923-.9-1.862a1.5,1.5,0,0,1,.731-1.991l.009,0,.008,0a1.5,1.5,0,0,1,1.974.739q.405.875.838,1.733,1.951,3.4,4.17,6.642a1.492,1.492,0,0,1,.24,1.123,1.513,1.513,0,0,1-.614.956Zm5.428,5.158a1.492,1.492,0,0,0-1.065.382l-.006.006-.007.006a1.5,1.5,0,0,0-.09,2.12,49.861,49.861,0,0,0,7.636,6.852,1.5,1.5,0,0,0,2.1-.357l.008-.012a1.5,1.5,0,0,0-.362-2.07,46.873,46.873,0,0,1-7.174-6.443,1.494,1.494,0,0,0-1.041-.484Zm16.64,11.341a1.5,1.5,0,0,0-1.892.9l-.006.018-.006.017a1.5,1.5,0,0,0,.935,1.9,30.6,30.6,0,0,0,9.95,1.651,1.5,1.5,0,0,0,1.5-1.5,1.5,1.5,0,0,0-1.373-1.495q-.063,0-.127,0A27.638,27.638,0,0,1,64.447,226.563Z"/>
    <rect id="Rectangle_305" data-name="Rectangle 305" class="cls-6" width="18" height="4" rx="2" transform="translate(250.704 90.667) rotate(-11)"/>
    <rect id="Rectangle_306" data-name="Rectangle 306" class="cls-6" width="18" height="4" rx="2" transform="translate(237.146 75.003) rotate(-60)"/>
    <rect id="Rectangle_307" data-name="Rectangle 307" class="cls-6" width="18" height="4" rx="2" transform="matrix(0.766, -0.643, 0.643, 0.766, 245.811, 81.529)"/>
    <path id="Path_476" data-name="Path 476" class="cls-7" d="M106.431,98.134a10,10,0,0,1,9.915-8.7h114.3a10,10,0,0,1,9.915,8.7l17.348,132a10,10,0,0,1-9.915,11.3H99a10,10,0,0,1-9.914-11.3Z"/>
    <path id="Path_477" data-name="Path 477" class="cls-5" d="M215.649,98.437h-114.3a10,10,0,0,0-9.914,8.7l-17.348,132A10,10,0,0,0,84,250.437H233a10,10,0,0,0,9.913-11.3l-17.348-132a10,10,0,0,0-9.914-8.7Zm-118.92,4.738a6.786,6.786,0,0,1,4.616-1.738h114.3a7,7,0,0,1,6.939,6.087l17.349,132a7,7,0,0,1-6.94,7.911H84a7,7,0,0,1-6.94-7.911l17.348-132a6.789,6.789,0,0,1,2.324-4.349Z"/>
    <path id="Path_478" data-name="Path 478" class="cls-5" d="M125,99.437h-1.5a34.453,34.453,0,0,1,10.243-25.094,34.652,34.652,0,0,1,49.513,0A34.452,34.452,0,0,1,193.5,99.437h-3a31.561,31.561,0,0,0-9.381-22.989,31.655,31.655,0,0,0-45.239,0,31.561,31.561,0,0,0-9.38,22.99H125Z"/>
    <circle id="Ellipse_163" data-name="Ellipse 163" class="cls-6" cx="3" cy="3" r="3" transform="translate(121.998 110.437)"/>
    <circle id="Ellipse_164" data-name="Ellipse 164" class="cls-6" cx="3" cy="3" r="3" transform="translate(188.998 110.437)"/>
    <rect id="Rectangle_308" data-name="Rectangle 308" class="cls-6" width="73" height="3" rx="1.5" transform="translate(165.998 204.437)"/>
    <rect id="Rectangle_309" data-name="Rectangle 309" class="cls-6" width="82" height="3" rx="1.5" transform="translate(156.998 217.437)"/>
    <rect id="Rectangle_310" data-name="Rectangle 310" class="cls-6" width="96" height="3" rx="1.5" transform="translate(144.998 230.437)"/>
    <circle id="Ellipse_165" data-name="Ellipse 165" class="cls-8" cx="44" cy="44" r="44" transform="translate(42.998 185.437)"/>
    <circle id="Ellipse_166" data-name="Ellipse 166" class="cls-9" cx="32" cy="32" r="32" transform="translate(49.998 203.437)"/>
    <path id="Path_479" data-name="Path 479" class="cls-5" d="M121,230.437a32,32,0,1,1-32-32,32,32,0,0,1,32,32ZM109.5,250.943a29,29,0,0,1-41.013,0A29,29,0,0,1,89,201.437,29,29,0,0,1,109.5,250.943Z"/>
    <rect id="Rectangle_311" data-name="Rectangle 311" class="cls-6" width="5" height="28" rx="2.5" transform="translate(86.998 223.437)"/>
    <circle id="Ellipse_167" data-name="Ellipse 167" class="cls-6" cx="3.5" cy="3.5" r="3.5" transform="translate(85.998 213.437)"/>
  </g>
</svg>
