<svg xmlns="http://www.w3.org/2000/svg" width="286.915" height="263.701" viewBox="0 0 286.915 263.701">
  <defs>
    <style>
      .cls-1 {
        fill: #3f3f46;
      }

      .cls-1, .cls-5, .cls-7, .cls-9 {
        fill-rule: evenodd;
      }

      .cls-2 {
        fill: #f31260;
      }

      .cls-3 {
        fill: #f5a524;
      }

      .cls-4 {
        fill: #17c964;
      }

      .cls-5, .cls-6 {
        fill: #18181b;
      }

      .cls-7 {
        fill: #9353d3;
      }

      .cls-8 {
        fill: #27272a;
      }

      .cls-9 {
        fill: #006fee;
      }
    </style>
  </defs>
  <g id="No_Reviews" data-name="No Reviews" transform="translate(-17 -43)">
    <path id="Path_480" data-name="Path 480" class="cls-1" d="M242.211,125.195c30.612,37.859,64.783,73.325,61.482,105.295-3.236,31.906-44.073,60.317-83.162,71.061-39.154,10.678-76.561,3.688-114.551-11.2-37.924-14.82-76.431-37.536-86.333-69.895-9.837-32.294,8.93-74.3,36.695-111.509C84.106,71.8,120.865,39.379,152.707,43.327c31.9,3.883,58.893,44.072,89.5,81.868Z"/>
    <circle id="Ellipse_168" data-name="Ellipse 168" class="cls-2" cx="3" cy="3" r="3" transform="translate(166.998 288.437)"/>
    <circle id="Ellipse_169" data-name="Ellipse 169" class="cls-3" cx="5" cy="5" r="5" transform="translate(254.998 201.437)"/>
    <circle id="Ellipse_170" data-name="Ellipse 170" class="cls-4" cx="5" cy="5" r="5" transform="translate(102.998 72.437)"/>
    <path id="Path_481" data-name="Path 481" class="cls-5" d="M124.032,116.3l-.164-.01a56.688,56.688,0,0,0-9.571.255,1.5,1.5,0,0,1-1.655-1.305v-.019a1.5,1.5,0,0,1,1.324-1.657,59.518,59.518,0,0,1,10.251-.258,1.5,1.5,0,0,1,1.406,1.588,1.5,1.5,0,0,1-1.589,1.406Zm-30.375,4.961,0,.008,0,.009a1.5,1.5,0,0,0,2,.673,56.584,56.584,0,0,1,9.086-3.5,1.5,1.5,0,0,0,1.028-1.84l0-.009,0-.009a1.491,1.491,0,0,0-1.275-1.073,1.472,1.472,0,0,0-.583.05,59.613,59.613,0,0,0-9.566,3.689,1.5,1.5,0,0,0-.69,2.006Zm-15.81,12.09.008.007.007.007a1.5,1.5,0,0,0,2.107-.045,56.018,56.018,0,0,1,7.353-6.366,1.5,1.5,0,0,0,.347-2.079l-.006-.008-.006-.008a1.5,1.5,0,0,0-2.094-.335,59.157,59.157,0,0,0-7.747,6.706,1.5,1.5,0,0,0,.032,2.121ZM67.026,150.112l.008,0,.01,0a1.5,1.5,0,0,0,1.968-.75,56.972,56.972,0,0,1,4.8-8.5,1.5,1.5,0,0,0-.385-2.079l-.008-.006a1.5,1.5,0,0,0-2.084.394,60.011,60.011,0,0,0-5.05,8.948,1.5,1.5,0,0,0,.743,1.987Zm-4.515,19.4h.02a1.5,1.5,0,0,0,1.6-1.375,56.16,56.16,0,0,1,1.625-9.592,1.5,1.5,0,0,0-1.056-1.825l-.009,0-.01,0a1.5,1.5,0,0,0-1.829,1.075,59.142,59.142,0,0,0-1.711,10.1,1.5,1.5,0,0,0,1.373,1.616Zm1.664,8.358a1.5,1.5,0,0,0-1.611-1.36h-.019a1.5,1.5,0,0,0-1.358,1.63,59.783,59.783,0,0,0,1.8,10.09,1.5,1.5,0,0,0,1.846,1.058l.01,0a1.5,1.5,0,0,0,1.041-1.832,56.826,56.826,0,0,1-1.707-9.585Zm9.657,29.192-.006,0,0,0a1.5,1.5,0,0,1-2.086-.386q-2.319-3.386-4.357-6.953-.467-.923-.9-1.862a1.5,1.5,0,0,1,.731-1.991l.01,0,.008,0a1.5,1.5,0,0,1,1.974.739q.4.873.838,1.732,1.951,3.4,4.17,6.643a1.5,1.5,0,0,1-.375,2.079Zm5.428,5.158a1.492,1.492,0,0,0-1.079.394,1.5,1.5,0,0,0-.09,2.12,49.866,49.866,0,0,0,7.637,6.852,1.5,1.5,0,0,0,2.093-.346l.008-.011a1.5,1.5,0,0,0-.354-2.082,46.826,46.826,0,0,1-7.174-6.443,1.493,1.493,0,0,0-1.041-.484Zm15.494,11.414a1.49,1.49,0,0,0-.746.827l-.007.018L94,224.5a1.5,1.5,0,0,0,.936,1.9,30.622,30.622,0,0,0,9.95,1.651,1.5,1.5,0,0,0,1.147-2.467,1.46,1.46,0,0,0-1.147-.533,27.643,27.643,0,0,1-8.982-1.49,1.484,1.484,0,0,0-.58-.077,1.468,1.468,0,0,0-.565.15Z"/>
    <rect id="Rectangle_312" data-name="Rectangle 312" class="cls-6" width="18" height="4" rx="2" transform="translate(209.394 95.583) rotate(-25)"/>
    <rect id="Rectangle_313" data-name="Rectangle 313" class="cls-6" width="18" height="4" rx="2" transform="translate(202.702 87.035) rotate(-45)"/>
    <rect id="Rectangle_314" data-name="Rectangle 314" class="cls-6" width="18" height="4" rx="2" transform="translate(211.745 105.675) rotate(4)"/>
    <path id="Path_482" data-name="Path 482" class="cls-7" d="M173.2,147.437a32,32,0,1,0-32-32A32,32,0,0,0,173.2,147.437Zm.8,0a60,60,0,0,0-60,60v24.312a3.688,3.688,0,0,0,3.688,3.688H230.309A3.689,3.689,0,0,0,234,231.749V207.437A60,60,0,0,0,174,147.437Z"/>
    <path id="Path_483" data-name="Path 483" class="cls-5" d="M178.744,151.437a32.082,32.082,0,1,0-13.546,3H150a44,44,0,0,0-44,44v37a7,7,0,0,0,7,7H219a7,7,0,0,0,7-7v-37a44,44,0,0,0-44-44H165.2a31.879,31.879,0,0,0,13.546-3Zm-13.546,6H150a41,41,0,0,0-41,41v37q0,4,4,4H219q4,0,4-4v-37a41,41,0,0,0-41-41H165.2Zm0-6a29,29,0,0,1-29-29A29,29,0,0,1,185.7,101.931a29,29,0,0,1,0,41.012A27.941,27.941,0,0,1,165.2,151.437Z"/>
    <path id="Path_484" data-name="Path 484" class="cls-5" d="M152.759,155.592l.521.811,10.98,17.09a1.5,1.5,0,0,0,2.538-.024L177.312,156.4l.484-.787,2.555,1.574-11,17.853a4.5,4.5,0,0,1-7.616.072l-11.5-17.9,2.524-1.622Z"/>
    <ellipse id="Ellipse_171" data-name="Ellipse 171" class="cls-8" cx="54" cy="38.5" rx="54" ry="38.5" transform="translate(60.998 198.437)"/>
    <path id="Path_485" data-name="Path 485" class="cls-9" d="M114.5,270.437c22.92,0,41.5-13.207,41.5-29.5s-18.58-29.5-41.5-29.5S73,224.645,73,240.937a23.337,23.337,0,0,0,5.753,14.995l-6.07,12.139a2,2,0,0,0,2.684,2.683l13.373-6.686a52.8,52.8,0,0,0,25.76,6.369Z"/>
    <path id="Path_486" data-name="Path 486" class="cls-5" d="M93.75,259.061A54.394,54.394,0,0,0,120,265.437c22.42,0,41-13.207,41-29,0-16.792-18.58-30-41-30-23.42,0-42,13.208-42,30a22.517,22.517,0,0,0,5.714,14.573l-6.032,12.063a2,2,0,0,0,2.682,2.682l13.39-6.694Zm53.394-41.492Q158,225.439,158,236.437q0,10.3-10.827,17.975-11.329,8.025-27.173,8.025a50.19,50.19,0,0,1-24.79-6,3,3,0,0,0-2.8-.061l-10.7,5.352,4.689-9.378A3,3,0,0,0,86,249.073,19.263,19.263,0,0,1,81,236.437q0-11.037,10.96-18.854,11.419-8.146,28.04-8.146,15.933,0,27.146,8.132Z"/>
    <rect id="Rectangle_315" data-name="Rectangle 315" class="cls-6" width="3" height="32" rx="1.5" transform="translate(130.75 224.064) rotate(45)"/>
    <rect id="Rectangle_316" data-name="Rectangle 316" class="cls-6" width="3" height="32" rx="1.5" transform="translate(132.871 246.691) rotate(135)"/>
  </g>
</svg>
