<svg xmlns="http://www.w3.org/2000/svg" width="286.915" height="263.701" viewBox="0 0 286.915 263.701">
  <defs>
    <style>
      .cls-1 {
        fill: #3f3f46;
      }

      .cls-1, .cls-5, .cls-7 {
        fill-rule: evenodd;
      }

      .cls-2 {
        fill: #f31260;
      }

      .cls-3 {
        fill: #f5a524;
      }

      .cls-4 {
        fill: #17c964;
      }

      .cls-5, .cls-6 {
        fill: #18181b;
      }

      .cls-7 {
        fill: #9353d3;
      }

      .cls-8 {
        fill: #27272a;
      }

      .cls-9 {
        fill: #006fee;
      }

      .cls-10 {
        fill: #0d0938;
      }
    </style>
  </defs>
  <g id="No_Search_Results" data-name="No Search Results" transform="translate(-17 -38)">
    <path id="Path_487" data-name="Path 487" class="cls-1" d="M242.211,120.195c30.612,37.859,64.783,73.325,61.482,105.295-3.236,31.906-44.073,60.317-83.162,71.061-39.154,10.678-76.561,3.688-114.551-11.2-37.924-14.82-76.431-37.536-86.333-69.895-9.837-32.294,8.93-74.3,36.695-111.509C84.106,66.8,120.865,34.379,152.707,38.327c31.9,3.883,58.893,44.072,89.5,81.868Z"/>
    <circle id="Ellipse_172" data-name="Ellipse 172" class="cls-2" cx="3" cy="3" r="3" transform="translate(55.998 261.437)"/>
    <circle id="Ellipse_173" data-name="Ellipse 173" class="cls-3" cx="5" cy="5" r="5" transform="translate(191.998 263.437)"/>
    <circle id="Ellipse_174" data-name="Ellipse 174" class="cls-4" cx="5" cy="5" r="5" transform="translate(139.998 39.437)"/>
    <path id="Path_488" data-name="Path 488" class="cls-5" d="M103.58,114.3l-.165-.01a56.688,56.688,0,0,0-9.57.255,1.5,1.5,0,1,1-.333-2.981,59.51,59.51,0,0,1,10.25-.258,1.5,1.5,0,0,1-.182,2.994ZM73.2,119.261l0,.008,0,.009a1.5,1.5,0,0,0,2,.673,56.669,56.669,0,0,1,9.086-3.5,1.5,1.5,0,0,0,1.028-1.84l0-.009,0-.009a1.494,1.494,0,0,0-1.275-1.073,1.473,1.473,0,0,0-.583.05,59.62,59.62,0,0,0-9.567,3.689,1.5,1.5,0,0,0-.69,2.006ZM57.4,131.351l.007.007.007.007a1.492,1.492,0,0,0,1.053.41,1.476,1.476,0,0,0,.572-.123,1.46,1.46,0,0,0,.482-.332,56.023,56.023,0,0,1,7.354-6.366,1.5,1.5,0,0,0,.335-2.1,1.5,1.5,0,0,0-2.1-.335,59.143,59.143,0,0,0-7.746,6.706,1.5,1.5,0,0,0,.031,2.121ZM46.572,148.112l.01,0,.008,0a1.5,1.5,0,0,0,1.969-.75,56.96,56.96,0,0,1,4.8-8.5,1.5,1.5,0,0,0-.385-2.079l-.008-.006a1.5,1.5,0,0,0-2.084.394,59.984,59.984,0,0,0-5.05,8.948,1.5,1.5,0,0,0,.742,1.987Zm-4.513,19.4h.019a1.5,1.5,0,0,0,1.6-1.375,56.149,56.149,0,0,1,1.625-9.592,1.5,1.5,0,0,0-1.065-1.827l-.01,0a1.5,1.5,0,0,0-1.828,1.075,59.134,59.134,0,0,0-1.712,10.1,1.5,1.5,0,0,0,1.374,1.616Zm1.663,8.358a1.5,1.5,0,0,0-1.61-1.36h-.02a1.5,1.5,0,0,0-1.358,1.63,59.783,59.783,0,0,0,1.8,10.09,1.5,1.5,0,0,0,1.847,1.058l.009,0a1.5,1.5,0,0,0,1.042-1.832,56.817,56.817,0,0,1-1.708-9.585Zm9.657,29.192-.005,0-.006,0a1.5,1.5,0,0,1-2.086-.386q-2.319-3.386-4.357-6.953-.467-.923-.9-1.862a1.5,1.5,0,0,1,.731-1.991l.009,0,.008,0a1.5,1.5,0,0,1,1.974.739q.405.873.838,1.732,1.951,3.4,4.17,6.643a1.5,1.5,0,0,1-.374,2.079Zm5.428,5.158a1.492,1.492,0,0,0-1.065.382l-.007.006-.007.006a1.5,1.5,0,0,0-.09,2.12,49.866,49.866,0,0,0,7.637,6.852,1.5,1.5,0,0,0,2.1-.357l.008-.012a1.5,1.5,0,0,0-.362-2.07,46.827,46.827,0,0,1-7.174-6.443,1.493,1.493,0,0,0-1.041-.484ZM74.3,221.636a1.488,1.488,0,0,0-.752.845l-.006.017a1.5,1.5,0,0,0,.935,1.9,30.624,30.624,0,0,0,9.95,1.651,1.5,1.5,0,0,0,.127-2.995q-.063-.005-.127,0a27.634,27.634,0,0,1-8.981-1.49,1.5,1.5,0,0,0-1.146.073Z"/>
    <rect id="Rectangle_317" data-name="Rectangle 317" class="cls-6" width="18" height="4" rx="2" transform="translate(260.703 73.667) rotate(-11)"/>
    <rect id="Rectangle_318" data-name="Rectangle 318" class="cls-6" width="18" height="4" rx="2" transform="translate(247.144 58.003) rotate(-60)"/>
    <rect id="Rectangle_319" data-name="Rectangle 319" class="cls-6" width="18" height="4" rx="2" transform="matrix(0.766, -0.643, 0.643, 0.766, 255.814, 64.529)"/>
    <path id="Path_489" data-name="Path 489" class="cls-7" d="M258,84.113V211.437a20,20,0,0,1-20,20H137a20,20,0,0,1-20-20v-133a20,20,0,0,1,20-20h97.694"/>
    <path id="Path_490" data-name="Path 490" class="cls-5" d="M244,94.113V221.437a20,20,0,0,1-20,20H123a20,20,0,0,1-20-20v-133a20,20,0,0,1,20-20h97.694v3H123a17,17,0,0,0-17,17v133a17,17,0,0,0,17,17H224a17,17,0,0,0,17-17V94.113Z"/>
    <path id="Path_491" data-name="Path 491" class="cls-5" d="M243.34,92.4a1.5,1.5,0,0,1,.376.993,1.5,1.5,0,0,1-1.5,1.5h-16.53a7.5,7.5,0,0,1-7.45-8.36l1.914-16.582a1.5,1.5,0,0,1,2.614-.822L243.34,92.4Zm-20.6-18.763,16.143,18.257h-13.2a4.5,4.5,0,0,1-4.469-5.016l1.528-13.24Z"/>
    <rect id="Rectangle_320" data-name="Rectangle 320" class="cls-6" width="60" height="3" rx="1.5" transform="translate(124.998 99.437)"/>
    <rect id="Rectangle_321" data-name="Rectangle 321" class="cls-6" width="80" height="3" rx="1.5" transform="translate(124.998 118.437)"/>
    <rect id="Rectangle_322" data-name="Rectangle 322" class="cls-6" width="106" height="3" rx="1.5" transform="translate(124.998 137.437)"/>
    <rect id="Rectangle_323" data-name="Rectangle 323" class="cls-6" width="106" height="3" rx="1.5" transform="translate(124.998 156.437)"/>
    <rect id="Rectangle_324" data-name="Rectangle 324" class="cls-6" width="106" height="3" rx="1.5" transform="translate(124.998 213.437)"/>
    <rect id="Rectangle_325" data-name="Rectangle 325" class="cls-6" width="106" height="3" rx="1.5" transform="translate(124.998 175.437)"/>
    <rect id="Rectangle_326" data-name="Rectangle 326" class="cls-6" width="106" height="3" rx="1.5" transform="translate(124.998 194.437)"/>
    <circle id="Ellipse_175" data-name="Ellipse 175" class="cls-8" cx="42" cy="42" r="42" transform="translate(66.997 180.436)"/>
    <path id="Path_493" data-name="Path 493" class="cls-9" d="M31,0A31,31,0,1,1,0,31,31,31,0,0,1,31,0Z" transform="translate(70.996 196.437)"/>
    <rect id="Rectangle_327" data-name="Rectangle 327" class="cls-10" width="3" height="12" rx="1.5" transform="translate(130.049 243.904) rotate(-45)"/>
    <path id="Path_492" data-name="Path 492" class="cls-5" d="M140.656,250.268l-2.123,2.122a4,4,0,0,0,0,5.656l12.73,12.729a4,4,0,0,0,5.655,0l2.123-2.123a4,4,0,0,0,0-5.655l-12.73-12.729a4,4,0,0,0-5.655,0Zm0,5.656a.882.882,0,0,1,0-1.412l2.122-2.123a.883.883,0,0,1,1.413,0l12.729,12.729a.883.883,0,0,1,0,1.413l-2.122,2.123a.883.883,0,0,1-1.413,0l-12.729-12.73Zm-9.9-56.568a31,31,0,1,1-43.841,0A31,31,0,0,1,130.755,199.356Zm6.079,21.92a28,28,0,0,1-28,28,28,28,0,1,1,19.8-47.8A26.977,26.977,0,0,1,136.834,221.276Z"/>
    <rect id="Rectangle_328" data-name="Rectangle 328" class="cls-6" width="3" height="32" rx="1.5" transform="translate(119.749 210.063) rotate(45)"/>
    <rect id="Rectangle_329" data-name="Rectangle 329" class="cls-6" width="3" height="32" rx="1.5" transform="translate(121.869 232.689) rotate(135)"/>
  </g>
</svg>
