<svg xmlns="http://www.w3.org/2000/svg" width="286.915" height="263.701" viewBox="0 0 286.915 263.701">
  <defs>
    <style>
      .cls-1 {
        fill: #3f3f46;
      }

      .cls-1, .cls-5, .cls-7 {
        fill-rule: evenodd;
      }

      .cls-2 {
        fill: #006fee;
      }

      .cls-3 {
        fill: #f5a524;
      }

      .cls-4 {
        fill: #17c964;
      }

      .cls-5, .cls-6 {
        fill: #18181b;
      }

      .cls-7 {
        fill: #9353d3;
      }

      .cls-8 {
        fill: #27272a;
      }
    </style>
  </defs>
  <g id="No-Available-Slots" transform="translate(-17 -43)">
    <path id="Path_494" data-name="Path 494" class="cls-1" d="M242.211,125.195c30.612,37.859,64.783,73.325,61.482,105.295-3.236,31.906-44.073,60.317-83.162,71.061-39.154,10.678-76.561,3.688-114.551-11.2-37.924-14.82-76.431-37.536-86.333-69.895-9.837-32.294,8.93-74.3,36.695-111.509C84.106,71.8,120.865,39.379,152.707,43.327c31.9,3.883,58.893,44.072,89.5,81.868Z"/>
    <circle id="Ellipse_176" data-name="Ellipse 176" class="cls-2" cx="3" cy="3" r="3" transform="translate(56.998 273.421)"/>
    <circle id="Ellipse_177" data-name="Ellipse 177" class="cls-3" cx="5" cy="5" r="5" transform="translate(140.998 75.421)"/>
    <circle id="Ellipse_178" data-name="Ellipse 178" class="cls-4" cx="5" cy="5" r="5" transform="translate(276.998 239.421)"/>
    <path id="Path_495" data-name="Path 495" class="cls-5" d="M233,116.921q-2,0-3.956.134a1.5,1.5,0,1,1-.2-2.993,61.582,61.582,0,0,1,8.908.043,1.5,1.5,0,1,1-.232,2.991q-2.254-.175-4.517-.175Zm-10.627-.565a1.5,1.5,0,0,1-1.162,1.775,56.979,56.979,0,0,0-7.609,2.144,1.5,1.5,0,1,1-1.012-2.824,60.017,60.017,0,0,1,8.009-2.257,1.5,1.5,0,0,1,1.774,1.162Zm22.947.334a1.5,1.5,0,0,1,1.808-1.11,60.028,60.028,0,0,1,9.031,2.933,1.5,1.5,0,0,1-1.15,2.771,57.007,57.007,0,0,0-8.579-2.786,1.5,1.5,0,0,1-1.11-1.808Zm-38.325,4.735a1.5,1.5,0,0,1-.633,2.025q-1.753.918-3.439,1.955a1.5,1.5,0,1,1-1.571-2.556q1.774-1.09,3.618-2.057a1.5,1.5,0,0,1,2.025.633Zm55.557,1.9a1.5,1.5,0,0,1,2.064-.493,60.681,60.681,0,0,1,7.676,5.586,1.5,1.5,0,0,1-1.949,2.281,57.631,57.631,0,0,0-7.3-5.311,1.5,1.5,0,0,1-.494-2.063Zm14.338,11.64a1.5,1.5,0,0,1,2.115.166,60.681,60.681,0,0,1,5.586,7.676,1.5,1.5,0,1,1-2.556,1.57,57.634,57.634,0,0,0-5.311-7.3,1.5,1.5,0,0,1,.166-2.115Zm10.058,15.488a1.5,1.5,0,0,1,1.96.811,60.028,60.028,0,0,1,2.933,9.031,1.5,1.5,0,1,1-2.918.7,57.055,57.055,0,0,0-2.786-8.58,1.5,1.5,0,0,1,.811-1.96Zm4.756,17.841a1.5,1.5,0,0,1,1.612,1.38,61.174,61.174,0,0,1-.026,9.822,1.5,1.5,0,1,1-2.99-.248,58.344,58.344,0,0,0,.025-9.342,1.5,1.5,0,0,1,1.379-1.612Zm-1.179,19.382a1.5,1.5,0,0,1,1.08,1.826,59.951,59.951,0,0,1-3.343,9.581,1.5,1.5,0,1,1-2.739-1.224,57.047,57.047,0,0,0,3.176-9.1,1.5,1.5,0,0,1,1.826-1.08Zm-7.582,18.209a1.5,1.5,0,0,1,.415,2.08,60.815,60.815,0,0,1-6.316,7.938,1.5,1.5,0,1,1-2.184-2.057,57.855,57.855,0,0,0,6.005-7.546A1.5,1.5,0,0,1,282.941,205.883Zm-13.159,14.695a1.5,1.5,0,0,1-.29,2.1,60.574,60.574,0,0,1-8.573,5.428,1.5,1.5,0,0,1-1.386-2.661,57.506,57.506,0,0,0,8.147-5.158,1.5,1.5,0,0,1,2.1.29Zm-17.257,9.555a1.5,1.5,0,0,1-.968,1.888q-2.418.779-4.895,1.351a1.5,1.5,0,1,1-.675-2.923q2.352-.543,4.651-1.284a1.5,1.5,0,0,1,1.887.968Z"/>
    <rect id="Rectangle_330" data-name="Rectangle 330" class="cls-6" width="17.89" height="4.051" rx="2" transform="matrix(-0.766, -0.643, 0.643, -0.766, 56.775, 130.734)"/>
    <rect id="Rectangle_331" data-name="Rectangle 331" class="cls-6" width="17.89" height="4.051" rx="2" transform="translate(64.641 122.971) rotate(-120)"/>
    <rect id="Rectangle_332" data-name="Rectangle 332" class="cls-6" width="17.89" height="4.051" rx="2" transform="translate(53.582 140.918) rotate(-169)"/>
    <path id="Path_496" data-name="Path 496" class="cls-7" d="M99,134.421h0Zm83,0h14a15,15,0,0,1,15,15v96a15,15,0,0,1-15,15H74a15,15,0,0,1-15-15v-96a15,15,0,0,1,15-15H89"/>
    <path id="Path_497" data-name="Path 497" class="cls-6" d="M108,129.421h73v-6H108Zm83,0h14v-6H191Zm14,0a12,12,0,0,1,12,12h6a18,18,0,0,0-18-18Zm12,12v96h6v-96Zm0,96a12,12,0,0,1-12,12v6a18,18,0,0,0,18-18Zm-12,12H83v6H205Zm-122,0a12,12,0,0,1-12-12H65a18,18,0,0,0,18,18Zm-12-12v-96H65v96Zm0-96a12,12,0,0,1,12-12v-6a18,18,0,0,0-18,18Zm12-12H98v-6H83Z"/>
    <path id="Path_498" data-name="Path 498" class="cls-6" d="M70,148.421H218v3H70Z"/>
    <path id="Path_499" data-name="Path 499" class="cls-5" d="M101,194.421H96a2,2,0,0,0-2,2v5a2,2,0,0,0,2,2h5a2,2,0,0,0,2-2v-5A2,2,0,0,0,101,194.421Zm-5-3a5,5,0,0,0-5,5v5a5,5,0,0,0,5,5h5a5,5,0,0,0,5-5v-5a5,5,0,0,0-5-5Zm5,32H96a2,2,0,0,0-2,2v5a2,2,0,0,0,2,2h5a2,2,0,0,0,2-2v-5A2,2,0,0,0,101,223.421Zm-5-3a5,5,0,0,0-5,5v5a5,5,0,0,0,5,5h5a5,5,0,0,0,5-5v-5a5,5,0,0,0-5-5Zm36-54h-5a2,2,0,0,0-2,2v5a2,2,0,0,0,2,2h5a2,2,0,0,0,2-2v-5A2,2,0,0,0,132,166.421Zm-5-3a5,5,0,0,0-5,5v5a5,5,0,0,0,5,5h5a5,5,0,0,0,5-5v-5a5,5,0,0,0-5-5Zm5,31h-5a2,2,0,0,0-2,2v5a2,2,0,0,0,2,2h5a2,2,0,0,0,2-2v-5A2,2,0,0,0,132,194.421Zm-5-3a5,5,0,0,0-5,5v5a5,5,0,0,0,5,5h5a5,5,0,0,0,5-5v-5a5,5,0,0,0-5-5Zm5,32h-5a2,2,0,0,0-2,2v5a2,2,0,0,0,2,2h5a2,2,0,0,0,2-2v-5A2,2,0,0,0,132,223.421Zm-5-3a5,5,0,0,0-5,5v5a5,5,0,0,0,5,5h5a5,5,0,0,0,5-5v-5a5,5,0,0,0-5-5Zm36-54h-5a2,2,0,0,0-2,2v5a2,2,0,0,0,2,2h5a2,2,0,0,0,2-2v-5A2,2,0,0,0,163,166.421Zm-5-3a5,5,0,0,0-5,5v5a5,5,0,0,0,5,5h5a5,5,0,0,0,5-5v-5a5,5,0,0,0-5-5Zm5,31h-5a2,2,0,0,0-2,2v5a2,2,0,0,0,2,2h5a2,2,0,0,0,2-2v-5A2,2,0,0,0,163,194.421Zm-5-3a5,5,0,0,0-5,5v5a5,5,0,0,0,5,5h5a5,5,0,0,0,5-5v-5a5,5,0,0,0-5-5Zm5,32h-5a2,2,0,0,0-2,2v5a2,2,0,0,0,2,2h5a2,2,0,0,0,2-2v-5A2,2,0,0,0,163,223.421Zm-5-3a5,5,0,0,0-5,5v5a5,5,0,0,0,5,5h5a5,5,0,0,0,5-5v-5a5,5,0,0,0-5-5Zm36-54h-5a2,2,0,0,0-2,2v5a2,2,0,0,0,2,2h5a2,2,0,0,0,2-2v-5A2,2,0,0,0,194,166.421Zm-5-3a5,5,0,0,0-5,5v5a5,5,0,0,0,5,5h5a5,5,0,0,0,5-5v-5a5,5,0,0,0-5-5Zm5,31h-5a2,2,0,0,0-2,2v5a2,2,0,0,0,2,2h5a2,2,0,0,0,2-2v-5A2,2,0,0,0,194,194.421Zm-5-3a5,5,0,0,0-5,5v5a5,5,0,0,0,5,5h5a5,5,0,0,0,5-5v-5a5,5,0,0,0-5-5Zm-83-70h-6v10h6Zm-6-3a3,3,0,0,0-3,3v10a3,3,0,0,0,3,3h6a3,3,0,0,0,3-3v-10a3,3,0,0,0-3-3Zm89,3h-6v10h6Zm-6-3a3,3,0,0,0-3,3v10a3,3,0,0,0,3,3h6a3,3,0,0,0,3-3v-10a3,3,0,0,0-3-3Z"/>
    <circle id="Ellipse_179" data-name="Ellipse 179" class="cls-8" cx="39.58" cy="39.58" r="39.58" transform="translate(171.418 205.682)"/>
    <circle id="Ellipse_180" data-name="Ellipse 180" class="cls-2" cx="31" cy="31" r="31" transform="translate(183.998 215.262)"/>
    <path id="Path_500" data-name="Path 500" class="cls-5" d="M209,272.262a28,28,0,1,0-28-28A28,28,0,0,0,209,272.262Zm0,3a31,31,0,1,0-31-31A31,31,0,0,0,209,275.262Z"/>
    <rect id="Rectangle_333" data-name="Rectangle 333" class="cls-6" width="3" height="32" rx="1.5" transform="translate(219.711 232.008) rotate(45)"/>
    <rect id="Rectangle_334" data-name="Rectangle 334" class="cls-6" width="3" height="32" rx="1.5" transform="translate(221.832 254.635) rotate(135)"/>
  </g>
</svg>
