<svg xmlns="http://www.w3.org/2000/svg" width="286.915" height="263.701" viewBox="0 0 286.915 263.701">
  <defs>
    <style>
      .cls-1 {
        fill: #3f3f46;
      }

      .cls-1, .cls-5, .cls-7 {
        fill-rule: evenodd;
      }

      .cls-2 {
        fill: #f5a524;
      }

      .cls-3 {
        fill: #f31260;
      }

      .cls-4 {
        fill: #17c964;
      }

      .cls-5, .cls-6 {
        fill: #18181b;
      }

      .cls-7 {
        fill: #9353d3;
      }

      .cls-8 {
        fill: #27272a;
      }

      .cls-9 {
        fill: #006fee;
      }
    </style>
  </defs>
  <g id="No-Bus-Available" transform="translate(-17 -43)">
    <path id="Path_501" data-name="Path 501" class="cls-1" d="M242.211,125.195c30.612,37.859,64.783,73.325,61.482,105.295-3.236,31.906-44.073,60.317-83.162,71.061-39.154,10.678-76.561,3.688-114.551-11.2-37.924-14.82-76.431-37.536-86.333-69.895-9.837-32.294,8.93-74.3,36.695-111.509C84.106,71.8,120.865,39.379,152.707,43.327c31.9,3.883,58.893,44.072,89.5,81.868Z"/>
    <circle id="Ellipse_181" data-name="Ellipse 181" class="cls-2" cx="3" cy="3" r="3" transform="translate(45.864 259.914)"/>
    <circle id="Ellipse_182" data-name="Ellipse 182" class="cls-3" cx="5" cy="5" r="5" transform="translate(139.864 67.914)"/>
    <circle id="Ellipse_183" data-name="Ellipse 183" class="cls-4" cx="5" cy="5" r="5" transform="translate(252.864 249.914)"/>
    <path id="Path_502" data-name="Path 502" class="cls-5" d="M188.6,202.607q-.309-1.955-.751-3.886a1.5,1.5,0,1,1,2.924-.669,61.4,61.4,0,0,1,1.351,8.805,1.5,1.5,0,1,1-2.99.239q-.18-2.254-.534-4.489Zm-1.1-10.584a1.5,1.5,0,0,1-1.934-.871,57.14,57.14,0,0,0-3.308-7.18,1.5,1.5,0,1,1,2.631-1.441,60,60,0,0,1,3.482,7.557,1.5,1.5,0,0,1-.871,1.935Zm3.26,22.716a1.5,1.5,0,0,1,1.379,1.612,59.958,59.958,0,0,1-1.483,9.378,1.5,1.5,0,1,1-2.917-.7,57.073,57.073,0,0,0,1.409-8.91,1.5,1.5,0,0,1,1.612-1.379Zm-10.672-37.112a1.5,1.5,0,0,1-2.1-.309q-1.18-1.587-2.468-3.09a1.5,1.5,0,0,1,2.278-1.952q1.354,1.581,2.6,3.252A1.5,1.5,0,0,1,180.081,177.627ZM186.9,232.8a1.5,1.5,0,0,1,.81,1.961,60.767,60.767,0,0,1-4.317,8.456,1.5,1.5,0,1,1-2.557-1.569,57.776,57.776,0,0,0,4.1-8.038,1.5,1.5,0,0,1,1.961-.81Zm-9.254,15.982a1.5,1.5,0,0,1,.167,2.115,60.62,60.62,0,0,1-6.708,6.718,1.5,1.5,0,0,1-1.951-2.279,57.574,57.574,0,0,0,6.377-6.387,1.5,1.5,0,0,1,2.115-.167ZM163.92,261.136a1.5,1.5,0,0,1-.495,2.063,60.137,60.137,0,0,1-8.46,4.309,1.5,1.5,0,1,1-1.146-2.772,57.093,57.093,0,0,0,8.038-4.094,1.5,1.5,0,0,1,2.063.494Zm-16.877,7.489a1.5,1.5,0,0,1-1.111,1.807,61.082,61.082,0,0,1-9.705,1.511,1.5,1.5,0,0,1-.223-2.992,58.188,58.188,0,0,0,9.231-1.437,1.5,1.5,0,0,1,1.808,1.111Zm-19.328,1.867a1.5,1.5,0,0,1-1.634,1.352,60.03,60.03,0,0,1-9.986-1.8,1.5,1.5,0,0,1,.78-2.9,57.1,57.1,0,0,0,9.487,1.713,1.5,1.5,0,0,1,1.353,1.634Zm-19.17-4.64a1.5,1.5,0,0,1-1.99.735,60.742,60.742,0,0,1-8.829-5,1.5,1.5,0,1,1,1.69-2.478,57.808,57.808,0,0,0,8.393,4.75,1.5,1.5,0,0,1,.736,1.99Zm-16.574-10.7a1.5,1.5,0,0,1-2.12.042,60.543,60.543,0,0,1-6.7-7.617,1.5,1.5,0,0,1,2.41-1.786,57.517,57.517,0,0,0,6.37,7.24,1.5,1.5,0,0,1,.042,2.121ZM79.834,239.6a1.5,1.5,0,0,1-2.016-.661q-1.147-2.266-2.1-4.624A1.5,1.5,0,1,1,78.5,233.2q.9,2.238,2,4.393a1.5,1.5,0,0,1-.66,2.016Z"/>
    <rect id="Rectangle_335" data-name="Rectangle 335" class="cls-6" width="17.89" height="4.051" rx="2" transform="matrix(0.809, -0.588, 0.588, 0.809, 265.743, 108.296)"/>
    <rect id="Rectangle_336" data-name="Rectangle 336" class="cls-6" width="17.89" height="4.051" rx="2" transform="translate(271.352 117.782) rotate(-16)"/>
    <rect id="Rectangle_337" data-name="Rectangle 337" class="cls-6" width="17.89" height="4.051" rx="2" transform="translate(256.638 102.714) rotate(-65)"/>
    <path id="Path_503" data-name="Path 503" class="cls-7" d="M77.345,110.914a10,10,0,0,0-9.989,10.47l3.06,65a10,10,0,0,0,9.988,9.53h21.46a17,17,0,0,0,34,0h86a17,17,0,0,0,34,0h18a8,8,0,0,0,8-8v-18.94a8,8,0,0,0-5.834-7.7l-25.612-7.2-2.8-33.977a10,10,0,0,0-9.967-9.179H77.345Z"/>
    <path id="Path_504" data-name="Path 504" class="cls-5" d="M93.864,197.914v3a14,14,0,0,0,28,0v-3h92v3a14,14,0,0,0,28,0v-3h21a5,5,0,0,0,5-5v-18.94a5,5,0,0,0-3.646-4.813L236.6,161.393,233.63,125.34a7,7,0,0,0-6.977-6.426H66.345a7,7,0,0,0-6.992,7.329l3.059,65a7,7,0,0,0,6.992,6.671h24.46Zm-24.46,3a10,10,0,0,1-9.989-9.53l-3.059-65a10,10,0,0,1,9.99-10.47H226.653a10,10,0,0,1,9.967,9.18l2.8,33.976,25.612,7.2a8,8,0,0,1,5.834,7.7v18.94a8,8,0,0,1-8,8h-18a17,17,0,0,1-34,0h-86a17,17,0,0,1-34,0H69.4Z"/>
    <path id="Path_505" data-name="Path 505" class="cls-5" d="M213.864,131.914H79.232l7.692,20h126.94v-20Zm-134.632-3a3,3,0,0,0-2.8,4.077l7.692,20a3,3,0,0,0,2.8,1.923h126.94a3,3,0,0,0,3-3v-20a3,3,0,0,0-3-3H79.232Z"/>
    <path id="Path_506" data-name="Path 506" class="cls-5" d="M190.864,128.914h-3v26h3Zm23,0v3h22v-3Zm-35.5,36a1.5,1.5,0,1,0,0,3h37a1.5,1.5,0,1,0,0-3Zm-14,12a1.5,1.5,0,0,0,0,3h37a1.5,1.5,0,1,0,0-3Zm-.5-48h-3v26h3Zm-28,0h-3v26h3Zm-27,0h-3v26h3Zm119,78a6,6,0,1,0-6-6A6,6,0,0,0,227.864,206.914Zm0,3a9,9,0,1,0-9-9A9,9,0,0,0,227.864,209.914Zm-120-3a6,6,0,1,0-6-6A6,6,0,0,0,107.864,206.914Zm0,3a9,9,0,1,0-9-9A9,9,0,0,0,107.864,209.914Z"/>
    <circle id="Ellipse_184" data-name="Ellipse 184" class="cls-8" cx="39.58" cy="39.58" r="39.58" transform="translate(24.284 165.174)"/>
    <path id="Path_508" data-name="Path 508" class="cls-9" d="M31,0A31,31,0,1,1,0,31,31,31,0,0,1,31,0Z" transform="translate(26.864 175.755)"/>
    <path id="Path_507" data-name="Path 507" class="cls-5" d="M63.864,232.755a28,28,0,1,0-28-28A28,28,0,0,0,63.864,232.755Zm0,3a31,31,0,1,0-31-31A31,31,0,0,0,63.864,235.755Z"/>
    <rect id="Rectangle_338" data-name="Rectangle 338" class="cls-6" width="3" height="32" rx="1.5" transform="translate(74.577 192.499) rotate(45)"/>
    <rect id="Rectangle_339" data-name="Rectangle 339" class="cls-6" width="3" height="32" rx="1.5" transform="translate(76.699 215.128) rotate(135)"/>
  </g>
</svg>
