<svg xmlns="http://www.w3.org/2000/svg" width="286.915" height="263.701" viewBox="0 0 286.915 263.701">
  <defs>
    <style>
      .cls-1 {
        fill: #3f3f46;
      }

      .cls-1, .cls-10, .cls-11, .cls-7 {
        fill-rule: evenodd;
      }

      .cls-11, .cls-2 {
        fill: #006fee;
      }

      .cls-3 {
        fill: #f5a524;
      }

      .cls-4 {
        fill: #17c964;
      }

      .cls-5, .cls-8, .cls-9 {
        fill: none;
        stroke: #18181b;
        stroke-width: 3px;
      }

      .cls-5, .cls-9 {
        stroke-linecap: round;
        stroke-linejoin: round;
      }

      .cls-5 {
        stroke-dasharray: 10 10;
      }

      .cls-6 {
        fill: #18181b;
      }

      .cls-7 {
        fill: #9353d3;
      }

      .cls-10 {
        fill: #27272a;
      }
    </style>
  </defs>
  <g id="No-Certificate-Found" transform="translate(-17 -43)">
    <path id="Path_509" data-name="Path 509" class="cls-1" d="M242.211,125.195c30.612,37.859,64.783,73.325,61.482,105.295-3.236,31.906-44.073,60.317-83.162,71.061-39.154,10.678-76.561,3.688-114.551-11.2-37.924-14.82-76.431-37.536-86.333-69.895-9.837-32.294,8.93-74.3,36.695-111.509C84.106,71.8,120.865,39.379,152.707,43.327c31.9,3.883,58.893,44.072,89.5,81.868Z"/>
    <circle id="Ellipse_185" data-name="Ellipse 185" class="cls-2" cx="3" cy="3" r="3" transform="translate(277.99 197.421)"/>
    <circle id="Ellipse_186" data-name="Ellipse 186" class="cls-3" cx="5" cy="5" r="5" transform="translate(136.99 58.421)"/>
    <circle id="Ellipse_187" data-name="Ellipse 187" class="cls-4" cx="5" cy="5" r="5" transform="translate(151.99 275.421)"/>
    <path id="Path_510" data-name="Path 510" class="cls-5" d="M84.82,123.107a58.008,58.008,0,0,0-4.107,115.065"/>
    <rect id="Rectangle_340" data-name="Rectangle 340" class="cls-6" width="17.89" height="4.051" rx="2" transform="matrix(0.766, -0.643, 0.643, 0.766, 248.124, 165.563)"/>
    <rect id="Rectangle_341" data-name="Rectangle 341" class="cls-6" width="17.89" height="4.051" rx="2" transform="translate(239.352 158.879) rotate(-60)"/>
    <rect id="Rectangle_342" data-name="Rectangle 342" class="cls-6" width="17.89" height="4.051" rx="2" transform="translate(253.163 174.865) rotate(-11)"/>
    <path id="Path_511" data-name="Path 511" class="cls-7" d="M179,87.832a11,11,0,0,0-6.871-2.41H87.99a11,11,0,0,0-11,11v133a11,11,0,0,0,11,11h102a11,11,0,0,0,11-11V110.708a11,11,0,0,0-4.128-8.589L179,87.832Z"/>
    <path id="Path_512" data-name="Path 512" class="cls-8" d="M190,95.832a11,11,0,0,0-6.871-2.41H98.99a11,11,0,0,0-11,11v133a11,11,0,0,0,11,11h102a11,11,0,0,0,11-11V118.708a11,11,0,0,0-4.128-8.589L190,95.832Z"/>
    <path id="Path_513" data-name="Path 513" class="cls-9" d="M209.99,114.421l-16.739.728a6,6,0,0,1-6.261-5.994V94.421"/>
    <rect id="Rectangle_343" data-name="Rectangle 343" class="cls-6" width="52" height="3" rx="1.5" transform="translate(97.99 165.421)"/>
    <rect id="Rectangle_344" data-name="Rectangle 344" class="cls-6" width="80" height="3" rx="1.5" transform="translate(97.99 180.421)"/>
    <rect id="Rectangle_345" data-name="Rectangle 345" class="cls-6" width="100" height="3" rx="1.5" transform="translate(97.99 196.421)"/>
    <rect id="Rectangle_346" data-name="Rectangle 346" class="cls-6" width="60" height="3" rx="1.5" transform="translate(98.99 211.421)"/>
    <rect id="Rectangle_347" data-name="Rectangle 347" class="cls-6" width="40" height="3" rx="1.5" transform="translate(99.99 227.421)"/>
    <rect id="Rectangle_348" data-name="Rectangle 348" class="cls-8" width="62" height="35" rx="7" transform="translate(98.99 117.421)"/>
    <path id="Path_514" data-name="Path 514" class="cls-10" d="M218.991,226.421h-16v60l18-12.7,18,12.7v-60h-20Z"/>
    <path id="Path_515" data-name="Path 515" class="cls-10" d="M236.389,250.193a32.817,32.817,0,0,0-29.8,0,.656.656,0,0,1-.922-.382l-4.853-14.933a2,2,0,0,0-1.284-1.284L186.1,229.228a2,2,0,0,1-1.164-2.81l6.413-12.589a2,2,0,0,0,0-1.816l-6.413-12.589a2,2,0,0,1,1.164-2.81l13.436-4.366a2,2,0,0,0,1.284-1.284l4.367-13.437a2,2,0,0,1,2.81-1.164l12.588,6.414a2,2,0,0,0,1.816,0l12.589-6.414a2,2,0,0,1,2.81,1.164l4.366,13.437a2,2,0,0,0,1.284,1.284l13.437,4.366a2,2,0,0,1,1.164,2.81l-6.414,12.589a2,2,0,0,0,0,1.816l6.414,12.589a2,2,0,0,1-1.164,2.81l-13.437,4.366a2,2,0,0,0-1.284,1.284l-4.852,14.933a.656.656,0,0,1-.922.382Z"/>
    <path id="Path_516" data-name="Path 516" class="cls-11" d="M214.9,242.437,211.511,232a2,2,0,0,0-1.284-1.284l-8.854-2.877a2,2,0,0,1-1.164-2.81l4.226-8.295a2,2,0,0,0,0-1.816l-4.226-8.295a2,2,0,0,1,1.164-2.81l8.854-2.877a2,2,0,0,0,1.284-1.284l2.877-8.853a2,2,0,0,1,2.81-1.164l8.295,4.226a2,2,0,0,0,1.815,0l8.295-4.226a2,2,0,0,1,2.81,1.164l2.877,8.853a2,2,0,0,0,1.284,1.284l8.854,2.877a2,2,0,0,1,1.164,2.81l-4.226,8.295a2,2,0,0,0,0,1.816l4.226,8.3a2,2,0,0,1-1.164,2.81l-8.854,2.877A2,2,0,0,0,241.29,232L237.9,242.437v39.326a2,2,0,0,1-3.357,1.47l-8.143-7.517-8.144,7.517a2,2,0,0,1-3.356-1.47Z"/>
    <path id="Path_517" data-name="Path 517" class="cls-6" d="M209.991,243.421v-3h-3v3Zm3.153,36.774,1.73,2.451Zm8.56-6.042,1.872-2.344-1.761-1.406-1.841,1.3,1.73,2.45Zm7.93,6.335-1.872,2.344.078.062.082.057,1.712-2.463Zm2.826-.086,1.9,2.325Zm.531-36.981h3v-3h-3Zm-23,3h10v-6h-10Zm3,32.141V243.421h-6v35.141Zm-1.577-.817a1,1,0,0,1,1.577.817h-6a5,5,0,0,0,7.883,4.084l-3.46-4.9Zm8.56-6.042-8.56,6.042,3.46,4.9,8.56-6.042Zm11.532,6.44-7.93-6.334-3.745,4.689,7.931,6.334,3.744-4.689Zm-.942-.065a.942.942,0,0,1,.285-.165.384.384,0,0,1,.248-.011.831.831,0,0,1,.249.122l-3.424,4.927a5.4,5.4,0,0,0,3.239.933,5.314,5.314,0,0,0,3.2-1.157l-3.793-4.649Zm-.573,1.3a1.685,1.685,0,0,1,.573-1.3l3.793,4.649a4.325,4.325,0,0,0,1.634-3.346h-6Zm0-35.96v35.96h6v-35.96Zm-7,3h10v-6h-10Zm-1,0h1v-6h-1Zm-2,0h2v-6h-2Z"/>
    <path id="Path_518" data-name="Path 518" class="cls-8" d="M232.284,238.923a23.773,23.773,0,0,0-21.586,0h0a.475.475,0,0,1-.668-.277L206.6,228.1a2,2,0,0,0-1.284-1.284l-8.854-2.877a2,2,0,0,1-1.164-2.81l4.226-8.295a2,2,0,0,0,0-1.816l-4.226-8.294a2,2,0,0,1,1.164-2.81l8.854-2.877a2,2,0,0,0,1.284-1.284l2.877-8.854a2,2,0,0,1,2.81-1.164l8.295,4.226a2,2,0,0,0,1.816,0l8.295-4.226a2,2,0,0,1,2.81,1.164l2.877,8.854a2,2,0,0,0,1.284,1.284l8.853,2.877a2,2,0,0,1,1.164,2.81l-4.226,8.294a2,2,0,0,0,0,1.816l4.226,8.295a2,2,0,0,1-1.164,2.81l-8.853,2.877a2,2,0,0,0-1.284,1.284l-3.429,10.551a.475.475,0,0,1-.668.277h0Z"/>
    <rect id="Rectangle_349" data-name="Rectangle 349" class="cls-6" width="3" height="29" rx="1.5" transform="translate(230.65 200.576) rotate(45)"/>
    <rect id="Rectangle_350" data-name="Rectangle 350" class="cls-6" width="3" height="29" rx="1.5" transform="translate(210.147 202.697) rotate(-45)"/>
  </g>
</svg>
