<svg xmlns="http://www.w3.org/2000/svg" width="286.915" height="277.917" viewBox="0 0 286.915 277.917">
  <defs>
    <style>
      .cls-1 {
        fill: #3f3f46;
      }

      .cls-1, .cls-10, .cls-11, .cls-5, .cls-8 {
        fill-rule: evenodd;
      }

      .cls-2 {
        fill: #17c964;
      }

      .cls-3 {
        fill: #f31260;
      }

      .cls-4 {
        fill: #f5a524;
      }

      .cls-5, .cls-6 {
        fill: #18181b;
      }

      .cls-7 {
        fill: #9353d3;
      }

      .cls-8, .cls-9 {
        fill: #0d0938;
      }

      .cls-10 {
        fill: #27272a;
      }

      .cls-11 {
        fill: #006fee;
      }
    </style>
  </defs>
  <g id="No-Contact-Found" transform="translate(-14.003 -39.562)">
    <path id="Path_519" data-name="Path 519" class="cls-1" d="M239.215,121.757c30.611,37.86,64.782,73.325,61.482,105.3-3.236,31.906-44.073,60.317-83.163,71.06-39.154,10.679-76.561,3.689-114.55-11.2C65.059,272.1,26.552,249.381,16.65,217.022c-9.837-32.294,8.931-74.3,36.695-111.509C81.11,68.365,117.87,35.941,149.71,39.889c31.906,3.883,58.893,44.073,89.5,81.868Z"/>
    <circle id="Ellipse_188" data-name="Ellipse 188" class="cls-2" cx="3" cy="3" r="3" transform="translate(32 245)"/>
    <circle id="Ellipse_189" data-name="Ellipse 189" class="cls-3" cx="5" cy="5" r="5" transform="translate(155 70)"/>
    <circle id="Ellipse_190" data-name="Ellipse 190" class="cls-4" cx="5" cy="5" r="5" transform="translate(289 182)"/>
    <path id="Path_520" data-name="Path 520" class="cls-5" d="M262.579,225.556A83.934,83.934,0,0,1,263,235.73a1.5,1.5,0,0,1-1.528,1.472h-.014A1.5,1.5,0,0,1,260,235.673a80.848,80.848,0,0,0-.41-9.81,1.5,1.5,0,0,1,2.985-.307Zm-3.359,19.9a1.5,1.5,0,0,1,2.97.421,83.017,83.017,0,0,1-2.051,10,1.5,1.5,0,0,1-1.839,1.057l-.013,0a1.5,1.5,0,0,1-1.044-1.836,80.039,80.039,0,0,0,1.977-9.637Zm-5.1,18.911a1.5,1.5,0,0,1,1.949-.826l.006,0a1.5,1.5,0,0,1,.824,1.955,82.823,82.823,0,0,1-4.427,9.208,1.5,1.5,0,0,1-2.041.578l-.006,0a1.5,1.5,0,0,1-.571-2.038,79.836,79.836,0,0,0,4.266-8.876ZM244.551,281.5a1.5,1.5,0,0,1,2.085-.334l.005,0a1.5,1.5,0,0,1,.332,2.1,84.444,84.444,0,0,1-6.526,7.884,1.5,1.5,0,0,1-2.12.071l-.01-.009a1.5,1.5,0,0,1-.061-2.111,81.423,81.423,0,0,0,6.3-7.605ZM123.784,292.025a1.5,1.5,0,0,1-.155,2.1l-.009.008-.01.008a1.5,1.5,0,0,1-1.656.19,1.459,1.459,0,0,1-.458-.364,42.933,42.933,0,0,1-5.7-8.606,1.5,1.5,0,0,1,.672-2.012l.012-.006.013-.006a1.5,1.5,0,0,1,1.987.684,39.993,39.993,0,0,0,5.3,8.006Zm108.442,3.482a1.5,1.5,0,0,1,1.008.522l0,0,0,.005a1.5,1.5,0,0,1-.188,2.113,82.837,82.837,0,0,1-8.193,6.038,1.5,1.5,0,0,1-2.077-.451l0-.006a1.5,1.5,0,0,1,.453-2.063,79.688,79.688,0,0,0,7.9-5.819,1.492,1.492,0,0,1,1.1-.344Zm-92.534,9.326a1.472,1.472,0,0,1,.056.575,1.453,1.453,0,0,1-.165.553l0,.007,0,.007a1.5,1.5,0,0,1-2.032.61,62.372,62.372,0,0,1-8.607-5.551,1.5,1.5,0,0,1-.268-2.105l.006-.008.007-.008a1.494,1.494,0,0,1,1.567-.513,1.509,1.509,0,0,1,.524.261,59.272,59.272,0,0,0,8.194,5.283,1.485,1.485,0,0,1,.725.889Zm74.991,1.645a1.5,1.5,0,0,1,2,.684l0,.007,0,.006a1.5,1.5,0,0,1-.7,2,83.542,83.542,0,0,1-9.416,3.867,1.5,1.5,0,0,1-1.9-.936l0-.013a1.5,1.5,0,0,1,.94-1.891,80.137,80.137,0,0,0,9.076-3.728Zm-56.512,5.365a1.5,1.5,0,0,1,.137,1.131l0,.009a1.5,1.5,0,0,1-1.851,1.037q-4.888-1.368-9.631-3.192a1.5,1.5,0,0,1-.857-1.94l0-.006,0-.006a1.5,1.5,0,0,1,1.936-.846q4.6,1.772,9.361,3.1a1.485,1.485,0,0,1,.9.711Zm37.972.96a1.5,1.5,0,0,1,1.773,1.146l0,.007v.007a1.5,1.5,0,0,1-1.16,1.776,83.8,83.8,0,0,1-10.07,1.485,1.5,1.5,0,0,1-1.623-1.367v-.013a1.5,1.5,0,0,1,1.367-1.609,80.862,80.862,0,0,0,9.711-1.432Zm-19.524,1.677a1.5,1.5,0,0,1,1.446,1.539v.013a1.5,1.5,0,0,1-1.552,1.446,83.494,83.494,0,0,1-8.436-.732l-.044-.008-1.763-.35a1.5,1.5,0,0,1-1.179-1.764v-.007l0-.008a1.5,1.5,0,0,1,1.76-1.164l1.72.342A80.741,80.741,0,0,0,176.619,314.48Z"/>
    <rect id="Rectangle_351" data-name="Rectangle 351" class="cls-6" width="17.89" height="4.051" rx="2" transform="translate(225.011 105.257) rotate(-32)"/>
    <rect id="Rectangle_352" data-name="Rectangle 352" class="cls-6" width="17.89" height="4.051" rx="2" transform="translate(229.96 115.136) rotate(-12)"/>
    <rect id="Rectangle_353" data-name="Rectangle 353" class="cls-6" width="17.89" height="4.051" rx="2" transform="matrix(0.485, -0.875, 0.875, 0.485, 216.329, 99.07)"/>
    <path id="Path_528" data-name="Path 528" class="cls-7" d="M15,0H119a15,15,0,0,1,15,15V157a15,15,0,0,1-15,15H15A15,15,0,0,1,0,157V15A15,15,0,0,1,15,0Z" transform="translate(52 96)"/>
    <path id="Path_521" data-name="Path 521" class="cls-5" d="M181,104H77a15,15,0,0,0-15,15V261a15,15,0,0,0,15,15H181a15,15,0,0,0,15-15V119a15,15,0,0,0-15-15ZM68.514,110.514A11.563,11.563,0,0,1,77,107H181a12,12,0,0,1,12,12V261a12,12,0,0,1-12,12H77a12,12,0,0,1-12-12V119a11.562,11.562,0,0,1,3.514-8.485Z"/>
    <path id="Path_522" data-name="Path 522" class="cls-8" d="M161,144a24,24,0,1,1-24-24A24,24,0,0,1,161,144Zm-8.727,15.274a21.6,21.6,0,0,1-30.547-30.547,21.6,21.6,0,1,1,30.547,30.547Z"/>
    <rect id="Rectangle_355" data-name="Rectangle 355" class="cls-9" width="3" height="32" rx="1.5" transform="translate(147.752 131.627) rotate(45)"/>
    <rect id="Rectangle_356" data-name="Rectangle 356" class="cls-9" width="3" height="32" rx="1.5" transform="translate(149.873 154.252) rotate(135)"/>
    <rect id="Rectangle_357" data-name="Rectangle 357" class="cls-6" width="40" height="3" rx="1.5" transform="translate(99 242)"/>
    <rect id="Rectangle_358" data-name="Rectangle 358" class="cls-6" width="70" height="3" rx="1.5" transform="translate(99 254)"/>
    <path id="Path_523" data-name="Path 523" class="cls-6" d="M84,104h3V276H84ZM58,132H68v3H58Zm0,19H68v3H58Zm0,19H68v3H58Zm0,19H68v3H58Zm0,19H68v3H58Zm0,19H68v3H58Zm0,19H68v3H58Z"/>
    <path id="Path_524" data-name="Path 524" class="cls-10" d="M200.458,188.731a29.264,29.264,0,1,1,29.194-29.263,29.229,29.229,0,0,1-29.194,29.263Zm-9.774-8h29.007a40.236,40.236,0,0,1,40.237,40.236v33.826a6.411,6.411,0,0,1-6.412,6.411H156.859a6.411,6.411,0,0,1-6.412-6.412V220.967a40.236,40.236,0,0,1,40.237-40.236Z"/>
    <path id="Path_525" data-name="Path 525" class="cls-11" d="M212.55,183.119a25.56,25.56,0,1,0-25.5-25.559A25.53,25.53,0,0,0,212.55,183.119Zm.638,0a47.812,47.812,0,0,0-47.813,47.812v19.531a2.946,2.946,0,0,0,2.946,2.946h89.733A2.946,2.946,0,0,0,261,250.463V230.932a47.812,47.812,0,0,0-47.812-47.812Z"/>
    <path id="Path_526" data-name="Path 526" class="cls-5" d="M214.977,184.311a25.509,25.509,0,1,0-10.8,2.4H192.144A35.142,35.142,0,0,0,157,221.854V251.4a5.6,5.6,0,0,0,5.6,5.6h84.427a5.6,5.6,0,0,0,5.6-5.6V221.854a35.142,35.142,0,0,0-35.144-35.143H204.175A25.364,25.364,0,0,0,214.977,184.311Zm-10.787,0a23.172,23.172,0,0,0,16.317-39.538,23.13,23.13,0,0,0-32.664,32.756,22.228,22.228,0,0,0,16.318,6.782h.029Zm0,4.8H192.144A32.742,32.742,0,0,0,159.4,221.854V251.4q0,3.2,3.2,3.2h84.427a3.2,3.2,0,0,0,3.2-3.2V221.854a32.744,32.744,0,0,0-32.744-32.743h-13.29Z"/>
    <path id="Path_527" data-name="Path 527" class="cls-5" d="M194.268,187.633l.415.648,8.741,13.636a1.2,1.2,0,0,0,2.03-.019l8.37-13.617.386-.629,2.045,1.257L207.5,203.155a3.6,3.6,0,0,1-6.1.057l-9.155-14.284,2.02-1.295Z"/>
  </g>
</svg>
