<svg xmlns="http://www.w3.org/2000/svg" width="286.915" height="269.912" viewBox="0 0 286.915 269.912">
  <defs>
    <style>
      .cls-1 {
        fill: #3f3f46;
      }

      .cls-1, .cls-5, .cls-7 {
        fill-rule: evenodd;
      }

      .cls-2 {
        fill: #17c964;
      }

      .cls-3 {
        fill: #f31260;
      }

      .cls-4 {
        fill: #f5a524;
      }

      .cls-5, .cls-6 {
        fill: #18181b;
      }

      .cls-7 {
        fill: #9353d3;
      }

      .cls-8 {
        fill: #27272a;
      }

      .cls-9 {
        fill: #006fee;
      }
    </style>
  </defs>
  <g id="No-Dues" transform="translate(-17 -40)">
    <path id="Path_561" data-name="Path 561" class="cls-1" d="M242.211,122.195c30.612,37.859,64.783,73.325,61.482,105.295-3.236,31.906-44.073,60.317-83.162,71.061-39.154,10.678-76.561,3.688-114.551-11.2-37.924-14.82-76.431-37.536-86.333-69.895-9.837-32.294,8.93-74.3,36.695-111.509C84.106,68.8,120.865,36.379,152.707,40.327c31.9,3.883,58.893,44.072,89.5,81.868Z"/>
    <circle id="Ellipse_201" data-name="Ellipse 201" class="cls-2" cx="3" cy="3" r="3" transform="translate(282 233.912)"/>
    <circle id="Ellipse_202" data-name="Ellipse 202" class="cls-3" cx="5" cy="5" r="5" transform="translate(105 43.912)"/>
    <circle id="Ellipse_203" data-name="Ellipse 203" class="cls-4" cx="5" cy="5" r="5" transform="translate(101 299.912)"/>
    <path id="Path_562" data-name="Path 562" class="cls-5" d="M232.916,124.243a1.5,1.5,0,0,0,1.238,1.722q2.595.423,5.127,1.083a1.5,1.5,0,1,0,.756-2.9q-2.671-.7-5.4-1.141a1.5,1.5,0,0,0-1.722,1.239Zm15.49,4.372a1.5,1.5,0,0,0,.719,2,56.911,56.911,0,0,1,9.024,5.308,1.5,1.5,0,1,0,1.753-2.434,59.84,59.84,0,0,0-9.5-5.589,1.5,1.5,0,0,0-2,.719Zm17.687,12.06a1.5,1.5,0,0,0-.052,2.121,55.968,55.968,0,0,1,6.482,8.216,1.5,1.5,0,0,0,2.519-1.63,59.075,59.075,0,0,0-6.829-8.656A1.5,1.5,0,0,0,266.093,140.675Zm12.1,17.658a1.5,1.5,0,0,0-.82,1.956,57.374,57.374,0,0,1,2.945,9.467,1.5,1.5,0,1,0,2.931-.64,60.35,60.35,0,0,0-3.1-9.963,1.5,1.5,0,0,0-1.956-.82Zm4.782,19.118a1.5,1.5,0,0,0-1.425,1.571,56.074,56.074,0,0,1-.322,9.341,1.5,1.5,0,1,0,2.979.352,59.019,59.019,0,0,0,.339-9.839,1.5,1.5,0,0,0-1.571-1.425ZM281.217,196.5a1.5,1.5,0,0,0-1.86,1.019,56.859,56.859,0,0,1-3.349,8.729,1.5,1.5,0,1,0,2.7,1.3,59.723,59.723,0,0,0,3.526-9.189,1.5,1.5,0,0,0-1.02-1.86Zm-7.855,17.446a1.5,1.5,0,0,0-2.09.363,56.491,56.491,0,0,1-5.994,7.173,1.5,1.5,0,1,0,2.134,2.108,59.517,59.517,0,0,0,6.313-7.554,1.5,1.5,0,0,0-.363-2.09ZM260.276,227.9a1.5,1.5,0,0,0-2.095-.338q-1.9,1.369-3.9,2.577a1.5,1.5,0,1,0,1.547,2.57q2.112-1.271,4.112-2.715a1.5,1.5,0,0,0,.339-2.094Z"/>
    <rect id="Rectangle_381" data-name="Rectangle 381" class="cls-6" width="17.89" height="4.051" rx="2" transform="matrix(0.766, -0.643, 0.643, 0.766, 239.127, 69.055)"/>
    <rect id="Rectangle_382" data-name="Rectangle 382" class="cls-6" width="17.89" height="4.051" rx="2" transform="translate(230.35 62.365) rotate(-60)"/>
    <rect id="Rectangle_383" data-name="Rectangle 383" class="cls-6" width="17.89" height="4.051" rx="2" transform="translate(244.17 78.361) rotate(-11)"/>
    <path id="Path_563" data-name="Path 563" class="cls-7" d="M216,82.635V269.283a2,2,0,0,1-3.371,1.457l-9.812-9.236a6,6,0,0,0-7.889-.293l-11.674,9.457a6,6,0,0,1-7.815-.224l-9.9-9.012a6,6,0,0,0-7.883-.168l-11.08,9.249a6,6,0,0,1-7.945-.225l-10.24-9.583a6,6,0,0,0-8.15-.046L109.9,270.117a6,6,0,0,1-8.205-.1L91.241,259.983a6,6,0,0,0-8.4.086L72.414,270.5A2,2,0,0,1,69,269.084V82.834a2,2,0,0,1,3.414-1.413l10.43,10.428a6,6,0,0,0,8.4.086L101.694,81.9a6,6,0,0,1,8.205-.1l10.338,9.457a6,6,0,0,0,8.15-.046l10.24-9.582a6,6,0,0,1,7.945-.225l11.08,9.249a6,6,0,0,0,7.883-.168l9.9-9.013a6,6,0,0,1,7.815-.224l11.674,9.457a6,6,0,0,0,7.889-.293l9.812-9.235A2,2,0,0,1,216,82.635Z"/>
    <path id="Path_564" data-name="Path 564" class="cls-5" d="M194.31,75.416a4.5,4.5,0,0,0-5.862.168l-1-1.1,1,1.105-9.9,9.012a7.5,7.5,0,0,1-9.854.21l-11.079-9.249a4.5,4.5,0,0,0-5.959.169l-10.24,9.582a7.5,7.5,0,0,1-10.187.058l-10.339-9.457a4.5,4.5,0,0,0-6.153.073L104.28,86.017a7.5,7.5,0,0,1-10.5-.107L83.354,75.481a.5.5,0,0,0-.854.354V262.084a.5.5,0,0,0,.854.353l10.428-10.429a7.5,7.5,0,0,1,10.5-.107l10.453,10.035a4.5,4.5,0,0,0,6.153.074l10.339-9.458a7.5,7.5,0,0,1,10.187.058l10.24,9.583a4.5,4.5,0,0,0,5.959.169l11.079-9.25a7.5,7.5,0,0,1,9.854.211l9.9,9.012a4.5,4.5,0,0,0,5.862.168l11.673-9.457a7.5,7.5,0,0,1,9.862.366l9.812,9.235a.5.5,0,0,0,.843-.364V75.635a.5.5,0,0,0-.843-.364l-9.812,9.236a7.5,7.5,0,0,1-9.862.366L194.31,75.416Zm-7.881-2.051a7.5,7.5,0,0,1,9.769-.28l11.674,9.457a4.5,4.5,0,0,0,5.917-.22l9.812-9.235a3.5,3.5,0,0,1,5.9,2.548V262.283a3.5,3.5,0,0,1-5.9,2.549l-9.812-9.236a4.5,4.5,0,0,0-5.917-.219L196.2,264.834a7.5,7.5,0,0,1-9.769-.28l-9.9-9.013a4.5,4.5,0,0,0-5.912-.126l-11.08,9.25a7.5,7.5,0,0,1-9.931-.282l-10.24-9.583a4.5,4.5,0,0,0-6.112-.034l-10.339,9.458a7.5,7.5,0,0,1-10.256-.124L102.2,254.065a4.5,4.5,0,0,0-6.3.065l-10.43,10.429L84.421,263.5l1.054,1.055a3.5,3.5,0,0,1-5.975-2.475V75.834a3.5,3.5,0,0,1,5.975-2.474L95.9,83.789a4.5,4.5,0,0,0,6.3.064l10.453-10.035a7.5,7.5,0,0,1,10.256-.123l10.339,9.458a4.5,4.5,0,0,0,6.112-.035l10.24-9.583a7.5,7.5,0,0,1,9.931-.281l11.08,9.25a4.5,4.5,0,0,0,5.912-.127l9.9-9.012Z"/>
    <path id="Path_565" data-name="Path 565" class="cls-6" d="M153.468,133.192v-3.44a11.676,11.676,0,0,1-5.12-1.48,14.16,14.16,0,0,1-3.6-3.04l2.92-2.64a11.4,11.4,0,0,0,2.68,2.44,8.307,8.307,0,0,0,3.4,1.16v-8.96q-4.32-.919-6.24-2.76a6.577,6.577,0,0,1-1.92-4.92,6.445,6.445,0,0,1,2.12-5.08,10.112,10.112,0,0,1,5.76-2.28v-3.48h3.4v3.48a11.263,11.263,0,0,1,4.44,1.28,10.541,10.541,0,0,1,3.32,2.84l-2.96,2.44a7.693,7.693,0,0,0-2.12-1.92,7.334,7.334,0,0,0-2.92-1.08v8.2a19.507,19.507,0,0,1,3.92,1.24,9.164,9.164,0,0,1,2.52,1.64,5.074,5.074,0,0,1,1.44,2.08,7.661,7.661,0,0,1,.44,2.72,7.4,7.4,0,0,1-2.12,5.4,9.617,9.617,0,0,1-5.96,2.64v3.52h-3.4Zm7.28-11.28a3.53,3.53,0,0,0-.88-2.48,6.409,6.409,0,0,0-3.24-1.6v8.32a5.258,5.258,0,0,0,3.04-1.44,3.874,3.874,0,0,0,1.08-2.8Zm-11-12.56a3.3,3.3,0,0,0,.96,2.56,8.079,8.079,0,0,0,3.04,1.4v-7.6a5.6,5.6,0,0,0-2.96,1.2A3.1,3.1,0,0,0,149.748,109.352Z"/>
    <rect id="Rectangle_384" data-name="Rectangle 384" class="cls-6" width="50" height="3" rx="1.5" transform="translate(130 140.912)"/>
    <rect id="Rectangle_385" data-name="Rectangle 385" class="cls-6" width="70" height="3" rx="1.5" transform="translate(120 149.912)"/>
    <rect id="Rectangle_386" data-name="Rectangle 386" class="cls-6" width="80" height="3" rx="1.5" transform="translate(115 158.912)"/>
    <rect id="Rectangle_387" data-name="Rectangle 387" class="cls-6" width="92" height="3" rx="1.5" transform="translate(95 189.912)"/>
    <rect id="Rectangle_388" data-name="Rectangle 388" class="cls-6" width="92" height="3" rx="1.5" transform="translate(95 201.912)"/>
    <rect id="Rectangle_389" data-name="Rectangle 389" class="cls-6" width="92" height="3" rx="1.5" transform="translate(95 213.912)"/>
    <rect id="Rectangle_390" data-name="Rectangle 390" class="cls-6" width="92" height="3" rx="1.5" transform="translate(95 225.912)"/>
    <circle id="Ellipse_204" data-name="Ellipse 204" class="cls-8" cx="38.5" cy="38.5" r="38.5" transform="translate(190 202.912)"/>
    <path id="Path_569" data-name="Path 569" class="cls-9" d="M28,0A28,28,0,1,1,0,28,28,28,0,0,1,28,0Z" transform="translate(204 216.912)"/>
    <path id="Path_566" data-name="Path 566" class="cls-5" d="M227,226.412a1.5,1.5,0,1,0-3,0v19a1.494,1.494,0,0,0,1.5,1.5h17a1.5,1.5,0,0,0,0-3H227Zm25.477-15.478a1.5,1.5,0,0,0-1.682,1.293l-1.565,11.981a1.5,1.5,0,0,0,2.974.389l1.566-11.981a1.5,1.5,0,0,0-1.293-1.682Z"/>
    <path id="Path_567" data-name="Path 567" class="cls-5" d="M236.646,223.7a1.5,1.5,0,0,0,1.348,1.638l12.026,1.17a1.5,1.5,0,0,0,.291-2.986l-12.027-1.17a1.5,1.5,0,0,0-1.638,1.348Z"/>
    <path id="Path_568" data-name="Path 568" class="cls-5" d="M250.742,222.4a29.5,29.5,0,1,0,5.758,17.512,1.5,1.5,0,0,0-3,0,26.495,26.495,0,1,1-5.171-15.73,1.5,1.5,0,0,0,2.413-1.782Z"/>
  </g>
</svg>
