<svg xmlns="http://www.w3.org/2000/svg" width="299.563" height="263.702" viewBox="0 0 299.563 263.702">
  <defs>
    <style>
      .cls-1 {
        fill: #3f3f46;
      }

      .cls-1, .cls-5 {
        fill-rule: evenodd;
      }

      .cls-2 {
        fill: #17c964;
      }

      .cls-3 {
        fill: #f5a524;
      }

      .cls-4 {
        fill: #f31260;
      }

      .cls-5, .cls-6 {
        fill: #18181b;
      }

      .cls-7 {
        fill: #9353d3;
      }

      .cls-8 {
        fill: #006fee;
      }
    </style>
  </defs>
  <g id="No-Data-Found" transform="translate(-13.001 -60.563)">
    <path id="Path_529" data-name="Path 529" class="cls-1" d="M74.705,242.07c-30.612-37.86-64.783-73.325-61.482-105.3,3.236-31.906,44.073-60.317,83.162-71.06,39.154-10.678,76.561-3.689,114.551,11.2,37.924,14.82,76.431,37.536,86.333,69.9,9.837,32.295-8.931,74.3-36.7,111.509-27.764,37.148-64.523,69.572-96.365,65.624-31.9-3.883-58.893-44.073-89.5-81.868Z"/>
    <path id="Path_539" data-name="Path 539" class="cls-2" d="M3,0A3,3,0,1,1,0,3,3,3,0,0,1,3,0Z" transform="translate(199 125)"/>
    <path id="Path_540" data-name="Path 540" class="cls-3" d="M5,0A5,5,0,1,1,0,5,5,5,0,0,1,5,0Z" transform="translate(19 159)"/>
    <circle id="Ellipse_193" data-name="Ellipse 193" class="cls-4" cx="5" cy="5" r="5" transform="translate(185 291)"/>
    <path id="Path_530" data-name="Path 530" class="cls-5" d="M187.32,70.336a59.062,59.062,0,0,1,10.231-.568A1.5,1.5,0,0,1,199,71.314v.02a1.5,1.5,0,0,1-1.546,1.433,56.05,56.05,0,0,0-9.712.54,1.5,1.5,0,0,1-1.7-1.254v-.02a1.5,1.5,0,0,1,1.272-1.7Zm18.623,1.8a.032.032,0,0,1,0,.01v.009a1.5,1.5,0,0,0,1.169,1.753,57.417,57.417,0,0,1,9.409,2.8,1.5,1.5,0,0,0,1.938-.829l0-.009,0-.009a1.5,1.5,0,0,0-.847-1.945,60.194,60.194,0,0,0-9.9-2.945,1.5,1.5,0,0,0-1.772,1.166ZM179.23,73.64a1.5,1.5,0,0,1-.968,1.873,56.733,56.733,0,0,0-8.971,3.8,1.5,1.5,0,0,1-1.4-2.652,59.742,59.742,0,0,1,9.445-4,1.5,1.5,0,0,1,1.891.961l0,.01,0,.008Zm45.49,5.325-.005.008a1.5,1.5,0,0,0,.505,2.053,56.087,56.087,0,0,1,7.883,5.8,1.5,1.5,0,0,0,2.1-.119l.007-.008.006-.007a1.5,1.5,0,0,0-.134-2.117,59.1,59.1,0,0,0-8.305-6.115,1.5,1.5,0,0,0-1.665.07,1.464,1.464,0,0,0-.4.43Zm15.326,12.78-.007.006-.008.006a1.5,1.5,0,0,0-.214,2.1,56.92,56.92,0,0,1,5.425,8.082,1.5,1.5,0,0,0,2.021.6l.009,0,.008,0a1.5,1.5,0,0,0,.586-2.039,59.776,59.776,0,0,0-5.711-8.508,1.5,1.5,0,0,0-2.109-.23Zm13.126,30.081-.012,0a1.5,1.5,0,0,1-1.687-1.272q-.355-2.466-.863-5.059-.6-2.366-1.4-4.673a1.5,1.5,0,0,1,.907-1.9l.009,0a1.484,1.484,0,0,1,1.155.064,1.468,1.468,0,0,1,.467.353,1.484,1.484,0,0,1,.3.5q.856,2.467,1.494,5l.008.039q.528,2.688.9,5.247a1.5,1.5,0,0,1-1.271,1.7Zm-.31,19.785a1.5,1.5,0,0,1-1.209-1.721,52.845,52.845,0,0,0,.642-9.8,1.5,1.5,0,0,1,1.452-1.531h.016a1.5,1.5,0,0,1,1.532,1.468,55.957,55.957,0,0,1-.682,10.354,1.5,1.5,0,0,1-1.739,1.232l-.012,0Zm-9.25,15.22a1.5,1.5,0,0,0,.01,2.094l.013.014.014.013a1.5,1.5,0,0,0,2.121-.037,30.979,30.979,0,0,0,5.855-8.591,1.5,1.5,0,0,0-.258-1.646,1.464,1.464,0,0,0-.489-.352l-.015-.007a1.5,1.5,0,0,0-1.96.745,28.035,28.035,0,0,1-5.291,7.767Z"/>
    <rect id="Rectangle_359" data-name="Rectangle 359" class="cls-6" width="18" height="4" rx="2" transform="translate(294.282 180.887) rotate(-20)"/>
    <rect id="Rectangle_360" data-name="Rectangle 360" class="cls-6" width="18" height="4" rx="2" transform="matrix(0.358, -0.934, 0.934, 0.358, 278.447, 167.539)"/>
    <rect id="Rectangle_361" data-name="Rectangle 361" class="cls-6" width="18" height="4" rx="2" transform="matrix(0.656, -0.755, 0.755, 0.656, 288.03, 172.625)"/>
    <path id="Path_537" data-name="Path 537" class="cls-7" d="M11,0H119a11,11,0,0,1,11,11V164a11,11,0,0,1-11,11H11A11,11,0,0,1,0,164V11A11,11,0,0,1,11,0Z" transform="translate(172 257) rotate(180)"/>
    <path id="Path_531" data-name="Path 531" class="cls-5" d="M64,267H169a12,12,0,0,0,12-12V104a12,12,0,0,0-12-12H64a12,12,0,0,0-12,12V243h3V104a9,9,0,0,1,9-9H169a9,9,0,0,1,9,9V255a9,9,0,0,1-9,9H64Z"/>
    <path id="Path_532" data-name="Path 532" class="cls-5" d="M26,254a13,13,0,0,0,13,13H168a13,13,0,0,0,13-13h-3a10,10,0,0,1-10,10H39a10,10,0,0,1-10-10Z"/>
    <path id="Path_533" data-name="Path 533" class="cls-5" d="M26.077,254H26V237H55v17h-.077a14.5,14.5,0,0,1-28.846,0ZM52,253.1V240H29v13.1l.06.593A11.5,11.5,0,0,0,40.5,264a11.5,11.5,0,0,0,11.439-10.307Z"/>
    <rect id="Rectangle_363" data-name="Rectangle 363" class="cls-6" width="100" height="3" rx="1.5" transform="translate(166 174) rotate(180)"/>
    <rect id="Rectangle_364" data-name="Rectangle 364" class="cls-6" width="100" height="3" rx="1.5" transform="translate(166 154) rotate(180)"/>
    <rect id="Rectangle_365" data-name="Rectangle 365" class="cls-6" width="80" height="3" rx="1.5" transform="translate(146 134) rotate(180)"/>
    <rect id="Rectangle_366" data-name="Rectangle 366" class="cls-6" width="60" height="3" rx="1.5" transform="translate(126 114) rotate(180)"/>
    <rect id="Rectangle_367" data-name="Rectangle 367" class="cls-6" width="100" height="3" rx="1.5" transform="translate(166 194) rotate(180)"/>
    <rect id="Rectangle_368" data-name="Rectangle 368" class="cls-6" width="100" height="3" rx="1.5" transform="translate(166 214) rotate(180)"/>
    <rect id="Rectangle_369" data-name="Rectangle 369" class="cls-6" width="100" height="3" rx="1.5" transform="translate(166 234) rotate(180)"/>
    <path id="Path_538" data-name="Path 538" class="cls-8" d="M8,0H130a8,8,0,0,1,8,8V90a8,8,0,0,1-8,8H8a8,8,0,0,1-8-8V8A8,8,0,0,1,8,0Z" transform="translate(148 178)"/>
    <path id="Path_534" data-name="Path 534" class="cls-5" d="M268,172H146a8,8,0,0,0-8,8v82a8,8,0,0,0,8,8H268a8,8,0,0,0,8-8V180a8,8,0,0,0-8-8Zm-125.537,4.464A4.818,4.818,0,0,1,146,175H268a5,5,0,0,1,5,5v82a5,5,0,0,1-5,5H146a5,5,0,0,1-5-5V180A4.818,4.818,0,0,1,142.464,176.464Z"/>
    <rect id="Rectangle_371" data-name="Rectangle 371" class="cls-6" width="100" height="3" rx="1.5" transform="translate(176 184)"/>
    <path id="Path_535" data-name="Path 535" class="cls-5" d="M232.169,247.238l-21.58-43.931a4,4,0,0,0-7.178,0L181.83,247.238A4,4,0,0,0,185.42,253h43.16a4,4,0,0,0,3.589-5.762ZM207,204.071a.93.93,0,0,1,.9.559l21.58,43.931a1,1,0,0,1-.9,1.439H185.42a1,1,0,0,1-.9-1.439L206.1,204.63A.93.93,0,0,1,207,204.071Z"/>
    <path id="Path_536" data-name="Path 536" class="cls-5" d="M204.249,216.99a2.76,2.76,0,1,1,5.5,0L208.083,237a1.087,1.087,0,0,1-2.166,0Z"/>
    <circle id="Ellipse_194" data-name="Ellipse 194" class="cls-6" cx="3" cy="3" r="3" transform="translate(204 240)"/>
  </g>
</svg>
