<svg xmlns="http://www.w3.org/2000/svg" width="286.915" height="263.701" viewBox="0 0 286.915 263.701">
  <defs>
    <style>
      .cls-1 {
        fill: #3f3f46;
      }

      .cls-1, .cls-5, .cls-7 {
        fill-rule: evenodd;
      }

      .cls-2 {
        fill: #f31260;
      }

      .cls-3 {
        fill: #f5a524;
      }

      .cls-4 {
        fill: #17c964;
      }

      .cls-5, .cls-6 {
        fill: #18181b;
      }

      .cls-7 {
        fill: #9353d3;
      }

      .cls-8 {
        fill: #27272a;
      }

      .cls-9 {
        fill: #006fee;
      }
    </style>
  </defs>
  <g id="No-Downloads-Available" transform="translate(-17 -43)">
    <path id="Path_553" data-name="Path 553" class="cls-1" d="M242.211,125.195c30.612,37.859,64.783,73.325,61.482,105.295-3.236,31.906-44.073,60.317-83.162,71.061-39.154,10.678-76.561,3.688-114.551-11.2-37.924-14.82-76.431-37.536-86.333-69.895-9.837-32.294,8.93-74.3,36.695-111.509C84.106,71.8,120.865,39.379,152.707,43.327c31.9,3.883,58.893,44.072,89.5,81.868Z"/>
    <circle id="Ellipse_198" data-name="Ellipse 198" class="cls-2" cx="3" cy="3" r="3" transform="translate(282.998 175.437)"/>
    <circle id="Ellipse_199" data-name="Ellipse 199" class="cls-3" cx="5" cy="5" r="5" transform="translate(119.998 64.437)"/>
    <circle id="Ellipse_200" data-name="Ellipse 200" class="cls-4" cx="5" cy="5" r="5" transform="translate(54.998 246.437)"/>
    <path id="Path_554" data-name="Path 554" class="cls-5" d="M196.6,103.441a74.234,74.234,0,0,1,10.132.8,1.5,1.5,0,0,1,1.264,1.7v.015a1.5,1.5,0,0,1-1.7,1.249,71.628,71.628,0,0,0-9.723-.767,1.5,1.5,0,0,1-1.485-1.5v-.015a1.5,1.5,0,0,1,1.515-1.484Zm-21.271,4.438,0,.008,0,.007a1.5,1.5,0,0,0,1.837,1.039,70.968,70.968,0,0,1,9.609-1.916,1.5,1.5,0,0,0,1.3-1.664v-.016a1.5,1.5,0,0,0-1.68-1.3,74.053,74.053,0,0,0-10.014,2,1.5,1.5,0,0,0-1.053,1.841Zm39.614-.417,0,.007,0,.007a1.5,1.5,0,0,0,1.025,1.845,71.668,71.668,0,0,1,9.188,3.368,1.5,1.5,0,0,0,1.974-.744l0-.007,0-.007a1.5,1.5,0,0,0-.758-1.981,74.609,74.609,0,0,0-9.572-3.509,1.5,1.5,0,0,0-1.86,1.021Zm-46.221,2.727a1.5,1.5,0,0,1-.8,1.954,71.907,71.907,0,0,0-8.4,4.245l-.332.2a1.5,1.5,0,0,1-2.057-.518,1.5,1.5,0,0,1,.518-2.057,74.941,74.941,0,0,1,9.1-4.628,1.5,1.5,0,0,1,1.968.793l0,.007,0,.007Zm64.591,5.028,0,.007a1.5,1.5,0,0,0,.482,2.06,70.951,70.951,0,0,1,7.928,5.739,1.5,1.5,0,0,0,2.1-.179l.005-.006.005-.006a1.49,1.49,0,0,0,.177-1.657,1.47,1.47,0,0,0-.367-.455,74.141,74.141,0,0,0-8.262-5.982,1.5,1.5,0,0,0-2.066.479Zm15.574,12.459-.012.011a1.5,1.5,0,0,0-.088,2.108,71.845,71.845,0,0,1,6.081,7.673,1.5,1.5,0,0,0,2.074.4l.006-.005.006,0a1.5,1.5,0,0,0,.618-1.548,1.514,1.514,0,0,0-.231-.538A74.867,74.867,0,0,0,251,127.776a1.5,1.5,0,0,0-2.119-.1Zm11.632,16.207-.007,0-.007,0a1.5,1.5,0,0,0-.652,2.007,71.763,71.763,0,0,1,3.793,9.027,1.5,1.5,0,0,0,1.9.937l.008,0a1.5,1.5,0,0,0,.934-1.9,74.8,74.8,0,0,0-3.952-9.4,1.5,1.5,0,0,0-1.45-.822A1.467,1.467,0,0,0,260.517,143.883Zm6.639,18.857-.01,0a1.5,1.5,0,0,0-1.189,1.749q.913,4.822,1.345,9.716a1.5,1.5,0,0,0,1.61,1.368h.013a1.5,1.5,0,0,0,1.366-1.623q-.411-4.8-1.385-10.012a1.5,1.5,0,0,0-1.75-1.2Zm-.984,30.915a1.5,1.5,0,0,0,1.085,1.8l.012,0,.012,0a1.5,1.5,0,0,0,1.808-1.108,55.562,55.562,0,0,0,1.418-10.18,1.5,1.5,0,0,0-1.423-1.573h-.017a1.5,1.5,0,0,0-1.557,1.424,52.541,52.541,0,0,1-1.338,9.629Zm-8.777,16.826a1.5,1.5,0,0,0,.059,2.1l.011.011a1.5,1.5,0,0,0,2.131-.071,38.08,38.08,0,0,0,5.949-8.5A1.5,1.5,0,0,0,264.9,202l-.014-.007-.013-.006a1.5,1.5,0,0,0-1.994.66,35.054,35.054,0,0,1-5.482,7.83Z"/>
    <rect id="Rectangle_376" data-name="Rectangle 376" class="cls-6" width="17.89" height="4.051" rx="2" transform="translate(57.22 132.971) rotate(-162)"/>
    <rect id="Rectangle_377" data-name="Rectangle 377" class="cls-6" width="17.89" height="4.051" rx="2" transform="translate(70.393 116.525) rotate(-113)"/>
    <rect id="Rectangle_378" data-name="Rectangle 378" class="cls-6" width="17.89" height="4.051" rx="2" transform="matrix(-0.682, -0.731, 0.731, -0.682, 61.634, 123.268)"/>
    <path id="Path_555" data-name="Path 555" class="cls-7" d="M76,222.437a34,34,0,0,1,0-68,49.278,49.278,0,0,1,48.5-42A48.5,48.5,0,0,1,172.8,156.576,76.868,76.868,0,0,1,191,154.437c28.718,0,52,15.222,52,34,0,17.4-19.986,32.6-45.765,34.743-3.776.944-8.226,1.79-13.217,2.513q-6.519.932-13.083,1.5c-9.076.8-19.225,1.245-29.935,1.245"/>
    <path id="Path_556" data-name="Path 556" class="cls-5" d="M88,230.937a35.5,35.5,0,0,1-25.1-60.6A34.1,34.1,0,0,1,86.72,159.957a49.582,49.582,0,0,1,16.673-29.54,50.073,50.073,0,0,1,66.94.707,48.2,48.2,0,0,1,15.786,30.607A78.383,78.383,0,0,1,203,159.937q21.985,0,37.59,10.2,15.909,10.4,15.91,25.3,0,13.8-13.808,24.287Q229.16,230,209.479,231.664q-5.723,1.424-13.248,2.514-6.561.937-13.166,1.508-14.22,1.251-30.067,1.251a1.5,1.5,0,0,1-1.5-1.5v-.069l.005-.069A1.5,1.5,0,0,1,153,233.937q15.716,0,29.8-1.24,6.935-.609,13-1.488a133.005,133.005,0,0,0,13.068-2.485l.119-.029.121-.01q18.891-1.569,31.766-11.35,12.622-9.588,12.623-21.9,0-13.272-14.552-22.786Q224.09,162.937,203,162.937a74.947,74.947,0,0,0-17.838,2.1l-1.7.414-.155-1.738A47,47,0,0,0,136.5,120.937a45.786,45.786,0,0,0-31.128,11.737,46.764,46.764,0,0,0-15.89,28.989l-.193,1.274H88a32.5,32.5,0,0,0-22.98,55.481A31.313,31.313,0,0,0,88,227.937a1.5,1.5,0,0,1,0,3Z"/>
    <path id="Path_557" data-name="Path 557" class="cls-5" d="M119.971,186.937a6,6,0,0,1,6,6v49.311l3.946-2.867a6,6,0,0,1,8.38,1.327v0a6,6,0,0,1-1.328,8.379l-12.945,9.406a5.939,5.939,0,0,1-.843.512,5.866,5.866,0,0,1-3.21.931h0a5.869,5.869,0,0,1-3.208-.93,5.965,5.965,0,0,1-.845-.513l-12.946-9.406a6,6,0,0,1-1.327-8.379v0a6,6,0,0,1,8.38-1.327l3.946,2.867V192.936a6,6,0,0,1,6-6h0Zm0,3h0a2.651,2.651,0,0,0-3,3v55.2l-8.709-6.328a3,3,0,0,0-4.189.664h0a3,3,0,0,0,.664,4.189l12.946,9.406a2.98,2.98,0,0,0,.468.279l.091.043.084.056a2.938,2.938,0,0,0,1.646.492h0a2.934,2.934,0,0,0,1.647-.493l.084-.055.092-.044a2.925,2.925,0,0,0,.466-.278l12.946-9.406a3,3,0,0,0,.664-4.189h0a3,3,0,0,0-4.189-.664l-8.709,6.328v-55.2a2.651,2.651,0,0,0-3-3Z"/>
    <path id="Path_560" data-name="Path 560" class="cls-8" d="M39.58,0A39.58,39.58,0,1,1,0,39.58,39.58,39.58,0,0,1,39.58,0Z" transform="translate(203.418 178.698)"/>
    <path id="Path_559" data-name="Path 559" class="cls-9" d="M31,0A31,31,0,1,1,0,31,31,31,0,0,1,31,0Z" transform="translate(216.998 189.278)"/>
    <path id="Path_558" data-name="Path 558" class="cls-5" d="M273,217.278a31,31,0,1,1-31-31A31,31,0,0,1,273,217.278Zm-11.2,19.8a28,28,0,1,1,8.2-19.8A26.981,26.981,0,0,1,261.8,237.077Z"/>
    <rect id="Rectangle_379" data-name="Rectangle 379" class="cls-6" width="3" height="32" rx="1.5" transform="translate(252.75 205.064) rotate(45)"/>
    <rect id="Rectangle_380" data-name="Rectangle 380" class="cls-6" width="3" height="32" rx="1.5" transform="translate(254.87 227.689) rotate(135)"/>
  </g>
</svg>
