<svg xmlns="http://www.w3.org/2000/svg" width="286.915" height="263.702" viewBox="0 0 286.915 263.702">
  <defs>
    <style>
      .cls-1 {
        fill: #3f3f46;
      }

      .cls-1, .cls-5, .cls-7 {
        fill-rule: evenodd;
      }

      .cls-2 {
        fill: #f5a524;
      }

      .cls-3 {
        fill: #17c964;
      }

      .cls-4 {
        fill: #f31260;
      }

      .cls-5, .cls-6 {
        fill: #18181b;
      }

      .cls-7 {
        fill: #9353d3;
      }

      .cls-8 {
        fill: none;
        stroke: #18181b;
        stroke-linecap: round;
        stroke-width: 3px;
        stroke-dasharray: 10 10;
      }

      .cls-9 {
        fill: #27272a;
      }

      .cls-10 {
        fill: #006fee;
      }
    </style>
  </defs>
  <g id="No-Discount" transform="translate(-13.004 -29.563)">
    <path id="Path_541" data-name="Path 541" class="cls-1" d="M238.215,111.758c30.612,37.86,64.783,73.325,61.482,105.3-3.236,31.906-44.073,60.317-83.162,71.06-39.154,10.679-76.561,3.689-114.551-11.2C64.06,262.1,25.553,239.382,15.651,207.023c-9.837-32.294,8.93-74.3,36.695-111.509C80.11,58.366,116.869,25.942,148.71,29.89c31.9,3.883,58.893,44.073,89.5,81.868Z"/>
    <circle id="Ellipse_195" data-name="Ellipse 195" class="cls-2" cx="3" cy="3" r="3" transform="translate(252 103)"/>
    <path id="Path_551" data-name="Path 551" class="cls-3" d="M5,0A5,5,0,1,1,0,5,5,5,0,0,1,5,0Z" transform="translate(63.001 159)"/>
    <circle id="Ellipse_197" data-name="Ellipse 197" class="cls-4" cx="5" cy="5" r="5" transform="translate(169 271)"/>
    <path id="Path_542" data-name="Path 542" class="cls-5" d="M82.216,113.874l-.385,0a56.747,56.747,0,0,0-9.32.854,1.5,1.5,0,0,1-1.735-1.208l0-.009a1.5,1.5,0,0,1,1.218-1.737,59.684,59.684,0,0,1,10.217-.9,1.5,1.5,0,1,1,.007,3Zm-29.99,6.886,0,.009.005.008a1.5,1.5,0,0,0,2.038.54,56.123,56.123,0,0,1,8.828-4.083,1.5,1.5,0,0,0,.908-1.9l0-.009,0-.009a1.5,1.5,0,0,0-1.921-.9,59.142,59.142,0,0,0-9.3,4.3,1.5,1.5,0,0,0-.742,1.492,1.452,1.452,0,0,0,.185.555ZM37.177,133.909l.008.006.007.006a1.5,1.5,0,0,0,2.1-.178,57.245,57.245,0,0,1,6.994-6.888,1.5,1.5,0,0,0,.209-2.1l-.006-.008-.006-.007a1.5,1.5,0,0,0-2.112-.2,60.373,60.373,0,0,0-7.36,7.249,1.5,1.5,0,0,0,.166,2.115ZM27.487,151.3l.009,0,.009,0a1.5,1.5,0,0,0,1.915-.88,56.021,56.021,0,0,1,4.218-8.78,1.5,1.5,0,0,0-.084-1.657,1.473,1.473,0,0,0-.433-.393l-.009-.005a1.5,1.5,0,0,0-2.055.526,59.02,59.02,0,0,0-4.444,9.249,1.5,1.5,0,0,0,.874,1.933Zm-3.236,19.651h.02a1.5,1.5,0,0,0,1.506-1.474,56.769,56.769,0,0,1,1-9.682,1.5,1.5,0,0,0-1.182-1.753l-.01,0a1.5,1.5,0,0,0-1.754,1.192,59.76,59.76,0,0,0-1.054,10.193,1.483,1.483,0,0,0,.42,1.068,1.5,1.5,0,0,0,1.053.458Zm3.785,19.607-.006,0,0,0a1.5,1.5,0,0,1-1.917-.909q-.864-2.427-1.609-4.894-.623-2.531-1.023-5.11a1.5,1.5,0,0,1,1.252-1.713h.01l.01,0a1.505,1.505,0,0,1,1.492.706,1.481,1.481,0,0,1,.2.55q.378,2.429.963,4.814.732,2.4,1.53,4.642a1.5,1.5,0,0,1-.9,1.913Zm3.833,6.316a1.506,1.506,0,0,0-1.131.077l-.007,0-.007,0a1.487,1.487,0,0,0-.821,1.45,1.467,1.467,0,0,0,.156.564,56.088,56.088,0,0,0,5.407,8.769,1.5,1.5,0,0,0,1.576.542,1.474,1.474,0,0,0,.526-.257l.01-.007a1.5,1.5,0,0,0,.276-2.095,53.123,53.123,0,0,1-5.116-8.3,1.485,1.485,0,0,0-.87-.75Zm11.57,15.578a1.484,1.484,0,0,0-.972.548l-.01.013-.011.014a1.5,1.5,0,0,0,.279,2.1,31.065,31.065,0,0,0,9.208,4.9,1.5,1.5,0,0,0,1.9-.973l.006-.019a1.5,1.5,0,0,0-.966-1.857,28.078,28.078,0,0,1-8.324-4.428,1.5,1.5,0,0,0-1.109-.3Z"/>
    <rect id="Rectangle_372" data-name="Rectangle 372" class="cls-6" width="18" height="4" rx="2" transform="matrix(0.656, -0.755, 0.755, 0.656, 245.793, 61.806)"/>
    <rect id="Rectangle_373" data-name="Rectangle 373" class="cls-6" width="18" height="4" rx="2" transform="matrix(0.358, -0.934, 0.934, 0.358, 236.207, 56.719)"/>
    <rect id="Rectangle_374" data-name="Rectangle 374" class="cls-6" width="18" height="4" rx="2" transform="translate(252.049 70.069) rotate(-20)"/>
    <path id="Path_543" data-name="Path 543" class="cls-7" d="M101,225a10,10,0,0,0,10,10H231a10,10,0,0,0,10-10v-4l-.718-.344A10.721,10.721,0,0,1,241,201V75a10,10,0,0,0-10-10H111a10,10,0,0,0-10,10V201.074a10.09,10.09,0,0,1,.423,19.082l-.423.156Z"/>
    <path id="Path_544" data-name="Path 544" class="cls-5" d="M224,242H98.344A7.342,7.342,0,0,1,91,234.657v-7.345l.425-.157A10.089,10.089,0,0,0,91,208.075h0V82a10,10,0,0,1,10-10H221a10,10,0,0,1,10,10V208h0a10.72,10.72,0,0,0-.719,19.654L231,228v7a7,7,0,0,1-7,7Zm4-12.145V235q0,4-4,4H98.344A4.343,4.343,0,0,1,94,234.657v-5.363a13.108,13.108,0,0,0,0-23.216V82a7,7,0,0,1,7-7H221a7,7,0,0,1,7,7V206.081q-6.516,3.49-6.806,11.4Q220.885,225.915,228,229.855Z"/>
    <path id="Path_545" data-name="Path 545" class="cls-8" d="M108,219H213"/>
    <path id="Path_546" data-name="Path 546" class="cls-5" d="M141.242,129.43a29.982,29.982,0,0,0-.242,3.959q0,6.5,2.447,10.005a7.928,7.928,0,0,0,6.9,3.5,8.2,8.2,0,0,0,7.134-3.384c.067-.1.133-.191.2-.289l-3.094-2.6A4.53,4.53,0,0,1,150.441,143a4.427,4.427,0,0,1-4.016-2.473A14.325,14.325,0,0,1,145,133.459c0-.295,0-.584.012-.865l-3.77-3.164Zm14.076-1.242a8.492,8.492,0,0,0-.759-1.735A4.533,4.533,0,0,0,150.441,124h-.112l-3.878-3.254a9.54,9.54,0,0,1,3.9-.747,8.164,8.164,0,0,1,7.075,3.472q2.2,3.088,2.446,8.532Zm4.533,16.857-10.208,18.4h5.684l8.4-15.147-3.878-3.255Zm8.82-5.653-3.879-3.255,8.611-15.522h5.683l-10.415,18.777Zm.421,13.408a15.07,15.07,0,0,0,2.369,7.594,7.989,7.989,0,0,0,6.914,3.471,10.006,10.006,0,0,0,3.295-.512l-4.087-3.429a4.53,4.53,0,0,1-3.15-2.379q-.136-.234-.255-.478Zm4.984-8.873-3.258-2.733q2.31-4.194,7.557-4.194a8.167,8.167,0,0,1,7.017,3.457q2.5,3.457,2.505,9.932a27.631,27.631,0,0,1-.382,4.814l-3.567-2.992q.053-.826.052-1.742a13.848,13.848,0,0,0-1.458-7.024,4.692,4.692,0,0,0-8.466.482Z"/>
    <path id="Path_547" data-name="Path 547" class="cls-5" d="M164,185.5A44.5,44.5,0,0,1,119.5,141,44.5,44.5,0,0,1,164,96.5,44.5,44.5,0,0,1,208.5,141,44.5,44.5,0,0,1,164,185.5Zm0-3A41.5,41.5,0,0,0,205.5,141,41.5,41.5,0,0,0,164,99.5,41.5,41.5,0,0,0,122.5,141,41.5,41.5,0,0,0,164,182.5Z"/>
    <rect id="Rectangle_375" data-name="Rectangle 375" class="cls-6" width="3" height="86" rx="1.5" transform="matrix(0.643, -0.766, 0.766, 0.643, 128.597, 114.511)"/>
    <path id="Path_552" data-name="Path 552" class="cls-9" d="M45.5,0A45.5,45.5,0,1,1,0,45.5,45.5,45.5,0,0,1,45.5,0Z" transform="translate(52.001 185)"/>
    <path id="Path_550" data-name="Path 550" class="cls-10" d="M38,0A38,38,0,1,1,0,38,38,38,0,0,1,38,0Z" transform="translate(51.001 197)"/>
    <path id="Path_548" data-name="Path 548" class="cls-5" d="M134,232a38,38,0,1,1-38-38A38,38,0,0,1,134,232Zm-13.251,24.749A33.723,33.723,0,0,1,96,267a35,35,0,0,1-24.75-59.749A33.73,33.73,0,0,1,96,197a35,35,0,0,1,24.747,59.749Z"/>
    <path id="Path_549" data-name="Path 549" class="cls-5" d="M107.453,237.787a7.457,7.457,0,0,1-2.588,5.835,13.187,13.187,0,0,1-7.471,2.832v5.3H94.147V246.6a25.223,25.223,0,0,1-9.937-1.856v-5.151a24.846,24.846,0,0,0,4.908,1.721,22.137,22.137,0,0,0,5.029.72V232.9l-2.05-.757a14.428,14.428,0,0,1-5.848-3.674,7.8,7.8,0,0,1-1.843-5.285,6.879,6.879,0,0,1,2.624-5.542,13,13,0,0,1,7.117-2.637v-4.1h3.247v4.029a26.869,26.869,0,0,1,9.4,2l-1.782,4.467a26.169,26.169,0,0,0-7.617-1.806v8.886l1.855.708q4.64,1.783,6.421,3.76a6.957,6.957,0,0,1,1.783,4.834Zm-5.762.366a3.037,3.037,0,0,0-.989-2.331,10.151,10.151,0,0,0-3.308-1.77v7.788Q101.692,241.18,101.691,238.153ZM90.143,223.139a3.265,3.265,0,0,0,.867,2.319,8.9,8.9,0,0,0,3.137,1.831V219.7a5.712,5.712,0,0,0-2.979,1.2,2.872,2.872,0,0,0-1.025,2.246Z" transform="translate(0 1)"/>
  </g>
</svg>
