<svg xmlns="http://www.w3.org/2000/svg" width="263.702" height="286.915" viewBox="0 0 263.702 286.915">
  <defs>
    <style>
      .cls-1 {
        fill: #3f3f46;
      }

      .cls-1, .cls-5, .cls-7 {
        fill-rule: evenodd;
      }

      .cls-2 {
        fill: #006fee;
      }

      .cls-3 {
        fill: #f5a524;
      }

      .cls-4 {
        fill: #17c964;
      }

      .cls-5, .cls-6 {
        fill: #18181b;
      }

      .cls-7 {
        fill: #9353d3;
      }

      .cls-8 {
        fill: #0d0938;
      }

      .cls-9 {
        fill: #27272a;
      }
    </style>
  </defs>
  <g id="No-Fine-Found" transform="translate(-28.469 -32)">
    <path id="Path_570" data-name="Path 570" class="cls-1" d="M110.664,93.7c37.86-30.612,73.325-64.783,105.3-61.482,31.906,3.236,60.317,44.073,71.06,83.162,10.678,39.154,3.689,76.561-11.2,114.551-14.821,37.924-37.537,76.431-69.9,86.333-32.294,9.837-74.3-8.931-111.508-36.7C57.272,251.809,24.848,215.05,28.8,183.208c3.883-31.9,44.073-58.893,81.868-89.5Z"/>
    <circle id="Ellipse_205" data-name="Ellipse 205" class="cls-2" cx="3" cy="3" r="3" transform="translate(37.856 238.034)"/>
    <circle id="Ellipse_206" data-name="Ellipse 206" class="cls-3" cx="5" cy="5" r="5" transform="translate(270.856 118.034)"/>
    <circle id="Ellipse_207" data-name="Ellipse 207" class="cls-4" cx="5" cy="5" r="5" transform="translate(184.856 291.034)"/>
    <path id="Path_571" data-name="Path 571" class="cls-5" d="M202.677,101.039a1.5,1.5,0,0,0,1.16,1.776q2.286.478,4.51,1.077a1.5,1.5,0,1,0,.779-2.9q-2.321-.622-4.673-1.115a1.5,1.5,0,0,0-1.776,1.16Zm13.622,3.818a1.5,1.5,0,0,0,.838,1.949,74.109,74.109,0,0,1,8.363,3.944,1.5,1.5,0,0,0,1.449-2.627,76.994,76.994,0,0,0-8.7-4.1,1.5,1.5,0,0,0-1.948.838Zm16.659,8.78a1.5,1.5,0,0,0,.309,2.1,62.268,62.268,0,0,1,6.969,6.019,1.5,1.5,0,1,0,2.126-2.117,65.267,65.267,0,0,0-7.3-6.31,1.5,1.5,0,0,0-2.1.309Zm13.567,13.03a1.5,1.5,0,0,0-.347,2.093,52.708,52.708,0,0,1,4.675,7.885,1.5,1.5,0,1,0,2.705-1.3,55.576,55.576,0,0,0-4.941-8.334,1.5,1.5,0,0,0-2.092-.347Zm8.578,16.716a1.5,1.5,0,0,0-1.054,1.841,50.585,50.585,0,0,1,1.579,8.882,1.5,1.5,0,0,0,2.989-.259,53.573,53.573,0,0,0-1.673-9.411,1.5,1.5,0,0,0-1.841-1.053Zm2.136,18.245a1.5,1.5,0,0,0-1.628,1.359,52.449,52.449,0,0,1-1.553,8.757,1.5,1.5,0,1,0,2.9.769,55.388,55.388,0,0,0,1.64-9.257A1.5,1.5,0,0,0,257.239,161.628Zm-4.171,17.756a1.5,1.5,0,0,0-1.98.763,61.647,61.647,0,0,1-4.215,7.875,1.5,1.5,0,0,0,2.537,1.6,64.546,64.546,0,0,0,4.42-8.259,1.5,1.5,0,0,0-.762-1.98Zm-9.36,15.679a1.5,1.5,0,0,0-2.113.189,72.912,72.912,0,0,1-6.168,6.51,1.5,1.5,0,0,0,2.049,2.192,76.008,76.008,0,0,0,6.421-6.779,1.5,1.5,0,0,0-.189-2.112ZM230.62,207.82a1.5,1.5,0,0,0-2.1-.314,83.087,83.087,0,0,1-7.509,4.947,1.5,1.5,0,1,0,1.514,2.59,85.949,85.949,0,0,0,7.78-5.125,1.5,1.5,0,0,0,.313-2.1ZM215,217.33a1.5,1.5,0,0,0-1.985-.747q-2.053.93-4.151,1.756a1.5,1.5,0,0,0,1.1,2.791q2.167-.853,4.29-1.814A1.5,1.5,0,0,0,215,217.33Z"/>
    <rect id="Rectangle_391" data-name="Rectangle 391" class="cls-6" width="17.89" height="4.051" rx="2" transform="matrix(-0.602, -0.799, 0.799, -0.602, 93.068, 78.934)"/>
    <rect id="Rectangle_392" data-name="Rectangle 392" class="cls-6" width="17.89" height="4.051" rx="2" transform="matrix(-0.292, -0.956, 0.956, -0.292, 102.476, 73.139)"/>
    <rect id="Rectangle_393" data-name="Rectangle 393" class="cls-6" width="17.89" height="4.051" rx="2" transform="translate(87.657 88.136) rotate(-156)"/>
    <path id="Path_572" data-name="Path 572" class="cls-7" d="M100.84,98.66l-5.022,49.777-.089.86L79.6,156.181a9,9,0,0,0-5.427,7.44l-3.888,41.567a8,8,0,0,0,3.726,7.53l43.9,27.43a8,8,0,0,0,10.26-1.517l20.861-23.845s-34.305-3.9-47.084-5.32l65.909,6.927c5.505.579,10.4-3.075,10.935-8.161l10.539-100.271c.535-5.086-3.495-9.677-9-10.256L111.775,90.5c-5.5-.579-10.4,3.075-10.935,8.16ZM98.781,209.118c.795.086,1.869.2,3.165.348l-2.585-.272C99.166,209.174,98.972,209.148,98.781,209.118Zm-.24-.026.24.026-.2-.034ZM59.106,235.24a5,5,0,0,1-1.59-6.89l5.538-8.863a5,5,0,0,1,6.89-1.591l44.1,27.556a5,5,0,0,1,1.591,6.89l-5.539,8.863a5,5,0,0,1-6.89,1.591Z"/>
    <path id="Path_573" data-name="Path 573" class="cls-5" d="M113.323,99.372v0l-5.021,49.77-2.985-.3,5.022-49.777v-.006c.633-6.019,6.369-10.149,12.584-9.5l68.554,7.206c6.216.653,10.968,5.886,10.335,11.9L191.273,208.946c-.632,6.019-6.368,10.15-12.584,9.5l-68.494-7.2c-6.215-.653-10.967-5.886-10.335-11.9l1.578-14.132,1.575-14.106s0,0,1.491.165l1.491.167-3.151,28.219c-.437,4.153,2.87,8.1,7.665,8.608l68.494,7.2c4.794.5,8.85-2.673,9.287-6.826l10.539-100.271c.436-4.153-2.871-8.1-7.665-8.608l-68.554-7.2c-4.794-.5-8.849,2.671-9.287,6.823Z"/>
    <path id="Path_574" data-name="Path 574" class="cls-5" d="M91.19,158.122a7.5,7.5,0,0,0-4.522,6.2L82.78,205.889a6.5,6.5,0,0,0,3.027,6.117l43.9,27.431a6.5,6.5,0,0,0,8.337-1.233l18.913-21.619q-9.9-.866-19.782-1.85c-5.9-.589-12.028-1.241-17.122-1.873a96.182,96.182,0,0,1-11.091-1.786c-3.658-1.051-6.1-2.5-7.62-4.341a9.413,9.413,0,0,1-2.063-5.967,58.847,58.847,0,0,1,.527-6.178c.334-2.847.789-6.3,1.247-9.626s.918-6.548,1.264-8.932c.173-1.192.318-2.176.419-2.862l.118-.795.042-.28,1.483.221-1.483-.222.088-.588,21.746-17.151a4.936,4.936,0,0,0-5-8.416L91.191,158.122Zm14.584,15,20.812-16.414a7.937,7.937,0,0,0-8.03-13.532L90.013,155.362a10.5,10.5,0,0,0-6.332,8.68l-3.888,41.567a9.5,9.5,0,0,0,4.424,8.941l43.9,27.431a9.5,9.5,0,0,0,12.184-1.8L163.112,214.1l-2.954-.251-.127,1.495.127-1.495-.491-.042-1.4-.121q-10.405-.909-20.8-1.939c-5.891-.588-11.991-1.238-17.05-1.865a95.363,95.363,0,0,1-10.633-1.693c-3.328-.955-5.136-2.16-6.137-3.37a6.437,6.437,0,0,1-1.376-4.142c-.022-.765.171-2.863.509-5.74.331-2.818.782-6.245,1.239-9.567q.843-6.129,1.751-12.248ZM76.6,221.636,71.056,230.5a2,2,0,0,0,.636,2.756l44.1,27.556a2,2,0,0,0,2.756-.636l5.538-8.864a2,2,0,0,0-.636-2.756L79.351,221a2,2,0,0,0-2.756.637Zm-8.083,7.274A5,5,0,0,0,70.1,235.8l44.1,27.556a5,5,0,0,0,6.89-1.59l5.539-8.864a5,5,0,0,0-1.591-6.89l-44.1-27.556a5,5,0,0,0-6.89,1.591Z"/>
    <path id="Path_575" data-name="Path 575" class="cls-8" d="M162.2,119.933a4.475,4.475,0,0,1-1.91,3.32,7.905,7.905,0,0,1-4.636,1.221l-.332,3.161-1.937-.2.323-3.074a15.135,15.135,0,0,1-5.813-1.73l.323-3.074a15.216,15.216,0,0,0,2.819,1.342,13.587,13.587,0,0,0,2.957.738l.573-5.449-1.177-.58a8.769,8.769,0,0,1-3.266-2.553,4.732,4.732,0,0,1-.761-3.276,4.136,4.136,0,0,1,1.907-3.143,7.837,7.837,0,0,1,4.419-1.126l.257-2.448,1.938.2-.253,2.4a16.134,16.134,0,0,1,5.483,1.784l-1.343,2.554a15.737,15.737,0,0,0-4.432-1.556l-.558,5.3,1.063.539a10.171,10.171,0,0,1,3.6,2.646,4.174,4.174,0,0,1,.76,3Zm-3.461-.143a1.787,1.787,0,0,0-.452-1.446,5.88,5.88,0,0,0-1.855-1.27l-.488,4.647q2.605-.125,2.795-1.931Zm-5.949-9.683a1.975,1.975,0,0,0,.364,1.437,5.427,5.427,0,0,0,1.765,1.29l.476-4.53a3.419,3.419,0,0,0-1.852.527,1.722,1.722,0,0,0-.753,1.276Z"/>
    <rect id="Rectangle_394" data-name="Rectangle 394" class="cls-6" width="66" height="3" rx="1.5" transform="translate(122.107 134.031) rotate(5)"/>
    <rect id="Rectangle_395" data-name="Rectangle 395" class="cls-6" width="47.071" height="3" rx="1.5" transform="translate(139.106 149.031) rotate(5)"/>
    <rect id="Rectangle_396" data-name="Rectangle 396" class="cls-6" width="47.071" height="3" rx="1.5" transform="translate(138.107 162.031) rotate(5)"/>
    <rect id="Rectangle_397" data-name="Rectangle 397" class="cls-6" width="62.112" height="3" rx="1.5" transform="translate(122.109 175.029) rotate(5)"/>
    <rect id="Rectangle_398" data-name="Rectangle 398" class="cls-8" width="62.112" height="3" rx="1.5" transform="translate(120.108 190.028) rotate(5)"/>
    <path id="Path_578" data-name="Path 578" class="cls-9" d="M39.58,0A39.58,39.58,0,1,1,0,39.58,39.58,39.58,0,0,1,39.58,0Z" transform="translate(145.277 188.295)"/>
    <path id="Path_577" data-name="Path 577" class="cls-2" d="M31,0A31,31,0,1,1,0,31,31,31,0,0,1,31,0Z" transform="translate(159.856 199.875)"/>
    <path id="Path_576" data-name="Path 576" class="cls-5" d="M184.856,255.875a28,28,0,1,0-28-28A28,28,0,0,0,184.856,255.875Zm0,3a31,31,0,1,0-31-31A31,31,0,0,0,184.856,258.875Z"/>
    <rect id="Rectangle_399" data-name="Rectangle 399" class="cls-6" width="3" height="32" rx="1.5" transform="translate(195.577 215.634) rotate(45)"/>
    <rect id="Rectangle_400" data-name="Rectangle 400" class="cls-6" width="3" height="32" rx="1.5" transform="translate(197.699 238.258) rotate(135)"/>
  </g>
</svg>
