<svg xmlns="http://www.w3.org/2000/svg" width="286.916" height="263.701" viewBox="0 0 286.916 263.701">
  <defs>
    <style>
      .cls-1 {
        fill: #3f3f46;
      }

      .cls-1, .cls-5, .cls-7, .cls-9 {
        fill-rule: evenodd;
      }

      .cls-2 {
        fill: #17c964;
      }

      .cls-3 {
        fill: #f31260;
      }

      .cls-4 {
        fill: #f5a524;
      }

      .cls-5, .cls-6 {
        fill: #18181b;
      }

      .cls-7 {
        fill: #9353d3;
      }

      .cls-8, .cls-9 {
        fill: #0d0938;
      }

      .cls-10 {
        fill: #27272a;
      }

      .cls-11 {
        fill: #006fee;
      }
    </style>
  </defs>
  <g id="No-Flights-Available" transform="translate(-10 -43)">
    <path id="Path_579" data-name="Path 579" class="cls-1" d="M235.212,125.195c30.611,37.859,64.782,73.325,61.482,105.295-3.236,31.906-44.073,60.317-83.163,71.061-39.154,10.678-76.561,3.688-114.55-11.2-37.925-14.82-76.432-37.536-86.334-69.895-9.837-32.294,8.931-74.3,36.695-111.509C77.106,71.8,113.866,39.379,145.707,43.327,177.613,47.21,204.6,87.4,235.212,125.2Z"/>
    <circle id="Ellipse_208" data-name="Ellipse 208" class="cls-2" cx="3" cy="3" r="3" transform="translate(49.992 273.423)"/>
    <path id="Path_587" data-name="Path 587" class="cls-3" d="M5,0A5,5,0,1,1,0,5,5,5,0,0,1,5,0Z" transform="translate(141.992 65.423)"/>
    <path id="Path_588" data-name="Path 588" class="cls-4" d="M5,0A5,5,0,1,1,0,5,5,5,0,0,1,5,0Z" transform="translate(254.992 254.423)"/>
    <path id="Path_580" data-name="Path 580" class="cls-5" d="M230.081,145.593q-1.56-1.219-3.2-2.329a1.5,1.5,0,1,1,1.683-2.484,61.014,61.014,0,0,1,6.993,5.519,1.5,1.5,0,1,1-2.024,2.213Q231.864,146.987,230.081,145.593Zm-8.026-6.987a1.5,1.5,0,0,1-2.009.682,57.09,57.09,0,0,0-7.316-2.994,1.5,1.5,0,0,1,.942-2.849,59.983,59.983,0,0,1,7.7,3.152,1.5,1.5,0,0,1,.683,2.009ZM239.932,153a1.5,1.5,0,0,1,2.108.239,60.164,60.164,0,0,1,5.311,7.871,1.5,1.5,0,0,1-2.612,1.476,56.951,56.951,0,0,0-5.046-7.478A1.5,1.5,0,0,1,239.932,153Zm-33.116-19.863a1.5,1.5,0,0,1-1.745,1.205q-1.947-.355-3.914-.576a1.5,1.5,0,1,1,.335-2.982q2.066.232,4.118.607a1.5,1.5,0,0,1,1.206,1.746Zm42.611,35.7a1.5,1.5,0,0,1,1.93.881,60.7,60.7,0,0,1,2.61,9.128,1.5,1.5,0,1,1-2.94.6,57.7,57.7,0,0,0-2.481-8.677,1.5,1.5,0,0,1,.881-1.929Zm4.132,18a1.5,1.5,0,0,1,1.565,1.433,60.817,60.817,0,0,1-.324,9.488,1.5,1.5,0,1,1-2.981-.337,57.743,57.743,0,0,0,.308-9.019,1.5,1.5,0,0,1,1.432-1.565Zm-1.609,18.4a1.5,1.5,0,0,1,1.045,1.846A60.131,60.131,0,0,1,249.746,216a1.5,1.5,0,1,1-2.729-1.246,57.114,57.114,0,0,0,3.087-8.476,1.5,1.5,0,0,1,1.846-1.046Zm-7.237,16.987a1.5,1.5,0,0,1,.421,2.08,61.484,61.484,0,0,1-6.067,7.724,1.5,1.5,0,0,1-2.2-2.037,58.081,58.081,0,0,0,5.771-7.346,1.5,1.5,0,0,1,2.079-.421Zm-12.862,14.548a1.5,1.5,0,0,1-.272,2.1,60.071,60.071,0,0,1-8.533,5.492,1.5,1.5,0,0,1-1.405-2.651,57.044,57.044,0,0,0,8.107-5.217,1.5,1.5,0,0,1,2.1.273Zm-17.184,9.68a1.5,1.5,0,0,1-.954,1.9,60.854,60.854,0,0,1-9.865,2.367,1.5,1.5,0,0,1-.454-2.966,57.718,57.718,0,0,0,9.378-2.25,1.5,1.5,0,0,1,1.9.954Zm-19.417,3.479a1.5,1.5,0,0,1-1.523,1.477,60.6,60.6,0,0,1-10.1-1,1.5,1.5,0,0,1,.545-2.95,57.573,57.573,0,0,0,9.6.951A1.5,1.5,0,0,1,195.25,249.923Zm-19.482-3.1a1.5,1.5,0,0,1-1.924.892q-2.385-.876-4.69-1.95a1.5,1.5,0,0,1,1.268-2.719q2.187,1.02,4.455,1.852a1.5,1.5,0,0,1,.891,1.925Z"/>
    <rect id="Rectangle_401" data-name="Rectangle 401" class="cls-6" width="17.89" height="4.05" rx="2" transform="matrix(0.105, -0.995, 0.995, 0.105, 229.888, 98.589)"/>
    <rect id="Rectangle_402" data-name="Rectangle 402" class="cls-6" width="17.89" height="4.05" rx="2" transform="matrix(0.438, -0.899, 0.899, 0.438, 240.705, 100.788)"/>
    <rect id="Rectangle_403" data-name="Rectangle 403" class="cls-6" width="17.89" height="4.051" rx="2" transform="translate(219.673 101.615) rotate(-113)"/>
    <path id="Path_581" data-name="Path 581" class="cls-7" d="M116.057,144.634,80.374,117.789s-1.3-3.782,9.1-7.363,65.352,20.86,65.352,20.86l-38.767,13.348ZM18.273,158.588c-.7-2.036-.253-4.346,1.657-5.34,4.259-2.217,13.228-3.664,25.762,11.254l7.983,7.827s4.464,3.751,14.865.17,150.6-57.145,150.6-57.145,42.61-8.326,57.663,10.817c9.5,12.08-36.6,31.508-71.9,44.2-5.219,9.616-32,58.854-42.926,76.9-12.136,20.043-27.947,20.2-27.947,20.2l19.6-80.189c-29.374,9.134-97.476,28.828-117.936,21.9l-17.423-50.6Z"/>
    <path id="Path_582" data-name="Path 582" class="cls-5" d="M48.31,171.4l-.092-.11c-6.031-7.178-10.93-10.087-14.5-11.1a10,10,0,0,0-7.577.573.573.573,0,0,0-.3.415,2.257,2.257,0,0,0,.094,1.288L42.85,211.6c4.543,1.124,11.523,1.159,20.284.243a294.347,294.347,0,0,0,32.351-5.657c23.136-5.173,47.414-12.351,62.073-16.91l5.065-1.575-19.769,80.877a28.024,28.024,0,0,0,4.153-1.558c4.947-2.3,11.474-6.952,17.224-16.449,10.879-17.968,37.6-67.107,42.851-76.774l.546-1.005,1.076-.387c17.628-6.337,37.8-14.306,52.347-22.148,7.319-3.947,12.943-7.722,16.139-11.081a9.786,9.786,0,0,0,2.609-4.019,2.416,2.416,0,0,0-.531-2.278c-6.507-8.276-16.846-11.387-27.436-12.049-10.544-.658-20.731,1.152-26.283,2.144h-.008l-1.057.188a45.091,45.091,0,0,0-4.584,1.366c-2.4.8-5.534,1.9-9.256,3.252-7.442,2.7-17.18,6.362-28.047,10.511-21.732,8.3-47.924,18.514-69.171,26.8l-.321.126c-19.812,7.729-35.376,13.8-38.765,14.968-5.647,1.944-9.907,1.97-12.906,1.362A13.5,13.5,0,0,1,58,180.386a9.273,9.273,0,0,1-.959-.559q-.151-.1-.3-.209l-.1-.08-.04-.032-.017-.014-.008-.007,0,0s0,0,1.926-2.3c0,0,4.464,3.751,14.865.17,3.331-1.147,18.95-7.241,38.973-15.052,42.489-16.577,104.81-40.891,111.628-42.092l1.053-.188c11.085-1.981,42.049-7.514,56.61,11,9.5,12.081-36.6,31.511-71.908,44.2-5.228,9.633-32,58.852-42.922,76.9-8.789,14.516-19.506,18.6-24.748,19.75a17.428,17.428,0,0,1-3.2.449l19.6-80.183q-1.6.5-3.34,1.032c-30.907,9.494-94.873,27.543-114.59,20.872L23.1,163.441c-.7-2.036-.253-4.345,1.657-5.34,4.259-2.217,13.227-3.664,25.762,11.254l7.983,7.827-1.93,2.3-.088-.074-8.17-8.01Zm73.1-25.269-32.69-24.592c.79-.783,2.59-2.06,6.551-3.424a11.47,11.47,0,0,1,4.43.006,66.544,66.544,0,0,1,8.41,1.8c6.477,1.751,14.217,4.431,21.7,7.25s14.629,5.741,19.921,7.968q.84.353,1.615.681l-29.939,10.309Zm34.168-11.765c-12.908-5.553-52.6-22.076-61.283-19.088-10.4,3.582-9.1,7.364-9.1,7.364l35.684,26.845,38.766-13.349S158.138,135.463,155.576,134.361Z"/>
    <rect id="Rectangle_404" data-name="Rectangle 404" class="cls-8" width="21" height="3" rx="1.5" transform="translate(164.995 197.746) rotate(-19)"/>
    <rect id="Rectangle_405" data-name="Rectangle 405" class="cls-8" width="12" height="3" rx="1.5" transform="translate(106.771 130.016) rotate(-19)"/>
    <rect id="Rectangle_406" data-name="Rectangle 406" class="cls-8" width="21" height="3" rx="1.5" transform="translate(159.774 213.295) rotate(-19)"/>
    <rect id="Rectangle_407" data-name="Rectangle 407" class="cls-8" width="16" height="3" rx="1.5" transform="translate(119.243 136.755) rotate(-19)"/>
    <path id="Path_583" data-name="Path 583" class="cls-9" d="M252.055,118.267l.937,1.171.938,1.171-.008.006-.034.028-.144.12a25.783,25.783,0,0,0-2.271,2.189,12.552,12.552,0,0,0-3.025,4.85,2.886,2.886,0,0,0,1.715,3.294c1.439.72,3.9.861,7.085-.96q4.377-2.51,8.5-5.423,1.237-.872,2.445-1.784c.283-.214.5-.381.645-.5l.163-.127.039-.032.01-.007h0l.937,1.171.937,1.172-.005,0-.013.01-.047.037-.178.14q-1.573,1.22-3.2,2.362-4.238,2.994-8.745,5.577c-3.813,2.179-7.354,2.32-9.915,1.04a5.881,5.881,0,0,1-3.285-6.706,15.4,15.4,0,0,1,3.725-6.15,29.312,29.312,0,0,1,2.545-2.452l.177-.147.05-.041.014-.012.005,0,0,0Z"/>
    <path id="Path_586" data-name="Path 586" class="cls-10" d="M39.58,0A39.58,39.58,0,1,1,0,39.58,39.58,39.58,0,0,1,39.58,0Z" transform="translate(28.412 187.683)"/>
    <path id="Path_585" data-name="Path 585" class="cls-11" d="M31,0A31,31,0,1,1,0,31,31,31,0,0,1,31,0Z" transform="translate(30.992 198.264)"/>
    <path id="Path_584" data-name="Path 584" class="cls-5" d="M67.992,255.264a28,28,0,1,0-28-28A28,28,0,0,0,67.992,255.264Zm0,3a31,31,0,1,0-31-31A31,31,0,0,0,67.992,258.264Z"/>
    <rect id="Rectangle_408" data-name="Rectangle 408" class="cls-6" width="3" height="32" rx="1.5" transform="translate(78.71 215.006) rotate(45)"/>
    <rect id="Rectangle_409" data-name="Rectangle 409" class="cls-6" width="3" height="32" rx="1.5" transform="translate(80.83 237.634) rotate(135)"/>
  </g>
</svg>
