<svg xmlns="http://www.w3.org/2000/svg" width="286.915" height="273.42" viewBox="0 0 286.915 273.42">
  <defs>
    <style>
      .cls-1 {
        fill: #3f3f46;
      }

      .cls-1, .cls-5, .cls-7 {
        fill-rule: evenodd;
      }

      .cls-2 {
        fill: #f31260;
      }

      .cls-3 {
        fill: #f5a524;
      }

      .cls-4 {
        fill: #17c964;
      }

      .cls-5, .cls-6 {
        fill: #18181b;
      }

      .cls-7 {
        fill: #9353d3;
      }

      .cls-8 {
        fill: #27272a;
      }

      .cls-9 {
        fill: #006fee;
      }
    </style>
  </defs>
  <g id="No-Groups-Found" transform="translate(-17 -38)">
    <path id="Path_589" data-name="Path 589" class="cls-1" d="M242.211,120.195c30.612,37.859,64.783,73.325,61.482,105.295-3.236,31.906-44.073,60.317-83.162,71.061-39.154,10.678-76.561,3.688-114.551-11.2-37.924-14.82-76.431-37.536-86.333-69.895-9.837-32.294,8.93-74.3,36.695-111.509C84.106,66.8,120.865,34.379,152.707,38.327c31.9,3.883,58.893,44.072,89.5,81.868Z"/>
    <path id="Path_598" data-name="Path 598" class="cls-2" d="M3,0A3,3,0,1,1,0,3,3,3,0,0,1,3,0Z" transform="translate(280.991 147.42)"/>
    <path id="Path_597" data-name="Path 597" class="cls-3" d="M5,0A5,5,0,1,1,0,5,5,5,0,0,1,5,0Z" transform="translate(159.991 301.42)"/>
    <circle id="Ellipse_211" data-name="Ellipse 211" class="cls-4" cx="5" cy="5" r="5" transform="translate(25.991 162.42)"/>
    <path id="Path_590" data-name="Path 590" class="cls-5" d="M58.353,220.233l.14-.226a1.48,1.48,0,0,1,.4-.428,1.5,1.5,0,0,1,1.666-.06,1.5,1.5,0,0,1,.5,2.043l-.006.01-.007.011-.139.226a1.5,1.5,0,0,1-1.488.7,1.5,1.5,0,0,1-.527-.18l-.025-.014-.024-.015a1.5,1.5,0,0,1-.489-2.064Zm-1.72,8.648-.022,0-.022,0a1.5,1.5,0,0,0-1.673,1.3,32.615,32.615,0,0,0,.493,10.353,1.5,1.5,0,0,0,1.763,1.18l.014,0,.013,0a1.5,1.5,0,0,0,1.153-1.758,29.648,29.648,0,0,1-.459-9.4,1.5,1.5,0,0,0-1.26-1.667Zm8.81,31.165-.01.007a1.5,1.5,0,0,1-2.1-.373q-.824-1.191-1.574-2.431l-.02-.035q-1.809-3.363-3.282-6.891a1.5,1.5,0,0,1,.811-1.96l.008,0,.009,0a1.5,1.5,0,0,1,1.943.818q1.4,3.351,3.119,6.556.692,1.143,1.453,2.242a1.5,1.5,0,0,1-.36,2.073ZM125.5,272.284a1.5,1.5,0,0,1,.475-2.049,44.258,44.258,0,0,0,7.548-6.034,1.5,1.5,0,0,1,2.121,0,1.5,1.5,0,0,1-.005,2.122,47.372,47.372,0,0,1-8.056,6.44,1.5,1.5,0,0,1-2.071-.463l-.006-.01-.006-.011Zm-53.36-7a1.5,1.5,0,0,0-2.1.062l-.008.009-.008.009a1.5,1.5,0,0,0,.08,2.12,47.317,47.317,0,0,0,8.294,6.162,1.5,1.5,0,0,0,2.058-.547l.006-.01a1.5,1.5,0,0,0-.548-2.031,44.378,44.378,0,0,1-7.77-5.774Zm34.794,12.032a1.488,1.488,0,0,0-.305,1.083v.012l0,.013a1.5,1.5,0,0,0,1.678,1.3,46.97,46.97,0,0,0,10.017-2.412,1.5,1.5,0,0,0,.9-1.92l0-.012,0-.012a1.5,1.5,0,0,0-1.911-.878,43.985,43.985,0,0,1-9.379,2.258,1.483,1.483,0,0,0-1,.57ZM88.726,275a1.5,1.5,0,0,0-1.883.958l0,.012a1.5,1.5,0,0,0,.97,1.886,46.95,46.95,0,0,0,10.127,2.056,1.5,1.5,0,0,0,1.63-1.371v-.012a1.5,1.5,0,0,0-1.36-1.6A43.92,43.92,0,0,1,88.726,275Z"/>
    <rect id="Rectangle_410" data-name="Rectangle 410" class="cls-6" width="17.89" height="4.051" rx="2" transform="translate(251.123 119.577) rotate(-33)"/>
    <rect id="Rectangle_411" data-name="Rectangle 411" class="cls-6" width="17.89" height="4.051" rx="2" transform="translate(232.309 109.925) rotate(-82)"/>
    <rect id="Rectangle_412" data-name="Rectangle 412" class="cls-6" width="17.89" height="4.051" rx="2" transform="translate(242.956 112.835) rotate(-62)"/>
    <path id="Path_591" data-name="Path 591" class="cls-7" d="M180.966,133.07a25,25,0,1,1-25-25.058A25.029,25.029,0,0,1,180.966,133.07ZM93.531,165.822a19.965,19.965,0,1,1,20.052-19.965A20.008,20.008,0,0,1,93.531,165.822Zm123,0a19.965,19.965,0,1,0-20.052-19.965A20.008,20.008,0,0,0,216.531,165.822ZM203.917,226.1v1.377a2.947,2.947,0,0,1-2.947,2.947H111.238a2.946,2.946,0,0,1-2.946-2.947v-3.068l-48.52-.986a4.48,4.48,0,0,1-4.48-4.48V190.417a23,23,0,0,1,23-23H83.57q5.023,5.012,10.071,5.011t10.161-5.011l13.9,3.922a35.05,35.05,0,0,1,25.733-11.208s6.375,6.29,12.668,6.29,12.556-6.29,12.556-6.29a35.147,35.147,0,0,1,24.71,10.108l13.11-2.822q5.113,5.012,10.161,5.011t10.071-5.011h5.279a23,23,0,0,1,23,23V218.94a4.48,4.48,0,0,1-4.48,4.48L203.917,226.1Z"/>
    <path id="Path_592" data-name="Path 592" class="cls-5" d="M80.7,140.857a20.052,20.052,0,1,0,20.052-19.965A20.008,20.008,0,0,0,80.7,140.857Zm7.566,12.417a17.715,17.715,0,0,0,24.971,0,17.565,17.565,0,0,0-12.485-29.982,17.548,17.548,0,0,0-12.486,29.982Zm26.7,65.146h-48.2a4.48,4.48,0,0,1-4.48-4.48V185.417a23,23,0,0,1,23-23H90.57q5.023,5.012,10.071,5.011t10.161-5.011h4.939a17.921,17.921,0,0,1,3.315.363c.677.146-.077,2.4-.658,2.279a13.071,13.071,0,0,0-2.659-.242h-3.981q-5.463,5.012-11.117,5.011T89.6,164.817h-4.31a20.6,20.6,0,0,0-20.6,20.6V213.94a1.839,1.839,0,0,0,2.08,2.08h48.2v2.4Zm127.315-77.563a20.052,20.052,0,1,1-20.052-19.965A20.008,20.008,0,0,1,242.282,140.857Zm-7.567,12.417a17.565,17.565,0,1,1,0-24.834,17.5,17.5,0,0,1,0,24.834Zm-26.7,65.146H256.21a4.48,4.48,0,0,0,4.48-4.48V185.417a23,23,0,0,0-23-23h-5.278q-5.023,5.012-10.072,5.011t-10.16-5.011h-4.94a18.339,18.339,0,0,0-2.742.252c-.855.148.034,2.354,1.021,2.24a15.483,15.483,0,0,1,1.723-.092h3.981q5.465,5.012,11.117,5.011t11.04-5.011h4.31a20.6,20.6,0,0,1,20.6,20.6V213.94a1.838,1.838,0,0,1-2.08,2.08h-48.2v2.4Zm-21.349-90.35a25,25,0,1,1-25-25.058A25.029,25.029,0,0,1,186.666,128.07Zm-9.447,15.6a22.029,22.029,0,0,1-31.107-31.2,22.029,22.029,0,0,1,31.107,31.2Z"/>
    <path id="Path_593" data-name="Path 593" class="cls-5" d="M149.135,155.131H131.562A17.571,17.571,0,0,0,113.991,172.7v47.119a5.6,5.6,0,0,0,5.6,5.6h84.427a5.6,5.6,0,0,0,5.6-5.6V172.759a17.628,17.628,0,0,0-17.627-17.628h-17.63s-6.262,6.29-12.556,6.29-12.668-6.29-12.668-6.29Zm-1.2,3H131.562A14.572,14.572,0,0,0,116.991,172.7v47.119a2.3,2.3,0,0,0,2.6,2.6h84.427a2.3,2.3,0,0,0,2.6-2.6V172.759a14.628,14.628,0,0,0-14.627-14.628H175.575q-6.711,6.289-13.772,6.29T147.934,158.131Z"/>
    <path id="Path_596" data-name="Path 596" class="cls-8" d="M39.58,0A39.58,39.58,0,1,1,0,39.58,39.58,39.58,0,0,1,39.58,0Z" transform="translate(124.411 194.68)"/>
    <path id="Path_595" data-name="Path 595" class="cls-9" d="M31,0A31,31,0,1,1,0,31,31,31,0,0,1,31,0Z" transform="translate(132.991 209.261)"/>
    <path id="Path_594" data-name="Path 594" class="cls-5" d="M194.991,233.261a31,31,0,1,1-31-31,31,31,0,0,1,31,31Zm-11.2,19.8a28,28,0,1,1,8.2-19.8,26.981,26.981,0,0,1-8.2,19.8Z"/>
    <rect id="Rectangle_413" data-name="Rectangle 413" class="cls-6" width="3" height="32" rx="1.5" transform="translate(174.71 221.004) rotate(45)"/>
    <rect id="Rectangle_414" data-name="Rectangle 414" class="cls-6" width="3" height="32" rx="1.5" transform="translate(176.832 243.633) rotate(135)"/>
  </g>
</svg>
