<svg xmlns="http://www.w3.org/2000/svg" width="286.915" height="263.701" viewBox="0 0 286.915 263.701">
  <defs>
    <style>
      .cls-1 {
        fill: #3f3f46;
      }

      .cls-1, .cls-10, .cls-5, .cls-8, .cls-9 {
        fill-rule: evenodd;
      }

      .cls-2, .cls-8 {
        fill: #9353d3;
      }

      .cls-10, .cls-3 {
        fill: #006fee;
      }

      .cls-4 {
        fill: #f31260;
      }

      .cls-5 {
        fill: #575757;
      }

      .cls-6, .cls-9 {
        fill: #18181b;
      }

      .cls-7 {
        fill: #27272a;
      }
    </style>
  </defs>
  <g id="No-Message" transform="translate(-17 -43)">
    <path id="Path_170" data-name="Path 170" class="cls-1" d="M242.211,125.195c30.612,37.859,64.783,73.325,61.482,105.295-3.236,31.906-44.073,60.317-83.162,71.061-39.154,10.678-76.561,3.688-114.551-11.2-37.924-14.82-76.431-37.536-86.333-69.895-9.837-32.294,8.93-74.3,36.695-111.509C84.106,71.8,120.865,39.379,152.707,43.327c31.9,3.883,58.893,44.072,89.5,81.868Z"/>
    <circle id="Ellipse_1" data-name="Ellipse 1" class="cls-2" cx="3" cy="3" r="3" transform="translate(276.996 183.437)"/>
    <circle id="Ellipse_2" data-name="Ellipse 2" class="cls-3" cx="5" cy="5" r="5" transform="translate(232.996 279.437)"/>
    <circle id="Ellipse_3" data-name="Ellipse 3" class="cls-4" cx="5" cy="5" r="5" transform="translate(132.996 68.437)"/>
    <path id="Path_171" data-name="Path 171" class="cls-5" d="M71.218,191.788A33.423,33.423,0,0,1,73.9,184.6a1.5,1.5,0,0,1,2.017-.656,1.5,1.5,0,0,1,.671,1.988l-.008.015-.007.015a30.425,30.425,0,0,0-2.444,6.547,1.5,1.5,0,0,1-1.8,1.1l-.017,0a1.5,1.5,0,0,1-1.1-1.815ZM73.26,202a1.5,1.5,0,0,0-1.543-1.425h-.029a1.5,1.5,0,0,0-1.424,1.572,46.539,46.539,0,0,0,1.7,10.142,1.5,1.5,0,0,0,1.847,1.045l.009,0,.01,0a1.5,1.5,0,0,0,1.025-1.84A43.651,43.651,0,0,1,73.26,202Zm4.97,18.659a1.5,1.5,0,0,0-1.972-.752l-.008,0-.006,0A1.5,1.5,0,0,0,75.5,221.9a92.9,92.9,0,0,0,4.7,8.956,1.5,1.5,0,0,0,2.055.526l.01-.005a1.5,1.5,0,0,0,.516-2.05A89.5,89.5,0,0,1,78.23,220.658Zm97.8,25.211a1.5,1.5,0,0,1,.163-2.1,62.389,62.389,0,0,0,6.61-6.658l.249-.294a1.5,1.5,0,0,1,2.294,1.934,65.419,65.419,0,0,1-7.188,7.286,1.5,1.5,0,0,1-2.116-.152l-.006-.007-.006-.007Zm-87.58-8.533a1.5,1.5,0,0,0-2.1-.166l-.007.006-.007.005a1.5,1.5,0,0,0-.154,2.116,65.439,65.439,0,0,0,7.269,7.194,1.5,1.5,0,0,0,2.114-.177l0-.007a1.5,1.5,0,0,0-.182-2.107,62.335,62.335,0,0,1-6.936-6.864Zm70.425,17.519a1.487,1.487,0,0,0,0,1.132l0,.008,0,.008a1.5,1.5,0,0,0,1.965.8,64.7,64.7,0,0,0,9.079-4.7,1.5,1.5,0,0,0,.481-2.066l0-.007-.005-.008a1.5,1.5,0,0,0-2.057-.466,61.7,61.7,0,0,1-8.658,4.482,1.5,1.5,0,0,0-.807.816Zm-56.7-5.128a1.5,1.5,0,0,0-.917.664l-.005.007,0,.008a1.5,1.5,0,0,0,.5,2.06,65.008,65.008,0,0,0,9.13,4.607,1.5,1.5,0,0,0,1.956-.819l0-.008,0-.009a1.5,1.5,0,0,0-.826-1.94,62.166,62.166,0,0,1-8.71-4.4,1.5,1.5,0,0,0-1.134-.175Zm38.542,8.96a1.5,1.5,0,0,0-1.371,1.6v.018a1.461,1.461,0,0,0,.162.562,1.484,1.484,0,0,0,.877.741,1.5,1.5,0,0,0,.581.066,65.506,65.506,0,0,0,10.17-1.662,1.5,1.5,0,0,0,1.1-1.814l0-.008,0-.009a1.5,1.5,0,0,0-1.81-1.082,62.8,62.8,0,0,1-9.706,1.585Zm-20.543-1.231a1.488,1.488,0,0,0-.668.924l0,.008a1.5,1.5,0,0,0,1.117,1.8,64.6,64.6,0,0,0,10.113,1.545,1.5,1.5,0,0,0,1.6-1.387v-.018a1.5,1.5,0,0,0-1.388-1.587,61.622,61.622,0,0,1-9.643-1.474,1.5,1.5,0,0,0-1.134.185Z"/>
    <rect id="Rectangle_86" data-name="Rectangle 86" class="cls-6" width="17.89" height="4.051" rx="2" transform="matrix(0.602, -0.799, 0.799, 0.602, 246.691, 138.439)"/>
    <rect id="Rectangle_87" data-name="Rectangle 87" class="cls-6" width="17.89" height="4.051" rx="2" transform="translate(257.946 156.25) rotate(-4)"/>
    <rect id="Rectangle_88" data-name="Rectangle 88" class="cls-6" width="17.89" height="4.051" rx="2" transform="matrix(0.914, -0.407, 0.407, 0.914, 254.43, 145.777)"/>
    <ellipse id="Ellipse_4" data-name="Ellipse 4" class="cls-7" cx="70" cy="50" rx="70" ry="50" transform="translate(241.997 213.437) rotate(180)"/>
    <path id="Path_172" data-name="Path 172" class="cls-8" d="M184.008,231.531c-35.987,0-65.16-22.657-65.16-50.606s29.173-50.6,65.16-50.6,65.16,22.657,65.16,50.6a42.217,42.217,0,0,1-9.033,25.721l10.488,22.916a2.6,2.6,0,0,1-3.611,3.364L224.455,220.6c-11.112,6.842-25.165,10.928-40.447,10.928Z"/>
    <path id="Path_173" data-name="Path 173" class="cls-9" d="M218.34,214.958C207.057,221.845,192.711,226,176.979,226c-35.331,0-64.611-22.872-64.611-50.221,0-29.081,29.28-51.953,64.611-51.953,36.907,0,66.187,22.872,66.187,51.953a41.219,41.219,0,0,1-9.005,25.236l10.492,23.058a2.6,2.6,0,0,1-3.617,3.355l-22.7-12.471Zm-84.485-73.01q-17.587,14.016-17.587,33.832,0,18.624,17.552,32.289Q151.844,222.1,176.979,222.1q22.173,0,39.329-10.471a3.9,3.9,0,0,1,3.91-.09l19.262,10.584-8.869-19.493a3.9,3.9,0,0,1,.459-3.993q8.194-10.654,8.195-22.858,0-19.893-17.759-33.813-18.17-14.239-44.527-14.24-25.279,0-43.124,14.221Z"/>
    <path id="Path_174" data-name="Path 174" class="cls-9" d="M167,176.437a13,13,0,1,0,13-13A13,13,0,0,0,167,176.437Zm6.565,6.435a9.1,9.1,0,1,0-2.665-6.435A8.772,8.772,0,0,0,173.562,182.872ZM203,176.437a8,8,0,1,0,8-8A8,8,0,0,0,203,176.437Zm3.9,0q0,4.1,4.1,4.1t4.1-4.1q0-4.1-4.1-4.1T206.9,176.437Zm-64.9,0a8,8,0,1,0,8-8A8,8,0,0,0,142,176.437Zm3.9,0q0,4.1,4.1,4.1t4.1-4.1q0-4.1-4.1-4.1T145.9,176.437Z"/>
    <ellipse id="Ellipse_5" data-name="Ellipse 5" class="cls-6" cx="54" cy="38.5" rx="54" ry="38.5" transform="translate(45.996 108.437)"/>
    <path id="Path_175" data-name="Path 175" class="cls-10" d="M101.5,180.437c22.92,0,41.5-13.208,41.5-29.5s-18.58-29.5-41.5-29.5S60,134.644,60,150.937a23.337,23.337,0,0,0,5.753,14.994l-6.07,12.139a2,2,0,0,0,2.684,2.684l13.373-6.687a52.8,52.8,0,0,0,25.76,6.37Z"/>
    <path id="Path_176" data-name="Path 176" class="cls-9" d="M80.75,169.06A54.387,54.387,0,0,0,107,175.437c22.42,0,41-13.208,41-29,0-16.793-18.58-30-41-30-23.42,0-42,13.207-42,30a22.514,22.514,0,0,0,5.714,14.572l-6.032,12.064a2,2,0,0,0,2.682,2.682Zm53.392-41.492Q145,135.44,145,146.437q0,10.3-10.827,17.974-11.328,8.026-27.173,8.026a50.2,50.2,0,0,1-24.79-6,3,3,0,0,0-2.8-.061l-10.7,5.352,4.69-9.378A3,3,0,0,0,73,159.072,19.261,19.261,0,0,1,68,146.437q0-11.038,10.96-18.855,11.419-8.145,28.04-8.145,15.933,0,27.146,8.131Z"/>
    <rect id="Rectangle_89" data-name="Rectangle 89" class="cls-6" width="3" height="32" rx="1.5" transform="translate(117.747 134.063) rotate(45)"/>
    <rect id="Rectangle_90" data-name="Rectangle 90" class="cls-6" width="3" height="32" rx="1.5" transform="translate(119.871 156.69) rotate(135)"/>
  </g>
</svg>
