<svg xmlns="http://www.w3.org/2000/svg" width="286.915" height="273.44" viewBox="0 0 286.915 273.44">
  <defs>
    <style>
      .cls-1 {
        fill: #3f3f46;
      }

      .cls-1, .cls-5, .cls-7 {
        fill-rule: evenodd;
      }

      .cls-2, .cls-7 {
        fill: #9353d3;
      }

      .cls-3 {
        fill: #f31260;
      }

      .cls-4 {
        fill: #17c964;
      }

      .cls-5, .cls-6 {
        fill: #18181b;
      }

      .cls-8 {
        fill: #27272a;
      }

      .cls-9 {
        fill: #006fee;
      }
    </style>
  </defs>
  <g id="No-Notification" transform="translate(-16 -36)">
    <path id="Path_187" data-name="Path 187" class="cls-1" d="M241.211,118.195c30.612,37.859,64.783,73.325,61.482,105.295-3.236,31.906-44.073,60.317-83.162,71.061-39.154,10.678-76.561,3.688-114.551-11.2-37.924-14.82-76.431-37.536-86.333-69.895-9.837-32.294,8.93-74.3,36.695-111.509C83.106,64.8,119.865,32.379,151.707,36.327c31.9,3.883,58.893,44.072,89.5,81.868Z"/>
    <circle id="Ellipse_12" data-name="Ellipse 12" class="cls-2" cx="3" cy="3" r="3" transform="translate(257.998 104.44)"/>
    <circle id="Ellipse_13" data-name="Ellipse 13" class="cls-3" cx="5" cy="5" r="5" transform="translate(110.998 299.44)"/>
    <circle id="Ellipse_14" data-name="Ellipse 14" class="cls-4" cx="5" cy="5" r="5" transform="translate(60.998 168.44)"/>
    <path id="Path_188" data-name="Path 188" class="cls-5" d="M89.533,150.794l-.165.014a56.471,56.471,0,0,0-9.442,1.584,1.5,1.5,0,0,1-1.82-1.063l0-.009,0-.009a1.5,1.5,0,0,1,1.081-1.825A59.542,59.542,0,0,1,89.3,147.8a1.5,1.5,0,0,1,1.613,1.377,1.5,1.5,0,0,1-1.377,1.613Zm-29.39,9.14.006.008.005.008a1.5,1.5,0,0,0,2.072.388,56.761,56.761,0,0,1,8.51-4.734,1.5,1.5,0,0,0,.762-1.965l0-.009,0-.008a1.5,1.5,0,0,0-1.983-.755,59.661,59.661,0,0,0-8.96,4.985,1.5,1.5,0,0,0-.4,2.082ZM46.171,174.107l.008.006a1.493,1.493,0,0,0,1.108.265,1.5,1.5,0,0,0,.979-.6,56,56,0,0,1,6.4-7.327,1.5,1.5,0,0,0,.047-2.114l-.007-.007a1.5,1.5,0,0,0-2.121-.041,59.058,59.058,0,0,0-6.738,7.719,1.5,1.5,0,0,0,.327,2.1Zm-8.385,18.1.01,0,.009,0a1.5,1.5,0,0,0,1.846-1.017,57.011,57.011,0,0,1,3.567-9.087,1.5,1.5,0,0,0-.671-2l-.008,0a1.5,1.5,0,0,0-2.01.68,59.974,59.974,0,0,0-3.755,9.563,1.5,1.5,0,0,0,1.012,1.865Zm-1.77,19.842h.02a1.5,1.5,0,0,0,1.39-1.584,56.152,56.152,0,0,1,.274-9.725,1.5,1.5,0,0,0-1.3-1.66h-.019a1.5,1.5,0,0,0-1.662,1.318,59.134,59.134,0,0,0-.288,10.244,1.5,1.5,0,0,0,1.585,1.41Zm2.81,8.045a1.5,1.5,0,0,0-1.793-1.121l-.01,0a1.5,1.5,0,0,0-1.117,1.8,59.845,59.845,0,0,0,3.184,9.743,1.5,1.5,0,0,0,1.967.794l.009,0,.009,0a1.5,1.5,0,0,0,.777-1.959,56.84,56.84,0,0,1-3.026-9.254Zm13.627,27.563-.005.005-.005,0a1.5,1.5,0,0,1-2.119-.092q-2.755-3.015-5.26-6.246l-.023-.033q-.591-.849-1.152-1.718a1.5,1.5,0,0,1,.447-2.074l.008-.005a1.5,1.5,0,0,1,2.066.452q.522.808,1.07,1.6,2.407,3.1,5.055,6a1.5,1.5,0,0,1-.083,2.11Zm7.19,4.688a1.5,1.5,0,0,0-2.1.191l-.006.007-.006.007a1.5,1.5,0,0,0,.206,2.112,49.881,49.881,0,0,0,8.516,5.722,1.5,1.5,0,0,0,2.024-.633l.007-.013.006-.013a1.5,1.5,0,0,0-.646-2,46.894,46.894,0,0,1-8-5.381ZM76.6,260.928a1.5,1.5,0,1,0-.563,2.947,30.611,30.611,0,0,0,10.082.25,1.5,1.5,0,0,0,1.277-1.694,1.5,1.5,0,0,0-1.567-1.29q-.064,0-.127.013A27.621,27.621,0,0,1,76.6,260.928Z"/>
    <rect id="Rectangle_95" data-name="Rectangle 95" class="cls-6" width="18" height="4" rx="2" transform="translate(271.973 232.198) rotate(-11)"/>
    <rect id="Rectangle_96" data-name="Rectangle 96" class="cls-6" width="18" height="4" rx="2" transform="translate(272.976 243.021) rotate(9)"/>
    <rect id="Rectangle_97" data-name="Rectangle 97" class="cls-6" width="18" height="4" rx="2" transform="matrix(0.766, -0.643, 0.643, 0.766, 266.135, 223.507)"/>
    <path id="Path_189" data-name="Path 189" class="cls-7" d="M127.74,94.214a55.458,55.458,0,0,0-40.566,61.18c5.04,36.442,11.13,81.067,11.557,87.011.568,7.891-3.834,17.226-5.89,21.105A11,11,0,0,0,103.5,281.882l139.094-37.27a11,11,0,0,0-.552-21.385c-3.793-2.109-11.115-6.931-14.7-14.326-2.881-5.938-19.992-47.818-33.86-81.961A55.468,55.468,0,0,0,127.74,94.214Z"/>
    <path id="Path_190" data-name="Path 190" class="cls-5" d="M140.871,104.537q-16.833,6.6-27.756,23.028-12.929,19.444-9.922,41.156,1.609,11.572,3.217,23.12,7.105,51.168,7.559,57.421.51,7.107-3.394,16.662-.389.953-.783,1.85l139.125-37.279q-.335-.232-.667-.468-7.926-5.657-11.366-12.744-3.025-6.235-22.5-54.3-5.64-13.92-8.8-21.7-8.244-20.307-29.161-30.684-17.673-8.766-35.55-6.065ZM252.824,229.448a36.3,36.3,0,0,0,3.86,2.072L104.067,272.414s.839-1.391,1.934-3.624c2.211-4.511,5.47-12.457,4.976-19.313-.542-7.537-4.521-35.332-10.754-80.345-3.6-25.969,10.95-52.444,33.724-64.62a59.748,59.748,0,0,1,6.153-2.855,59.732,59.732,0,0,1,6.756-.6c25.811-.842,51.645,14.813,61.507,39.1,17.137,42.212,27.564,68.28,31.221,75.816,3.169,6.531,9.25,11.055,13.24,13.475ZM133.545,103.012l12.908-3.459a23.242,23.242,0,0,0-6.2,2.695,23.239,23.239,0,0,0-6.713.764Z"/>
    <path id="Path_191" data-name="Path 191" class="cls-5" d="M249.15,230.432,110.055,267.7a11,11,0,0,0-7.778,13.471v0a11,11,0,0,0,13.471,7.777l139.1-37.27a11,11,0,0,0,7.778-13.471v0a11,11,0,0,0-13.471-7.778ZM105.974,274.327a7.709,7.709,0,0,1,4.857-3.726l139.1-37.271a8,8,0,0,1,9.8,5.656v0a8,8,0,0,1-5.656,9.8l-139.1,37.27a8,8,0,0,1-9.8-5.656v0a7.708,7.708,0,0,1,.8-6.07Zm66.576,2.512a1.5,1.5,0,0,1,1.837,1.061,13,13,0,0,0,25.114-6.73,1.5,1.5,0,0,1,2.9-.776,16,16,0,0,1-30.91,8.282,1.5,1.5,0,0,1,1.061-1.837Z"/>
    <circle id="Ellipse_15" data-name="Ellipse 15" class="cls-8" cx="46" cy="46" r="46" transform="translate(147.998 63.44)"/>
    <path id="Path_194" data-name="Path 194" class="cls-9" d="M35,0A35,35,0,1,1,0,35,35,35,0,0,1,35,0Z" transform="translate(164.998 68.44)"/>
    <path id="Path_192" data-name="Path 192" class="cls-5" d="M228,108.44a35,35,0,1,1-35-35A35,35,0,0,1,228,108.44Zm-12.373,22.627A32,32,0,0,1,161,108.44a32,32,0,0,1,54.627-22.628,32,32,0,0,1,0,45.255Z"/>
    <path id="Path_193" data-name="Path 193" class="cls-5" d="M201,109.463q0,6.077-1.974,9.026a7.5,7.5,0,0,1-12-.1Q185,115.347,185,109.463q0-6.171,1.973-9.1a7.506,7.506,0,0,1,12,.135Q201,103.564,201,109.463Zm-12.165,0q0,4.767.99,6.809a3.478,3.478,0,0,0,6.349-.032q1.007-2.073,1.007-6.777t-1.007-6.786a3.465,3.465,0,0,0-6.349-.04q-.99,2.058-.99,6.826Z"/>
  </g>
</svg>
