<svg xmlns="http://www.w3.org/2000/svg" width="286.915" height="263.701" viewBox="0 0 286.915 263.701">
  <defs>
    <style>
      .cls-1 {
        fill: #3f3f46;
      }

      .cls-1, .cls-5, .cls-6 {
        fill-rule: evenodd;
      }

      .cls-2, .cls-5 {
        fill: #18181b;
      }

      .cls-3 {
        fill: #f31260;
      }

      .cls-4, .cls-6 {
        fill: #9353d3;
      }

      .cls-7 {
        fill: #0d0938;
      }

      .cls-8 {
        fill: #006fee;
      }
    </style>
  </defs>
  <g id="No-Network-Connection" transform="translate(-17 -43)">
    <path id="Path_177" data-name="Path 177" class="cls-1" d="M242.211,125.195c30.612,37.859,64.783,73.325,61.482,105.295-3.236,31.906-44.073,60.317-83.162,71.061-39.154,10.678-76.561,3.688-114.551-11.2-37.924-14.82-76.431-37.536-86.333-69.895-9.837-32.294,8.93-74.3,36.695-111.509C84.106,71.8,120.865,39.379,152.707,43.327c31.9,3.883,58.893,44.072,89.5,81.868Z"/>
    <circle id="Ellipse_6" data-name="Ellipse 6" class="cls-2" cx="3" cy="3" r="3" transform="translate(54.998 256.437)"/>
    <circle id="Ellipse_7" data-name="Ellipse 7" class="cls-3" cx="5" cy="5" r="5" transform="translate(66.998 93.437)"/>
    <circle id="Ellipse_8" data-name="Ellipse 8" class="cls-4" cx="5" cy="5" r="5" transform="translate(272.998 164.437)"/>
    <path id="Path_178" data-name="Path 178" class="cls-5" d="M187.156,137.445a70.219,70.219,0,0,1,10.207-.483,1.5,1.5,0,0,1,1.462,1.537v.016a1.5,1.5,0,0,1-1.537,1.446,67.251,67.251,0,0,0-9.772.463,1.5,1.5,0,0,1-1.669-1.31,1.5,1.5,0,0,1,1.31-1.669Zm18.635,1.739v.016a1.5,1.5,0,0,0,1.225,1.717,66.773,66.773,0,0,1,9.484,2.364,1.5,1.5,0,0,0,1.888-.941l0-.007a1.5,1.5,0,0,0-.954-1.9,69.623,69.623,0,0,0-9.91-2.47,1.5,1.5,0,0,0-1.734,1.223Zm19.1,5.821,0,.007,0,.008a1.5,1.5,0,0,0,.675,2,67.27,67.27,0,0,1,8.39,5,1.5,1.5,0,0,0,2.079-.357l.005-.007.005-.006a1.5,1.5,0,0,0-.37-2.089,70.335,70.335,0,0,0-8.764-5.224,1.5,1.5,0,0,0-2.013.668Zm16.634,11.1-.006.006-.006.006a1.5,1.5,0,0,0,.077,2.109,66.691,66.691,0,0,1,6.608,7.193,1.5,1.5,0,0,0,2.094.255l.007-.005.006-.005a1.5,1.5,0,0,0,.512-1.586,1.5,1.5,0,0,0-.267-.521,69.721,69.721,0,0,0-6.905-7.516,1.5,1.5,0,0,0-2.12.064Zm12.711,15.349-.007,0-.007,0a1.5,1.5,0,0,0-.536,2.041,66.867,66.867,0,0,1,4.253,8.808,1.5,1.5,0,0,0,1.939.846l.007,0a1.5,1.5,0,0,0,.843-1.946,69.8,69.8,0,0,0-4.443-9.2,1.5,1.5,0,0,0-1.494-.738A1.5,1.5,0,0,0,254.234,171.454Zm7.745,18.384-.008,0-.008,0a1.5,1.5,0,0,0-1.1,1.8,67.473,67.473,0,0,1,1.547,9.655,1.5,1.5,0,0,0,1.607,1.366h.016a1.5,1.5,0,0,0,1.365-1.624,70.417,70.417,0,0,0-1.615-10.084,1.5,1.5,0,0,0-1.8-1.116Zm2.136,19.824a1.5,1.5,0,0,0-1.57,1.411q-.117,2-.355,4-.5,2.875-1.139,5.724a1.5,1.5,0,0,0,1.125,1.79l.01,0a1.5,1.5,0,0,0,1.792-1.135q.666-2.978,1.186-5.985.252-2.1.376-4.22a1.5,1.5,0,0,0-1.409-1.586h-.016Zm-9.387,29.629a1.5,1.5,0,0,0,.653,2l.008,0,.009,0a1.5,1.5,0,0,0,2.013-.669,72.259,72.259,0,0,0,3.875-9.431,1.5,1.5,0,0,0-.946-1.9l-.013,0a1.5,1.5,0,0,0-1.886.95,69.191,69.191,0,0,1-3.713,9.041Zm-11.9,14.986a1.5,1.5,0,0,0-.306,2.076l.009.013.01.013a1.5,1.5,0,0,0,2.1.286,39.864,39.864,0,0,0,7.318-7.295,1.5,1.5,0,0,0-.262-2.1l-.01-.008-.01-.008a1.5,1.5,0,0,0-2.085.277,36.876,36.876,0,0,1-6.766,6.751Zm-8.711,4.748-.011,0-.012.005a1.5,1.5,0,0,0,1.065,2.8l.377-.14a1.5,1.5,0,0,0,.886-1.927l-.007-.019-.008-.019a1.5,1.5,0,0,0-1.913-.848l-.377.14Z"/>
    <rect id="Rectangle_91" data-name="Rectangle 91" class="cls-2" width="17.89" height="4.051" rx="2" transform="translate(83.908 165.389) rotate(-131)"/>
    <rect id="Rectangle_92" data-name="Rectangle 92" class="cls-2" width="17.89" height="4.051" rx="2" transform="translate(76.974 185.333) rotate(180)"/>
    <rect id="Rectangle_93" data-name="Rectangle 93" class="cls-2" width="17.89" height="4.051" rx="2" transform="matrix(-0.94, -0.342, 0.342, -0.94, 78.37, 174.394)"/>
    <path id="Path_179" data-name="Path 179" class="cls-5" d="M185.5,93.983q-.235-.39-.479-.764Q178.9,83.809,167.5,83.81q-11.583,0-17.667,9.642-.238.376-.468.77a1.5,1.5,0,0,1-2.052.535,1.5,1.5,0,0,1-.536-2.052q6.968-11.9,20.723-11.895,13.545,0,20.561,11.622a1.5,1.5,0,1,1-2.568,1.551Z"/>
    <path id="Path_180" data-name="Path 180" class="cls-5" d="M195.3,83.38q-.428-.5-.87-.978a36.71,36.71,0,0,0-54.015.032q-.439.48-.869.98a1.5,1.5,0,0,1-1.606.446,1.476,1.476,0,0,1-.509-.288,1.5,1.5,0,0,1-.159-2.115,39.712,39.712,0,0,1,60.3-.036,1.5,1.5,0,0,1-.156,2.115,1.5,1.5,0,0,1-2.116-.156Z"/>
    <path id="Path_181" data-name="Path 181" class="cls-5" d="M206.9,73.951q-.561-.543-1.135-1.074a56.522,56.522,0,0,0-76.683.106q-.57.529-1.132,1.078a1.5,1.5,0,0,1-2.121-.028,1.5,1.5,0,0,1,.028-2.121,59.52,59.52,0,0,1,83.13-.115,1.5,1.5,0,0,1,.034,2.121,1.5,1.5,0,0,1-2.121.033Z"/>
    <path id="Path_182" data-name="Path 182" class="cls-6" d="M172.442,121.052a6,6,0,0,1,11.11,0L245.624,273.17a6,6,0,0,1-5.555,8.267H115.926a6,6,0,0,1-5.556-8.267l62.072-152.118Z"/>
    <path id="Path_183" data-name="Path 183" class="cls-5" d="M236.624,267.172,174.551,115.049a6,6,0,0,0-11.108,0L101.37,267.172a6,6,0,0,0,5.554,8.265H231.07a6,6,0,0,0,5.554-8.265ZM169,114.317a2.77,2.77,0,0,1,2.777,1.866L233.847,268.3a3,3,0,0,1-2.777,4.132H106.924a3,3,0,0,1-2.776-4.132l62.073-152.122A2.769,2.769,0,0,1,169,114.317Z"/>
    <rect id="Rectangle_94" data-name="Rectangle 94" class="cls-7" width="70" height="3" rx="1.5" transform="translate(133.997 258.437)"/>
    <path id="Path_184" data-name="Path 184" class="cls-5" d="M174,100.437a6,6,0,1,1-6-6,6,6,0,0,1,6,6Zm-3,0a3,3,0,1,1-3-3A2.652,2.652,0,0,1,171,100.437Z"/>
    <circle id="Ellipse_9" data-name="Ellipse 9" class="cls-2" cx="43.5" cy="43.5" r="43.5" transform="translate(78.997 152.437)"/>
    <circle id="Ellipse_10" data-name="Ellipse 10" class="cls-8" cx="36" cy="36" r="36" transform="translate(83.997 162.437)"/>
    <path id="Path_185" data-name="Path 185" class="cls-5" d="M159,194.437a36,36,0,1,1-36-36A36,36,0,0,1,159,194.437Zm-12.665,23.335a33,33,0,0,1-46.67,0A33,33,0,0,1,123,161.437a33,33,0,0,1,23.335,56.335Z"/>
    <path id="Path_186" data-name="Path 186" class="cls-5" d="M120.163,174.433a2.839,2.839,0,1,1,5.668,0l-1.778,32.006a1.058,1.058,0,0,1-2.111,0Z"/>
    <circle id="Ellipse_11" data-name="Ellipse 11" class="cls-2" cx="3" cy="3" r="3" transform="translate(119.997 211.437)"/>
  </g>
</svg>
