<svg xmlns="http://www.w3.org/2000/svg" width="295.84" height="263.701" viewBox="0 0 295.84 263.701">
  <defs>
    <style>
      .cls-1 {
        fill: #3f3f46;
      }

      .cls-1, .cls-6 {
        fill-rule: evenodd;
      }

      .cls-2 {
        fill: #006fee;
      }

      .cls-3 {
        fill: #9353d3;
      }

      .cls-4 {
        fill: #f31260;
      }

      .cls-5 {
        fill: none;
        stroke: #000;
        stroke-linecap: round;
        stroke-linejoin: round;
        stroke-width: 3px;
        stroke-dasharray: 10 10;
      }

      .cls-7 {
        fill: #18181b;
      }

      .cls-8 {
        fill: #27272a;
      }
    </style>
  </defs>
  <g id="No-Payment-History" transform="translate(-7 -38)">
    <path id="Path_195" data-name="Path 195" class="cls-1" d="M232.211,120.195c30.612,37.859,64.783,73.325,61.482,105.295-3.236,31.906-44.073,60.317-83.162,71.061-39.154,10.678-76.561,3.688-114.55-11.2-37.925-14.82-76.432-37.536-86.334-69.895-9.837-32.294,8.93-74.3,36.695-111.509C74.106,66.8,110.865,34.379,142.707,38.327c31.9,3.883,58.893,44.072,89.5,81.868Z"/>
    <circle id="Ellipse_16" data-name="Ellipse 16" class="cls-2" cx="3" cy="3" r="3" transform="translate(265.854 212.154)"/>
    <path id="Path_212" data-name="Path 212" class="cls-3" d="M5,0A5,5,0,1,1,0,5,5,5,0,0,1,5,0Z" transform="translate(47.854 89.154)"/>
    <circle id="Ellipse_18" data-name="Ellipse 18" class="cls-4" cx="5" cy="5" r="5" transform="translate(73.854 280.154)"/>
    <path id="Path_196" data-name="Path 196" class="cls-5" d="M260.172,204.8a68.637,68.637,0,0,1-72.257,80.23q-37.206-4.509-46.6-26.636"/>
    <rect id="Rectangle_98" data-name="Rectangle 98" width="18" height="4" rx="2" transform="translate(118.854 93.153) rotate(-114)"/>
    <rect id="Rectangle_99" data-name="Rectangle 99" width="18" height="4" rx="2" transform="matrix(-0.695, -0.719, 0.719, -0.695, 109.854, 100.154)"/>
    <rect id="Rectangle_100" data-name="Rectangle 100" width="18" height="4" rx="2" transform="translate(128.868 90.805) rotate(-85)"/>
    <path id="Path_197" data-name="Path 197" class="cls-2" d="M97.08,181.719,172.792,73.59l48.33,33.84L145.41,215.56Z"/>
    <path id="Path_198" data-name="Path 198" class="cls-6" d="M170,86.286l-69.978,99.938a5,5,0,0,0,1.228,6.962l40.14,28.107a5,5,0,0,0,6.962-1.228l69.977-99.938a5,5,0,0,0-1.227-6.962l-40.14-28.107A5,5,0,0,0,170,86.286Zm-67.03,104.443a1.767,1.767,0,0,1-.491-2.784l69.978-99.938a1.766,1.766,0,0,1,2.784-.49l40.14,28.106a1.767,1.767,0,0,1,.491,2.784L145.9,218.345a1.767,1.767,0,0,1-2.784.491Z"/>
    <path id="Path_199" data-name="Path 199" class="cls-7" d="M143.106,142.722l106.511-69.17,43.027,66.256L186.132,208.977Z"/>
    <path id="Path_200" data-name="Path 200" class="cls-2" d="M141.386,150.417,252.091,78.525l32.133,49.481L173.52,199.9Z"/>
    <path id="Path_201" data-name="Path 201" class="cls-6" d="M244.75,89.252,142.431,155.7a5,5,0,0,0-1.47,6.915l26.688,41.1a5,5,0,0,0,6.916,1.47l102.319-66.447a5,5,0,0,0,1.47-6.915l-26.689-41.1a5,5,0,0,0-6.915-1.47ZM143.477,160.981a1.766,1.766,0,0,1,.588-2.765L246.384,91.768a1.767,1.767,0,0,1,2.765.588l26.689,41.1a1.766,1.766,0,0,1-.588,2.765L172.931,202.665a1.767,1.767,0,0,1-2.766-.588l-26.688-41.1Z"/>
    <path id="Path_202" data-name="Path 202" class="cls-7" d="M163.1,141.727l124.667-24.233,15.074,77.549L178.173,219.276Z"/>
    <path id="Path_203" data-name="Path 203" class="cls-2" d="M159.733,148.439l129.575-25.187,11.258,57.916L170.991,206.355Z"/>
    <path id="Path_204" data-name="Path 204" class="cls-6" d="M278.486,130.45l-119.76,23.279a5,5,0,0,0-3.953,5.861l9.35,48.1a5,5,0,0,0,5.861,3.953l119.76-23.279a5,5,0,0,0,3.954-5.861l-9.351-48.1a5,5,0,0,0-5.861-3.953ZM158.023,157.518a1.927,1.927,0,0,1,1.276-.844L279.059,133.4a1.766,1.766,0,0,1,2.344,1.581l9.35,48.1a1.767,1.767,0,0,1-1.581,2.344L169.412,208.7a1.767,1.767,0,0,1-2.344-1.581l-9.35-48.1a1.928,1.928,0,0,1,.3-1.5Z"/>
    <path id="Path_205" data-name="Path 205" class="cls-6" d="M249.1,170.908a6.859,6.859,0,0,1-1.313,5.724,12.129,12.129,0,0,1-6.249,3.869l.93,4.784-2.933.57-.9-4.652a23.187,23.187,0,0,1-9.3.069l-.9-4.653a22.77,22.77,0,0,0,4.734.693,20.384,20.384,0,0,0,4.669-.232l-1.6-8.246-1.985-.324a13.284,13.284,0,0,1-5.926-2.291,7.184,7.184,0,0,1-2.592-4.45,6.326,6.326,0,0,1,1.4-5.466,11.965,11.965,0,0,1,5.964-3.63l-.72-3.705,2.933-.57.707,3.638a24.759,24.759,0,0,1,8.84.158l-.825,4.348a24.066,24.066,0,0,0-7.2-.294l1.56,8.025,1.8.314a15.589,15.589,0,0,1,6.459,2.268,6.4,6.4,0,0,1,2.458,4.053Zm-5.141,1.342a2.793,2.793,0,0,0-1.3-1.932,9.341,9.341,0,0,0-3.3-1.018l1.367,7.034q3.765-1.35,3.234-4.084ZM230.9,160.718a3,3,0,0,0,1.189,1.942,8.194,8.194,0,0,0,3.155,1.1l-1.333-6.857a5.264,5.264,0,0,0-2.48,1.6A2.642,2.642,0,0,0,230.9,160.718Z"/>
    <rect id="Rectangle_101" data-name="Rectangle 101" width="18" height="3" rx="1.5" transform="translate(267.391 180.348) rotate(-11)"/>
    <rect id="Rectangle_102" data-name="Rectangle 102" width="18" height="3" rx="1.5" transform="translate(282.213 162.188) rotate(79)"/>
    <path id="Path_206" data-name="Path 206" class="cls-8" d="M52.4,123.647h156a9.6,9.6,0,0,1,9.6,9.6v98.565a9.6,9.6,0,0,1-9.6,9.6H62a9.6,9.6,0,0,1-9.6-9.6V123.647Z"/>
    <path id="Path_213" data-name="Path 213" class="cls-3" d="M9.6,0H156a9.6,9.6,0,0,1,9.6,9.6v98.565a9.6,9.6,0,0,1-9.6,9.6H9.6a9.6,9.6,0,0,1-9.6-9.6V9.6A9.6,9.6,0,0,1,9.6,0Z" transform="translate(31.997 141.672)"/>
    <path id="Path_207" data-name="Path 207" class="cls-6" d="M43,132.437v108.4a9.6,9.6,0,0,0,9.6,9.6H199.4a9.6,9.6,0,0,0,9.6-9.6v-98.8a9.6,9.6,0,0,0-9.6-9.6H43Zm3,3v105.4a6.6,6.6,0,0,0,6.6,6.6H199.4a6.6,6.6,0,0,0,6.6-6.6v-98.8a6.6,6.6,0,0,0-6.6-6.6H46Z"/>
    <path id="Path_208" data-name="Path 208" class="cls-6" d="M97.5,116.437h-45a9.5,9.5,0,0,0-9.5,9.5v9.5h64v-9.5a9.5,9.5,0,0,0-9.5-9.5Zm6.5,16v-6.5a6.5,6.5,0,0,0-6.5-6.5h-45a6.5,6.5,0,0,0-6.5,6.5v6.5h58Zm.623,48.585,11.695-3.037a1.5,1.5,0,0,1,1.829,1.075,1.5,1.5,0,0,1-1.075,1.829l-11.695,3.037a1.474,1.474,0,0,1-.584.033,1.492,1.492,0,0,1-1.245-1.108,1.5,1.5,0,0,1,1.075-1.829Z"/>
    <path id="Path_209" data-name="Path 209" class="cls-6" d="M102.792,182.122l-1.565-11.981a1.5,1.5,0,1,1,2.975-.389l1.565,11.981a1.474,1.474,0,0,1-.039.584,1.493,1.493,0,0,1-1.254,1.1,1.5,1.5,0,0,1-1.682-1.293Z"/>
    <path id="Path_210" data-name="Path 210" class="cls-6" d="M113.436,209.71a23.281,23.281,0,0,1-8.1-14.222l-2.958.5a26.994,26.994,0,1,0,1.115-13.44l2.833.987a24.009,24.009,0,0,1,22.67-16.1,24,24,0,1,1-15.561,42.273Z"/>
    <path id="Path_211" data-name="Path 211" class="cls-6" d="M128,177.937a1.5,1.5,0,1,0-3,0v19a1.5,1.5,0,0,0,1.5,1.5h17a1.5,1.5,0,1,0,0-3H128v-17.5Z"/>
    <ellipse id="Ellipse_19" data-name="Ellipse 19" cx="2.4" cy="2.403" rx="2.4" ry="2.403" transform="translate(58.397 123.648)"/>
    <ellipse id="Ellipse_20" data-name="Ellipse 20" cx="2.4" cy="2.403" rx="2.4" ry="2.403" transform="translate(70.397 123.648)"/>
    <ellipse id="Ellipse_21" data-name="Ellipse 21" cx="2.4" cy="2.403" rx="2.4" ry="2.403" transform="translate(82.397 123.648)"/>
  </g>
</svg>
