<svg xmlns="http://www.w3.org/2000/svg" width="286.915" height="263.702" viewBox="0 0 286.915 263.702">
  <defs>
    <style>
      .cls-1 {
        fill: #3f3f46;
      }

      .cls-1, .cls-5, .cls-7 {
        fill-rule: evenodd;
      }

      .cls-2 {
        fill: #17c964;
      }

      .cls-3 {
        fill: #f5a524;
      }

      .cls-4 {
        fill: #9353d3;
      }

      .cls-5, .cls-6 {
        fill: #27272a;
      }

      .cls-7 {
        fill: #006fee;
      }

      .cls-8 {
        fill: #52525b;
      }
    </style>
  </defs>
  <g id="No-Projects-Found" transform="translate(-13.003 -28.58)">
    <path id="Path_226" data-name="Path 226" class="cls-1" d="M238.215,110.775C268.826,148.635,303,184.1,299.7,216.07c-3.236,31.906-44.073,60.317-83.163,71.061-39.154,10.678-76.561,3.689-114.55-11.2C64.059,261.114,25.552,238.4,15.65,206.039c-9.837-32.294,8.931-74.3,36.695-111.508C80.11,57.382,116.87,24.959,148.71,28.907c31.906,3.883,58.893,44.073,89.5,81.868Z"/>
    <circle id="Ellipse_30" data-name="Ellipse 30" class="cls-2" cx="3" cy="3" r="3" transform="translate(158.002 50)"/>
    <circle id="Ellipse_31" data-name="Ellipse 31" class="cls-3" cx="5" cy="5" r="5" transform="translate(25.002 174)"/>
    <circle id="Ellipse_32" data-name="Ellipse 32" class="cls-4" cx="5" cy="5" r="5" transform="translate(208.002 269)"/>
    <path id="Path_227" data-name="Path 227" class="cls-5" d="M205.478,77.77v-.025a1.5,1.5,0,0,0-1.647-1.338,39.883,39.883,0,0,0-10.065,2.34,1.5,1.5,0,0,0-.871,1.935l.006.015.006.015a1.478,1.478,0,0,0,.775.806,1.493,1.493,0,0,0,1.147.034,36.893,36.893,0,0,1,9.311-2.16,1.5,1.5,0,0,0,1.34-1.622Zm7.015,0v.02a1.5,1.5,0,0,0,.794,1.447,1.467,1.467,0,0,0,.56.168,69.347,69.347,0,0,1,9.634,1.642,1.5,1.5,0,0,0,1.806-1.1V79.94l0-.007a1.5,1.5,0,0,0-1.109-1.808,72.307,72.307,0,0,0-10.052-1.712,1.5,1.5,0,0,0-1.634,1.352Zm31.459,9.361,0,.007a1.5,1.5,0,0,1-2.032.591q-1.763-.962-3.581-1.818-2.7-1.1-5.458-2.068a1.5,1.5,0,0,1-.922-1.9l0-.01a1.5,1.5,0,0,1,1.912-.918q2.763.969,5.63,2.133l.037.016a.306.306,0,0,1,.037.017q1.917.9,3.779,1.917a1.5,1.5,0,0,1,.6,2.035ZM186.8,84.106a1.5,1.5,0,0,1-.295,2.071l-.318.246-.01.008a1.5,1.5,0,0,1-2.094-.279,1.5,1.5,0,0,1,.27-2.1l.318-.246a1.5,1.5,0,0,1,2.1.27l.013.017.012.016Zm63.038,6.813-.005.007a1.5,1.5,0,0,0,.3,2.093,67.42,67.42,0,0,1,7.368,6.428,1.5,1.5,0,0,0,2.116.015l.006-.005a1.491,1.491,0,0,0,.444-1.06,1.508,1.508,0,0,0-.435-1.062,70.485,70.485,0,0,0-7.7-6.713,1.5,1.5,0,0,0-2.1.3Zm14.344,13.857-.007,0-.007,0a1.5,1.5,0,0,0-.3,2.088,66.692,66.692,0,0,1,5.216,8.274,1.5,1.5,0,0,0,2.015.627l.007,0,.007,0a1.5,1.5,0,0,0,.619-2.029,69.663,69.663,0,0,0-5.45-8.645,1.469,1.469,0,0,0-.433-.394,1.5,1.5,0,0,0-1.664.077Zm9.756,17.393-.008,0-.008,0a1.494,1.494,0,0,0-.893,1.911,66.872,66.872,0,0,1,2.6,9.417,1.5,1.5,0,0,0,1.748,1.181h.008l.008,0a1.458,1.458,0,0,0,.54-.224,1.487,1.487,0,0,0,.638-1.539,69.676,69.676,0,0,0-2.715-9.839,1.5,1.5,0,0,0-1.916-.909Zm4.037,32.5a1.5,1.5,0,0,1-1.337-1.632,67.106,67.106,0,0,0,.2-9.765,1.5,1.5,0,0,1,1.405-1.575h.016a1.5,1.5,0,0,1,1.576,1.421,70.4,70.4,0,0,1-.214,10.2,1.5,1.5,0,0,1-1.634,1.353h-.016Zm-5.985,18.475a1.5,1.5,0,0,0,.8.8l.008,0,.007,0a1.5,1.5,0,0,0,1.956-.822,69.645,69.645,0,0,0,3.157-9.714,1.5,1.5,0,0,0-1.1-1.815h-.008l-.008,0a1.5,1.5,0,0,0-1.8,1.1,66.427,66.427,0,0,1-3.021,9.3,1.49,1.49,0,0,0,.006,1.148Zm-4.347,7.608a67.568,67.568,0,0,1-5.33,7.741l-.242.3a1.5,1.5,0,0,0,2.336,1.882,70.387,70.387,0,0,0,5.819-8.4,1.5,1.5,0,1,0-2.583-1.525Z"/>
    <rect id="Rectangle_112" data-name="Rectangle 112" class="cls-6" width="17.89" height="4.051" rx="2" transform="translate(45.584 98.492) rotate(-169)"/>
    <rect id="Rectangle_113" data-name="Rectangle 113" class="cls-6" width="17.89" height="4.051" rx="2" transform="translate(56.641 80.539) rotate(-120)"/>
    <rect id="Rectangle_114" data-name="Rectangle 114" class="cls-6" width="17.89" height="4.051" rx="2" transform="matrix(-0.766, -0.643, 0.643, -0.766, 48.791, 88.306)"/>
    <path id="Path_228" data-name="Path 228" class="cls-7" d="M136,80a8,8,0,0,0-8,8v2H64a7,7,0,0,0-7,7v1a7,7,0,0,0,7,7h7v84a8,8,0,0,0,8,8H193a8,8,0,0,0,8-8V105h6a7,7,0,0,0,7-7V97a7,7,0,0,0-7-7H144V88A8,8,0,0,0,136,80Z"/>
    <path id="Path_229" data-name="Path 229" class="cls-5" d="M209.5,112v84a9.5,9.5,0,0,1-9.5,9.5H86a9.5,9.5,0,0,1-9.5-9.5V112h3v84a6.5,6.5,0,0,0,6.5,6.5H200a6.5,6.5,0,0,0,6.5-6.5V112ZM214,97H71a7,7,0,0,0-7,7v1a7,7,0,0,0,7,7H214a7,7,0,0,0,7-7v-1a7,7,0,0,0-7-7ZM67,104q0-4,4-4H214q4,0,4,4v1q0,4-4,4H71a4,4,0,0,1-4-4Z"/>
    <path id="Path_230" data-name="Path 230" class="cls-5" d="M144.5,87h-3a6.5,6.5,0,0,0-6.5,6.5V100h16V93.5a6.5,6.5,0,0,0-6.5-6.5ZM148,97V93.5q0-3.5-3.5-3.5h-3q-3.5,0-3.5,3.5V97h10ZM90.958,182.923l28.428-27.54a8.848,8.848,0,0,1,9.8-2.123l11.169,3.989,7.62,2.722a6.076,6.076,0,0,0,6.565-1.318l30.447-27.761a1.5,1.5,0,1,1,2.022,2.216L156.565,160.87a8.878,8.878,0,0,1-9.6,1.926l-10.11-3.611-8.679-3.1a6.054,6.054,0,0,0-6.708,1.453L97.028,181.22l-3.982,3.857a1.5,1.5,0,1,1-2.088-2.154Z"/>
    <rect id="Rectangle_115" data-name="Rectangle 115" class="cls-6" width="3" height="20" rx="1.5" transform="translate(110.002 122) rotate(90)"/>
    <rect id="Rectangle_116" data-name="Rectangle 116" class="cls-6" width="3" height="20" rx="1.5" transform="translate(110.002 131) rotate(90)"/>
    <path id="Path_231" data-name="Path 231" class="cls-5" d="M186.9,132.5l-11.919-1.982a1.5,1.5,0,0,1,.492-2.96l11.919,1.983a1.5,1.5,0,0,1,1.234,1.726A1.5,1.5,0,0,1,186.9,132.5Z"/>
    <path id="Path_232" data-name="Path 232" class="cls-5" d="M189.007,131.947l-1.589,11.978a1.5,1.5,0,0,1-2.974-.394l1.589-11.978a1.5,1.5,0,0,1,1.685-1.29,1.483,1.483,0,0,1,.554.189,1.5,1.5,0,0,1,.735,1.5Z"/>
    <rect id="Rectangle_117" data-name="Rectangle 117" class="cls-6" width="4" height="23" rx="2" transform="translate(143.002 203)"/>
    <rect id="Rectangle_118" data-name="Rectangle 118" class="cls-6" width="4" height="26.688" rx="2" transform="translate(145.743 206.42) rotate(-43)"/>
    <rect id="Rectangle_119" data-name="Rectangle 119" class="cls-6" width="4" height="26.688" rx="2" transform="matrix(-0.731, -0.682, 0.682, -0.731, 126.664, 225.929)"/>
    <circle id="Ellipse_33" data-name="Ellipse 33" class="cls-8" cx="39.58" cy="39.58" r="39.58" transform="translate(181.422 158.26)"/>
    <circle id="Ellipse_34" data-name="Ellipse 34" class="cls-4" cx="31" cy="31" r="31" transform="translate(194.001 167.841)"/>
    <path id="Path_233" data-name="Path 233" class="cls-5" d="M250,196.841a31,31,0,1,1-31-31A31,31,0,0,1,250,196.841Zm-11.2,19.8a28,28,0,0,1-39.6-39.6,28,28,0,0,1,39.6,39.6Z"/>
    <rect id="Rectangle_120" data-name="Rectangle 120" class="cls-6" width="3" height="32" rx="1.5" transform="translate(229.719 184.584) rotate(45)"/>
    <rect id="Rectangle_121" data-name="Rectangle 121" class="cls-6" width="3" height="32" rx="1.5" transform="translate(231.84 207.211) rotate(135)"/>
  </g>
</svg>
