<svg xmlns="http://www.w3.org/2000/svg" width="297.225" height="263.701" viewBox="0 0 297.225 263.701">
  <defs>
    <style>
      .cls-1 {
        fill: #3f3f46;
      }

      .cls-1, .cls-5, .cls-7, .cls-8, .cls-9 {
        fill-rule: evenodd;
      }

      .cls-2 {
        fill: #17c964;
      }

      .cls-3, .cls-7 {
        fill: #006fee;
      }

      .cls-4 {
        fill: #f5a524;
      }

      .cls-5, .cls-6 {
        fill: #18181b;
      }

      .cls-10, .cls-8 {
        fill: #0d0938;
      }

      .cls-9 {
        fill: #9353d3;
      }
    </style>
  </defs>
  <g id="No-Query-Ticket-Found" transform="translate(-12.308 -43)">
    <path id="Path_234" data-name="Path 234" class="cls-1" d="M240.117,125.195C270.729,163.054,304.9,198.52,301.6,230.49c-3.236,31.906-44.073,60.317-83.162,71.061-39.155,10.678-76.562,3.688-114.551-11.2-37.924-14.82-76.431-37.536-86.333-69.895-9.837-32.294,8.93-74.3,36.695-111.509C82.012,71.8,118.771,39.379,150.612,43.327,182.518,47.21,209.506,87.4,240.117,125.2Z"/>
    <circle id="Ellipse_35" data-name="Ellipse 35" class="cls-2" cx="3" cy="3" r="3" transform="translate(48.9 252.433)"/>
    <circle id="Ellipse_36" data-name="Ellipse 36" class="cls-3" cx="5" cy="5" r="5" transform="translate(212.9 280.434)"/>
    <circle id="Ellipse_37" data-name="Ellipse 37" class="cls-4" cx="5" cy="5" r="5" transform="translate(186.9 110.433)"/>
    <path id="Path_235" data-name="Path 235" class="cls-5" d="M82.206,211.279l.029.384a67.389,67.389,0,0,0,1.381,9.3,1.5,1.5,0,0,1-1.125,1.784l-.008,0-.008,0a1.5,1.5,0,0,1-1.788-1.141A70.381,70.381,0,0,1,79.214,211.5a1.5,1.5,0,0,1,1.388-1.6,1.5,1.5,0,0,1,1.09.362,1.485,1.485,0,0,1,.514,1.026Zm4.206,19.046a1.5,1.5,0,0,0-1.92-.875l-.008,0-.007,0a1.5,1.5,0,0,0-.87,1.935,69.573,69.573,0,0,0,4.316,9.257,1.5,1.5,0,0,0,2.041.578l.007,0,.007,0a1.5,1.5,0,0,0,.564-2.033,66.58,66.58,0,0,1-4.13-8.859Zm122.24,6.181a1.5,1.5,0,0,1-1.2-1.716l.065-.4,0-.012,0-.013a1.5,1.5,0,0,1,2.956.511l-.065.4a1.5,1.5,0,0,1-1.743,1.233l-.02,0Zm-9.466,15.273a1.5,1.5,0,0,0,.126,2.1l.01.008.009.009a1.5,1.5,0,0,0,2.117-.145,39.917,39.917,0,0,0,5.765-8.576,1.5,1.5,0,0,0-.683-2.009l-.014-.007a1.5,1.5,0,0,0-1.994.69,36.885,36.885,0,0,1-5.336,7.93ZM94.943,246.792a1.491,1.491,0,0,0-1.095.29l-.006.005a1.5,1.5,0,0,0-.279,2.108,70.185,70.185,0,0,0,6.8,7.606,1.5,1.5,0,0,0,2.121-.035l0-.006.006-.006a1.5,1.5,0,0,0-.046-2.109,67.25,67.25,0,0,1-6.511-7.281,1.5,1.5,0,0,0-1-.572Zm88.973,16.97a1.5,1.5,0,0,0-.573,2.033l.006.011a1.5,1.5,0,0,0,2.045.567,72.1,72.1,0,0,0,8.518-5.6,1.5,1.5,0,0,0,.273-2.1l-.005-.008-.006-.007a1.5,1.5,0,0,0-2.092-.258,69.364,69.364,0,0,1-8.166,5.369ZM108.882,260.7a1.486,1.486,0,0,0-.967.591l0,.006a1.5,1.5,0,0,0,.336,2.1,69.852,69.852,0,0,0,8.7,5.343,1.5,1.5,0,0,0,2.022-.642l0-.007,0-.007a1.5,1.5,0,0,0-.65-2.007A66.816,66.816,0,0,1,110,260.961a1.5,1.5,0,0,0-1.117-.263Zm68.224,8.192a1.5,1.5,0,0,0-1.972-.763q-2.674,1.17-5.4,2.211-1.911.613-3.859,1.112a1.5,1.5,0,0,0-1.085,1.809l0,.008a1.5,1.5,0,0,0,1.828,1.089q2.092-.537,4.147-1.2,2.813-1.073,5.573-2.279a1.5,1.5,0,0,0,.772-1.976Zm-50.949,1.1a1.493,1.493,0,0,0-.754.845l0,.007a1.5,1.5,0,0,0,.928,1.914,69.824,69.824,0,0,0,9.882,2.606,1.5,1.5,0,0,0,1.75-1.2l0-.008v-.008a1.5,1.5,0,0,0-1.2-1.734,66.713,66.713,0,0,1-9.458-2.494,1.49,1.49,0,0,0-1.146.071Zm20.322,3.515a1.5,1.5,0,0,0-1.557,1.424v.016a1.5,1.5,0,0,0,1.44,1.558,70.439,70.439,0,0,0,10.207-.339,1.5,1.5,0,0,0,1.333-1.649V274.5a1.5,1.5,0,0,0-1.648-1.317,67.573,67.573,0,0,1-9.772.324Z"/>
    <rect id="Rectangle_122" data-name="Rectangle 122" class="cls-6" width="17.89" height="4.051" rx="2" transform="matrix(0.669, -0.743, 0.743, 0.669, 185.258, 92.369)"/>
    <rect id="Rectangle_123" data-name="Rectangle 123" class="cls-6" width="17.89" height="4.051" rx="2" transform="translate(164.61 87.912) rotate(-97)"/>
    <rect id="Rectangle_124" data-name="Rectangle 124" class="cls-6" width="17.89" height="4.051" rx="2" transform="translate(175.634 87.967) rotate(-77)"/>
    <path id="Path_236" data-name="Path 236" class="cls-7" d="M192.385,152.521A3,3,0,0,1,196,148.662l78.621,21.066s-4.33,12.3,6.3,15.145,13.024-9.968,13.024-9.968l9.659,2.588a8,8,0,0,1,5.657,9.8l-18.635,69.546a8,8,0,0,1-9.8,5.657l-8.693-2.329s4.153-12.346-7.261-15.4-13.99,9.71-13.99,9.71l-77.04-20.643a3,3,0,0,1-1-5.314l9-6.624a2,2,0,0,0,.547-2.611l-5.891-10.2a6,6,0,0,1,2.39-8.3l10.166-5.377a1,1,0,0,0,.228-1.6l-8.826-8.539a6,6,0,0,1,.5-9.06l12.019-9.287a6,6,0,0,0,2.015-6.671l-2.61-7.713Z"/>
    <path id="Path_237" data-name="Path 237" class="cls-5" d="M267.718,160.949,192,140.66a3,3,0,0,0-3.617,3.858l2.61,7.716a6,6,0,0,1-2.014,6.669l-12.02,9.289a6,6,0,0,0-.5,9.058l8.827,8.541a1,1,0,0,1-.227,1.6l-10.168,5.379a6,6,0,0,0-2.39,8.3l5.892,10.205a2,2,0,0,1-.547,2.61l-9,6.625a3,3,0,0,0,1,5.313l74.14,19.866,2.9.777s.085-.423.294-1.1c.937-3.028,4.361-11.114,13.7-8.613s8.257,11.216,7.554,14.307q-.122.555-.294,1.1l2.9.778,5.792,1.552a8,8,0,0,0,9.8-5.656l18.636-69.549a8,8,0,0,0-5.656-9.8l-6.756-1.81-2.9-.779a15.226,15.226,0,0,1-.454,1.7c-1.091,3.383-4.4,10.461-12.569,8.271s-7.5-9.979-6.749-13.452a15.448,15.448,0,0,1,.453-1.69v0l-2.88-.772-.018-.005h-.007Zm-.724,2.911-75.768-20.3,2.609,7.714a8.26,8.26,0,0,1-3.021,10.005l-12.02,9.288a3,3,0,0,0-.252,4.529l8.828,8.541a4,4,0,0,1-.911,6.408l-10.168,5.379a3,3,0,0,0-1.195,4.151l5.892,10.205q2.238,3.876-1.367,6.527l-9,6.624,74.238,19.892a18.786,18.786,0,0,1,2.328-4.136q5.356-7.264,14.464-4.823t10.116,11.412a18.77,18.77,0,0,1-.053,4.743L277.6,251.6a5,5,0,0,0,6.123-3.535l18.635-69.548a5,5,0,0,0-3.535-6.123l-6.8-1.823a19.619,19.619,0,0,1-2.122,4.071q-5.053,7.466-13.758,5.133-8.672-2.323-9.343-11.266a19.437,19.437,0,0,1,.2-4.644Z"/>
    <path id="Path_238" data-name="Path 238" class="cls-8" d="M271.57,193.228l1.52-5.8a1.5,1.5,0,0,1,1.831-1.071,1.5,1.5,0,0,1,1.071,1.832l-1.52,5.8a1.5,1.5,0,0,1-1.831,1.071,1.5,1.5,0,0,1-1.071-1.831Zm-3.04,11.608,1.52-5.8a1.5,1.5,0,0,1,1.831-1.071,1.464,1.464,0,0,1,.526.256,1.5,1.5,0,0,1,.545,1.575l-1.52,5.8a1.5,1.5,0,1,1-2.9-.76Zm-3.041,11.609,1.52-5.8a1.5,1.5,0,1,1,2.9.761l-1.52,5.8a1.5,1.5,0,1,1-2.9-.76Zm-3.04,11.608,1.52-5.8a1.5,1.5,0,1,1,2.9.76l-1.52,5.8a1.5,1.5,0,1,1-2.9-.76Z"/>
    <path id="Path_239" data-name="Path 239" class="cls-9" d="M12.542,134.817a6,6,0,0,1,4.114-7.421l100.55-28.832a6,6,0,0,1,5.749,1.382l6.782,6.332a6,6,0,0,1,1.073,7.435l-7.423,12.578a6,6,0,0,0,2.745,8.539l5.775,2.548a6,6,0,0,1,2.873,8.312l-4.049,7.594a6,6,0,0,0,2.9,8.326l10.079,4.376a6,6,0,0,1,3.557,6.3l-1.2,8.927a6,6,0,0,1-4.293,4.971l-96.2,27.584a10,10,0,0,1-12.368-6.856l-20.673-72.1Z"/>
    <path id="Path_240" data-name="Path 240" class="cls-5" d="M128.3,88.257,30.5,116.3a10,10,0,0,0-6.856,12.368l19.571,68.252a10,10,0,0,0,12.368,6.855l97.458-27.946a4,4,0,0,0,2.861-3.313l1.57-11.722a4,4,0,0,0-2.37-4.2l-13.455-5.842a4,4,0,0,1-1.936-5.549l6.082-11.41a4,4,0,0,0-.586-4.589,3.98,3.98,0,0,0-1.328-.951l-9.807-4.326a4,4,0,0,1-1.83-5.691l9.384-15.9a4,4,0,0,0-.715-4.956l-8.784-8.2a4,4,0,0,0-3.832-.921ZM27.139,122.518a6.742,6.742,0,0,1,4.192-3.335l97.8-28.043a.94.94,0,0,1,.957.23l8.785,8.2a.9.9,0,0,1,.178,1.238l-9.384,15.9a7,7,0,0,0,3.2,9.961L142.672,131a1,1,0,0,1,.479,1.384l-6.082,11.409a7,7,0,0,0,3.388,9.713l13.454,5.842a.91.91,0,0,1,.592,1.049l-1.57,11.722a.926.926,0,0,1-.715.828L54.76,200.89a7,7,0,0,1-8.657-4.8L26.533,127.84a6.741,6.741,0,0,1,.606-5.322Z"/>
    <rect id="Rectangle_125" data-name="Rectangle 125" class="cls-10" width="69" height="3" rx="1.5" transform="matrix(0.961, -0.276, 0.276, 0.961, 49.682, 159.028)"/>
    <path id="Path_241" data-name="Path 241" class="cls-8" d="M68.435,130.475a12,12,0,1,1-14.843-8.227A12,12,0,0,1,68.435,130.475Zm-3.664,7.67a9,9,0,0,1-16.523-1.882A9,9,0,0,1,61.263,125.91a9,9,0,0,1,3.508,12.235Z"/>
    <rect id="Rectangle_126" data-name="Rectangle 126" class="cls-10" width="51" height="3" rx="1.5" transform="matrix(0.961, -0.276, 0.276, 0.961, 52.721, 169.604)"/>
  </g>
</svg>
