<svg xmlns="http://www.w3.org/2000/svg" width="286.915" height="263.701" viewBox="0 0 286.915 263.701">
  <defs>
    <style>
      .cls-1 {
        fill: #3f3f46;
      }

      .cls-1, .cls-5, .cls-7 {
        fill-rule: evenodd;
      }

      .cls-2 {
        fill: #006fee;
      }

      .cls-3 {
        fill: #f5a524;
      }

      .cls-4, .cls-7 {
        fill: #9353d3;
      }

      .cls-5, .cls-6 {
        fill: #18181b;
      }

      .cls-8 {
        fill: none;
        stroke: #18181b;
        stroke-width: 3px;
      }

      .cls-9 {
        fill: #52525b;
      }
    </style>
  </defs>
  <g id="No-Ranking" transform="translate(-17 -43)">
    <path id="Path_242" data-name="Path 242" class="cls-1" d="M242.212,125.195c30.611,37.859,64.782,73.325,61.482,105.295-3.236,31.906-44.073,60.317-83.163,71.061-39.154,10.678-76.561,3.688-114.55-11.2-37.925-14.82-76.432-37.536-86.334-69.895-9.837-32.294,8.931-74.3,36.695-111.509C84.106,71.8,120.866,39.379,152.707,43.327,184.613,47.21,211.6,87.4,242.212,125.2Z"/>
    <circle id="Ellipse_38" data-name="Ellipse 38" class="cls-2" cx="3" cy="3" r="3" transform="translate(277.992 197.429)"/>
    <circle id="Ellipse_39" data-name="Ellipse 39" class="cls-3" cx="5" cy="5" r="5" transform="translate(93.992 69.429)"/>
    <circle id="Ellipse_40" data-name="Ellipse 40" class="cls-4" cx="5" cy="5" r="5" transform="translate(37.992 235.429)"/>
    <path id="Path_243" data-name="Path 243" class="cls-5" d="M184.6,126.551q1.359-.606,2.749-1.14a1.5,1.5,0,1,0-1.077-2.8q-1.453.56-2.893,1.2a1.5,1.5,0,0,0,1.221,2.741Zm6.567-4.041A1.5,1.5,0,0,0,193,123.57a56.214,56.214,0,0,1,7.627-1.49,1.5,1.5,0,1,0-.37-2.977q-2.511.311-4.988.838-1.527.324-3.046.731a1.5,1.5,0,0,0-1.06,1.838Zm17.625-2.364a1.5,1.5,0,0,0,1.427,1.569,56.531,56.531,0,0,1,9.512,1.269,1.5,1.5,0,1,0,.647-2.929,59.538,59.538,0,0,0-10.017-1.336,1.5,1.5,0,0,0-1.569,1.427Zm19.278,3.739a1.5,1.5,0,0,0,.824,1.955,56.89,56.89,0,0,1,8.551,4.357,1.5,1.5,0,1,0,1.583-2.548,59.8,59.8,0,0,0-9-4.587,1.5,1.5,0,0,0-1.955.823Zm16.94,9.933a1.5,1.5,0,0,0,.126,2.117,56.148,56.148,0,0,1,6.6,6.961,1.5,1.5,0,1,0,2.345-1.87,58.977,58.977,0,0,0-6.955-7.334,1.5,1.5,0,0,0-2.118.126Zm12.641,15.026a1.5,1.5,0,0,0-.592,2.037,57.455,57.455,0,0,1,3.865,8.655,1.5,1.5,0,1,0,2.831-.993,60.411,60.411,0,0,0-4.067-9.107,1.5,1.5,0,0,0-2.037-.592Zm6.847,18.005a1.5,1.5,0,0,0-1.222,1.733,56.063,56.063,0,0,1,.818,9.31,1.5,1.5,0,0,0,3-.013,59.065,59.065,0,0,0-.862-9.808A1.5,1.5,0,0,0,264.495,166.849Zm.582,19.122a1.5,1.5,0,0,0-1.722,1.239,56.753,56.753,0,0,1-2.26,9.071,1.5,1.5,0,1,0,2.841.963,59.76,59.76,0,0,0,2.38-9.551,1.5,1.5,0,0,0-1.239-1.722Zm-5.67,18.274a1.5,1.5,0,0,0-2.03.615,56.584,56.584,0,0,1-5.076,7.85,1.5,1.5,0,0,0,2.376,1.832,59.515,59.515,0,0,0,5.345-8.267,1.5,1.5,0,0,0-.615-2.03Zm-11.288,15.448a1.5,1.5,0,0,0-2.12-.081q-1.716,1.591-3.56,3.034a1.5,1.5,0,1,0,1.849,2.362q1.941-1.519,3.751-3.2a1.5,1.5,0,0,0,.08-2.12Z"/>
    <rect id="Rectangle_127" data-name="Rectangle 127" class="cls-6" width="17.89" height="4.051" rx="2" transform="matrix(-0.766, -0.643, 0.643, -0.766, 65.622, 122.659)"/>
    <rect id="Rectangle_128" data-name="Rectangle 128" class="cls-6" width="17.89" height="4.051" rx="2" transform="translate(73.482 114.899) rotate(-120)"/>
    <rect id="Rectangle_129" data-name="Rectangle 129" class="cls-6" width="17.89" height="4.051" rx="2" transform="translate(62.431 132.841) rotate(-169)"/>
    <path id="Path_244" data-name="Path 244" class="cls-7" d="M115.992,118.429a6,6,0,0,1,6-6h38a6,6,0,0,1,6,6v63a6,6,0,0,1,6-6h38a6,6,0,0,1,6,6v47a10,10,0,0,1-10,10h-130a10,10,0,0,1-10-10v-75a6,6,0,0,1,6-6h38a6,6,0,0,1,6,6v-35Z"/>
    <path id="Path_245" data-name="Path 245" class="cls-8" d="M77.992,160.429a6,6,0,0,1,6-6h38a6,6,0,0,1,6,6v85h-50Zm50-35a6,6,0,0,1,6-6h38a6,6,0,0,1,6,6v120h-50v-120Z"/>
    <path id="Path_246" data-name="Path 246" class="cls-8" d="M177.992,188.429a6,6,0,0,1,6-6h38a6,6,0,0,1,6,6v57h-50Z"/>
    <path id="Path_247" data-name="Path 247" class="cls-5" d="M152.992,78.819l-2.537,5.14a2.5,2.5,0,0,1-1.882,1.367l-5.673.825,4.1,4a2.5,2.5,0,0,1,.719,2.213l-.969,5.65,5.073-2.668a2.5,2.5,0,0,1,2.327,0l5.074,2.668-.969-5.65a2.5,2.5,0,0,1,.719-2.213l4.1-4-5.672-.825a2.5,2.5,0,0,1-1.882-1.367l-2.537-5.14Zm-2.242-2.236a2.5,2.5,0,0,1,4.484,0l2.868,5.812,6.415.932a2.5,2.5,0,0,1,1.386,4.265l-4.642,4.524,1.1,6.389a2.5,2.5,0,0,1-3.628,2.635l-5.737-3.016-5.738,3.016a2.5,2.5,0,0,1-3.627-2.635l1.1-6.389-4.642-4.524a2.5,2.5,0,0,1,1.385-4.265l6.415-.932,2.869-5.812Z"/>
    <circle id="Ellipse_41" data-name="Ellipse 41" class="cls-9" cx="47.5" cy="47.5" r="47.5" transform="translate(186.992 191.429)"/>
    <circle id="Ellipse_42" data-name="Ellipse 42" class="cls-2" cx="41" cy="41" r="41" transform="translate(202.992 200.429)"/>
    <circle id="Ellipse_43" data-name="Ellipse 43" class="cls-8" cx="39.5" cy="39.5" r="39.5" transform="translate(196.492 199.929)"/>
    <path id="Path_248" data-name="Path 248" class="cls-5" d="M230.685,246.581a33.283,33.283,0,0,1,.832-5.563,14.22,14.22,0,0,1,3.145-4.528l4.038-3.995a8.784,8.784,0,0,0,2.589-6.037,6.727,6.727,0,0,0-1.7-4.868,8.061,8.061,0,0,0-4.932-1.761,7.093,7.093,0,0,0-5.056,1.6,6.12,6.12,0,0,0-1.911,4.291s-.631,2.65-3.178,2.65a2.542,2.542,0,0,1-2.525-2.65,9.8,9.8,0,0,1,3.561-7.738,14.024,14.024,0,0,1,9.109-3.551,13.166,13.166,0,0,1,9.078,3.61,10.663,10.663,0,0,1,3.252,8.241q0,5.18-4.994,10.21l-3.36,3.2q-2.25,2.4-2.25,6.9s-.507,3.03-3.032,3.03-2.671-3.03-2.671-3.03Zm-.247,11.771a3.142,3.142,0,0,1,.848-2.235,3.288,3.288,0,0,1,2.513-.9,3.338,3.338,0,0,1,2.527.9,3.107,3.107,0,0,1,.863,2.235,3,3,0,0,1-.863,2.2,3.4,3.4,0,0,1-2.527.873,3.35,3.35,0,0,1-2.513-.873A3.037,3.037,0,0,1,230.438,258.352Z"/>
  </g>
</svg>
