<svg xmlns="http://www.w3.org/2000/svg" width="286.915" height="265.424" viewBox="0 0 286.915 265.424">
  <defs>
    <style>
      .cls-1 {
        fill: #3f3f46;
      }

      .cls-1, .cls-4 {
        fill-rule: evenodd;
      }

      .cls-2 {
        fill: #17c964;
      }

      .cls-3 {
        fill: #f5a524;
      }

      .cls-4, .cls-5 {
        fill: #18181b;
      }

      .cls-6 {
        fill: #27272a;
      }

      .cls-7 {
        fill: #006fee;
      }

      .cls-8 {
        fill: #9353d3;
      }
    </style>
  </defs>
  <g id="No-Refund" transform="translate(-8.631 -42.907)">
    <path id="Path_249" data-name="Path 249" class="cls-1" d="M233.843,125.1c30.611,37.86,64.782,73.326,61.482,105.3-3.236,31.906-44.073,60.317-83.163,71.06-39.154,10.679-76.561,3.689-114.55-11.2-37.925-14.82-76.432-37.536-86.334-69.895-9.837-32.294,8.931-74.3,36.695-111.509C75.737,71.71,112.5,39.286,144.338,43.234c31.906,3.883,58.893,44.073,89.505,81.868Z"/>
    <circle id="Ellipse_44" data-name="Ellipse 44" class="cls-2" cx="3" cy="3" r="3" transform="translate(264.625 189.331)"/>
    <circle id="Ellipse_45" data-name="Ellipse 45" class="cls-3" cx="5" cy="5" r="5" transform="translate(119.625 298.331)"/>
    <circle id="Ellipse_46" data-name="Ellipse 46" class="cls-2" cx="5" cy="5" r="5" transform="translate(87.626 103.331)"/>
    <path id="Path_250" data-name="Path 250" class="cls-4" d="M257.572,228.241q1.469-1.63,2.83-3.352a1.5,1.5,0,0,1,2.353,1.86,71.107,71.107,0,0,1-6.049,6.728,1.5,1.5,0,1,1-2.1-2.143q1.531-1.5,2.965-3.093Zm-7.347,8.972a1.5,1.5,0,0,1-.292,2.1,69.62,69.62,0,0,1-7.464,4.925,1.5,1.5,0,0,1-1.488-2.605,66.7,66.7,0,0,0,7.143-4.713,1.5,1.5,0,0,1,2.1.291Zm15.67-17.483a1.5,1.5,0,0,1-.519-2.057,66.694,66.694,0,0,0,3.987-7.8,1.5,1.5,0,1,1,2.755,1.186,69.428,69.428,0,0,1-4.166,8.154,1.5,1.5,0,0,1-2.057.52ZM235.25,246.209a1.5,1.5,0,0,1-.816,1.959,70.155,70.155,0,0,1-8.47,2.868,1.5,1.5,0,1,1-.779-2.9,67.005,67.005,0,0,0,8.107-2.746,1.5,1.5,0,0,1,1.958.816Zm38.077-42.747a1.5,1.5,0,0,1-1.036-1.851,67.041,67.041,0,0,0,1.824-8.571,1.5,1.5,0,1,1,2.968.431,69.879,69.879,0,0,1-1.9,8.955,1.5,1.5,0,0,1-1.851,1.036Zm-54.844,47.653A1.5,1.5,0,0,1,217.2,252.8q-2.217.3-4.449.464a1.5,1.5,0,1,1-.216-2.992q2.136-.155,4.259-.444a1.5,1.5,0,0,1,1.689,1.283Zm57.8-65.292a1.5,1.5,0,0,1-1.479-1.521,67.384,67.384,0,0,0-.445-8.754,1.5,1.5,0,0,1,2.98-.346,70.524,70.524,0,0,1,.465,9.143,1.5,1.5,0,0,1-1.521,1.478Zm-1.679-17.807a1.5,1.5,0,0,1-1.82-1.09q-.529-2.107-1.193-4.177-.821-2.147-1.719-4.263a1.5,1.5,0,1,1,2.761-1.174q.943,2.223,1.8,4.48.7,2.181,1.259,4.4a1.5,1.5,0,0,1-1.089,1.82Zm-6.687-17.263a1.5,1.5,0,0,1-2.031-.61,74.62,74.62,0,0,0-4.822-7.824,1.5,1.5,0,1,1,2.446-1.736,77.428,77.428,0,0,1,5.017,8.138,1.5,1.5,0,0,1-.61,2.032Zm-10.587-15.426a1.5,1.5,0,0,1-2.121,0,40.167,40.167,0,0,0-7.035-5.654,1.5,1.5,0,1,1,1.592-2.542,43.137,43.137,0,0,1,7.563,6.073A1.5,1.5,0,0,1,257.333,135.327ZM241.9,124.956a1.5,1.5,0,0,1-1.869,1,33.221,33.221,0,0,0-4.373-1,1.5,1.5,0,1,1,.469-2.963,36.191,36.191,0,0,1,4.769,1.087,1.5,1.5,0,0,1,1,1.869Z"/>
    <rect id="Rectangle_130" data-name="Rectangle 130" class="cls-5" width="17.89" height="4.051" rx="2" transform="matrix(-0.766, -0.643, 0.643, -0.766, 39.395, 141.643)"/>
    <rect id="Rectangle_131" data-name="Rectangle 131" class="cls-5" width="17.89" height="4.051" rx="2" transform="translate(47.263 133.879) rotate(-120)"/>
    <rect id="Rectangle_132" data-name="Rectangle 132" class="cls-5" width="17.89" height="4.051" rx="2" transform="translate(36.198 151.829) rotate(-169)"/>
    <path id="Path_251" data-name="Path 251" class="cls-6" d="M235.758,59.118,121.611,114.791l34.631,71,114.147-55.673Z"/>
    <rect id="Rectangle_133" data-name="Rectangle 133" class="cls-7" width="120" height="59" rx="7" transform="matrix(-0.899, 0.438, -0.438, -0.899, 268.396, 115.543)"/>
    <path id="Path_252" data-name="Path 252" class="cls-4" d="M236.995,74.036l-98.868,48.22a2,2,0,0,0-.92,2.675l21.48,44.041a2,2,0,0,0,2.674.921l98.867-48.221a2,2,0,0,0,.921-2.675l-21.48-44.04a2,2,0,0,0-2.674-.921ZM136.812,119.56a5,5,0,0,0-2.3,6.686l21.48,44.041a5,5,0,0,0,6.686,2.3l98.868-48.221a5,5,0,0,0,2.3-6.686l-21.48-44.04a5,5,0,0,0-6.686-2.3L136.812,119.56Z"/>
    <path id="Path_253" data-name="Path 253" class="cls-5" d="M211.382,120.652a6.862,6.862,0,0,1,.214,5.869,12.13,12.13,0,0,1-5.036,5.355l2.137,4.38-2.685,1.31-2.078-4.26a23.2,23.2,0,0,1-8.964,2.474l-2.078-4.26a23.234,23.234,0,0,0,4.757-.546,20.747,20.747,0,0,0,4.444-1.443l-3.682-7.55-2,.2a13.455,13.455,0,0,1-6.322-.665,7.256,7.256,0,0,1-3.651-3.642,6.339,6.339,0,0,1-.075-5.636,12.027,12.027,0,0,1,4.831-5.056l-1.654-3.391,2.685-1.31,1.625,3.331a24.748,24.748,0,0,1,8.579-2.135l.329,4.413a24.087,24.087,0,0,0-7.028,1.578l3.584,7.349,1.82-.163a15.591,15.591,0,0,1,6.826.519,6.405,6.405,0,0,1,3.423,3.278Zm-4.616,2.627A2.745,2.745,0,0,0,205,121.765a9.058,9.058,0,0,0-3.444-.145l3.141,6.44Q207.987,125.783,206.766,123.279Zm-15.6-7.758a3.032,3.032,0,0,0,1.642,1.573,8.345,8.345,0,0,0,3.343.244l-3.062-6.279a5.259,5.259,0,0,0-1.981,2.191A2.644,2.644,0,0,0,191.161,115.521Z"/>
    <rect id="Rectangle_134" data-name="Rectangle 134" class="cls-5" width="18" height="3" rx="1.5" transform="matrix(-0.899, 0.438, -0.438, -0.899, 236.296, 84.583)"/>
    <rect id="Rectangle_135" data-name="Rectangle 135" class="cls-5" width="18" height="3" rx="1.5" transform="matrix(0.438, 0.899, -0.899, 0.438, 234.98, 81.87)"/>
    <path id="Path_257" data-name="Path 257" class="cls-8" d="M11,0H155a11,11,0,0,1,11,11v94a11,11,0,0,1-11,11H11A11,11,0,0,1,0,105V11A11,11,0,0,1,11,0Z" transform="translate(225.625 271.331) rotate(180)"/>
    <path id="Path_254" data-name="Path 254" class="cls-4" d="M60.626,150.331h144a8,8,0,0,1,8,8v94a8,8,0,0,1-8,8h-144a8,8,0,0,1-8-8v-94a8,8,0,0,1,8-8Zm144-3a11,11,0,0,1,11,11v94a11,11,0,0,1-11,11h-144a11,11,0,0,1-11-11v-94a11,11,0,0,1,11-11Z"/>
    <path id="Path_255" data-name="Path 255" class="cls-4" d="M52.626,188.331h42a18,18,0,0,1,0,36h-42v-36Zm42-3a21,21,0,0,1,0,42h-45v-42h45Z"/>
    <path id="Path_256" data-name="Path 256" class="cls-4" d="M93.626,196.831a9.5,9.5,0,1,1-9.5,9.5,9.5,9.5,0,0,1,9.5-9.5Zm12.5,9.5a12.5,12.5,0,1,0-12.5,12.5A12.5,12.5,0,0,0,106.125,206.331Zm58.5,25a24,24,0,1,1,24-24A24,24,0,0,1,164.625,231.331Zm0,3a27,27,0,1,1,27-27A27,27,0,0,1,164.625,234.331Z"/>
    <rect id="Rectangle_137" data-name="Rectangle 137" class="cls-5" width="3" height="26" rx="1.5" transform="translate(174.838 215.422) rotate(135)"/>
    <rect id="Rectangle_138" data-name="Rectangle 138" class="cls-5" width="3" height="26" rx="1.5" transform="translate(172.717 197.039) rotate(45)"/>
  </g>
</svg>
