<svg xmlns="http://www.w3.org/2000/svg" width="287.993" height="263.702" viewBox="0 0 287.993 263.702">
  <defs>
    <style>
      .cls-1 {
        fill: #3f3f46;
      }

      .cls-1, .cls-5, .cls-7, .cls-8 {
        fill-rule: evenodd;
      }

      .cls-2 {
        fill: #006fee;
      }

      .cls-3 {
        fill: #f31260;
      }

      .cls-4 {
        fill: #f5a524;
      }

      .cls-5, .cls-6 {
        fill: #18181b;
      }

      .cls-7 {
        fill: #9353d3;
      }

      .cls-8 {
        fill: #0d0938;
      }

      .cls-9 {
        fill: #27272a;
      }
    </style>
  </defs>
  <g id="No-Reports-Found" transform="translate(-16.716 -42.908)">
    <path id="Path_258" data-name="Path 258" class="cls-1" d="M241.928,125.1c30.611,37.86,64.782,73.325,61.482,105.3-3.236,31.9-44.073,60.317-83.163,71.06-39.154,10.678-76.561,3.689-114.55-11.2-37.925-14.821-76.432-37.537-86.334-69.9-9.837-32.294,8.931-74.3,36.695-111.508,27.764-37.148,64.524-69.572,96.365-65.624,31.906,3.883,58.893,44.073,89.505,81.868Z"/>
    <circle id="Ellipse_47" data-name="Ellipse 47" class="cls-2" cx="3" cy="3" r="3" transform="translate(298.709 186.333)"/>
    <circle id="Ellipse_48" data-name="Ellipse 48" class="cls-3" cx="5" cy="5" r="5" transform="translate(122.709 55.334)"/>
    <circle id="Ellipse_49" data-name="Ellipse 49" class="cls-4" cx="5" cy="5" r="5" transform="translate(85.709 284.334)"/>
    <path id="Path_259" data-name="Path 259" class="cls-5" d="M222.789,115.95v-.035a1.5,1.5,0,0,0-1.442-1.555,33.41,33.41,0,0,0-7.652.6,1.5,1.5,0,0,0-1.186,1.759,1.5,1.5,0,0,0,1.742,1.189l.016,0a30.392,30.392,0,0,1,6.967-.544,1.5,1.5,0,0,0,1.554-1.408Zm6.876,1.284-.005.014,0,.014a1.5,1.5,0,0,0,.945,1.876,43.612,43.612,0,0,1,8.682,4.146,1.5,1.5,0,0,0,2.057-.487l.006-.009a1.5,1.5,0,0,0-.5-2.062,46.577,46.577,0,0,0-9.281-4.427,1.5,1.5,0,0,0-1.9.935ZM247,126.943l-.005.006,0,.006a1.5,1.5,0,0,0-.184,1.644,1.5,1.5,0,0,0,.363.459,89.818,89.818,0,0,1,7.076,6.763,1.5,1.5,0,0,0,2.113.068l.008-.007a1.5,1.5,0,0,0,.061-2.12,92.8,92.8,0,0,0-7.314-6.989,1.5,1.5,0,0,0-2.114.17Zm13.82,14.456-.007.005a1.5,1.5,0,0,0-.427,2.071,62.246,62.246,0,0,1,4.686,8.56,1.5,1.5,0,0,0,1.983.752,1.505,1.505,0,0,0,.884-1.413,1.475,1.475,0,0,0-.131-.57,65.446,65.446,0,0,0-4.911-8.971,1.5,1.5,0,0,0-2.077-.434Zm8.6,17.98-.008,0-.009,0a1.5,1.5,0,0,0-1.035,1.837,62.116,62.116,0,0,1,1.824,9.584,1.5,1.5,0,0,0,1.638,1.329h.017a1.5,1.5,0,0,0,1.327-1.655,65.027,65.027,0,0,0-1.912-10.046,1.5,1.5,0,0,0-1.842-1.052Zm-.171,30.851A1.5,1.5,0,0,0,270.4,192h.008a1.5,1.5,0,0,0,1.776-1.16,64.6,64.6,0,0,0,1.3-10.146,1.5,1.5,0,0,0-1.426-1.571h-.017a1.5,1.5,0,0,0-1.554,1.426,61.519,61.519,0,0,1-1.241,9.677ZM262.3,208.494a1.5,1.5,0,0,0,.541,2.038l.008,0,.008.005a1.5,1.5,0,0,0,2.047-.557,65.789,65.789,0,0,0,4.4-9.318,1.5,1.5,0,0,0-.87-1.935l-.008,0-.008,0a1.5,1.5,0,0,0-1.919.876,62.7,62.7,0,0,1-4.2,8.893ZM250.11,223.64a1.5,1.5,0,0,0-.119,2.1l.006.007.006.006a1.5,1.5,0,0,0,2.118.107,64.546,64.546,0,0,0,7.02-7.432,1.5,1.5,0,0,0-.228-2.109l-.007-.006-.007-.005a1.5,1.5,0,0,0-2.1.239,61.69,61.69,0,0,1-6.694,7.088Zm-7.73,5.952a62.327,62.327,0,0,1-8.574,4.677,1.5,1.5,0,0,0-.755,1.982,1.5,1.5,0,0,0,1.411.886,1.482,1.482,0,0,0,.571-.13,65.328,65.328,0,0,0,8.985-4.9,1.5,1.5,0,0,0,.437-2.075l0-.008-.005-.007a1.5,1.5,0,0,0-2.066-.423Z"/>
    <rect id="Rectangle_139" data-name="Rectangle 139" class="cls-6" width="17.89" height="4.051" rx="2" transform="translate(62.822 89.39) rotate(-156)"/>
    <rect id="Rectangle_140" data-name="Rectangle 140" class="cls-6" width="17.89" height="4.051" rx="2" transform="translate(60.674 100.205) rotate(-176)"/>
    <rect id="Rectangle_141" data-name="Rectangle 141" class="cls-6" width="17.89" height="4.051" rx="2" transform="matrix(-0.602, -0.799, 0.799, -0.602, 68.994, 80.807)"/>
    <path id="Path_260" data-name="Path 260" class="cls-7" d="M174.722,91.744a11,11,0,0,0-6.872-2.41H83.709a11,11,0,0,0-11,11v133a11,11,0,0,0,11,11h102a11,11,0,0,0,11-11V114.62a11,11,0,0,0-4.128-8.589Z"/>
    <path id="Path_261" data-name="Path 261" class="cls-5" d="M178.851,95.834a12.157,12.157,0,0,1,7.808,2.738l17.859,14.288a11.917,11.917,0,0,1,4.691,9.76V241.335a12.5,12.5,0,0,1-12.5,12.5h-102a12.5,12.5,0,0,1-12.5-12.5v-133a12.5,12.5,0,0,1,12.5-12.5Zm0,3H94.708a9.5,9.5,0,0,0-9.5,9.5v133a9.5,9.5,0,0,0,9.5,9.5h102a9.5,9.5,0,0,0,9.5-9.5V122.62a9.056,9.056,0,0,0-3.565-7.418l-17.859-14.287a9.24,9.24,0,0,0-5.934-2.082Z"/>
    <path id="Path_262" data-name="Path 262" class="cls-8" d="M205.774,119.832l-16.74.728a7.5,7.5,0,0,1-7.825-7.492V98.334a1.5,1.5,0,1,1,3,0v14.735a4.5,4.5,0,0,0,4.694,4.5l15.162-.659,1.579-.069a1.478,1.478,0,0,1,.578.089,1.493,1.493,0,0,1,.986,1.344,1.5,1.5,0,0,1-1.434,1.564Z"/>
    <rect id="Rectangle_142" data-name="Rectangle 142" class="cls-6" width="60" height="3" rx="1.5" transform="translate(92.709 214.334)"/>
    <rect id="Rectangle_143" data-name="Rectangle 143" class="cls-6" width="100" height="3" rx="1.5" transform="translate(92.709 230.334)"/>
    <rect id="Rectangle_144" data-name="Rectangle 144" class="cls-6" width="80" height="3" rx="1.5" transform="translate(92.709 199.333)"/>
    <rect id="Rectangle_145" data-name="Rectangle 145" class="cls-6" width="40" height="3" rx="1.5" transform="translate(92.709 183.333)"/>
    <rect id="Rectangle_146" data-name="Rectangle 146" class="cls-6" width="5" height="3" rx="1.5" transform="translate(175.709 162.333)"/>
    <rect id="Rectangle_147" data-name="Rectangle 147" class="cls-6" width="5" height="3" rx="1.5" transform="translate(175.709 151.333)"/>
    <rect id="Rectangle_148" data-name="Rectangle 148" class="cls-6" width="5" height="3" rx="1.5" transform="translate(175.709 139.333)"/>
    <path id="Path_263" data-name="Path 263" class="cls-5" d="M122.709,166.833a23.5,23.5,0,0,1-16.617-40.117,22.646,22.646,0,0,1,16.617-6.883h1.5v22h22v1.5a23.5,23.5,0,0,1-23.5,23.5Zm14.5-9a19.654,19.654,0,0,0,5.956-13H121.209V122.881a20.506,20.506,0,0,0-13,34.948,20.5,20.5,0,0,0,28.992,0Z"/>
    <path id="Path_264" data-name="Path 264" class="cls-5" d="M130.592,115.838a24.873,24.873,0,0,1,5.434.249,17.556,17.556,0,0,1,9.7,4.147l.04.038.038.041q3.255,3.5,4.147,9.7a24.873,24.873,0,0,1,.249,5.434l-.107,1.383H129.209V115.946l1.383-.108Zm5.006,3.219a14.714,14.714,0,0,1,8.049,3.338,14.722,14.722,0,0,1,3.339,8.049,25.069,25.069,0,0,1,.274,3.39H132.209V118.782A25.053,25.053,0,0,1,135.6,119.057Z"/>
    <path id="Path_266" data-name="Path 266" class="cls-9" d="M39.58,0A39.58,39.58,0,1,1,0,39.58,39.58,39.58,0,0,1,39.58,0Z" transform="translate(168.129 190.594)"/>
    <path id="Path_267" data-name="Path 267" class="cls-2" d="M31,0A31,31,0,1,1,0,31,31,31,0,0,1,31,0Z" transform="translate(180.709 200.174)"/>
    <path id="Path_265" data-name="Path 265" class="cls-5" d="M236.709,229.174a31,31,0,1,1-31-31,31,31,0,0,1,31,31Zm-11.2,19.8a28,28,0,1,1,8.2-19.8,26.975,26.975,0,0,1-8.2,19.8Z"/>
    <rect id="Rectangle_149" data-name="Rectangle 149" class="cls-6" width="3" height="32" rx="1.5" transform="translate(216.442 216.937) rotate(45)"/>
    <rect id="Rectangle_150" data-name="Rectangle 150" class="cls-6" width="3" height="32" rx="1.5" transform="translate(218.564 239.561) rotate(135)"/>
  </g>
</svg>
