<svg xmlns="http://www.w3.org/2000/svg" width="286.915" height="263.701" viewBox="0 0 286.915 263.701">
  <defs>
    <style>
      .cls-1 {
        fill: #3f3f46;
      }

      .cls-1, .cls-5, .cls-7 {
        fill-rule: evenodd;
      }

      .cls-2 {
        fill: #006fee;
      }

      .cls-3 {
        fill: #f5a524;
      }

      .cls-4 {
        fill: #17c964;
      }

      .cls-5, .cls-6 {
        fill: #18181b;
      }

      .cls-7 {
        fill: #9353d3;
      }

      .cls-8 {
        fill: #52525b;
      }
    </style>
  </defs>
  <g id="No-Storage" transform="translate(-17 -43)">
    <path id="Path_278" data-name="Path 278" class="cls-1" d="M242.211,125.195c30.612,37.859,64.783,73.325,61.482,105.295-3.236,31.906-44.073,60.317-83.162,71.061-39.154,10.678-76.561,3.688-114.551-11.2-37.924-14.82-76.431-37.536-86.333-69.895-9.837-32.294,8.93-74.3,36.695-111.509C84.106,71.8,120.865,39.379,152.707,43.327c31.9,3.883,58.893,44.072,89.5,81.868Z"/>
    <circle id="Ellipse_54" data-name="Ellipse 54" class="cls-2" cx="3" cy="3" r="3" transform="translate(250.999 160.437)"/>
    <circle id="Ellipse_55" data-name="Ellipse 55" class="cls-3" cx="5" cy="5" r="5" transform="translate(136.999 56.437)"/>
    <circle id="Ellipse_56" data-name="Ellipse 56" class="cls-4" cx="5" cy="5" r="5" transform="translate(65.999 263.437)"/>
    <path id="Path_279" data-name="Path 279" class="cls-5" d="M257.72,140.669l.011-.014.01-.015a1.5,1.5,0,0,0-.353-2.092,33.283,33.283,0,0,0-4.685-2.778,1.5,1.5,0,0,0-2.006.691,1.5,1.5,0,0,0,.676,2l.015.007a30.193,30.193,0,0,1,4.262,2.528,1.5,1.5,0,0,0,2.07-.325Zm5.008,4.858a1.5,1.5,0,0,0-.289,2.1,40.326,40.326,0,0,1,4.791,8.31,1.5,1.5,0,0,0,1.953.785l.01,0,.011-.005a1.5,1.5,0,0,0,.776-1.974,43.293,43.293,0,0,0-5.15-8.924,1.5,1.5,0,0,0-2.1-.29Zm8.685,17.875-.008,0-.008,0a1.493,1.493,0,0,0-1.081,1.812,83.956,83.956,0,0,1,1.755,9.624,1.5,1.5,0,0,0,1.665,1.3l.011,0a1.5,1.5,0,0,0,1.3-1.675,86.582,86.582,0,0,0-1.819-9.968,1.5,1.5,0,0,0-1.815-1.1Zm0,30.907a1.5,1.5,0,0,0,1.158,1.77h.009a1.5,1.5,0,0,0,1.771-1.167,64.4,64.4,0,0,0,1.261-10.152,1.5,1.5,0,0,0-1.433-1.565h-.017a1.5,1.5,0,0,0-1.547,1.433,61.513,61.513,0,0,1-1.2,9.681Zm-6.873,18.2a1.5,1.5,0,0,0,.541,2.038l.008.005.008,0a1.5,1.5,0,0,0,2.047-.556,64.473,64.473,0,0,0,4.361-9.255,1.5,1.5,0,0,0-.874-1.933l-.008,0-.009,0a1.5,1.5,0,0,0-1.916.88,61.285,61.285,0,0,1-4.158,8.823Zm-12.218,15.114a1.5,1.5,0,0,0-.122,2.112l.006.006a1.5,1.5,0,0,0,2.118.116,63.721,63.721,0,0,0,7.047-7.415,1.5,1.5,0,0,0-.223-2.109l-.007-.006a1.5,1.5,0,0,0-2.1.229,60.7,60.7,0,0,1-6.716,7.067ZM235.9,238.19a1.5,1.5,0,0,0-.779,1.959l0,.009,0,.008a1.5,1.5,0,0,0,1.976.771,64.865,64.865,0,0,0,9.086-4.881,1.5,1.5,0,0,0,.445-2.081l-.005-.007a1.5,1.5,0,0,0-2.064-.435,61.917,61.917,0,0,1-8.667,4.657Zm-18.811,4.871a1.5,1.5,0,0,0-1.355,1.616v.009a1.5,1.5,0,0,0,1.634,1.362,63.712,63.712,0,0,0,10.073-1.763,1.5,1.5,0,0,0-.752-2.9,60.808,60.808,0,0,1-9.6,1.68Zm-19.036-1.2a61.609,61.609,0,0,0,9.284,1.329,1.5,1.5,0,0,1,1.4,1.578v.018a1.5,1.5,0,0,1-1.6,1.4A64.542,64.542,0,0,1,197,244.7a1.5,1.5,0,1,1,.668-2.925l.376.085Z"/>
    <rect id="Rectangle_154" data-name="Rectangle 154" class="cls-6" width="17.89" height="4.051" rx="2" transform="translate(74.217 107.971) rotate(-162)"/>
    <rect id="Rectangle_155" data-name="Rectangle 155" class="cls-6" width="17.89" height="4.051" rx="2" transform="translate(87.39 91.525) rotate(-113)"/>
    <rect id="Rectangle_156" data-name="Rectangle 156" class="cls-6" width="17.89" height="4.051" rx="2" transform="matrix(-0.682, -0.731, 0.731, -0.682, 78.631, 98.269)"/>
    <path id="Path_280" data-name="Path 280" class="cls-7" d="M85.131,114.483a10,10,0,0,1,9.955-9.046h71.826a10,10,0,0,1,9.954,9.046l11.977,124.9a11,11,0,0,1-10.949,12.05H84.1a11,11,0,0,1-10.95-12.05l11.977-124.9Z"/>
    <path id="Path_281" data-name="Path 281" class="cls-5" d="M174.913,99.437H103.085a10,10,0,0,0-9.954,9.045L81.154,233.388A11,11,0,0,0,92.1,245.437h93.792a11,11,0,0,0,10.948-12.049L184.866,108.482a10,10,0,0,0-9.953-9.045Zm-75.93,5.485a5.9,5.9,0,0,1,4.1-1.585h71.828a6.1,6.1,0,0,1,6.071,5.517l11.977,124.907a7.1,7.1,0,0,1-7.066,7.776H92.1a7.1,7.1,0,0,1-7.067-7.776L97.014,108.854a5.9,5.9,0,0,1,1.97-3.932Z"/>
    <rect id="Rectangle_157" data-name="Rectangle 157" class="cls-6" width="67" height="3" rx="1.5" transform="translate(106.999 110.437)"/>
    <path id="Path_282" data-name="Path 282" class="cls-5" d="M184.185,210.437H93.812a11,11,0,0,0-10.928,9.75l-1.486,13a11,11,0,0,0,10.928,12.248h93.345A11,11,0,0,0,196.6,233.189l-1.486-13a11,11,0,0,0-10.928-9.75Zm-95.1,5.7a6.878,6.878,0,0,1,4.727-1.8h90.373a7.1,7.1,0,0,1,7.053,6.293l1.486,13a7.1,7.1,0,0,1-7.053,7.9H92.326a7.1,7.1,0,0,1-7.053-7.9l1.486-13a6.871,6.871,0,0,1,2.327-4.491Z"/>
    <rect id="Rectangle_158" data-name="Rectangle 158" class="cls-6" width="40" height="3" rx="1.5" transform="translate(144.999 227.437)"/>
    <circle id="Ellipse_57" data-name="Ellipse 57" class="cls-6" cx="5" cy="5" r="5" transform="translate(92.999 223.437)"/>
    <circle id="Ellipse_58" data-name="Ellipse 58" class="cls-8" cx="45.87" cy="45.87" r="45.87" transform="translate(162.127 87.408)"/>
    <path id="Path_284" data-name="Path 284" class="cls-2" d="M36,0A36,36,0,1,1,0,36,36,36,0,0,1,36,0Z" transform="translate(175.997 99.437)"/>
    <path id="Path_283" data-name="Path 283" class="cls-5" d="M241,133.437a36,36,0,1,1-36-36A36,36,0,0,1,241,133.437Zm-12.665,23.335A33,33,0,0,1,172,133.437,33,33,0,0,1,228.332,110.1a33,33,0,0,1,0,46.669Z"/>
    <rect id="Rectangle_159" data-name="Rectangle 159" class="cls-6" width="3" height="32" rx="1.5" transform="translate(215.749 122.063) rotate(45)"/>
    <rect id="Rectangle_160" data-name="Rectangle 160" class="cls-6" width="3" height="32" rx="1.5" transform="translate(217.872 144.69) rotate(135)"/>
  </g>
</svg>
