<svg xmlns="http://www.w3.org/2000/svg" width="286.915" height="267.437" viewBox="0 0 286.915 267.437">
  <defs>
    <style>
      .cls-1 {
        fill: #3f3f46;
      }

      .cls-1, .cls-10, .cls-5, .cls-7, .cls-9 {
        fill-rule: evenodd;
      }

      .cls-2, .cls-9 {
        fill: #9353d3;
      }

      .cls-3 {
        fill: #006fee;
      }

      .cls-4 {
        fill: #17c964;
      }

      .cls-5, .cls-6 {
        fill: #18181b;
      }

      .cls-7, .cls-8 {
        fill: #27272a;
      }

      .cls-10, .cls-11 {
        fill: #0d0938;
      }
    </style>
  </defs>
  <g id="No-Subscription-Found" transform="translate(-17 -41)">
    <path id="Path_285" data-name="Path 285" class="cls-1" d="M242.211,123.195c30.612,37.859,64.783,73.325,61.482,105.295-3.236,31.906-44.073,60.317-83.162,71.061-39.154,10.678-76.561,3.688-114.551-11.2-37.924-14.82-76.431-37.536-86.333-69.895-9.837-32.294,8.93-74.3,36.695-111.509C84.106,69.8,120.865,37.379,152.707,41.327c31.9,3.883,58.893,44.072,89.5,81.868Z"/>
    <circle id="Ellipse_59" data-name="Ellipse 59" class="cls-2" cx="3" cy="3" r="3" transform="translate(274.997 176.437)"/>
    <circle id="Ellipse_60" data-name="Ellipse 60" class="cls-3" cx="5" cy="5" r="5" transform="translate(34.997 134.437)"/>
    <circle id="Ellipse_61" data-name="Ellipse 61" class="cls-4" cx="5" cy="5" r="5" transform="translate(211.997 298.437)"/>
    <path id="Path_286" data-name="Path 286" class="cls-5" d="M245.815,122.353v-.035a1.5,1.5,0,0,0-1.573-1.424,33.412,33.412,0,0,0-7.57,1.262,1.5,1.5,0,0,0,.794,2.893l.016,0,.016,0a30.437,30.437,0,0,1,6.894-1.15,1.5,1.5,0,0,0,1.424-1.537Zm6.962.68,0,.014a1.5,1.5,0,0,0,1.1,1.8,43.618,43.618,0,0,1,9.011,3.373,1.5,1.5,0,0,0,2-.655l.005-.009,0-.01a1.5,1.5,0,0,0-.673-2.011,46.594,46.594,0,0,0-9.632-3.6,1.5,1.5,0,0,0-1.815,1.1Zm18.113,8.162,0,.006-.005.006a1.5,1.5,0,0,0,.363,2.079,89.64,89.64,0,0,1,7.638,6.121,1.5,1.5,0,0,0,2.111-.116l.007-.008a1.5,1.5,0,0,0-.124-2.118,92.6,92.6,0,0,0-7.895-6.324,1.5,1.5,0,0,0-2.091.354Zm15.028,13.195-.007.006-.007.005a1.5,1.5,0,0,0-.238,2.095,62.466,62.466,0,0,1,5.414,8.119,1.5,1.5,0,0,0,2.026.585l.008,0,.007,0a1.5,1.5,0,0,0,.577-2.042,65.361,65.361,0,0,0-5.674-8.508,1.5,1.5,0,0,0-2.106-.252Zm10.135,17.163-.008,0-.008,0a1.5,1.5,0,0,0-.871,1.92,62.175,62.175,0,0,1,2.652,9.388,1.5,1.5,0,0,0,1.747,1.181h.009l.008,0a1.5,1.5,0,0,0,1.178-1.764,65.1,65.1,0,0,0-2.78-9.841,1.5,1.5,0,0,0-1.927-.887Zm3.812,32.413a1.5,1.5,0,0,1-1.293-1.666,61.533,61.533,0,0,0,.393-9.747A1.5,1.5,0,0,1,300.388,181h.018a1.5,1.5,0,0,1,1.557,1.44,64.67,64.67,0,0,1-.412,10.222,1.5,1.5,0,0,1-1.668,1.31h-.018ZM293.2,212.248a1.488,1.488,0,0,0,.779.843,1.5,1.5,0,0,0,1.99-.733,65.564,65.564,0,0,0,3.572-9.666,1.5,1.5,0,0,0-1.052-1.856,1.5,1.5,0,0,0-1.835,1.039,63.217,63.217,0,0,1-3.408,9.225,1.5,1.5,0,0,0-.046,1.148Zm-11.18,16.079a1.5,1.5,0,0,0,.465,1.032l.007.006.006.006a1.5,1.5,0,0,0,2.12-.078,64.712,64.712,0,0,0,6.346-8.016,1.5,1.5,0,0,0-.411-2.081l-.008-.005-.007-.005a1.5,1.5,0,0,0-2.066.421,61.781,61.781,0,0,1-6.052,7.644,1.487,1.487,0,0,0-.4,1.076Zm-6.782,5.528a62.382,62.382,0,0,1-8.133,5.406,1.5,1.5,0,0,0-.58,2.041,1.5,1.5,0,0,0,2.04.58,65.305,65.305,0,0,0,8.524-5.666,1.5,1.5,0,0,0,.25-2.113l-.006-.007a1.5,1.5,0,0,0-2.095-.241Z"/>
    <rect id="Rectangle_161" data-name="Rectangle 161" class="cls-6" width="17.89" height="4.051" rx="2" transform="matrix(-0.602, -0.799, 0.799, -0.602, 88.25, 88.886)"/>
    <rect id="Rectangle_162" data-name="Rectangle 162" class="cls-6" width="17.89" height="4.051" rx="2" transform="translate(79.944 108.298) rotate(-176)"/>
    <rect id="Rectangle_163" data-name="Rectangle 163" class="cls-6" width="17.89" height="4.051" rx="2" transform="translate(82.102 97.483) rotate(-156)"/>
    <rect id="Rectangle_164" data-name="Rectangle 164" class="cls-3" width="177" height="102" rx="10" transform="translate(66.997 175.437)"/>
    <path id="Path_287" data-name="Path 287" class="cls-7" d="M76.4,165.443a1.2,1.2,0,0,1-.72-2.16l82.77-62a1.2,1.2,0,0,1,1.39-.036l92.095,62a1.2,1.2,0,0,1-.67,2.2"/>
    <path id="Path_288" data-name="Path 288" class="cls-8" d="M75.68,163.283,73.522,160.4l2.159,2.882Zm82.77-62,2.158,2.881Zm93.485,61.964,2.011-2.987Zm.326,1.665,2.986,2.011-2.986-2.011ZM76.4,161.843a2.4,2.4,0,0,1,2.4,2.4H71.6a4.8,4.8,0,0,0,4.8,4.8v-7.2Zm2.4,2.4a2.4,2.4,0,0,1-.962,1.921L73.522,160.4a4.8,4.8,0,0,0-1.922,3.842h7.2Zm-.962,1.921,82.769-62L156.292,98.4l-82.77,62,4.317,5.763Zm82.769-62a2.4,2.4,0,0,1-2.779.07l4.021-5.973a4.8,4.8,0,0,0-5.558.14l4.316,5.763Zm-2.779.07,92.1,62,4.021-5.973-92.1-62-4.021,5.973Zm92.1,62a2.4,2.4,0,0,1-.651-3.331l5.973,4.021a4.8,4.8,0,0,0-1.3-6.663l-4.021,5.973Zm-.651-3.331a2.4,2.4,0,0,1,1.991-1.06v7.2a4.8,4.8,0,0,0,3.982-2.119l-5.973-4.021Z"/>
    <path id="Path_289" data-name="Path 289" class="cls-7" d="M93.7,94.784H238v71.653H93.7V94.784Z"/>
    <path id="Path_290" data-name="Path 290" class="cls-9" d="M108,71.437a11,11,0,0,1,11-11H221a11,11,0,0,1,11,11v97l-70,39-54-30v-106Z"/>
    <path id="Path_291" data-name="Path 291" class="cls-5" d="M220.4,176.373V81.637a9.6,9.6,0,0,0-9.6-9.6H112.4a9.6,9.6,0,0,0-9.6,9.6v92.577H99.2V81.637a13.2,13.2,0,0,1,13.2-13.2h98.4a13.2,13.2,0,0,1,13.2,13.2v94.8l-3.6-.064Z"/>
    <path id="Path_292" data-name="Path 292" class="cls-10" d="M185.287,108.857A25.29,25.29,0,1,1,160,83.567a25.29,25.29,0,0,1,25.29,25.29Zm-9.529,15.761a22.289,22.289,0,0,1-38.051-15.761A22.29,22.29,0,0,1,175.758,93.1a22.289,22.289,0,0,1,0,31.523Z"/>
    <rect id="Rectangle_165" data-name="Rectangle 165" class="cls-11" width="3" height="32" rx="1.5" transform="translate(170.622 95.857) rotate(45)"/>
    <rect id="Rectangle_166" data-name="Rectangle 166" class="cls-11" width="3" height="32" rx="1.5" transform="translate(172.742 118.483) rotate(135)"/>
    <rect id="Rectangle_167" data-name="Rectangle 167" class="cls-11" width="72" height="3.593" rx="1.796" transform="translate(123.997 148.437)"/>
    <rect id="Rectangle_168" data-name="Rectangle 168" class="cls-11" width="84" height="3.593" rx="1.796" transform="translate(117.997 166.437)"/>
    <path id="Path_293" data-name="Path 293" class="cls-7" d="M89,159.437l75,43,74-42v9l-74,42-77-44,2-8Z"/>
    <path id="Path_294" data-name="Path 294" class="cls-5" d="M250.38,259.476l-169.2-97.094A4.8,4.8,0,0,0,74,166.544v97.094a4.8,4.8,0,0,0,4.8,4.8h169.2a4.8,4.8,0,0,0,2.388-8.961ZM77.894,164.987a1.689,1.689,0,0,1,1.8,0l169.2,97.094a1.8,1.8,0,0,1-.9,3.359H78.8a1.591,1.591,0,0,1-1.8-1.8V166.544A1.69,1.69,0,0,1,77.894,164.987Z"/>
    <path id="Path_295" data-name="Path 295" class="cls-5" d="M77.613,259.476l169.2-97.094A4.8,4.8,0,0,1,254,166.544v97.094a4.8,4.8,0,0,1-4.8,4.8H80a4.8,4.8,0,0,1-2.388-8.961Zm1.493,2.6,169.2-97.094a1.8,1.8,0,0,1,2.695,1.56v97.094a1.59,1.59,0,0,1-1.8,1.8H80a1.8,1.8,0,0,1-.895-3.359Z"/>
  </g>
</svg>
