<svg xmlns="http://www.w3.org/2000/svg" width="286.915" height="263.702" viewBox="0 0 286.915 263.702">
  <defs>
    <style>
      .cls-1 {
        fill: #3f3f46;
      }

      .cls-1, .cls-5 {
        fill-rule: evenodd;
      }

      .cls-2 {
        fill: #f31260;
      }

      .cls-3 {
        fill: #17c964;
      }

      .cls-4 {
        fill: #f5a524;
      }

      .cls-5, .cls-6 {
        fill: #18181b;
      }

      .cls-7 {
        fill: #9353d3;
      }

      .cls-8 {
        fill: #27272a;
      }

      .cls-9 {
        fill: #006fee;
      }
    </style>
  </defs>
  <g id="No-Stats-Found" transform="translate(-13.368 -23.908)">
    <path id="Path_268" data-name="Path 268" class="cls-1" d="M238.58,106.1c30.611,37.86,64.782,73.325,61.482,105.3-3.236,31.9-44.073,60.317-83.162,71.06-39.155,10.678-76.562,3.689-114.551-11.2-37.925-14.821-76.432-37.537-86.334-69.9-9.837-32.294,8.932-74.3,36.7-111.508,27.763-37.148,64.523-69.572,96.364-65.624,31.906,3.883,58.893,44.073,89.505,81.868Z"/>
    <circle id="Ellipse_50" data-name="Ellipse 50" class="cls-2" cx="3" cy="3" r="3" transform="translate(31.366 217.345)"/>
    <circle id="Ellipse_51" data-name="Ellipse 51" class="cls-3" cx="5" cy="5" r="5" transform="translate(114.366 42.346)"/>
    <path id="Path_277" data-name="Path 277" class="cls-4" d="M5,0A5,5,0,1,1,0,5,5,5,0,0,1,5,0Z" transform="translate(180.366 234.345)"/>
    <path id="Path_269" data-name="Path 269" class="cls-5" d="M249.212,167.276a83.933,83.933,0,0,1,1.133,10.119,1.5,1.5,0,0,1-1.422,1.575h-.014a1.5,1.5,0,0,1-1.56-1.422,80.917,80.917,0,0,0-1.093-9.758,1.5,1.5,0,0,1,1.221-1.735,1.5,1.5,0,0,1,1.735,1.221Zm-1.449,19.059a1.485,1.485,0,0,1,1.075-.363h.014a1.5,1.5,0,0,1,1.389,1.6,83.037,83.037,0,0,1-1.348,10.117,1.5,1.5,0,0,1-1.761,1.183h-.007l-.007,0a1.5,1.5,0,0,1-1.169-1.758,80.051,80.051,0,0,0,1.3-9.752,1.505,1.505,0,0,1,.514-1.027Zm-4.293,20.272a1.5,1.5,0,0,1,1.88-.962l.007,0,.006,0a1.5,1.5,0,0,1,.958,1.893A82.956,82.956,0,0,1,242.564,217a1.5,1.5,0,0,1-2,.719l-.006,0a1.5,1.5,0,0,1-.713-1.992,79.889,79.889,0,0,0,3.621-9.112Zm-8.33,17.721a1.5,1.5,0,0,1,2.062-.475l.006,0a1.5,1.5,0,0,1,.472,2.068,84.258,84.258,0,0,1-5.958,8.322,1.5,1.5,0,0,1-2.11.219l-.006,0-.005,0a1.5,1.5,0,0,1-.208-2.1,81.328,81.328,0,0,0,5.747-8.027ZM115.4,243.277a1.5,1.5,0,0,1-.017,2.112l-.009.009a1.5,1.5,0,0,1-2.121-.025,42.967,42.967,0,0,1-6.284-8.185,1.5,1.5,0,0,1,.54-2.061l.012-.007a1.5,1.5,0,0,1,2.031.542,39.916,39.916,0,0,0,5.848,7.615Zm107.352-3.7a1.5,1.5,0,0,1,2.116.035l0,0a1.5,1.5,0,0,1-.04,2.121,82.543,82.543,0,0,1-7.75,6.6,1.5,1.5,0,0,1-2.1-.3l0-.005,0-.006a1.5,1.5,0,0,1,.308-2.089,79.626,79.626,0,0,0,7.469-6.358ZM131.385,254.1a1.5,1.5,0,0,1,.757,1.97l0,.007a1.5,1.5,0,0,1-1.988.758,62.358,62.358,0,0,1-8.975-4.935,1.5,1.5,0,0,1-.415-2.08l.006-.009.006-.009a1.5,1.5,0,0,1,2.068-.4,59.246,59.246,0,0,0,8.544,4.7Zm75.708-2.769a1.5,1.5,0,0,1,2.045.548l0,.006a1.5,1.5,0,0,1-.555,2.048,83.281,83.281,0,0,1-9.121,4.516,1.5,1.5,0,0,1-1.968-.806l0-.007a1.5,1.5,0,0,1,.805-1.952,80.162,80.162,0,0,0,8.793-4.353Zm-56.947,8.66a1.5,1.5,0,0,1,1.166,1.765l0,.009a1.5,1.5,0,0,1-1.774,1.163q-4.972-1.022-9.83-2.51a1.5,1.5,0,0,1-.991-1.876l0-.006,0-.005a1.5,1.5,0,0,1,1.872-.98q4.5,1.391,9.555,2.44Zm38.9-1.054a1.5,1.5,0,0,1,1.849,1.02l0,.006,0,.007a1.5,1.5,0,0,1-1.033,1.853,83.718,83.718,0,0,1-9.942,2.185,1.5,1.5,0,0,1-1.714-1.249l0-.013a1.5,1.5,0,0,1,1.251-1.7A80.89,80.89,0,0,0,189.041,258.939Zm-19.359,3.039a1.5,1.5,0,0,1,1.55,1.434v.014a1.5,1.5,0,0,1-1.448,1.55,83.351,83.351,0,0,1-8.44-.137l-.045,0-.044-.005-1.765-.224a1.5,1.5,0,0,1-1.3-1.677v-.016a1.5,1.5,0,0,1,1.674-1.283l1.721.218a80.322,80.322,0,0,0,8.093.129Z"/>
    <rect id="Rectangle_151" data-name="Rectangle 151" class="cls-6" width="17.89" height="4.051" rx="2" transform="translate(51.551 162.294) rotate(-119)"/>
    <rect id="Rectangle_152" data-name="Rectangle 152" class="cls-6" width="17.89" height="4.051" rx="2" transform="matrix(-0.978, -0.208, 0.208, -0.978, 40.617, 180.359)"/>
    <rect id="Rectangle_153" data-name="Rectangle 153" class="cls-6" width="17.89" height="4.051" rx="2" transform="matrix(-0.848, -0.53, 0.53, -0.848, 44.262, 169.953)"/>
    <path id="Path_276" data-name="Path 276" class="cls-7" d="M15,0H171a15,15,0,0,1,15,15v96a15,15,0,0,1-15,15H15A15,15,0,0,1,0,111V15A15,15,0,0,1,15,0Z" transform="translate(104.366 74.346)"/>
    <path id="Path_270" data-name="Path 270" class="cls-5" d="M261.367,83.346h-156a15,15,0,0,0-15,15v96a15,15,0,0,0,15,15h156a15,15,0,0,0,15-15v-96a15,15,0,0,0-15-15ZM97.3,90.284a10.984,10.984,0,0,1,8.061-3.339h156a11.4,11.4,0,0,1,11.4,11.4v96a11.4,11.4,0,0,1-11.4,11.4h-156a11.4,11.4,0,0,1-11.4-11.4v-96a10.984,10.984,0,0,1,3.34-8.06Z"/>
    <path id="Path_271" data-name="Path 271" class="cls-5" d="M168.367,161.345h-5a4,4,0,0,0-4,4v24a4,4,0,0,0,4,4h5a4,4,0,0,0,4-4v-24a4,4,0,0,0-4-4Zm-6,4a.883.883,0,0,1,1-1h5a.883.883,0,0,1,1,1v24a.883.883,0,0,1-1,1h-5a.883.883,0,0,1-1-1Zm34-31h-5a4,4,0,0,0-4,4v51a4,4,0,0,0,4,4h5a4,4,0,0,0,4-4v-51a4,4,0,0,0-4-4Zm-6,4a.883.883,0,0,1,1-1h5a.883.883,0,0,1,1,1v51a.883.883,0,0,1-1,1h-5a.883.883,0,0,1-1-1Zm33-1h-5a4,4,0,0,0-4,4v48a4,4,0,0,0,4,4h5a4,4,0,0,0,4-4v-48a4,4,0,0,0-4-4Zm-6,4a.883.883,0,0,1,1-1h5a.883.883,0,0,1,1,1v48a.883.883,0,0,1-1,1h-5a.883.883,0,0,1-1-1Zm34-26h-5a4,4,0,0,0-4,4v70a4,4,0,0,0,4,4h5a4,4,0,0,0,4-4v-70a4,4,0,0,0-4-4Zm-6,4a.883.883,0,0,1,1-1h5a.883.883,0,0,1,1,1v70a.883.883,0,0,1-1,1h-5a.883.883,0,0,1-1-1Zm-111,19.5a20.5,20.5,0,0,1-14.5-35,20.5,20.5,0,1,1,28.991,28.991A19.748,19.748,0,0,1,134.366,138.845Zm0-3a17.5,17.5,0,0,0,12.374-29.874,17.5,17.5,0,0,0-24.749,24.749A16.862,16.862,0,0,0,134.366,135.845Z"/>
    <path id="Path_272" data-name="Path 272" class="cls-5" d="M159.322,149.268l28.428-27.539a8.844,8.844,0,0,1,9.8-2.123l11.169,3.989,7.62,2.721A6.075,6.075,0,0,0,222.908,125l25.8-23.521,4.65-4.24a1.5,1.5,0,0,1,2.119.1,1.5,1.5,0,0,1-.1,2.118l-30.447,27.762a8.878,8.878,0,0,1-9.6,1.926l-10.11-3.611-8.679-3.1a6.054,6.054,0,0,0-6.708,1.452l-24.446,23.682-3.982,3.858a1.5,1.5,0,0,1-2.087-2.155Z"/>
    <path id="Path_607" data-name="Path 607" class="cls-8" d="M52.5,0A52.5,52.5,0,1,1,0,52.5,52.5,52.5,0,0,1,52.5,0Z" transform="translate(44.366 145.345)"/>
    <path id="Path_275" data-name="Path 275" class="cls-9" d="M44,0A44,44,0,1,1,0,44,44,44,0,0,1,44,0Z" transform="translate(42.366 160.345)"/>
    <path id="Path_273" data-name="Path 273" class="cls-5" d="M137.366,200.345a44,44,0,1,1-44-44A44,44,0,0,1,137.366,200.345Zm-15.433,28.568a38.928,38.928,0,0,1-28.567,11.832,40.4,40.4,0,0,1-40.4-40.4,40.4,40.4,0,0,1,40.4-40.4,40.4,40.4,0,0,1,40.4,40.4,38.926,38.926,0,0,1-11.833,28.568Z"/>
    <path id="Path_274" data-name="Path 274" class="cls-6" d="M123,168.965l4.243,4.243L65.727,234.726l-4.242-4.243Z"/>
  </g>
</svg>
