<svg xmlns="http://www.w3.org/2000/svg" width="286.915" height="263.701" viewBox="0 0 286.915 263.701">
  <defs>
    <style>
      .cls-1 {
        fill: #3f3f46;
      }

      .cls-1, .cls-10, .cls-5, .cls-7 {
        fill-rule: evenodd;
      }

      .cls-2 {
        fill: #f31260;
      }

      .cls-3 {
        fill: #17c964;
      }

      .cls-4 {
        fill: #f5a524;
      }

      .cls-5, .cls-6 {
        fill: #18181b;
      }

      .cls-7 {
        fill: #9353d3;
      }

      .cls-8 {
        fill: #27272a;
      }

      .cls-9 {
        fill: #006fee;
      }

      .cls-10 {
        fill: #0d0938;
      }
    </style>
  </defs>
  <g id="No-Task-Found" transform="translate(-17 -43)">
    <path id="Path_296" data-name="Path 296" class="cls-1" d="M242.211,125.195c30.612,37.859,64.783,73.325,61.482,105.295-3.236,31.906-44.073,60.317-83.162,71.061-39.154,10.678-76.561,3.688-114.551-11.2-37.924-14.82-76.431-37.536-86.333-69.895-9.837-32.294,8.93-74.3,36.695-111.509C84.106,71.8,120.865,39.379,152.707,43.327c31.9,3.883,58.893,44.072,89.5,81.868Z"/>
    <circle id="Ellipse_62" data-name="Ellipse 62" class="cls-2" cx="3" cy="3" r="3" transform="translate(257.994 147.424)"/>
    <circle id="Ellipse_63" data-name="Ellipse 63" class="cls-3" cx="5" cy="5" r="5" transform="translate(35.994 170.424)"/>
    <circle id="Ellipse_64" data-name="Ellipse 64" class="cls-4" cx="5" cy="5" r="5" transform="translate(197.994 290.425)"/>
    <path id="Path_297" data-name="Path 297" class="cls-5" d="M207.47,96.194v-.026a1.5,1.5,0,0,0-1.647-1.337,39.894,39.894,0,0,0-10.065,2.34,1.5,1.5,0,0,0-.865,1.95l.006.014a1.459,1.459,0,0,0,.31.478,1.5,1.5,0,0,0,1.613.363,36.839,36.839,0,0,1,9.311-2.16,1.5,1.5,0,0,0,1.339-1.622Zm7.014,0v.02a1.486,1.486,0,0,0,.793,1.448,1.512,1.512,0,0,0,.561.167,69.373,69.373,0,0,1,9.634,1.642,1.5,1.5,0,0,0,1.805-1.1l0-.006v-.007a1.5,1.5,0,0,0-1.109-1.808,72.3,72.3,0,0,0-10.051-1.712,1.5,1.5,0,0,0-1.635,1.352Zm31.461,9.362a.016.016,0,0,0,0,.007,1.5,1.5,0,0,1-2.032.59q-1.763-.963-3.581-1.818-2.7-1.1-5.458-2.067a1.5,1.5,0,0,1-.921-1.9l0-.009a1.5,1.5,0,0,1,1.912-.919q2.763.969,5.63,2.133l.037.016.037.017q1.918.9,3.779,1.917a1.5,1.5,0,0,1,.6,2.036Zm-57.154-3.021a1.5,1.5,0,0,1-.295,2.072l-.318.246-.01.007-.01.008a1.5,1.5,0,0,1-2.084-.286,1.5,1.5,0,0,1,.27-2.1l.319-.246a1.5,1.5,0,0,1,2.1.271l.012.016.012.016Zm63.04,6.813-.005.007-.005.006a1.5,1.5,0,0,0,.307,2.088,67.4,67.4,0,0,1,7.368,6.427,1.5,1.5,0,0,0,2.115.016l.006-.006a1.5,1.5,0,0,0,.01-2.121,70.478,70.478,0,0,0-7.7-6.714,1.506,1.506,0,0,0-1.111-.286,1.5,1.5,0,0,0-.989.583ZM266.175,123.2l-.007,0-.006,0a1.5,1.5,0,0,0-.3,2.088,66.9,66.9,0,0,1,5.217,8.274,1.5,1.5,0,0,0,2.014.627l.007,0,.008,0a1.5,1.5,0,0,0,.619-2.029,69.866,69.866,0,0,0-5.451-8.645,1.5,1.5,0,0,0-2.1-.317Zm9.756,17.393-.008,0-.008,0a1.494,1.494,0,0,0-.893,1.911,66.881,66.881,0,0,1,2.6,9.417,1.5,1.5,0,0,0,1.748,1.181h.008l.008,0a1.5,1.5,0,0,0,1.179-1.764,69.963,69.963,0,0,0-2.715-9.838,1.5,1.5,0,0,0-1.917-.909Zm4.035,32.5a1.5,1.5,0,0,1-1.336-1.632,67.4,67.4,0,0,0,.2-9.766,1.5,1.5,0,0,1,1.4-1.574h.016a1.5,1.5,0,0,1,1.575,1.421,70.261,70.261,0,0,1-.213,10.2,1.5,1.5,0,0,1-1.634,1.353h-.017Zm-5.983,18.475a1.5,1.5,0,0,0,.8.8l.007,0,.008,0a1.5,1.5,0,0,0,1.955-.822,69.511,69.511,0,0,0,3.157-9.714,1.478,1.478,0,0,0-.173-1.135,1.5,1.5,0,0,0-.925-.68h-.008a1.476,1.476,0,0,0-.585-.023A1.5,1.5,0,0,0,277,181.122a66.735,66.735,0,0,1-3.021,9.3,1.49,1.49,0,0,0,.006,1.148Zm-4.349,7.608a67.448,67.448,0,0,1-5.33,7.741l-.241.3A1.5,1.5,0,0,0,266.4,209.1a70.385,70.385,0,0,0,5.819-8.4,1.5,1.5,0,0,0-2.584-1.525Z"/>
    <rect id="Rectangle_169" data-name="Rectangle 169" class="cls-6" width="17.89" height="4.051" rx="2" transform="translate(77.576 107.915) rotate(-169)"/>
    <rect id="Rectangle_170" data-name="Rectangle 170" class="cls-6" width="17.89" height="4.051" rx="2" transform="translate(88.631 89.965) rotate(-120)"/>
    <rect id="Rectangle_171" data-name="Rectangle 171" class="cls-6" width="17.89" height="4.051" rx="2" transform="matrix(-0.766, -0.643, 0.643, -0.766, 80.773, 97.727)"/>
    <path id="Path_298" data-name="Path 298" class="cls-7" d="M112.994,89.424a6,6,0,0,0-6,6v3h-16a12,12,0,0,0-12,12v118a12,12,0,0,0,12,12h90a12,12,0,0,0,12-12v-118a12,12,0,0,0-12-12h-16v-3a6,6,0,0,0-6-6h-13s3-14-10-14-10,14-10,14h-13Z"/>
    <path id="Path_299" data-name="Path 299" class="cls-5" d="M119.994,107.424v-6h-19a12,12,0,0,0-12,12v118a12,12,0,0,0,12,12h90a12,12,0,0,0,12-12v-118a12,12,0,0,0-12-12h-19v5c0,2-3,3-3,3h-46A3.7,3.7,0,0,1,119.994,107.424Zm55-3v2q0,4.163-5.051,5.846l-.462.154H122.994a5.994,5.994,0,0,1-5.683-3.658l-.317-.633v-3.709h-16a9,9,0,0,0-9,9v118a9,9,0,0,0,9,9h90a9,9,0,0,0,9-9v-118a9,9,0,0,0-9-9Z"/>
    <path id="Path_300" data-name="Path 300" class="cls-5" d="M132.937,92.424h-9.944a6,6,0,0,0-6,6v8a6,6,0,0,0,6,6h46a6,6,0,0,0,6-6v-8a6,6,0,0,0-6-6h-13a17.136,17.136,0,0,0,.3-3c.068-4.113-1.179-11-10.3-11s-10.365,6.887-10.3,11a17.2,17.2,0,0,0,.3,3h-3.057Zm-12.943,6a2.651,2.651,0,0,1,3-3h13a3,3,0,0,0,3-3,3,3,0,0,0-.066-.629,12.32,12.32,0,0,1,.1-5.643q1.181-4.728,6.964-4.728t6.965,4.728a12.347,12.347,0,0,1,.1,5.644,3,3,0,0,0,2.933,3.628h13a2.651,2.651,0,0,1,3,3v8a2.651,2.651,0,0,1-3,3h-46a2.651,2.651,0,0,1-3-3v-8Z"/>
    <rect id="Rectangle_172" data-name="Rectangle 172" class="cls-6" width="62" height="4" rx="1.5" transform="translate(127.994 162.424)"/>
    <path id="Path_301" data-name="Path 301" class="cls-5" d="M127.994,136.924a1.5,1.5,0,0,1,1.5-1.5h59a1.5,1.5,0,0,1,1.5,1.5v1a1.5,1.5,0,0,1-1.5,1.5h-59a1.5,1.5,0,0,1-1.5-1.5Z"/>
    <rect id="Rectangle_173" data-name="Rectangle 173" class="cls-6" width="62" height="4" rx="1.5" transform="translate(127.994 188.424)"/>
    <path id="Path_302" data-name="Path 302" class="cls-5" d="M105.087,136.646l.468.5,2.472,2.626,5.253-5.253,2.154-2.153a1.5,1.5,0,0,1,2.121,2.121l-8.5,8.5-.016.016-.017.016a1.5,1.5,0,0,1-2.12-.065l-4-4.25a1.5,1.5,0,0,1,2.185-2.056Zm0,27,.468.5,2.472,2.626,5.253-5.253,2.154-2.153a1.485,1.485,0,0,1,1.06-.44,1.508,1.508,0,0,1,1.061.44,1.5,1.5,0,0,1,0,2.121l-8.5,8.5-.016.016-.017.016a1.5,1.5,0,0,1-2.12-.065l-4-4.25a1.5,1.5,0,0,1,2.185-2.056Zm0,25,.468.5,2.472,2.626,5.253-5.253,2.154-2.153a1.485,1.485,0,0,1,1.06-.44,1.508,1.508,0,0,1,1.061.44,1.5,1.5,0,0,1,0,2.121l-8.5,8.5-.016.016-.017.016a1.5,1.5,0,0,1-2.12-.065l-4-4.25a1.5,1.5,0,0,1,2.185-2.056Z"/>
    <circle id="Ellipse_65" data-name="Ellipse 65" class="cls-8" cx="47.5" cy="47.5" r="47.5" transform="translate(164.994 172.424)"/>
    <path id="Path_305" data-name="Path 305" class="cls-9" d="M41,0A41,41,0,1,1,0,41,41,41,0,0,1,41,0Z" transform="translate(180.994 181.424)"/>
    <path id="Path_303" data-name="Path 303" class="cls-5" d="M254.994,220.424a41,41,0,1,1-41-41,41,41,0,0,1,41,41Zm-14.13,26.87a38,38,0,1,1-53.74-53.74,38,38,0,1,1,53.74,53.74Z"/>
    <path id="Path_304" data-name="Path 304" class="cls-10" d="M210.687,227.576a33.283,33.283,0,0,1,.832-5.563,14.22,14.22,0,0,1,3.145-4.528l4.038-3.995a8.782,8.782,0,0,0,2.589-6.037,6.729,6.729,0,0,0-1.7-4.868,8.063,8.063,0,0,0-4.932-1.761,7.093,7.093,0,0,0-5.056,1.6,6.12,6.12,0,0,0-1.911,4.291s-.631,2.651-3.178,2.651a2.542,2.542,0,0,1-2.525-2.651,9.8,9.8,0,0,1,3.561-7.738,14.024,14.024,0,0,1,9.109-3.551,13.171,13.171,0,0,1,9.078,3.61,10.665,10.665,0,0,1,3.252,8.242q0,5.178-4.994,10.209l-3.36,3.2q-2.25,2.4-2.25,6.9s-.507,3.03-3.032,3.03-2.671-3.03-2.671-3.03Zm-.247,11.771a3.138,3.138,0,0,1,.848-2.234,3.284,3.284,0,0,1,2.512-.9,3.335,3.335,0,0,1,2.528.9,3.107,3.107,0,0,1,.863,2.234,3.006,3.006,0,0,1-.863,2.2,3.4,3.4,0,0,1-2.528.873,3.349,3.349,0,0,1-2.512-.873A3.035,3.035,0,0,1,210.44,239.347Z"/>
  </g>
</svg>
