<svg xmlns="http://www.w3.org/2000/svg" width="304.777" height="263.701" viewBox="0 0 304.777 263.701">
  <defs>
    <style>
      .cls-1 {
        fill: #3f3f46;
      }

      .cls-1, .cls-2, .cls-3, .cls-5 {
        fill-rule: evenodd;
      }

      .cls-2, .cls-7 {
        fill: #006fee;
      }

      .cls-3, .cls-4 {
        fill: #18181b;
      }

      .cls-5 {
        fill: #9353d3;
      }

      .cls-6 {
        fill: #f31260;
      }

      .cls-8 {
        fill: #17c964;
      }
    </style>
  </defs>
  <g id="Payment_Failed" data-name="Payment Failed" transform="translate(-7.144 -43)">
    <path id="Path_306" data-name="Path 306" class="cls-1" d="M233.429,125.195c30.611,37.859,64.782,73.325,61.481,105.295-3.235,31.906-44.072,60.317-83.162,71.061-39.154,10.678-76.561,3.688-114.55-11.2-37.924-14.82-76.432-37.536-86.333-69.895-9.837-32.294,8.93-74.3,36.695-111.509C75.323,71.8,112.083,39.379,143.924,43.327c31.906,3.883,58.893,44.072,89.5,81.868Z"/>
    <path id="Path_307" data-name="Path 307" class="cls-2" d="M212.968,140.82a8,8,0,0,1,10.724-7.088l52.814,19.222a19,19,0,0,1,11.356,24.353l-25.994,71.416a19,19,0,0,1-24.353,11.356l-56.323-20.5a8,8,0,0,1-5.062-9.3l1.681-7.355a8.011,8.011,0,0,0,.111-2.98l-.963-6.36a8,8,0,0,1,2.871-7.412l11.447-9.282a8,8,0,0,0,2.956-6.528l-.651-16.575a8,8,0,0,1,1.959-5.566L201.824,161a8.052,8.052,0,0,1,1.78-1.523l5.142-3.228a8,8,0,0,0,3.734-6.346l.488-9.085Z"/>
    <path id="Path_308" data-name="Path 308" class="cls-3" d="M261.507,159.955l-52.816-19.224a8,8,0,0,0-10.723,7.088l-.488,9.087a8,8,0,0,1-3.734,6.345L188.6,166.48a7.942,7.942,0,0,0-1.78,1.522l-6.284,7.219a7.994,7.994,0,0,0-1.959,5.566l.651,16.576a8,8,0,0,1-2.955,6.527l-11.448,9.282a8,8,0,0,0-2.871,7.411l.963,6.361a7.972,7.972,0,0,1-.111,2.98l-1.681,7.356a8,8,0,0,0,5.062,9.3l56.325,20.5a19,19,0,0,0,24.351-11.355l25.994-71.419a19,19,0,0,0-11.355-24.351ZM203.2,144.078a4.743,4.743,0,0,1,4.466-.527l52.816,19.223a16,16,0,0,1,9.562,20.506L244.048,254.7a16,16,0,0,1-20.506,9.563l-56.324-20.5q-4.147-1.509-3.164-5.811l1.681-7.356a10.91,10.91,0,0,0,.153-4.1l-.963-6.361a4.692,4.692,0,0,1,1.794-4.631l11.448-9.283a10.451,10.451,0,0,0,4.063-8.975l-.651-16.576a4.825,4.825,0,0,1,1.225-3.478l6.283-7.219a5,5,0,0,1,1.113-.952l5.141-3.228a10.423,10.423,0,0,0,5.135-8.726l.487-9.086a4.745,4.745,0,0,1,2.236-3.9Z"/>
    <path id="Path_309" data-name="Path 309" class="cls-4" d="M192.753,222.411l56.382,20.521-1.027,2.82L191.727,225.23Z"/>
    <path id="Path_310" data-name="Path 310" class="cls-5" d="M115.509,85.693a8,8,0,0,0-10.726-7.124L52.433,97.623a19,19,0,0,0-11.355,24.352l25.993,71.417a19,19,0,0,0,24.353,11.356l55.934-20.359a8,8,0,0,0,5.07-9.267l-1.688-7.534a8,8,0,0,1-.058-3.219l1.107-5.925a8,8,0,0,0-2.858-7.709l-11.4-9.142a8,8,0,0,1-2.977-6.768l1.055-15.952a8,8,0,0,0-2.071-5.918l-6.957-7.628a7.987,7.987,0,0,0-1.649-1.38l-5.277-3.323a8,8,0,0,1-3.728-6.376l-.422-8.555Z"/>
    <path id="Path_311" data-name="Path 311" class="cls-3" d="M47.434,112.622,99.785,93.568a8,8,0,0,1,10.726,7.123l.421,8.557a8,8,0,0,0,3.728,6.375l5.278,3.323a8.067,8.067,0,0,1,1.648,1.38l6.957,7.629a7.991,7.991,0,0,1,2.071,5.917l-1.054,15.953a8,8,0,0,0,2.976,6.767l11.4,9.142a8,8,0,0,1,2.858,7.709l-1.107,5.926a7.965,7.965,0,0,0,.057,3.218l1.689,7.535a8,8,0,0,1-5.07,9.266L86.424,219.747a19,19,0,0,1-24.351-11.355L36.08,136.974a19,19,0,0,1,11.355-24.352Zm57.854-15.7a4.745,4.745,0,0,0-4.475-.533L48.461,115.44A16,16,0,0,0,38.9,135.946l25.994,71.419A16,16,0,0,0,85.4,216.927l55.935-20.359q4.13-1.5,3.169-5.791l-1.689-7.535a10.873,10.873,0,0,1-.079-4.426l1.107-5.925a4.673,4.673,0,0,0-1.786-4.818l-11.4-9.142a10.416,10.416,0,0,1-4.093-9.3l1.055-15.953a4.809,4.809,0,0,0-1.294-3.7l-6.957-7.629a4.982,4.982,0,0,0-1.031-.862l-5.278-3.323a10.417,10.417,0,0,1-5.125-8.767l-.422-8.557a4.745,4.745,0,0,0-2.227-3.918Z"/>
    <path id="Path_312" data-name="Path 312" class="cls-3" d="M75.216,150.932a13.5,13.5,0,0,0-9.235-25.372,13.5,13.5,0,0,0,9.235,25.372Zm-1.026-2.819a10.5,10.5,0,1,1,5.925-5.43,10.118,10.118,0,0,1-5.925,5.43Z"/>
    <path id="Path_313" data-name="Path 313" class="cls-4" d="M115.547,174.031,59.165,194.552l1.026,2.82,56.382-20.522Z"/>
    <circle id="Ellipse_66" data-name="Ellipse 66" class="cls-6" cx="3" cy="3" r="3" transform="translate(48.215 236.437)"/>
    <circle id="Ellipse_67" data-name="Ellipse 67" class="cls-7" cx="5" cy="5" r="5" transform="translate(193.215 88.437)"/>
    <circle id="Ellipse_68" data-name="Ellipse 68" class="cls-8" cx="5" cy="5" r="5" transform="translate(161.215 284.437)"/>
    <path id="Path_314" data-name="Path 314" class="cls-3" d="M188.891,58.135v-.014a1.5,1.5,0,0,0-1.322-1.659,83.338,83.338,0,0,0-9.355-.525l-.823,0a1.5,1.5,0,0,0-1.493,1.508v.02a1.5,1.5,0,0,0,1.507,1.472l.809,0a80.392,80.392,0,0,1,9.019.506,1.5,1.5,0,0,0,1.657-1.308Zm-32.73,2.327,0,.006,0,.007a1.5,1.5,0,0,0,1.828,1.057,79.048,79.048,0,0,1,9.635-1.9,1.5,1.5,0,0,0,1.291-1.671v-.014a1.512,1.512,0,0,0-.576-.993,1.488,1.488,0,0,0-1.109-.3,81.984,81.984,0,0,0-10,1.968,1.5,1.5,0,0,0-1.071,1.832Zm39.653-1.122,0,.007v.007a1.5,1.5,0,0,0,.578,1.55,1.461,1.461,0,0,0,.532.246,78.747,78.747,0,0,1,9.386,2.893,1.5,1.5,0,0,0,1.929-.86l0-.007,0-.006a1.5,1.5,0,0,0-.873-1.934,81.858,81.858,0,0,0-9.744-3,1.5,1.5,0,0,0-1.81,1.106Zm-58.045,8.887,0,.006,0,.006a1.5,1.5,0,0,0,2.032.575,79.139,79.139,0,0,1,8.865-4.207,1.5,1.5,0,0,0,.838-1.943l0-.007a1.5,1.5,0,0,0-1.95-.835,82.026,82.026,0,0,0-9.2,4.366,1.5,1.5,0,0,0-.587,2.039Zm76.863-2.177,0,.007,0,.006a1.5,1.5,0,0,0,.633,2.014,79.411,79.411,0,0,1,8.372,5.1,1.5,1.5,0,0,0,2.08-.361l.005-.005,0-.006a1.5,1.5,0,0,0-.373-2.088,82.5,82.5,0,0,0-8.688-5.294,1.5,1.5,0,0,0-2.027.626ZM121.839,80.256l0,0,0,0a1.5,1.5,0,0,0,2.111.063,79.9,79.9,0,0,1,7.568-6.246,1.5,1.5,0,0,0,.34-2.084l0-.006,0-.006a1.5,1.5,0,0,0-2.1-.331,82.747,82.747,0,0,0-7.853,6.48,1.5,1.5,0,0,0-.073,2.12Zm109.378-3.09,0,0-.005,0a1.5,1.5,0,0,0,.123,2.108,79.9,79.9,0,0,1,6.884,7,1.5,1.5,0,0,0,2.106.156l.005,0,.005,0a1.5,1.5,0,0,0,.147-2.117,83,83,0,0,0-7.142-7.257,1.5,1.5,0,0,0-2.119.113ZM109.317,95.8l.006,0,.006,0a1.482,1.482,0,0,0,1.117.2,1.5,1.5,0,0,0,.945-.652,79.589,79.589,0,0,1,5.822-7.9,1.5,1.5,0,0,0-.178-2.1l0,0,0,0a1.5,1.5,0,0,0-1.657-.179,1.471,1.471,0,0,0-.456.367,82.625,82.625,0,0,0-6.041,8.2,1.5,1.5,0,0,0,.446,2.073ZM244.6,92l-.006,0-.005,0a1.5,1.5,0,0,0-.4,2.074,79.417,79.417,0,0,1,4.966,8.453,1.5,1.5,0,0,0,2.01.662l.006,0a1.5,1.5,0,0,0,.659-2.016,82.287,82.287,0,0,0-5.153-8.772A1.5,1.5,0,0,0,244.6,92Zm9.35,17.623-.007,0-.007,0a1.5,1.5,0,0,0-.891,1.914,78.927,78.927,0,0,1,2.746,9.451,1.5,1.5,0,0,0,1.777,1.139l.007,0h.007a1.5,1.5,0,0,0,1.136-1.792,81.979,81.979,0,0,0-2.849-9.81,1.493,1.493,0,0,0-.773-.849,1.505,1.505,0,0,0-1.146-.055Zm5.181,32.449a1.5,1.5,0,0,1-1.447-1.537,81.109,81.109,0,0,0-.345-9.838,1.5,1.5,0,0,1,1.335-1.636h.014a1.5,1.5,0,0,1,1.637,1.349,83.618,83.618,0,0,1,.358,10.2,1.5,1.5,0,0,1-1.538,1.461h-.014Zm-2.3,8.228a79.284,79.284,0,0,1-2.049,9.59,1.5,1.5,0,0,0,1.041,1.848,1.5,1.5,0,0,0,1.849-1.041,82.107,82.107,0,0,0,2.126-9.954,1.493,1.493,0,0,0-.278-1.114,1.5,1.5,0,0,0-.984-.591h-.014a1.5,1.5,0,0,0-1.691,1.264Z"/>
    <rect id="Rectangle_174" data-name="Rectangle 174" class="cls-4" width="18" height="4" rx="2" transform="translate(291.609 160.584) rotate(-25)"/>
    <rect id="Rectangle_175" data-name="Rectangle 175" class="cls-4" width="18" height="4" rx="2" transform="translate(284.923 152.034) rotate(-45)"/>
    <rect id="Rectangle_176" data-name="Rectangle 176" class="cls-4" width="18" height="4" rx="2" transform="translate(293.965 170.675) rotate(4)"/>
    <rect id="Rectangle_177" data-name="Rectangle 177" class="cls-4" width="18" height="4" rx="2" transform="translate(25.761 117.205) rotate(-155)"/>
    <rect id="Rectangle_178" data-name="Rectangle 178" class="cls-4" width="18" height="4" rx="2" transform="translate(31.313 107.863) rotate(-135)"/>
    <rect id="Rectangle_179" data-name="Rectangle 179" class="cls-4" width="18" height="4" rx="2" transform="translate(25.379 127.666) rotate(176)"/>
  </g>
</svg>
