<svg xmlns="http://www.w3.org/2000/svg" width="286.915" height="263.702" viewBox="0 0 286.915 263.702">
  <defs>
    <style>
      .cls-1 {
        fill: #3f3f46;
      }

      .cls-1, .cls-5, .cls-9 {
        fill-rule: evenodd;
      }

      .cls-2 {
        fill: #006fee;
      }

      .cls-3 {
        fill: #f5a524;
      }

      .cls-4 {
        fill: #17c964;
      }

      .cls-5, .cls-6 {
        fill: #18181b;
      }

      .cls-7 {
        fill: #9353d3;
      }

      .cls-8 {
        fill: #27272a;
      }

      .cls-9 {
        fill: #0d0938;
      }
    </style>
  </defs>
  <g id="Restaurant-Not-Found" transform="translate(-13.804 -26.907)">
    <path id="Path_315" data-name="Path 315" class="cls-1" d="M239.016,109.1c30.611,37.86,64.782,73.326,61.481,105.3-3.235,31.906-44.072,60.317-83.162,71.06-39.154,10.679-76.561,3.689-114.55-11.2-37.925-14.82-76.432-37.536-86.334-69.895-9.837-32.294,8.931-74.3,36.695-111.509C80.91,55.71,117.67,23.286,149.511,27.234c31.906,3.883,58.893,44.073,89.5,81.868Z"/>
    <circle id="Ellipse_69" data-name="Ellipse 69" class="cls-2" cx="3" cy="3" r="3" transform="translate(116.799 47.341)"/>
    <circle id="Ellipse_70" data-name="Ellipse 70" class="cls-3" cx="5" cy="5" r="5" transform="translate(74.799 257.341)"/>
    <circle id="Ellipse_71" data-name="Ellipse 71" class="cls-4" cx="5" cy="5" r="5" transform="translate(279.799 156.341)"/>
    <path id="Path_316" data-name="Path 316" class="cls-5" d="M206.647,90.077v-.025a1.5,1.5,0,0,0-1.472-1.529,39.9,39.9,0,0,0-10.275,1.1,1.5,1.5,0,0,0-1.1,1.814l0,.016,0,.015a1.5,1.5,0,0,0,1.806,1.069,36.876,36.876,0,0,1,9.505-1.01,1.5,1.5,0,0,0,1.527-1.446Zm6.962.85,0,.01v.009a1.5,1.5,0,0,0,1.147,1.768,69.324,69.324,0,0,1,9.362,2.8,1.5,1.5,0,0,0,1.927-.874l0-.006a1.5,1.5,0,0,0-.88-1.93,72.247,72.247,0,0,0-9.769-2.924,1.5,1.5,0,0,0-1.787,1.143Zm-26.274,3.162a1.485,1.485,0,0,1,.143,1.1,1.5,1.5,0,0,1-.688.919l-.346.206-.011.006-.01.006a1.5,1.5,0,0,1-2.034-.537,1.5,1.5,0,0,1,.525-2.056l.345-.205a1.5,1.5,0,0,1,2.056.525l.01.017.01.018Zm56.359,9.963,0,.007a1.5,1.5,0,0,1-2.089.339q-1.632-1.171-3.332-2.242-2.55-1.42-5.166-2.717a1.5,1.5,0,0,1-.683-2l.005-.01a1.5,1.5,0,0,1,2.01-.678q2.623,1.3,5.328,2.8l.035.02.034.022q1.794,1.128,3.517,2.363a1.5,1.5,0,0,1,.345,2.093Zm5.38,4.482-.005.006-.006.006a1.5,1.5,0,0,0,.05,2.109,67.357,67.357,0,0,1,6.53,7.278,1.5,1.5,0,0,0,2.092.277l.006,0a1.466,1.466,0,0,0,.39-.447,1.5,1.5,0,0,0-.116-1.663,70.411,70.411,0,0,0-6.82-7.6,1.5,1.5,0,0,0-2.121.039Zm12.548,15.5-.007,0-.007,0a1.5,1.5,0,0,0-.556,2.035,66.76,66.76,0,0,1,4.17,8.848,1.5,1.5,0,0,0,1.923.868l.007,0,.008,0a1.5,1.5,0,0,0,.862-1.938,69.875,69.875,0,0,0-4.356-9.245,1.5,1.5,0,0,0-2.044-.57Zm7.564,18.452-.008,0-.008,0a1.5,1.5,0,0,0-1.12,1.787,66.805,66.805,0,0,1,1.432,9.663,1.5,1.5,0,0,0,1.59,1.386h.017a1.5,1.5,0,0,0,1.384-1.607,69.8,69.8,0,0,0-1.495-10.1,1.5,1.5,0,0,0-1.792-1.136ZM268.1,173.453a1.5,1.5,0,0,0,1.136,1.785h.008a1.5,1.5,0,0,0,1.786-1.143,70.34,70.34,0,0,0,1.455-10.1,1.5,1.5,0,0,0-1.39-1.6h-.016a1.5,1.5,0,0,0-1.586,1.391A67.361,67.361,0,0,1,268.1,173.453Zm-7.063,19.391a1.51,1.51,0,0,0,.7.893l.007,0,.007,0a1.5,1.5,0,0,0,2.041-.578,69.528,69.528,0,0,0,4.317-9.256,1.5,1.5,0,0,0-.869-1.935l-.008,0-.008,0a1.5,1.5,0,0,0-1.919.876,66.782,66.782,0,0,1-4.132,8.858,1.5,1.5,0,0,0-.134,1.14Zm-5.243,7.021a67.426,67.426,0,0,1-6.234,7.033l-.276.27a1.5,1.5,0,0,0,2.089,2.153,70.366,70.366,0,0,0,6.8-7.628,1.5,1.5,0,0,0-.281-2.108l-.007,0a1.5,1.5,0,0,0-2.09.285Z"/>
    <rect id="Rectangle_180" data-name="Rectangle 180" class="cls-6" width="17.89" height="4.051" rx="2" transform="matrix(-0.94, -0.342, 0.342, -0.94, 77.447, 95.098)"/>
    <rect id="Rectangle_181" data-name="Rectangle 181" class="cls-6" width="17.89" height="4.051" rx="2" transform="matrix(-0.358, -0.934, 0.934, -0.358, 91.187, 79.115)"/>
    <rect id="Rectangle_182" data-name="Rectangle 182" class="cls-6" width="17.89" height="4.051" rx="2" transform="translate(82.206 85.561) rotate(-131)"/>
    <path id="Path_321" data-name="Path 321" class="cls-7" d="M73,0A73,73,0,1,1,0,73,73,73,0,0,1,73,0Z" transform="translate(66.799 83.341)"/>
    <path id="Path_317" data-name="Path 317" class="cls-5" d="M222.8,155.341a73,73,0,1,1-73-73A73,73,0,0,1,222.8,155.341Zm-23.5,49.5q-20.5,20.5-49.5,20.5t-49.5-20.5q-20.5-20.5-20.5-49.5t20.5-49.5q20.5-20.5,49.5-20.5t49.5,20.5q20.5,20.5,20.5,49.5T199.3,204.838Z"/>
    <path id="Path_319" data-name="Path 319" class="cls-5" d="M128.388,105.471q-.617.24-1.224.493a53.546,53.546,0,0,0-26.718,74.3q.308.58.63,1.157a1.5,1.5,0,0,1-.577,2.041,1.5,1.5,0,0,1-2.041-.576A56.531,56.531,0,0,1,127.3,102.675a1.5,1.5,0,0,1,1.942.854,1.5,1.5,0,0,1-.36,1.627,1.473,1.473,0,0,1-.493.315Z"/>
    <circle id="Ellipse_73" data-name="Ellipse 73" class="cls-8" cx="38.08" cy="38.08" r="38.08" transform="translate(175.719 170.101)"/>
    <path id="Path_322" data-name="Path 322" class="cls-2" d="M31,0A31,31,0,1,1,0,31,31,31,0,0,1,31,0Z" transform="translate(186.799 180.182)"/>
    <path id="Path_320" data-name="Path 320" class="cls-5" d="M244.8,208.182a31,31,0,1,1-31-31A31,31,0,0,1,244.8,208.182Zm-11.2,19.8a28,28,0,1,1,8.2-19.8A26.979,26.979,0,0,1,233.6,227.981Z"/>
    <path id="Path_332" data-name="Path 332" class="cls-5" d="M83.966,236.223a26.706,26.706,0,0,1,.668-4.464,11.41,11.41,0,0,1,2.524-3.633l3.24-3.206a7.049,7.049,0,0,0,2.078-4.844,5.4,5.4,0,0,0-1.361-3.906,6.468,6.468,0,0,0-3.957-1.413A5.691,5.691,0,0,0,83.1,216.04a4.91,4.91,0,0,0-1.533,3.443,2.764,2.764,0,0,1-2.55,2.127,2.04,2.04,0,0,1-2.026-2.127,7.862,7.862,0,0,1,2.856-6.209,11.258,11.258,0,0,1,7.31-2.849,10.568,10.568,0,0,1,7.284,2.9,8.558,8.558,0,0,1,2.609,6.613q0,4.155-4.007,8.192l-2.7,2.564a7.785,7.785,0,0,0-1.805,5.532s-.407,2.431-2.433,2.431-2.142-2.431-2.142-2.431Zm-.2,9.445a2.52,2.52,0,0,1,.68-1.793,2.638,2.638,0,0,1,2.016-.724,2.677,2.677,0,0,1,2.028.724,2.493,2.493,0,0,1,.692,1.793,2.41,2.41,0,0,1-.692,1.768,2.73,2.73,0,0,1-2.028.7,2.686,2.686,0,0,1-2.016-.7A2.436,2.436,0,0,1,83.769,245.668Z" transform="translate(130.778 -21.099)"/>
    <path id="Path_333" data-name="Path 333" class="cls-9" d="M157.425,175.905H84.9a5.427,5.427,0,0,0-5.427,5.427V197.12a3.454,3.454,0,0,0,3.454,3.454H159.4a3.454,3.454,0,0,0,3.454-3.454V181.332A5.427,5.427,0,0,0,157.425,175.905ZM84.9,174.425a6.907,6.907,0,0,0-6.907,6.907V197.12a4.934,4.934,0,0,0,4.934,4.934H159.4a4.934,4.934,0,0,0,4.934-4.934V181.332a6.907,6.907,0,0,0-6.907-6.907Z" transform="translate(28.637 -23.822)"/>
    <path id="Path_334" data-name="Path 334" class="cls-9" d="M129.021,112.905c-13.151,0-26.131,4.837-31.667,7.2a3.16,3.16,0,0,0-1.883,2.955v19.452h67.593V123.094a3.174,3.174,0,0,0-1.917-2.978C155.484,117.759,142.2,112.905,129.021,112.905Zm-32.247,5.834a4.641,4.641,0,0,0-2.783,4.317v20.932h70.553V123.094a4.654,4.654,0,0,0-2.829-4.344c-5.709-2.376-19.217-7.325-32.695-7.325-13.456,0-26.66,4.934-32.247,7.314Z" transform="translate(20.531 8.095)"/>
    <path id="Path_335" data-name="Path 335" class="cls-9" d="M131.153,152.905H109.938a.987.987,0,0,0-.987.987v8.881H132.14v-8.881A.987.987,0,0,0,131.153,152.905Zm-21.215-1.48a2.467,2.467,0,0,0-2.467,2.467v10.361H133.62V153.892a2.467,2.467,0,0,0-2.467-2.467Zm50.818,1.48H139.541a.987.987,0,0,0-.987.987v8.881h23.189v-8.881A.987.987,0,0,0,160.756,152.905Zm-21.215-1.48a2.467,2.467,0,0,0-2.467,2.467v10.361h26.149V153.892a2.467,2.467,0,0,0-2.467-2.467ZM112.4,190.4h-4.934v1.48a2.467,2.467,0,0,0,4.934,0Zm-6.414-1.48v2.96a3.947,3.947,0,0,0,7.894,0v-2.96ZM165.2,190.4h-4.934v1.48a2.467,2.467,0,0,0,4.934,0Zm-6.414-1.48v2.96a3.947,3.947,0,0,0,7.894,0v-2.96Z" transform="translate(14.452 -12.17)"/>
  </g>
</svg>
