<svg xmlns="http://www.w3.org/2000/svg" width="286.915" height="263.702" viewBox="0 0 286.915 263.702">
  <defs>
    <style>
      .cls-1 {
        fill: #3f3f46;
      }

      .cls-1, .cls-5 {
        fill-rule: evenodd;
      }

      .cls-2 {
        fill: #006fee;
      }

      .cls-3 {
        fill: #f5a524;
      }

      .cls-4 {
        fill: #17c964;
      }

      .cls-5, .cls-6 {
        fill: #18181b;
      }

      .cls-7 {
        fill: #9353d3;
      }

      .cls-8 {
        fill: #27272a;
      }
    </style>
  </defs>
  <g id="Restaurant-Not-Found" transform="translate(-13.804 -26.907)">
    <path id="Path_315" data-name="Path 315" class="cls-1" d="M239.016,109.1c30.611,37.86,64.782,73.326,61.481,105.3-3.235,31.906-44.072,60.317-83.162,71.06-39.154,10.679-76.561,3.689-114.55-11.2-37.925-14.82-76.432-37.536-86.334-69.895-9.837-32.294,8.931-74.3,36.695-111.509C80.91,55.71,117.67,23.286,149.511,27.234c31.906,3.883,58.893,44.073,89.5,81.868Z"/>
    <circle id="Ellipse_69" data-name="Ellipse 69" class="cls-2" cx="3" cy="3" r="3" transform="translate(116.799 47.341)"/>
    <circle id="Ellipse_70" data-name="Ellipse 70" class="cls-3" cx="5" cy="5" r="5" transform="translate(74.799 257.341)"/>
    <circle id="Ellipse_71" data-name="Ellipse 71" class="cls-4" cx="5" cy="5" r="5" transform="translate(279.799 156.341)"/>
    <path id="Path_316" data-name="Path 316" class="cls-5" d="M206.647,90.077v-.025a1.5,1.5,0,0,0-1.472-1.529,39.9,39.9,0,0,0-10.275,1.1,1.5,1.5,0,0,0-1.1,1.814l0,.016,0,.015a1.5,1.5,0,0,0,1.806,1.069,36.876,36.876,0,0,1,9.505-1.01,1.5,1.5,0,0,0,1.527-1.446Zm6.962.85,0,.01v.009a1.5,1.5,0,0,0,1.147,1.768,69.324,69.324,0,0,1,9.362,2.8,1.5,1.5,0,0,0,1.927-.874l0-.006a1.5,1.5,0,0,0-.88-1.93,72.247,72.247,0,0,0-9.769-2.924,1.5,1.5,0,0,0-1.787,1.143Zm-26.274,3.162a1.485,1.485,0,0,1,.143,1.1,1.5,1.5,0,0,1-.688.919l-.346.206-.011.006-.01.006a1.5,1.5,0,0,1-2.034-.537,1.5,1.5,0,0,1,.525-2.056l.345-.205a1.5,1.5,0,0,1,2.056.525l.01.017.01.018Zm56.359,9.963,0,.007a1.5,1.5,0,0,1-2.089.339q-1.632-1.171-3.332-2.242-2.55-1.42-5.166-2.717a1.5,1.5,0,0,1-.683-2l.005-.01a1.5,1.5,0,0,1,2.01-.678q2.623,1.3,5.328,2.8l.035.02.034.022q1.794,1.128,3.517,2.363a1.5,1.5,0,0,1,.345,2.093Zm5.38,4.482-.005.006-.006.006a1.5,1.5,0,0,0,.05,2.109,67.357,67.357,0,0,1,6.53,7.278,1.5,1.5,0,0,0,2.092.277l.006,0a1.466,1.466,0,0,0,.39-.447,1.5,1.5,0,0,0-.116-1.663,70.411,70.411,0,0,0-6.82-7.6,1.5,1.5,0,0,0-2.121.039Zm12.548,15.5-.007,0-.007,0a1.5,1.5,0,0,0-.556,2.035,66.76,66.76,0,0,1,4.17,8.848,1.5,1.5,0,0,0,1.923.868l.007,0,.008,0a1.5,1.5,0,0,0,.862-1.938,69.875,69.875,0,0,0-4.356-9.245,1.5,1.5,0,0,0-2.044-.57Zm7.564,18.452-.008,0-.008,0a1.5,1.5,0,0,0-1.12,1.787,66.805,66.805,0,0,1,1.432,9.663,1.5,1.5,0,0,0,1.59,1.386h.017a1.5,1.5,0,0,0,1.384-1.607,69.8,69.8,0,0,0-1.495-10.1,1.5,1.5,0,0,0-1.792-1.136ZM268.1,173.453a1.5,1.5,0,0,0,1.136,1.785h.008a1.5,1.5,0,0,0,1.786-1.143,70.34,70.34,0,0,0,1.455-10.1,1.5,1.5,0,0,0-1.39-1.6h-.016a1.5,1.5,0,0,0-1.586,1.391A67.361,67.361,0,0,1,268.1,173.453Zm-7.063,19.391a1.51,1.51,0,0,0,.7.893l.007,0,.007,0a1.5,1.5,0,0,0,2.041-.578,69.528,69.528,0,0,0,4.317-9.256,1.5,1.5,0,0,0-.869-1.935l-.008,0-.008,0a1.5,1.5,0,0,0-1.919.876,66.782,66.782,0,0,1-4.132,8.858,1.5,1.5,0,0,0-.134,1.14Zm-5.243,7.021a67.426,67.426,0,0,1-6.234,7.033l-.276.27a1.5,1.5,0,0,0,2.089,2.153,70.366,70.366,0,0,0,6.8-7.628,1.5,1.5,0,0,0-.281-2.108l-.007,0a1.5,1.5,0,0,0-2.09.285Z"/>
    <rect id="Rectangle_180" data-name="Rectangle 180" class="cls-6" width="17.89" height="4.051" rx="2" transform="matrix(-0.94, -0.342, 0.342, -0.94, 77.447, 95.098)"/>
    <rect id="Rectangle_181" data-name="Rectangle 181" class="cls-6" width="17.89" height="4.051" rx="2" transform="matrix(-0.358, -0.934, 0.934, -0.358, 91.187, 79.115)"/>
    <rect id="Rectangle_182" data-name="Rectangle 182" class="cls-6" width="17.89" height="4.051" rx="2" transform="translate(82.206 85.561) rotate(-131)"/>
    <path id="Path_321" data-name="Path 321" class="cls-7" d="M73,0A73,73,0,1,1,0,73,73,73,0,0,1,73,0Z" transform="translate(66.799 83.341)"/>
    <path id="Path_317" data-name="Path 317" class="cls-5" d="M222.8,155.341a73,73,0,1,1-73-73A73,73,0,0,1,222.8,155.341Zm-23.5,49.5q-20.5,20.5-49.5,20.5t-49.5-20.5q-20.5-20.5-20.5-49.5t20.5-49.5q20.5-20.5,49.5-20.5t49.5,20.5q20.5,20.5,20.5,49.5T199.3,204.838Z"/>
    <path id="Path_318" data-name="Path 318" class="cls-5" d="M139.733,147.385a12.937,12.937,0,0,1-5.646,5.474l3.4,36.566a4.5,4.5,0,0,1-4.48,4.916h-4.493a4.5,4.5,0,0,1-4.488-4.812l2.528-36.236a12.2,12.2,0,0,1-6.335-5.325,19.373,19.373,0,0,1-2.921-10.627,18.9,18.9,0,0,1,3.513-11.494q3.67-5.005,8.987-5.006t8.988,5.006a18.9,18.9,0,0,1,3.512,11.494,19.665,19.665,0,0,1-2.566,10.044Zm-10.009,3.582-2.705,38.77a1.5,1.5,0,0,0,1.5,1.6h4.493A1.5,1.5,0,0,0,134.5,189.7l-3.614-38.85L132,150.47a9.624,9.624,0,0,0,5.134-4.589,16.715,16.715,0,0,0,2.162-8.54,15.986,15.986,0,0,0-2.931-9.72q-2.772-3.78-6.569-3.78t-6.568,3.78a15.98,15.98,0,0,0-2.932,9.72,16.45,16.45,0,0,0,2.452,9.018,8.933,8.933,0,0,0,5.689,4.343l1.284.265ZM169.2,123.822l3.541-3.542a1.5,1.5,0,0,1,2.122,0,1.5,1.5,0,0,1,.439,1.061v69q0,3.5-3.5,3.5h-4.7a3.5,3.5,0,0,1-3.492-3.72l1.873-29.577-2.865-8.384a27.5,27.5,0,0,1,6.577-28.338Zm2.121,2.121.981-.981v65.38a.441.441,0,0,1-.5.5h-4.7a.5.5,0,0,1-.5-.531l1.892-29.874a1.517,1.517,0,0,0-.078-.58l-2.962-8.667a24.5,24.5,0,0,1,5.859-25.246Z"/>
    <path id="Path_319" data-name="Path 319" class="cls-5" d="M128.388,105.471q-.617.24-1.224.493a53.546,53.546,0,0,0-26.718,74.3q.308.58.63,1.157a1.5,1.5,0,0,1-.577,2.041,1.5,1.5,0,0,1-2.041-.576A56.531,56.531,0,0,1,127.3,102.675a1.5,1.5,0,0,1,1.942.854,1.5,1.5,0,0,1-.36,1.627,1.473,1.473,0,0,1-.493.315Z"/>
    <circle id="Ellipse_73" data-name="Ellipse 73" class="cls-8" cx="38.08" cy="38.08" r="38.08" transform="translate(175.719 170.101)"/>
    <path id="Path_322" data-name="Path 322" class="cls-2" d="M31,0A31,31,0,1,1,0,31,31,31,0,0,1,31,0Z" transform="translate(186.799 180.182)"/>
    <path id="Path_320" data-name="Path 320" class="cls-5" d="M244.8,208.182a31,31,0,1,1-31-31A31,31,0,0,1,244.8,208.182Zm-11.2,19.8a28,28,0,1,1,8.2-19.8A26.979,26.979,0,0,1,233.6,227.981Z"/>
    <rect id="Rectangle_183" data-name="Rectangle 183" class="cls-6" width="3" height="32" rx="1.5" transform="translate(224.535 195.958) rotate(45)"/>
    <rect id="Rectangle_184" data-name="Rectangle 184" class="cls-6" width="3" height="32" rx="1.5" transform="translate(226.66 218.586) rotate(135)"/>
  </g>
</svg>
