<svg xmlns="http://www.w3.org/2000/svg" width="294.22" height="263.701" viewBox="0 0 294.22 263.701">
  <defs>
    <style>
      .cls-1 {
        fill: #3f3f46;
      }

      .cls-1, .cls-5, .cls-7 {
        fill-rule: evenodd;
      }

      .cls-2 {
        fill: #f5a524;
      }

      .cls-3, .cls-7 {
        fill: #9353d3;
      }

      .cls-4 {
        fill: #006fee;
      }

      .cls-5, .cls-6 {
        fill: #18181b;
      }

      .cls-8 {
        fill: #27272a;
      }
    </style>
  </defs>
  <g id="Server-Error" transform="translate(-14.364 -43)">
    <path id="Path_336" data-name="Path 336" class="cls-1" d="M239.576,125.195c30.611,37.859,64.782,73.325,61.481,105.295-3.235,31.906-44.072,60.317-83.162,71.061-39.154,10.678-76.561,3.688-114.55-11.2-37.925-14.82-76.432-37.536-86.334-69.895-9.837-32.294,8.931-74.3,36.695-111.509C81.47,71.8,118.23,39.379,150.071,43.327c31.906,3.883,58.893,44.072,89.5,81.868Z"/>
    <circle id="Ellipse_74" data-name="Ellipse 74" class="cls-2" cx="3" cy="3" r="3" transform="translate(259.362 145.437)"/>
    <circle id="Ellipse_75" data-name="Ellipse 75" class="cls-3" cx="5" cy="5" r="5" transform="translate(86.362 267.437)"/>
    <circle id="Ellipse_76" data-name="Ellipse 76" class="cls-4" cx="5" cy="5" r="5" transform="translate(117.362 59.437)"/>
    <path id="Path_337" data-name="Path 337" class="cls-5" d="M213.937,88.774a83.077,83.077,0,0,1,10.177-.785,1.488,1.488,0,0,1,1.4.9,1.526,1.526,0,0,1,.123.573v.014a1.5,1.5,0,0,1-1.477,1.508,80.385,80.385,0,0,0-9.809.757,1.5,1.5,0,0,1-1.69-1.265v-.014a1.5,1.5,0,0,1,1.278-1.692Zm18.694,1.014V89.8a1.5,1.5,0,0,0,1.331,1.638,79.844,79.844,0,0,1,9.666,1.648,1.5,1.5,0,0,0,1.8-1.1l0-.007V91.97a1.5,1.5,0,0,0-1.118-1.8,82.919,82.919,0,0,0-10.028-1.71,1.5,1.5,0,0,0-1.652,1.331ZM205.8,91.866a1.5,1.5,0,0,1-1.067,1.822,80.833,80.833,0,0,0-8.959,2.955l-.358.143a1.5,1.5,0,0,1-1.951-.833A1.5,1.5,0,0,1,194.3,94a83.8,83.8,0,0,1,9.663-3.213,1.5,1.5,0,0,1,1.835,1.064l0,.007v.006Zm46.339,2.113,0,.007,0,.006a1.5,1.5,0,0,0,.9,1.912,81.449,81.449,0,0,1,9.047,3.953,1.5,1.5,0,0,0,2.012-.641l0-.006,0-.006a1.5,1.5,0,0,0-.652-2.019,84.443,84.443,0,0,0-9.38-4.1,1.493,1.493,0,0,0-1.619.392,1.474,1.474,0,0,0-.3.5Zm17.983,8.784,0,.006,0,.006a1.5,1.5,0,0,0,.41,2.071,79.862,79.862,0,0,1,7.771,5.984,1.5,1.5,0,0,0,2.107-.133l.01-.01a1.5,1.5,0,0,0-.144-2.117,82.769,82.769,0,0,0-8.063-6.209,1.5,1.5,0,0,0-2.083.4Zm15.271,12.842-.006,0a1.5,1.5,0,0,0-.409,1.61,1.48,1.48,0,0,0,.3.5,80.294,80.294,0,0,1,6.087,7.7,1.494,1.494,0,0,0,1.545.61,1.476,1.476,0,0,0,.531-.228l.006,0,.006,0a1.5,1.5,0,0,0,.374-2.088,83.43,83.43,0,0,0-6.314-7.983,1.5,1.5,0,0,0-2.118-.117Zm11.7,16.168-.006,0-.006,0a1.5,1.5,0,0,0-.612,2.021,80.977,80.977,0,0,1,4.054,8.939,1.5,1.5,0,0,0,1.937.865,1.5,1.5,0,0,0,.865-1.937,83.962,83.962,0,0,0-4.2-9.27,1.5,1.5,0,0,0-2.028-.624Zm9.693,31.372h-.016a1.5,1.5,0,0,1-1.6-1.371l-.144-1.729a80.552,80.552,0,0,0-1.556-7.943,1.5,1.5,0,0,1,1.08-1.814l.007,0h.006a1.5,1.5,0,0,1,1.818,1.093A83.76,83.76,0,0,1,308,159.708l.005.044.148,1.773a1.5,1.5,0,0,1-1.37,1.62Zm-.253,19.962a1.5,1.5,0,0,1-1.347-1.628q.423-4.7.4-9.854a1.49,1.49,0,0,1,.434-1.063,1.507,1.507,0,0,1,1.049-.444h.01a1.5,1.5,0,0,1,1.506,1.493q.025,5.3-.411,10.137a1.5,1.5,0,0,1-1.047,1.3,1.472,1.472,0,0,1-.582.063h-.012Zm-5.625,17.427a1.5,1.5,0,0,0,.819,1.941l.009,0a1.494,1.494,0,0,0,1.158-.012,1.46,1.46,0,0,0,.482-.332,1.482,1.482,0,0,0,.319-.491,62.356,62.356,0,0,0,2.961-9.8,1.5,1.5,0,0,0-1.147-1.785H305.5l-.008,0a1.5,1.5,0,0,0-1.77,1.15,59.266,59.266,0,0,1-2.816,9.333ZM289.74,217.428a1.493,1.493,0,0,0,.376,1.058l.009.011a1.5,1.5,0,0,0,2.129.1,42.96,42.96,0,0,0,6.7-7.849,1.5,1.5,0,0,0-.427-2.087l-.011-.007a1.5,1.5,0,0,0-2.058.43,39.963,39.963,0,0,1-6.233,7.3,1.509,1.509,0,0,0-.484,1.041Z"/>
    <rect id="Rectangle_185" data-name="Rectangle 185" class="cls-6" width="17.89" height="4.051" rx="2" transform="translate(48.546 102.387) rotate(-119)"/>
    <rect id="Rectangle_186" data-name="Rectangle 186" class="cls-6" width="17.89" height="4.051" rx="2" transform="matrix(-0.978, -0.208, 0.208, -0.978, 37.611, 120.451)"/>
    <rect id="Rectangle_187" data-name="Rectangle 187" class="cls-6" width="17.89" height="4.051" rx="2" transform="matrix(-0.848, -0.53, 0.53, -0.848, 41.256, 110.044)"/>
    <path id="Path_338" data-name="Path 338" class="cls-7" d="M56.362,117.437a10,10,0,0,0-10,10v14a10,10,0,0,0,10,10,10,10,0,0,0-10,10v14a10,10,0,0,0,10,10,10,10,0,0,0-10,10v14a10,10,0,0,0,10,10,10,10,0,0,0-10,10v14a10,10,0,0,0,10,10h153a10,10,0,0,0,10-10v-14a10,10,0,0,0-10-10,10,10,0,0,0,10-10v-14a10,10,0,0,0-10-10,10,10,0,0,0,10-10v-14a10,10,0,0,0-10-10,10,10,0,0,0,10-10v-14a10,10,0,0,0-10-10Z"/>
    <path id="Path_339" data-name="Path 339" class="cls-5" d="M67.36,106.937h153a11.5,11.5,0,0,1,11.5,11.5v14a11.5,11.5,0,0,1-11.5,11.5h-153a11.5,11.5,0,0,1-11.5-11.5v-14a11.5,11.5,0,0,1,11.5-11.5Zm0,3a8.5,8.5,0,0,0-8.5,8.5v14a8.5,8.5,0,0,0,8.5,8.5h153a8.5,8.5,0,0,0,8.5-8.5v-14a8.5,8.5,0,0,0-8.5-8.5h-153Z"/>
    <rect id="Rectangle_188" data-name="Rectangle 188" class="cls-6" width="52" height="3" rx="1.5" transform="translate(83.362 124.437)"/>
    <circle id="Ellipse_77" data-name="Ellipse 77" class="cls-6" cx="5" cy="5" r="5" transform="translate(68.362 121.437)"/>
    <path id="Path_340" data-name="Path 340" class="cls-5" d="M67.36,140.937h153a11.5,11.5,0,0,1,11.5,11.5v14a11.5,11.5,0,0,1-11.5,11.5h-153a11.5,11.5,0,0,1-11.5-11.5v-14a11.5,11.5,0,0,1,11.5-11.5Zm0,3a8.5,8.5,0,0,0-8.5,8.5v14a8.5,8.5,0,0,0,8.5,8.5h153a8.5,8.5,0,0,0,8.5-8.5v-14a8.5,8.5,0,0,0-8.5-8.5h-153Z"/>
    <rect id="Rectangle_189" data-name="Rectangle 189" class="cls-6" width="52" height="3" rx="1.5" transform="translate(83.362 158.437)"/>
    <circle id="Ellipse_78" data-name="Ellipse 78" class="cls-6" cx="5" cy="5" r="5" transform="translate(68.362 155.437)"/>
    <path id="Path_341" data-name="Path 341" class="cls-5" d="M67.36,174.937h153a11.5,11.5,0,0,1,11.5,11.5v14a11.5,11.5,0,0,1-11.5,11.5h-153a11.5,11.5,0,0,1-11.5-11.5v-14a11.5,11.5,0,0,1,11.5-11.5Zm0,3a8.5,8.5,0,0,0-8.5,8.5v14a8.5,8.5,0,0,0,8.5,8.5h153a8.5,8.5,0,0,0,8.5-8.5v-14a8.5,8.5,0,0,0-8.5-8.5h-153Z"/>
    <rect id="Rectangle_190" data-name="Rectangle 190" class="cls-6" width="52" height="3" rx="1.5" transform="translate(83.362 192.437)"/>
    <circle id="Ellipse_79" data-name="Ellipse 79" class="cls-6" cx="5" cy="5" r="5" transform="translate(68.362 189.437)"/>
    <path id="Path_342" data-name="Path 342" class="cls-5" d="M67.36,208.937h153a11.5,11.5,0,0,1,11.5,11.5v14a11.5,11.5,0,0,1-11.5,11.5h-153a11.5,11.5,0,0,1-11.5-11.5v-14a11.5,11.5,0,0,1,11.5-11.5Zm0,3a8.5,8.5,0,0,0-8.5,8.5v14a8.5,8.5,0,0,0,8.5,8.5h153a8.5,8.5,0,0,0,8.5-8.5v-14a8.5,8.5,0,0,0-8.5-8.5h-153Z"/>
    <rect id="Rectangle_191" data-name="Rectangle 191" class="cls-6" width="52" height="3" rx="1.5" transform="translate(83.362 226.437)"/>
    <circle id="Ellipse_80" data-name="Ellipse 80" class="cls-6" cx="5" cy="5" r="5" transform="translate(68.362 223.437)"/>
    <path id="Path_346" data-name="Path 346" class="cls-8" d="M63,0A63,63,0,1,1,0,63,63,63,0,0,1,63,0Z" transform="translate(160.362 165.437)"/>
    <path id="Path_345" data-name="Path 345" class="cls-4" d="M49,0A49,49,0,1,1,0,49,49,49,0,0,1,49,0Z" transform="translate(184.362 185.437)"/>
    <path id="Path_343" data-name="Path 343" class="cls-5" d="M223.362,278.937a50.5,50.5,0,0,1-50.5-50.5,50.5,50.5,0,0,1,50.5-50.5,50.5,50.5,0,0,1,50.5,50.5,50.5,50.5,0,0,1-50.5,50.5Zm0-3a47.5,47.5,0,0,0,47.5-47.5,47.5,47.5,0,0,0-47.5-47.5,47.5,47.5,0,0,0-47.5,47.5,47.5,47.5,0,0,0,47.5,47.5Z"/>
    <path id="Path_344" data-name="Path 344" class="cls-5" d="M217.742,218.362l-.019-.019-9.5-9.5a1.556,1.556,0,0,1-.306-.442,1.5,1.5,0,0,1,.749-1.985,16.657,16.657,0,0,1,22.443,21.07l16.741,16.741a6.858,6.858,0,0,1-9.7,9.7l-16.742-16.742a16.656,16.656,0,0,1-21.07-22.443,1.557,1.557,0,0,1,.306-.442,1.5,1.5,0,0,1,2.122,0l9.511,9.511a.9.9,0,0,0,1.425.01l4.03-4.03a.907.907,0,0,0,.005-1.431Zm-15.658,5.7a13.331,13.331,0,0,1,.231-5.969l7.867,7.867q2.817,2.763,5.646-.01l4.052-4.052q2.762-2.818,0-5.636l-.011-.011-.025-.025-7.831-7.831a13.661,13.661,0,0,1,15.961,18.831,1.5,1.5,0,0,0,.306,1.679l17.452,17.452q2.729,2.727,0,5.455a3.857,3.857,0,0,1-5.455,0l-17.453-17.452a1.5,1.5,0,0,0-1.679-.306,13.654,13.654,0,0,1-19.061-9.992Z"/>
  </g>
</svg>
