<svg xmlns="http://www.w3.org/2000/svg" width="286.915" height="263.701" viewBox="0 0 286.915 263.701">
  <defs>
    <style>
      .cls-1 {
        fill: #3f3f46;
      }

      .cls-1, .cls-5 {
        fill-rule: evenodd;
      }

      .cls-2 {
        fill: #006fee;
      }

      .cls-3 {
        fill: #17c964;
      }

      .cls-4 {
        fill: #f5a524;
      }

      .cls-5, .cls-6 {
        fill: #18181b;
      }

      .cls-7 {
        fill: #9353d3;
      }

      .cls-11, .cls-8 {
        fill: none;
        stroke: #18181b;
        stroke-width: 3px;
      }

      .cls-9 {
        fill: #0d0938;
      }

      .cls-10 {
        fill: #27272a;
      }

      .cls-11 {
        stroke-linecap: round;
      }
    </style>
  </defs>
  <g id="Session-Expired" transform="translate(-17 -43)">
    <path id="Path_347" data-name="Path 347" class="cls-1" d="M242.211,125.195c30.612,37.859,64.783,73.325,61.482,105.295-3.236,31.906-44.073,60.317-83.162,71.061-39.154,10.678-76.561,3.688-114.551-11.2-37.924-14.82-76.431-37.536-86.333-69.895-9.837-32.294,8.93-74.3,36.695-111.509C84.106,71.8,120.865,39.379,152.707,43.327c31.9,3.883,58.893,44.072,89.5,81.868Z"/>
    <circle id="Ellipse_81" data-name="Ellipse 81" class="cls-2" cx="3" cy="3" r="3" transform="translate(117.989 70.42)"/>
    <circle id="Ellipse_82" data-name="Ellipse 82" class="cls-3" cx="5" cy="5" r="5" transform="translate(152.989 263.42)"/>
    <circle id="Ellipse_83" data-name="Ellipse 83" class="cls-4" cx="5" cy="5" r="5" transform="translate(289.989 214.42)"/>
    <path id="Path_348" data-name="Path 348" class="cls-5" d="M96.317,94.1a60.285,60.285,0,0,1,9.343,0,1.5,1.5,0,1,1-.232,2.992,57.3,57.3,0,0,0-8.878,0,1.5,1.5,0,1,1-.233-2.991ZM88.9,96.661a1.5,1.5,0,0,1-1.11,1.808,56.046,56.046,0,0,0-8.43,2.738,1.5,1.5,0,0,1-1.15-2.772,59.05,59.05,0,0,1,8.882-2.884,1.5,1.5,0,0,1,1.808,1.11Zm24.174,0a1.5,1.5,0,0,1,1.807-1.11,59.032,59.032,0,0,1,8.882,2.884,1.5,1.5,0,1,1-1.149,2.772,56.024,56.024,0,0,0-8.431-2.738,1.5,1.5,0,0,1-1.109-1.808Zm-41.117,6.513a1.5,1.5,0,0,1-.494,2.064,56.625,56.625,0,0,0-7.17,5.217,1.5,1.5,0,1,1-1.95-2.28,59.72,59.72,0,0,1,7.55-5.494,1.5,1.5,0,0,1,2.064.493Zm58.06,0a1.5,1.5,0,0,1,2.063-.493,59.741,59.741,0,0,1,7.55,5.494,1.5,1.5,0,0,1-1.95,2.28,56.519,56.519,0,0,0-7.17-5.217,1.5,1.5,0,0,1-.493-2.064Zm-72.16,11.437a1.5,1.5,0,0,1,.165,2.115,56.719,56.719,0,0,0-5.218,7.17,1.5,1.5,0,0,1-2.556-1.569,59.638,59.638,0,0,1,5.494-7.55,1.5,1.5,0,0,1,2.115-.166Zm86.26,0a1.5,1.5,0,0,1,2.115.166,59.668,59.668,0,0,1,5.494,7.55,1.5,1.5,0,1,1-2.557,1.569,56.669,56.669,0,0,0-5.218-7.17A1.5,1.5,0,0,1,144.119,114.611ZM47.964,129.833a1.5,1.5,0,0,1,.811,1.96,56.073,56.073,0,0,0-2.737,8.43,1.5,1.5,0,0,1-2.918-.7A59.043,59.043,0,0,1,46,130.644a1.5,1.5,0,0,1,1.96-.811Zm106.049,0a1.5,1.5,0,0,1,1.96.811,59.054,59.054,0,0,1,2.884,8.881,1.5,1.5,0,1,1-2.917.7,56.086,56.086,0,0,0-2.738-8.43,1.5,1.5,0,0,1,.811-1.96ZM43.281,147.369a1.5,1.5,0,0,1,1.38,1.612,57.285,57.285,0,0,0,0,8.878,1.5,1.5,0,0,1-2.992.232,60.313,60.313,0,0,1,0-9.342A1.5,1.5,0,0,1,43.281,147.369Zm115.415,0a1.5,1.5,0,0,1,1.612,1.38,60.161,60.161,0,0,1,0,9.342,1.5,1.5,0,1,1-2.991-.232,57.2,57.2,0,0,0,0-8.878,1.5,1.5,0,0,1,1.379-1.612ZM44.23,165.507a1.5,1.5,0,0,1,1.808,1.11,56.074,56.074,0,0,0,2.737,8.43A1.5,1.5,0,1,1,46,176.2a59.044,59.044,0,0,1-2.885-8.881A1.5,1.5,0,0,1,44.23,165.507Zm113.517,0a1.5,1.5,0,0,1,1.11,1.808,59.054,59.054,0,0,1-2.884,8.881,1.5,1.5,0,1,1-2.771-1.149,56.084,56.084,0,0,0,2.738-8.43,1.5,1.5,0,0,1,1.807-1.11Zm-107,16.943a1.5,1.5,0,0,1,2.063.493,56.656,56.656,0,0,0,5.218,7.171,1.5,1.5,0,0,1-2.28,1.949,59.637,59.637,0,0,1-5.494-7.55A1.5,1.5,0,0,1,50.743,182.45Zm100.491,0a1.5,1.5,0,0,1,.494,2.063,59.667,59.667,0,0,1-5.494,7.55,1.5,1.5,0,1,1-2.281-1.949,56.61,56.61,0,0,0,5.218-7.171,1.5,1.5,0,0,1,2.063-.493ZM62.18,196.55a1.5,1.5,0,0,1,2.115-.166,56.537,56.537,0,0,0,7.17,5.218,1.5,1.5,0,0,1-1.57,2.557,59.722,59.722,0,0,1-7.55-5.494,1.5,1.5,0,0,1-.165-2.115Zm77.617,0a1.5,1.5,0,0,1-.165,2.115,59.738,59.738,0,0,1-7.55,5.494,1.5,1.5,0,1,1-1.57-2.557,56.429,56.429,0,0,0,7.17-5.218,1.5,1.5,0,0,1,2.115.166Zm-62.4,9.894a1.5,1.5,0,0,1,1.96-.811,56.076,56.076,0,0,0,8.43,2.738,1.5,1.5,0,1,1-.7,2.917,58.948,58.948,0,0,1-8.881-2.884,1.5,1.5,0,0,1-.811-1.96Zm47.174,0a1.5,1.5,0,0,1-.811,1.96,58.914,58.914,0,0,1-8.882,2.884,1.5,1.5,0,1,1-.7-2.917,56.059,56.059,0,0,0,8.431-2.738,1.5,1.5,0,0,1,1.96.811Zm-29.638,4.683a1.5,1.5,0,0,1,1.612-1.379,57.191,57.191,0,0,0,8.878,0,1.5,1.5,0,0,1,.232,2.991,60.181,60.181,0,0,1-9.343,0,1.5,1.5,0,0,1-1.379-1.612Z"/>
    <rect id="Rectangle_192" data-name="Rectangle 192" class="cls-6" width="17.89" height="4.051" rx="2" transform="matrix(0.766, -0.643, 0.643, 0.766, 249.17, 111.255)"/>
    <rect id="Rectangle_193" data-name="Rectangle 193" class="cls-6" width="17.89" height="4.051" rx="2" transform="translate(240.4 104.568) rotate(-60)"/>
    <rect id="Rectangle_194" data-name="Rectangle 194" class="cls-6" width="17.89" height="4.051" rx="2" transform="translate(254.204 120.554) rotate(-11)"/>
    <rect id="Rectangle_195" data-name="Rectangle 195" class="cls-7" width="149" height="105" rx="10" transform="translate(97.989 115.42)"/>
    <rect id="Rectangle_196" data-name="Rectangle 196" class="cls-8" width="146" height="102" rx="8.5" transform="translate(90.489 125.92)"/>
    <circle id="Ellipse_84" data-name="Ellipse 84" class="cls-6" cx="2" cy="2" r="2" transform="translate(99.989 133.42)"/>
    <circle id="Ellipse_85" data-name="Ellipse 85" class="cls-6" cx="2" cy="2" r="2" transform="translate(109.989 133.42)"/>
    <circle id="Ellipse_86" data-name="Ellipse 86" class="cls-6" cx="2" cy="2" r="2" transform="translate(119.989 133.42)"/>
    <path id="Path_349" data-name="Path 349" class="cls-8" d="M148.489,162.124a1.5,1.5,0,0,1,2.132-1.36l40.29,18.739a1.5,1.5,0,0,1,.074,2.683L150.7,203.736a1.5,1.5,0,0,1-2.207-1.323V162.124Z"/>
    <rect id="Rectangle_197" data-name="Rectangle 197" class="cls-9" width="77" height="3" rx="1.5" transform="translate(140.989 134.42)"/>
    <path id="Path_352" data-name="Path 352" class="cls-10" d="M37,0A37,37,0,1,1,0,37,37,37,0,0,1,37,0Z" transform="translate(56.989 190.42)"/>
    <rect id="Rectangle_198" data-name="Rectangle 198" class="cls-6" width="22" height="3" rx="1.5" transform="translate(79.989 196.42)"/>
    <path id="Path_350" data-name="Path 350" class="cls-6" d="M89.989,198.42h3v6h-3Z"/>
    <circle id="Ellipse_88" data-name="Ellipse 88" class="cls-2" cx="27" cy="27" r="27" transform="translate(58.989 205.42)"/>
    <rect id="Rectangle_199" data-name="Rectangle 199" class="cls-6" width="3" height="29" rx="1.5" transform="translate(100.648 218.574) rotate(45)"/>
    <rect id="Rectangle_200" data-name="Rectangle 200" class="cls-6" width="3" height="29" rx="1.5" transform="translate(80.143 220.694) rotate(-45)"/>
    <rect id="Rectangle_201" data-name="Rectangle 201" class="cls-6" width="23" height="3" rx="1.5" transform="translate(49.989 220.42)"/>
    <rect id="Rectangle_202" data-name="Rectangle 202" class="cls-6" width="18" height="3" rx="1.5" transform="translate(54.989 229.42)"/>
    <path id="Path_351" data-name="Path 351" class="cls-11" d="M67.488,240.359a26,26,0,1,0,3.447-27.376"/>
  </g>
</svg>
