<svg xmlns="http://www.w3.org/2000/svg" width="286" height="263.001" viewBox="0 0 286 263.001">
  <defs>
    <style>
      .cls-1 {
        fill: #3f3f46;
      }

      .cls-1, .cls-5 {
        fill-rule: evenodd;
      }

      .cls-2 {
        fill: #006fee;
      }

      .cls-3 {
        fill: #f31260;
      }

      .cls-4 {
        fill: #17c964;
      }

      .cls-5, .cls-6 {
        fill: #18181b;
      }

      .cls-7 {
        fill: #9353d3;
      }

      .cls-8 {
        fill: #27272a;
      }
    </style>
  </defs>
  <g id="Zero-Account-Balance" transform="translate(-17 -43.999)">
    <path id="Path_353" data-name="Path 353" class="cls-1" d="M241.493,125.976c30.514,37.759,64.576,73.13,61.286,105.016-3.226,31.821-43.932,60.156-82.9,70.871-39.03,10.65-76.317,3.679-114.185-11.167-37.8-14.781-76.188-37.436-86.059-69.709-9.805-32.208,8.9-74.1,36.578-111.212,27.676-37.05,64.318-69.387,96.058-65.45,31.8,3.873,58.705,43.956,89.219,81.651Z"/>
    <circle id="Ellipse_89" data-name="Ellipse 89" class="cls-2" cx="3" cy="3" r="3" transform="translate(200.996 287)"/>
    <circle id="Ellipse_90" data-name="Ellipse 90" class="cls-3" cx="5" cy="5" r="5" transform="translate(109.996 84)"/>
    <circle id="Ellipse_91" data-name="Ellipse 91" class="cls-4" cx="5" cy="5" r="5" transform="translate(206.996 108)"/>
    <path id="Path_354" data-name="Path 354" class="cls-5" d="M40.833,205.526a33.436,33.436,0,0,1,4.668-6.092,1.5,1.5,0,0,1,2.121-.037,1.5,1.5,0,0,1,.06,2.1l-.011.012-.012.012a30.447,30.447,0,0,0-4.25,5.547,1.5,1.5,0,0,1-2.027.536l-.015-.009-.016-.009a1.5,1.5,0,0,1-.518-2.057ZM37.01,226.888h.02a1.5,1.5,0,0,0,1.52-1.46,43.617,43.617,0,0,1,1.251-9.539,1.5,1.5,0,0,0-1.059-1.815l-.014,0-.014,0a1.5,1.5,0,0,0-1.822,1.087,46.632,46.632,0,0,0-1.342,10.2,1.5,1.5,0,0,0,1.46,1.539Zm1.515,7.3a1.5,1.5,0,0,0-1.094-.3h-.014a1.5,1.5,0,0,0-1.295,1.681A93.061,93.061,0,0,0,38,245.512a1.5,1.5,0,0,0,1.812,1.1l.01,0a1.5,1.5,0,0,0,1.093-1.809,90.174,90.174,0,0,1-1.818-9.618,1.488,1.488,0,0,0-.572-1Zm5.466,19.932a1.5,1.5,0,0,0-1.978-.767,1.5,1.5,0,0,0-.767,1.978,65.408,65.408,0,0,0,4.85,9.005,1.5,1.5,0,0,0,2.072.449l.008-.005.007-.005a1.5,1.5,0,0,0,.434-2.063,62.426,62.426,0,0,1-4.626-8.592Zm10.535,16.361a1.5,1.5,0,0,0-2.105-.133l-.007.006-.006.006a1.5,1.5,0,0,0-.121,2.118,65.159,65.159,0,0,0,7.383,7.074,1.5,1.5,0,0,0,2.111-.211l.006-.007.005-.007a1.5,1.5,0,0,0-.222-2.1,62.152,62.152,0,0,1-7.044-6.749Zm70.724,17.4a1.5,1.5,0,0,1,.77-1.963,62.191,62.191,0,0,0,8.592-4.643,1.5,1.5,0,0,1,1.666.026,1.484,1.484,0,0,1,.408.42,1.5,1.5,0,0,1-.446,2.074,65.422,65.422,0,0,1-9,4.866,1.5,1.5,0,0,1-1.979-.764l0-.008,0-.008Zm-56.805-5.251a1.509,1.509,0,0,0-.9.68l0,.008,0,.008a1.5,1.5,0,0,0,.541,2.051,64.549,64.549,0,0,0,9.218,4.434,1.5,1.5,0,0,0,1.941-.857.019.019,0,0,1,0-.008l0-.009a1.5,1.5,0,0,0-.864-1.923,61.715,61.715,0,0,1-8.791-4.229A1.494,1.494,0,0,0,68.445,282.637Zm38.782,8.283a1.5,1.5,0,0,0-1.34,1.636v.009a1.5,1.5,0,0,0,1.645,1.34,64.624,64.624,0,0,0,10.057-1.84,1.5,1.5,0,0,0,1.064-1.835l0-.008,0-.009a1.5,1.5,0,0,0-1.83-1.047,61.683,61.683,0,0,1-9.591,1.754Zm-19.5-1.1a1.5,1.5,0,0,0-1.779,1.133l0,.008a1.5,1.5,0,0,0,1.147,1.792,65.557,65.557,0,0,0,10.211,1.384,1.5,1.5,0,0,0,1.582-1.413v-.018a1.5,1.5,0,0,0-1.414-1.564A62.669,62.669,0,0,1,87.73,289.82Z"/>
    <rect id="Rectangle_203" data-name="Rectangle 203" class="cls-6" width="17.89" height="4.051" rx="2" transform="translate(135.654 121.117) rotate(-79)"/>
    <rect id="Rectangle_204" data-name="Rectangle 204" class="cls-6" width="17.89" height="4.051" rx="2" transform="translate(153.581 132.183) rotate(-30)"/>
    <rect id="Rectangle_205" data-name="Rectangle 205" class="cls-6" width="17.89" height="4.051" rx="2" transform="matrix(0.643, -0.766, 0.766, 0.643, 145.822, 124.313)"/>
    <path id="Path_361" data-name="Path 361" class="cls-7" d="M11,0H155a11,11,0,0,1,11,11v94a11,11,0,0,1-11,11H11A11,11,0,0,1,0,105V11A11,11,0,0,1,11,0Z" transform="translate(97.996 154)"/>
    <path id="Path_355" data-name="Path 355" class="cls-5" d="M245,145H101a11,11,0,0,0-11,11v94a11,11,0,0,0,11,11H245a11,11,0,0,0,11-11V156a11,11,0,0,0-11-11ZM95.339,150.343A7.706,7.706,0,0,1,100.995,148H245a8,8,0,0,1,8,8v94a8,8,0,0,1-8,8H101a8,8,0,0,1-8-8V156a7.706,7.706,0,0,1,2.343-5.656Z"/>
    <path id="Path_356" data-name="Path 356" class="cls-5" d="M253,183h-42a21,21,0,0,0-21,21v0a21,21,0,0,0,21,21h45V183h-3Zm0,3h-42a18,18,0,0,0-18,18v0a18,18,0,0,0,18,18h42V186Z"/>
    <path id="Path_357" data-name="Path 357" class="cls-5" d="M212,216.5a12.5,12.5,0,1,1,8.839-3.661A12.043,12.043,0,0,1,212,216.5Zm0-3a9.5,9.5,0,1,0-6.717-2.782A9.155,9.155,0,0,0,212,213.5Z"/>
    <rect id="Rectangle_207" data-name="Rectangle 207" class="cls-6" width="101" height="3" rx="1.5" transform="translate(154.996 240)"/>
    <path id="Path_360" data-name="Path 360" class="cls-8" d="M48,0A48,48,0,1,1,0,48,48,48,0,0,1,48,0Z" transform="translate(42.996 113)"/>
    <circle id="Ellipse_93" data-name="Ellipse 93" class="cls-2" cx="40" cy="40" r="40" transform="translate(44.996 125)"/>
    <path id="Path_358" data-name="Path 358" class="cls-5" d="M132,162a40,40,0,1,1-40-40A40,40,0,0,1,132,162Zm-13.837,26.163A35.65,35.65,0,0,1,92,199a37,37,0,0,1-37-37,37,37,0,0,1,37-37,37,37,0,0,1,37,37A35.65,35.65,0,0,1,118.159,188.163Z"/>
    <path id="Path_359" data-name="Path 359" class="cls-5" d="M100.9,164.354a34.4,34.4,0,0,1-.793,7.788,18.156,18.156,0,0,1-2.295,5.725,10.331,10.331,0,0,1-3.686,3.54,10.1,10.1,0,0,1-4.969,1.208,9.428,9.428,0,0,1-4.7-1.159,9.861,9.861,0,0,1-3.478-3.382,17.156,17.156,0,0,1-2.149-5.456,33.766,33.766,0,0,1-.732-7.41,38.162,38.162,0,0,1,.769-8.1,18.509,18.509,0,0,1,2.258-5.9,10.048,10.048,0,0,1,3.7-3.589,10.38,10.38,0,0,1,5.066-1.209q11.01,0,11.01,17.945Zm-4.1.39q0-14.941-7.105-14.941-7.494,0-7.5,15.21,0,14.184,7.349,14.184,7.251,0,7.25-14.453Zm12.715-6.32v2.119H108.5V158.5a6.128,6.128,0,0,1-3.379-.84v-1.7a4.591,4.591,0,0,0,1.548.835,5.677,5.677,0,0,0,1.831.337v-5a7.669,7.669,0,0,1-2.783-1.909,3.621,3.621,0,0,1,.332-4.512,4,4,0,0,1,2.451-1.235v-1.758h1.016v1.718a5.419,5.419,0,0,1,2.646.547v1.66a4.44,4.44,0,0,0-2.646-.839v5.156a8.3,8.3,0,0,1,2.778,1.87,3.136,3.136,0,0,1,.747,2.056,3.181,3.181,0,0,1-.933,2.329,4.531,4.531,0,0,1-2.592,1.206Zm-1.016-8.008v-4.551a2.224,2.224,0,0,0-1.3.728,2.027,2.027,0,0,0-.478,1.362,2.285,2.285,0,0,0,.39,1.377A4.224,4.224,0,0,0,108.5,150.416Zm1.016,2.227v4.414q1.884-.411,1.884-2.032Q111.4,153.678,109.512,152.643Z"/>
  </g>
</svg>
